<svg width="1960" height="520" viewBox="0 0 1960 520" fill="none" xmlns="http://www.w3.org/2000/svg">
<path d="M1593 203.802C1581.26 208.665 1568.49 212.501 1555.28 215.042C1567.78 256.766 1589.57 296.233 1617.77 329.498C1629.98 343.905 1643.39 357.147 1657.76 368.91C1730.52 428.454 1834.37 459.512 1923.7 420.583C1936.39 415.053 1948.51 408.342 1960 400.635L1960 0L1672.26 -2.51552e-05C1676.97 7.03447 1680.99 14.5275 1684.19 22.4488C1716.18 101.572 1667.02 173.138 1593 203.802Z" fill="#FFE5B2"/>
<path d="M1414.65 169.124C1444.6 215.063 1503.34 225.047 1555.28 215.043C1568.49 212.502 1581.26 208.666 1593 203.803C1667.02 173.139 1716.18 101.573 1684.19 22.4498C1680.99 14.5285 1676.97 7.03547 1672.26 0.00097465L1417.33 0.000952364C1387.17 51.0412 1383.11 120.734 1414.65 169.124Z" fill="url(#paint0_linear_63_4001)"/>
<path d="M1377.57 146.48C1394.9 192.598 1435.86 229.475 1485.06 237.271C1515.08 242.034 1546.01 237.152 1574.26 226.436C1577.23 225.31 1575.94 220.492 1572.94 221.633C1548.47 230.914 1522.12 235.822 1495.93 233.615C1470.92 231.507 1447.15 222.186 1427.47 206.607C1409.3 192.224 1394.72 173.402 1385.28 152.249C1374.41 127.867 1371.68 100.79 1375.64 74.5004C1379.56 48.5244 1388.96 23.8288 1399.85 -1.53944e-05L1394.4 -1.58709e-05C1384.91 20.9692 1376.64 42.5808 1372.22 65.1891C1366.93 92.3059 1367.79 120.449 1377.57 146.48Z" fill="#FFE5B2"/>
<defs>
<linearGradient id="paint0_linear_63_4001" x1="1543.46" y1="0.00096339" x2="1543.46" y2="218.579" gradientUnits="userSpaceOnUse">
<stop stop-color="#FF7167"/>
<stop offset="1" stop-color="#FF9934"/>
</linearGradient>
</defs>
</svg>
