<svg width="1920" height="600" viewBox="0 0 1920 600" fill="none" xmlns="http://www.w3.org/2000/svg">
<g clip-path="url(#clip0_55_3713)">
<path d="M1393.33 589.976C1593.96 577.576 1828.48 518.143 1920.65 469.976L1920.65 -98.0237L0.654965 -98.0239L0.654908 592.476C106.024 504.976 407.827 462.976 633.344 531.476C858.862 599.976 1142.55 605.476 1393.33 589.976Z" fill="#FFECC7"/>
<path d="M527.975 -596.697C327.346 -584.297 92.8326 -524.864 0.654789 -476.697L0.654785 91.303H1920.65V-599.197C1815.29 -511.697 1513.48 -469.697 1287.97 -538.197C1062.45 -606.697 778.763 -612.197 527.975 -596.697Z" fill="#FFECC7"/>
<path d="M527.975 -596.564C778.762 -612.064 1062.45 -571.564 1287.97 -503.064C1513.48 -434.564 1815.29 -461.564 1920.65 -549.064V469.497C1828.48 517.664 1593.96 577.097 1393.33 589.497C1142.55 604.997 858.862 564.497 633.344 495.997C407.827 427.497 106.024 454.497 0.654785 541.997V-476.564C92.8326 -524.731 327.345 -584.164 527.975 -596.564Z" fill="#FFF8EA"/>
<path fill-rule="evenodd" clip-rule="evenodd" d="M1742.14 588.53C1661.83 586.47 1585.33 552.277 1553.23 476.748C1512.82 381.64 1498.08 262.985 1575.49 196.372C1660.26 123.427 1783.96 135.737 1876.06 198.963C1970.53 263.816 2038.37 378.441 2000.62 488.226C1966.77 586.696 1844.02 591.144 1742.14 588.53Z" fill="#FFD37D" fill-opacity="0.32"/>
</g>
<defs>
<clipPath id="clip0_55_3713">
<rect width="1920" height="600" fill="white"/>
</clipPath>
</defs>
</svg>
