<svg width="1920" height="600" viewBox="0 0 1920 600" fill="none" xmlns="http://www.w3.org/2000/svg">
<g clip-path="url(#clip0_55_3698)">
<path d="M1393.33 1272.98C1593.96 1260.58 1828.48 1201.14 1920.65 1152.98L1920.65 584.976L0.654965 584.976L0.654908 1275.48C106.024 1187.98 407.827 1145.98 633.344 1214.48C858.862 1282.98 1142.55 1288.48 1393.33 1272.98Z" fill="#FFECC7"/>
<path d="M527.975 86.303C327.346 98.703 92.8327 158.136 0.654911 206.303L0.654907 774.303H1920.65V83.803C1815.29 171.303 1513.48 213.303 1287.97 144.803C1062.45 76.303 778.763 70.803 527.975 86.303Z" fill="#FFECC7"/>
<path d="M527.975 86.4356C778.762 70.9356 1062.45 111.436 1287.97 179.936C1513.48 248.436 1815.29 221.436 1920.65 133.936V1152.5C1828.48 1200.66 1593.96 1260.1 1393.33 1272.5C1142.55 1288 858.862 1247.5 633.344 1179C407.827 1110.5 106.024 1137.5 0.654785 1225V206.436C92.8326 158.269 327.345 98.8357 527.975 86.4356Z" fill="#FFF8EA"/>
<path fill-rule="evenodd" clip-rule="evenodd" d="M127.087 581.389C232.006 578.697 331.948 534.027 373.879 435.351C426.679 311.097 445.936 156.081 344.799 69.0542C234.049 -26.2446 72.446 -10.1617 -47.8752 72.439C-171.293 157.166 -259.922 306.918 -210.615 450.347C-166.39 578.993 -6.01529 584.804 127.087 581.389Z" fill="#FFD37D" fill-opacity="0.32"/>
</g>
<defs>
<clipPath id="clip0_55_3698">
<rect width="1920" height="600" fill="white"/>
</clipPath>
</defs>
</svg>
