<svg width="122" height="125" viewBox="0 0 122 125" fill="none" xmlns="http://www.w3.org/2000/svg">
<path d="M32.017 80.3265C35.2546 80.3265 39.1961 79.2369 39.214 83.4249C39.2333 87.9369 34.4471 86.6417 31.0923 86.6377C28.7351 86.6521 24.0728 87.4817 23.9725 83.9905C23.826 78.8993 27.9841 80.3169 32.017 80.3265Z" fill="#F8B01E"/>
<path d="M21.4552 69.9919L33.9857 69.9879C37.0205 69.9887 42.8331 68.8207 43.0723 73.0255C43.2043 75.3327 43.5155 78.5727 40.4015 78.6359L27.5476 78.6303C24.6596 78.6319 19.0303 79.7767 18.5077 75.7975C18.1869 73.3543 18.5213 70.3543 21.4552 69.9919Z" fill="#F8B01E"/>
<path d="M81.9152 25.1386C91.533 24.4476 100.293 29.6282 103.824 38.7569C104.589 40.734 105.969 45.0039 105.061 46.9187C104.371 48.3747 102.639 49.0355 101.196 48.2626C99.1168 47.1491 99.3231 43.4048 98.5245 40.9474C95.1502 32.8754 86.2261 28.7549 77.8605 31.8303C76.4179 32.3604 74.8882 33.4526 73.3602 33.6153C71.0594 33.8617 69.2255 30.7266 70.7677 28.9292C72.6345 26.7555 78.8051 25.2925 81.9152 25.1386Z" fill="#F8B01E"/>
<mask id="mask0_37_10315" style="mask-type:luminance" maskUnits="userSpaceOnUse" x="0" y="1" width="61" height="62">
<path d="M30.9141 45.924C27.1731 47.2184 28.0188 52.1288 32.0161 51.7488C35.8046 50.7344 34.7258 45.7816 30.9141 45.924ZM29.8449 12.584C24.6689 12.964 20.8343 15.2024 17.4917 19.1C15.1377 21.844 14.9029 26.1744 18.8912 25.6192C21.0916 25.3128 21.8403 22.8552 23.286 21.5024C27.0662 17.9656 32.7681 17.3856 37.0331 20.4568C42.9517 24.7176 34.7457 27.616 32.0161 31.4704L31.9261 31.5584C30.0694 33.3864 26.7039 39.8152 29.1251 42.2424C30.2796 43.4 32.3428 43.3336 33.4495 42.1488C34.7128 40.796 34.3596 38.2776 35.4954 36.544C38.4768 31.9928 45.4661 30.2448 45.0397 23.1528C44.6125 16.0464 36.2949 12.1712 29.9933 12.5728L29.8449 12.584ZM29.8449 1.22325L30.0963 1.21125C46.3157 0.556046 60.1348 14.2856 60.6781 30.2696C61.2605 47.416 48.0516 61.556 30.9141 62.1224C23.1472 62.5992 15.0772 58.9776 9.48013 53.752C-10.2151 35.3624 2.91318 2.07125 29.8449 1.22325Z" fill="white"/>
</mask>
<g mask="url(#mask0_37_10315)">
<path d="M30.9141 45.9239C27.1732 47.2186 28.0188 52.1286 32.0162 51.7491C35.8047 50.7341 34.7258 45.7816 30.9141 45.9239ZM29.845 12.584C24.669 12.9635 20.8344 15.203 17.4918 19.1C15.1377 21.8435 14.9029 26.1743 18.8912 25.6189C21.0916 25.3125 21.8403 22.8556 23.286 21.5026C27.0662 17.9654 32.7681 17.3862 37.0331 20.4569C42.9517 24.7176 34.7458 27.6163 32.0162 31.4708L31.9262 31.5577C30.0694 33.3871 26.7039 39.8151 29.1251 42.2425C30.2797 43.3998 32.3429 43.3336 33.4495 42.1486C34.713 40.7965 34.3596 38.2773 35.4955 36.5438C38.4768 31.9926 45.4661 30.2443 45.0397 23.1521C44.6125 16.046 36.295 12.1708 29.9933 12.5731L29.845 12.584ZM29.845 1.22323L30.0963 1.21137C46.3157 0.55611 60.1354 14.2859 60.678 30.27C61.2601 47.4163 48.0517 61.5562 30.9141 62.1225C23.1472 62.5989 15.0772 58.9777 9.48016 53.7514C-10.2151 35.3628 2.91317 2.07121 29.845 1.22323Z" fill="url(#paint0_linear_37_10315)"/>
</g>
<path d="M89.577 104.55C85.986 105.51 86.62 110.554 90.3226 110.04C93.9976 109.522 93.3902 104.097 89.577 104.55ZM88.6121 67.5002C76.9295 69.2946 72.9997 83.6089 81.8182 90.1001C83.4952 91.3345 85.1801 92.0121 87.1435 92.6433C87.2314 94.0017 87.1277 95.3665 87.1435 96.728H91.4791H92.7176V92.6433C108.951 89.129 104.088 65.605 88.6121 67.5002ZM77.5764 54.446L109.211 54.4411C116.77 54.442 121.954 56.5358 121.976 65.0842L121.973 109.384C121.982 115.131 121.883 121.055 114.741 122.911C112.277 123.552 108.047 123.285 105.422 123.286L92.4144 123.282L76.2055 123.284C70.9662 123.285 65.3328 124.2 61.2825 120.144C58.1733 117.03 58.2085 114.277 58.2365 110.194L58.2461 104.55C55.0581 100.846 50.8477 97.5945 47.8877 94.0458C50.6949 90.7321 55.0965 86.6265 58.2461 83.6113L58.2437 69.857C58.2277 58.8765 59.0181 54.447 71.2506 54.4411L77.5764 54.446Z" fill="url(#paint1_linear_37_10315)"/>
<path d="M88.975 73.6757C97.6842 72.671 99.6715 85.1313 90.9062 86.6376C82.8147 88.016 79.6151 75.4045 88.975 73.6757Z" fill="url(#paint2_linear_37_10315)"/>
<defs>
<linearGradient id="paint0_linear_37_10315" x1="30.359" y1="62.1646" x2="30.359" y2="1.18884" gradientUnits="userSpaceOnUse">
<stop stop-color="#E7275A"/>
<stop offset="1" stop-color="#F8B01E"/>
</linearGradient>
<linearGradient id="paint1_linear_37_10315" x1="84.9318" y1="123.373" x2="84.9318" y2="54.4411" gradientUnits="userSpaceOnUse">
<stop stop-color="#E7275A"/>
<stop offset="1" stop-color="#F8B01E"/>
</linearGradient>
<linearGradient id="paint2_linear_37_10315" x1="89.9165" y1="86.7427" x2="89.9165" y2="73.6182" gradientUnits="userSpaceOnUse">
<stop stop-color="#E7275A"/>
<stop offset="1" stop-color="#F8B01E"/>
</linearGradient>
</defs>
</svg>
