<svg width="358" height="106" viewBox="0 0 358 106" fill="none" xmlns="http://www.w3.org/2000/svg">
<path fill-rule="evenodd" clip-rule="evenodd" d="M159.762 8.66935C101.753 6.5641 46.9049 10.9145 24.6699 24.8055C-3.32883 42.2972 -12.474 65.2354 44.3154 80.7928C106.503 97.8289 195.736 99.2698 261.489 89.6818C328.933 79.847 376.502 59.364 347.834 36.5337C322.121 16.0564 233.354 11.3401 159.762 8.66935Z" fill="#ED5A43"/>
<path d="M33.3918 48.7217C33.2642 48.7217 33.2004 48.7946 33.2004 48.9404V50.3623C33.2004 50.5081 33.2642 50.5811 33.3918 50.5811H38.8879C39.0338 50.5811 39.1067 50.5081 39.1067 50.3623V48.9404C39.1067 48.7946 39.0338 48.7217 38.8879 48.7217H33.3918ZM33.3918 45.1396C33.2642 45.1396 33.2004 45.2126 33.2004 45.3584V46.7529C33.2004 46.8988 33.2642 46.9717 33.3918 46.9717H38.8879C39.0338 46.9717 39.1067 46.8988 39.1067 46.7529V45.3584C39.1067 45.2126 39.0338 45.1396 38.8879 45.1396H33.3918ZM47.72 46.9717C47.8476 46.9717 47.9114 46.8988 47.9114 46.7529V45.3584C47.9114 45.2126 47.8476 45.1396 47.72 45.1396H41.8137C41.6679 45.1396 41.595 45.2126 41.595 45.3584V46.7529C41.595 46.8988 41.6679 46.9717 41.8137 46.9717H47.72ZM47.72 50.5811C47.8476 50.5811 47.9114 50.5081 47.9114 50.3623V48.9404C47.9114 48.7946 47.8476 48.7217 47.72 48.7217H41.8137C41.6679 48.7217 41.595 48.7946 41.595 48.9404V50.3623C41.595 50.5081 41.6679 50.5811 41.8137 50.5811H47.72ZM41.2122 54.0264C41.1939 54.154 41.2486 54.2178 41.3762 54.2178H49.7981C50.2356 54.2178 50.6002 54.3727 50.8918 54.6826C51.1288 54.9561 51.2473 55.266 51.2473 55.6123C51.2473 55.6852 51.2473 55.749 51.2473 55.8037C51.0286 57.5173 50.7916 58.8115 50.5364 59.6865C50.2812 60.5433 49.9713 61.1449 49.6067 61.4912C49.1145 61.9469 48.3762 62.2021 47.3918 62.2568C46.9908 62.2751 46.4895 62.2842 45.8879 62.2842C45.4504 62.2842 44.9674 62.2842 44.4387 62.2842C44.1106 62.266 43.8098 62.1383 43.5364 61.9014C43.2812 61.6826 43.0989 61.4001 42.9895 61.0537C42.8984 60.8167 42.9257 60.5889 43.0715 60.3701C43.2174 60.1514 43.4088 60.0511 43.6458 60.0693C44.6119 60.124 45.5051 60.1514 46.3254 60.1514C46.8905 60.1514 47.2642 60.0693 47.4465 59.9053C47.8658 59.5225 48.2122 58.4105 48.4856 56.5693C48.5038 56.4417 48.44 56.3779 48.2942 56.3779H40.6379C40.4921 56.3779 40.3918 56.4417 40.3372 56.5693C39.6262 57.9912 38.5142 59.1579 37.0012 60.0693C35.4882 60.9626 33.3463 61.6644 30.5754 62.1748C30.4843 62.193 30.3931 62.2021 30.302 62.2021C30.065 62.2021 29.828 62.1383 29.5911 62.0107C29.2812 61.8467 29.0351 61.6006 28.8528 61.2725C28.7799 61.1266 28.7434 60.9899 28.7434 60.8623C28.7434 60.7347 28.7616 60.6162 28.7981 60.5068C28.9075 60.2516 29.0989 60.1058 29.3723 60.0693C31.5234 59.723 33.2278 59.2673 34.4856 58.7021C35.7616 58.1188 36.7278 57.3988 37.384 56.542C37.4023 56.5055 37.4023 56.4691 37.384 56.4326C37.3658 56.3962 37.3385 56.3779 37.302 56.3779H30.384C30.0924 56.3779 29.8372 56.2777 29.6184 56.0771C29.3997 55.8584 29.2903 55.6032 29.2903 55.3115C29.2903 55.0016 29.3997 54.7464 29.6184 54.5459C29.8372 54.3271 30.0924 54.2178 30.384 54.2178H38.2864C38.414 54.2178 38.496 54.154 38.5325 54.0264C38.6783 53.5342 38.7877 53.0693 38.8606 52.6318C38.8788 52.486 38.815 52.4131 38.6692 52.4131H32.3254C31.8697 52.4131 31.4869 52.2581 31.177 51.9482C30.8671 51.6383 30.7122 51.2555 30.7122 50.7998V44.9209C30.7122 44.4652 30.8671 44.0824 31.177 43.7725C31.4869 43.4626 31.8697 43.3076 32.3254 43.3076H39.4622C39.4804 43.3076 39.4895 43.2985 39.4895 43.2803C39.4895 43.2438 39.4804 43.2256 39.4622 43.2256C38.0767 42.7152 36.6549 42.2412 35.1965 41.8037C34.9596 41.749 34.8228 41.6123 34.7864 41.3936C34.7499 41.1566 34.8228 40.9652 35.0051 40.8193C35.4426 40.4912 35.9075 40.3271 36.3997 40.3271C36.6002 40.3271 36.8098 40.3545 37.0286 40.4092C38.0676 40.6826 39.1796 41.0199 40.3645 41.4209C40.4921 41.4574 40.6197 41.4574 40.7473 41.4209C42.151 40.9469 43.5181 40.3818 44.8489 39.7256C44.8853 39.7074 44.8944 39.6891 44.8762 39.6709C44.8762 39.6344 44.858 39.6162 44.8215 39.6162H30.9583C30.6848 39.6162 30.4478 39.5251 30.2473 39.3428C30.065 39.1423 29.9739 38.9053 29.9739 38.6318C29.9739 38.3584 30.065 38.1305 30.2473 37.9482C30.4478 37.7477 30.6848 37.6475 30.9583 37.6475H48.1028C48.1575 37.6475 48.203 37.6383 48.2395 37.6201C48.3306 37.6019 48.4218 37.5928 48.5129 37.5928C48.7681 37.5928 49.0051 37.6839 49.2239 37.8662L49.6614 38.2764C49.8801 38.4587 49.9713 38.6956 49.9348 38.9873C49.9166 39.279 49.7799 39.4886 49.5247 39.6162C47.5924 40.71 45.6145 41.6396 43.5911 42.4053C43.5546 42.4235 43.5364 42.4508 43.5364 42.4873C43.5364 42.5238 43.5546 42.5511 43.5911 42.5693C44.065 42.7516 44.5754 42.9613 45.1223 43.1982C45.2499 43.2712 45.3866 43.3076 45.5325 43.3076H48.9504C49.3879 43.3076 49.7616 43.4626 50.0715 43.7725C50.3997 44.0824 50.5637 44.4652 50.5637 44.9209V50.7998C50.5637 51.2555 50.3997 51.6383 50.0715 51.9482C49.7616 52.2581 49.3879 52.4131 48.9504 52.4131H41.7043C41.5767 52.4131 41.5038 52.486 41.4856 52.6318C41.4127 53.124 41.3215 53.5889 41.2122 54.0264ZM68.6609 47.0264C68.8067 47.0264 68.8797 46.9535 68.8797 46.8076V45.0029C68.8797 44.8753 68.8067 44.8115 68.6609 44.8115H64.4773C64.3497 44.8115 64.2859 44.8753 64.2859 45.0029V46.8076C64.2859 46.9535 64.3497 47.0264 64.4773 47.0264H68.6609ZM64.4773 53.6162C64.3497 53.6162 64.2859 53.6891 64.2859 53.835V56.0771C64.2859 56.223 64.3497 56.2868 64.4773 56.2686C65.407 56.1592 66.8015 55.9678 68.6609 55.6943C68.8067 55.6761 68.8797 55.6032 68.8797 55.4756V53.835C68.8797 53.6891 68.8067 53.6162 68.6609 53.6162H64.4773ZM68.6609 51.4834C68.8067 51.4834 68.8797 51.4105 68.8797 51.2646V49.4053C68.8797 49.2777 68.8067 49.2139 68.6609 49.2139H64.4773C64.3497 49.2139 64.2859 49.2777 64.2859 49.4053V51.2646C64.2859 51.4105 64.3497 51.4834 64.4773 51.4834H68.6609ZM72.8445 42.8428C73.0633 43.0615 73.1726 43.335 73.1726 43.6631C73.1726 43.973 73.0633 44.2464 72.8445 44.4834C72.6258 44.7021 72.3523 44.8115 72.0242 44.8115H71.5047C71.3771 44.8115 71.3133 44.8753 71.3133 45.0029V61.0811C71.3133 61.4274 71.1948 61.7191 70.9578 61.9561C70.7208 62.193 70.4291 62.3115 70.0828 62.3115C69.7547 62.3115 69.4721 62.193 69.2351 61.9561C68.9981 61.7191 68.8797 61.4274 68.8797 61.0811V58.292C68.8797 58.1462 68.8067 58.0824 68.6609 58.1006C65.1609 58.6475 62.7729 59.012 61.4968 59.1943C61.4422 59.1943 61.3784 59.1943 61.3054 59.1943C61.032 59.1943 60.7859 59.1123 60.5672 58.9482C60.2755 58.7295 60.1114 58.4469 60.075 58.1006C60.0567 58.0459 60.0476 57.9821 60.0476 57.9092C60.0476 57.6357 60.1297 57.3896 60.2937 57.1709C60.5125 56.8975 60.795 56.7334 61.1414 56.6787L61.6609 56.624C61.8067 56.6058 61.8797 56.5238 61.8797 56.3779V45.0029C61.8797 44.8753 61.8067 44.8115 61.6609 44.8115H61.1687C60.8588 44.8115 60.5854 44.7021 60.3484 44.4834C60.1297 44.2464 60.0203 43.973 60.0203 43.6631C60.0203 43.335 60.1297 43.0615 60.3484 42.8428C60.5854 42.624 60.8588 42.5146 61.1687 42.5146H65.1062C65.2521 42.5146 65.325 42.4417 65.325 42.2959V40.1904C65.325 40.0628 65.2521 39.999 65.1062 39.999H62.0164C61.7065 39.999 61.4422 39.8896 61.2234 39.6709C61.0047 39.4339 60.8953 39.1605 60.8953 38.8506C60.8953 38.5407 61.0047 38.2764 61.2234 38.0576C61.4422 37.8389 61.7065 37.7295 62.0164 37.7295H71.3679C71.6778 37.7295 71.9422 37.8389 72.1609 38.0576C72.3979 38.2764 72.5164 38.5407 72.5164 38.8506C72.5164 39.1605 72.3979 39.4339 72.1609 39.6709C71.9422 39.8896 71.6778 39.999 71.3679 39.999H68.0047C67.8771 39.999 67.8133 40.0628 67.8133 40.1904V42.2959C67.8133 42.4417 67.8771 42.5146 68.0047 42.5146H72.0242C72.3523 42.5146 72.6258 42.624 72.8445 42.8428ZM76.9461 44.1553C76.8002 44.1553 76.7091 44.2191 76.6726 44.3467L76.6453 44.4287C76.5906 44.5563 76.5815 44.6839 76.6179 44.8115C77.183 47.71 77.9487 50.2256 78.9148 52.3584C78.933 52.3949 78.9604 52.4131 78.9968 52.4131C79.0333 52.4131 79.0606 52.3949 79.0789 52.3584C80.045 50.2074 80.756 47.5459 81.2117 44.374C81.2299 44.2282 81.1752 44.1553 81.0476 44.1553H76.9461ZM85.3679 42.1045C85.6049 42.3415 85.7234 42.6331 85.7234 42.9795C85.7234 43.3076 85.6049 43.5902 85.3679 43.8271C85.131 44.0459 84.8484 44.1553 84.5203 44.1553H84.1375C83.9916 44.1553 83.9096 44.2282 83.8914 44.374C83.2169 48.8219 82.1323 52.3857 80.6375 55.0654C80.5828 55.193 80.5919 55.3115 80.6648 55.4209C81.2299 56.2412 81.8497 56.9886 82.5242 57.6631C83.1987 58.3193 83.9278 58.9027 84.7117 59.4131C85.0034 59.5954 85.1765 59.8597 85.2312 60.2061C85.2494 60.279 85.2586 60.3519 85.2586 60.4248C85.2586 60.68 85.1674 60.917 84.9851 61.1357C84.7299 61.4639 84.4109 61.6735 84.0281 61.7646C83.9187 61.8011 83.8093 61.8193 83.7 61.8193C83.4448 61.8193 83.1987 61.7464 82.9617 61.6006C81.4669 60.598 80.1635 59.3311 79.0515 57.7998C78.9604 57.6904 78.8784 57.6904 78.8054 57.7998C77.5476 59.3311 76.0164 60.6436 74.2117 61.7373C73.9929 61.8649 73.7742 61.9287 73.5554 61.9287C73.4278 61.9287 73.3002 61.9014 73.1726 61.8467C72.808 61.7373 72.5164 61.5186 72.2976 61.1904C72.17 60.9717 72.1062 60.7438 72.1062 60.5068C72.1062 60.4157 72.1153 60.3154 72.1336 60.2061C72.2065 59.8597 72.3979 59.6045 72.7078 59.4404C74.5854 58.3831 76.1349 57.0251 77.3562 55.3662C77.4291 55.2568 77.4383 55.1383 77.3836 55.0107C76.4539 53.1696 75.67 51.0186 75.032 48.5576C75.0138 48.5212 74.9864 48.5029 74.95 48.5029C74.9135 48.5029 74.8862 48.5212 74.8679 48.5576C74.6856 48.8857 74.5125 49.1865 74.3484 49.46C74.1661 49.7699 73.8927 49.943 73.5281 49.9795C73.4734 49.9795 73.4278 49.9795 73.3914 49.9795C73.0815 49.9795 72.7989 49.8701 72.5437 49.6514C72.2521 49.3962 72.0789 49.068 72.0242 48.667C72.006 48.5941 71.9968 48.512 71.9968 48.4209C71.9968 48.1292 72.0789 47.8558 72.2429 47.6006C73.7013 45.2308 74.8133 42.0133 75.5789 37.9482C75.6518 37.5654 75.8341 37.2738 76.1258 37.0732C76.3627 36.891 76.6179 36.7998 76.8914 36.7998C76.9825 36.7998 77.0646 36.8089 77.1375 36.8271C77.5021 36.8818 77.7937 37.0641 78.0125 37.374C78.1765 37.611 78.2586 37.8571 78.2586 38.1123C78.2586 38.2035 78.2494 38.2946 78.2312 38.3857C78.0125 39.4977 77.7755 40.555 77.5203 41.5576C77.5021 41.6123 77.5112 41.6579 77.5476 41.6943C77.5841 41.7308 77.6205 41.749 77.657 41.749H84.5203C84.8484 41.749 85.131 41.8675 85.3679 42.1045ZM110.684 45.3037C110.72 45.1761 110.675 45.1123 110.547 45.1123H102.672C102.526 45.1123 102.426 45.1761 102.371 45.3037C101.752 46.7985 100.977 48.6123 100.047 50.7451C99.9925 50.8727 100.029 50.9639 100.157 51.0186C102.49 51.8389 104.632 52.6774 106.582 53.5342C106.71 53.5889 106.819 53.5615 106.91 53.4521C108.624 51.5016 109.882 48.7855 110.684 45.3037ZM117.957 43.7725C117.957 44.1553 117.83 44.4743 117.575 44.7295C117.319 44.9847 117 45.1123 116.617 45.1123H113.883C113.755 45.1123 113.673 45.1761 113.637 45.3037C112.744 49.3688 111.422 52.5042 109.672 54.71C109.581 54.8193 109.599 54.9014 109.727 54.9561C112.279 56.2139 114.403 57.3988 116.098 58.5107C116.444 58.7477 116.645 59.0758 116.7 59.4951C116.718 59.568 116.727 59.641 116.727 59.7139C116.727 60.042 116.617 60.3428 116.399 60.6162C116.125 60.9443 115.77 61.1357 115.332 61.1904C115.259 61.2087 115.186 61.2178 115.114 61.2178C114.767 61.2178 114.448 61.1175 114.157 60.917C112.352 59.6592 110.173 58.3831 107.621 57.0889C107.494 57.0342 107.375 57.0524 107.266 57.1436C104.641 59.167 100.849 60.6253 95.8909 61.5186C95.7815 61.5368 95.6813 61.5459 95.5901 61.5459C95.2985 61.5459 95.0159 61.473 94.7425 61.3271C94.3779 61.1084 94.0862 60.8076 93.8675 60.4248C93.7763 60.2607 93.7308 60.0967 93.7308 59.9326C93.7308 59.805 93.7581 59.6774 93.8128 59.5498C93.9404 59.2399 94.1683 59.0576 94.4964 59.0029C98.8167 58.3285 102.107 57.2347 104.367 55.7217C104.404 55.7035 104.413 55.6761 104.395 55.6396C104.395 55.585 104.377 55.5485 104.34 55.5303C102.481 54.6553 100.731 53.917 99.0901 53.3154C98.999 53.279 98.9352 53.3063 98.8987 53.3975C98.7529 53.7074 98.525 53.9261 98.2151 54.0537C98.0511 54.1084 97.887 54.1357 97.7229 54.1357C97.5771 54.1357 97.4222 54.1084 97.2581 54.0537L97.0667 53.999C96.7203 53.8532 96.4742 53.6071 96.3284 53.2607C96.2555 53.1149 96.219 52.96 96.219 52.7959C96.219 52.6136 96.2646 52.4313 96.3558 52.249C97.2854 50.262 98.3063 47.9469 99.4183 45.3037C99.4365 45.249 99.4274 45.2035 99.3909 45.167C99.3727 45.1305 99.3453 45.1123 99.3089 45.1123H94.1683C93.7854 45.1123 93.4664 44.9847 93.2112 44.7295C92.956 44.4743 92.8284 44.1553 92.8284 43.7725C92.8284 43.4079 92.956 43.098 93.2112 42.8428C93.4664 42.5876 93.7763 42.46 94.1409 42.46H100.375C100.503 42.46 100.594 42.3962 100.649 42.2686C101.36 40.5186 101.989 38.8779 102.535 37.3467C102.681 36.9639 102.936 36.6722 103.301 36.4717C103.556 36.3076 103.83 36.2256 104.121 36.2256C104.231 36.2256 104.331 36.2347 104.422 36.2529C104.805 36.3258 105.088 36.5173 105.27 36.8271C105.361 37.0094 105.407 37.2008 105.407 37.4014C105.407 37.5472 105.379 37.693 105.325 37.8389C104.851 39.0967 104.276 40.5732 103.602 42.2686C103.584 42.3232 103.584 42.3688 103.602 42.4053C103.638 42.4417 103.675 42.46 103.711 42.46H116.617C117 42.46 117.319 42.5876 117.575 42.8428C117.83 43.098 117.957 43.4079 117.957 43.7725ZM131.625 45.5225C131.534 45.6318 131.488 45.7503 131.488 45.8779V47.8193C131.488 47.9652 131.552 48.0199 131.68 47.9834C133.101 47.71 134.295 47.4821 135.262 47.2998C135.262 47.2816 135.262 47.2725 135.262 47.2725C135.116 47.1449 135.107 47.0081 135.234 46.8623L135.836 46.2334C136.055 45.9782 136.328 45.8415 136.656 45.8232C136.711 45.805 136.756 45.7959 136.793 45.7959C137.066 45.7959 137.321 45.887 137.558 46.0693C137.577 46.0876 137.604 46.1058 137.64 46.124C137.732 46.1969 137.814 46.1969 137.887 46.124C138.78 45.085 139.591 44.0094 140.32 42.8975C140.338 42.861 140.338 42.8245 140.32 42.7881C140.302 42.7516 140.275 42.7334 140.238 42.7334H136.519C136.137 42.7334 135.799 42.5967 135.508 42.3232C135.234 42.0316 135.097 41.6852 135.097 41.2842C135.097 41.266 135.079 41.2568 135.043 41.2568C135.025 41.2386 135.006 41.2386 134.988 41.2568C133.894 42.9339 132.773 44.3558 131.625 45.5225ZM135.535 47.4912C135.499 47.4548 135.462 47.4456 135.426 47.4639C135.389 47.4821 135.371 47.5186 135.371 47.5732L135.426 48.0107C135.426 48.0654 135.426 48.1201 135.426 48.1748C135.426 48.5758 135.298 48.9404 135.043 49.2686C134.769 49.6331 134.405 49.861 133.949 49.9521C132.764 50.1891 132.008 50.3441 131.68 50.417C131.552 50.4535 131.488 50.5355 131.488 50.6631V59.3037C131.488 59.9964 131.406 60.5342 131.242 60.917C131.096 61.318 130.814 61.6188 130.394 61.8193C129.866 62.0928 129.045 62.2568 127.933 62.3115C127.897 62.3115 127.87 62.3115 127.851 62.3115C127.487 62.3115 127.159 62.193 126.867 61.9561C126.557 61.7008 126.347 61.3818 126.238 60.999C126.202 60.8896 126.183 60.7803 126.183 60.6709C126.183 60.4886 126.238 60.3063 126.347 60.124C126.53 59.8506 126.785 59.7139 127.113 59.7139L128.508 59.7412C128.69 59.7412 128.808 59.7139 128.863 59.6592C128.918 59.5863 128.945 59.4587 128.945 59.2764V51.1826C128.945 51.0368 128.881 50.9821 128.754 51.0186L126.566 51.4561C126.475 51.4743 126.384 51.4834 126.293 51.4834C126.056 51.4834 125.828 51.4196 125.609 51.292C125.318 51.0915 125.135 50.818 125.062 50.4717C125.026 50.3805 125.008 50.2894 125.008 50.1982C125.008 49.9613 125.081 49.7425 125.226 49.542C125.427 49.2503 125.7 49.0771 126.047 49.0225C126.758 48.8949 127.66 48.7308 128.754 48.5303C128.881 48.512 128.945 48.4391 128.945 48.3115V44.7295C128.945 44.529 129.009 44.3649 129.137 44.2373C129.282 44.0915 129.456 44.0186 129.656 44.0186C129.711 44.0186 129.756 44.0003 129.793 43.9639C130.631 43.0706 131.406 42.0316 132.117 40.8467C132.153 40.8102 132.153 40.7738 132.117 40.7373C132.099 40.6826 132.071 40.6553 132.035 40.6553H126.867C126.521 40.6553 126.229 40.5459 125.992 40.3271C125.773 40.0902 125.664 39.8076 125.664 39.4795C125.664 39.1331 125.773 38.8415 125.992 38.6045C126.229 38.3675 126.521 38.249 126.867 38.249H133.812C133.867 38.249 133.913 38.249 133.949 38.249C134.058 38.2126 134.159 38.1943 134.25 38.1943C134.432 38.1943 134.605 38.249 134.769 38.3584L135.289 38.7139C135.544 38.8779 135.699 39.1149 135.754 39.4248C135.827 39.7165 135.79 39.9899 135.644 40.2451C135.59 40.318 135.608 40.3545 135.699 40.3545H141.25C141.377 40.3545 141.441 40.2907 141.441 40.1631V37.9209C141.441 37.5563 141.569 37.2555 141.824 37.0186C142.079 36.7633 142.38 36.6357 142.726 36.6357C143.091 36.6357 143.392 36.7633 143.629 37.0186C143.884 37.2555 144.012 37.5563 144.012 37.9209V40.1631C144.012 40.2907 144.084 40.3545 144.23 40.3545H149.289C149.617 40.3545 149.9 40.473 150.137 40.71C150.374 40.9469 150.492 41.2295 150.492 41.5576C150.492 41.8857 150.374 42.1683 150.137 42.4053C149.9 42.624 149.617 42.7334 149.289 42.7334H142.781C142.781 42.7334 142.781 42.7425 142.781 42.7607C142.927 42.8337 143.018 42.9521 143.055 43.1162C143.109 43.2803 143.091 43.4352 143 43.5811C141.851 45.0941 140.739 46.4157 139.664 47.5459C139.555 47.637 139.555 47.7282 139.664 47.8193C140.448 48.512 141.004 49.0316 141.332 49.3779C141.423 49.4691 141.523 49.4691 141.633 49.3779C143.018 48.1748 144.176 46.917 145.105 45.6045C145.306 45.3128 145.579 45.1123 145.926 45.0029C146.09 44.9482 146.245 44.9209 146.39 44.9209C146.573 44.9209 146.755 44.9574 146.937 45.0303C147.247 45.1579 147.448 45.3766 147.539 45.6865C147.575 45.7959 147.594 45.8962 147.594 45.9873C147.594 46.1878 147.53 46.3792 147.402 46.5615C146.108 48.4027 144.54 50.098 142.699 51.6475C140.858 53.1787 138.871 54.4912 136.738 55.585C136.538 55.6943 136.328 55.749 136.109 55.749C135.982 55.749 135.854 55.7308 135.726 55.6943C135.38 55.6032 135.079 55.4118 134.824 55.1201C134.624 54.8831 134.551 54.6188 134.605 54.3271C134.678 54.0173 134.851 53.7985 135.125 53.6709C136.583 52.9782 137.959 52.1761 139.254 51.2646C139.363 51.1735 139.372 51.0824 139.281 50.9912C138.078 49.7152 136.829 48.5485 135.535 47.4912ZM147.129 50.9092C147.347 50.6175 147.63 50.4261 147.976 50.335C148.104 50.2985 148.232 50.2803 148.359 50.2803C148.578 50.2803 148.788 50.335 148.988 50.4443C149.298 50.5902 149.489 50.8271 149.562 51.1553C149.599 51.2464 149.617 51.3376 149.617 51.4287C149.617 51.6475 149.544 51.848 149.398 52.0303C148.432 53.3245 147.302 54.5641 146.008 55.749C145.916 55.8402 145.926 55.9313 146.035 56.0225C147.566 57.2438 148.87 58.3831 149.945 59.4404C150.2 59.7139 150.328 60.0238 150.328 60.3701C150.328 60.7894 150.164 61.1449 149.836 61.4365C149.581 61.6735 149.28 61.792 148.933 61.792C148.897 61.792 148.86 61.792 148.824 61.792C148.441 61.7555 148.113 61.6006 147.84 61.3271C146.837 60.2516 145.552 59.0485 143.984 57.7178C143.875 57.6266 143.765 57.6175 143.656 57.6904C141.523 59.2946 139.217 60.6436 136.738 61.7373C136.519 61.8285 136.301 61.874 136.082 61.874C135.918 61.874 135.763 61.8467 135.617 61.792C135.234 61.6826 134.915 61.473 134.66 61.1631C134.514 60.9626 134.441 60.7529 134.441 60.5342C134.441 60.4613 134.45 60.3792 134.469 60.2881C134.541 59.9782 134.733 59.7594 135.043 59.6318C137.522 58.6475 139.819 57.4079 141.933 55.9131C144.048 54.4183 145.78 52.7503 147.129 50.9092ZM160.468 53.3975C160.104 53.3975 159.794 53.279 159.538 53.042C159.301 52.7868 159.183 52.486 159.183 52.1396C159.183 51.7933 159.301 51.5016 159.538 51.2646C159.794 51.0094 160.104 50.8818 160.468 50.8818H166.156C166.52 50.8818 166.821 51.0094 167.058 51.2646C167.313 51.5016 167.441 51.7933 167.441 52.1396C167.441 52.486 167.313 52.7868 167.058 53.042C166.821 53.279 166.52 53.3975 166.156 53.3975H160.468ZM191.718 55.2021C191.572 55.2021 191.499 55.266 191.499 55.3936V58.374C191.499 58.5199 191.572 58.5928 191.718 58.5928H194.698C194.826 58.5928 194.889 58.5199 194.889 58.374V55.3936C194.889 55.266 194.826 55.2021 194.698 55.2021H191.718ZM194.698 47.4365C194.826 47.4365 194.889 47.3727 194.889 47.2451V44.4014C194.889 44.2555 194.826 44.1826 194.698 44.1826H191.718C191.572 44.1826 191.499 44.2555 191.499 44.4014V47.2451C191.499 47.3727 191.572 47.4365 191.718 47.4365H194.698ZM194.698 52.9873C194.826 52.9873 194.889 52.9144 194.889 52.7686V49.8701C194.889 49.7243 194.826 49.6514 194.698 49.6514H191.718C191.572 49.6514 191.499 49.7243 191.499 49.8701V52.7686C191.499 52.9144 191.572 52.9873 191.718 52.9873H194.698ZM180.671 40.4639C180.543 40.4639 180.479 40.5368 180.479 40.6826V46.4795C180.479 46.6071 180.543 46.6709 180.671 46.6709H183.323C183.451 46.6709 183.514 46.6071 183.514 46.4795V40.6826C183.514 40.5368 183.451 40.4639 183.323 40.4639H180.671ZM200.413 58.5928C200.741 58.5928 201.014 58.7113 201.233 58.9482C201.47 59.167 201.589 59.4404 201.589 59.7686C201.589 60.0967 201.47 60.3701 201.233 60.5889C201.014 60.8258 200.741 60.9443 200.413 60.9443H191.663C191.554 60.9443 191.499 60.999 191.499 61.1084V61.1357C191.499 61.4821 191.38 61.7738 191.143 62.0107C190.906 62.2477 190.615 62.3662 190.268 62.3662C189.94 62.3662 189.658 62.2477 189.421 62.0107C189.184 61.7738 189.065 61.4821 189.065 61.1357V47.4639C189.065 47.4456 189.056 47.4365 189.038 47.4365C189.02 47.4365 189.011 47.4456 189.011 47.4639C188.938 47.555 188.847 47.6735 188.737 47.8193C188.664 47.9287 188.564 47.9925 188.436 48.0107C188.309 48.0107 188.199 47.9652 188.108 47.874C188.072 47.8376 188.054 47.8467 188.054 47.9014V47.9834C188.054 48.3115 187.935 48.5941 187.698 48.8311C187.479 49.0498 187.215 49.1592 186.905 49.1592H186.167C186.039 49.1592 185.975 49.223 185.975 49.3506V59.3584C185.975 60.0511 185.884 60.5889 185.702 60.9717C185.52 61.3727 185.219 61.6826 184.8 61.9014C184.198 62.1383 183.195 62.2751 181.792 62.3115C181.774 62.3115 181.755 62.3115 181.737 62.3115C181.391 62.3115 181.072 62.2021 180.78 61.9834C180.488 61.7646 180.279 61.473 180.151 61.1084C180.06 60.8167 180.097 60.5433 180.261 60.2881C180.443 60.0511 180.68 59.9326 180.972 59.9326C181.391 59.9508 181.755 59.96 182.065 59.96C182.466 59.96 182.767 59.9508 182.968 59.9326C183.186 59.9326 183.332 59.8962 183.405 59.8232C183.478 59.7321 183.514 59.5771 183.514 59.3584V50.7725C183.514 50.7542 183.505 50.7451 183.487 50.7451C183.469 50.7269 183.451 50.736 183.432 50.7725C181.956 54.0173 180.16 56.7243 178.046 58.8936C177.845 59.0941 177.608 59.1943 177.335 59.1943C177.28 59.1943 177.225 59.1943 177.171 59.1943C176.824 59.1396 176.56 58.9665 176.378 58.6748C176.195 58.4196 176.104 58.137 176.104 57.8271C176.104 57.7725 176.113 57.7087 176.132 57.6357C176.168 57.2712 176.323 56.9613 176.597 56.7061C177.563 55.7946 178.492 54.6917 179.386 53.3975C180.279 52.1032 181.044 50.7451 181.682 49.3232C181.701 49.2868 181.692 49.2503 181.655 49.2139C181.637 49.1774 181.6 49.1592 181.546 49.1592H177.389C177.061 49.1592 176.77 49.0407 176.514 48.8037C176.278 48.5485 176.159 48.2568 176.159 47.9287C176.159 47.5824 176.278 47.2907 176.514 47.0537C176.77 46.7985 177.061 46.6709 177.389 46.6709H177.936C178.082 46.6709 178.155 46.6071 178.155 46.4795V40.6553C178.155 40.5277 178.091 40.4639 177.964 40.4639H177.69C177.38 40.4639 177.107 40.3545 176.87 40.1357C176.633 39.8988 176.514 39.6162 176.514 39.2881C176.514 38.96 176.633 38.6865 176.87 38.4678C177.107 38.2308 177.38 38.1123 177.69 38.1123H186.659C186.987 38.1123 187.261 38.2308 187.479 38.4678C187.716 38.6865 187.835 38.96 187.835 39.2881C187.835 39.6162 187.716 39.8988 187.479 40.1357C187.261 40.3545 186.987 40.4639 186.659 40.4639H186.167C186.039 40.4639 185.975 40.5368 185.975 40.6826V46.4795C185.975 46.6071 186.039 46.6709 186.167 46.6709H186.741C186.741 46.6709 186.741 46.6618 186.741 46.6436C186.541 46.4977 186.522 46.3337 186.686 46.1514C188.345 44.0732 189.722 41.3115 190.815 37.8662C190.925 37.5199 191.134 37.2555 191.444 37.0732C191.645 36.9639 191.854 36.9092 192.073 36.9092C192.182 36.9092 192.301 36.9274 192.429 36.9639C192.757 37.0368 193.012 37.2282 193.194 37.5381C193.304 37.7386 193.358 37.93 193.358 38.1123C193.358 38.2399 193.331 38.3675 193.276 38.4951C192.93 39.5889 192.538 40.6462 192.1 41.667C192.082 41.7217 192.082 41.7673 192.1 41.8037C192.137 41.8402 192.173 41.8584 192.21 41.8584H194.671C194.798 41.8584 194.889 41.7946 194.944 41.667C195.436 40.4456 195.847 39.279 196.175 38.167C196.284 37.8206 196.494 37.5563 196.804 37.374C197.022 37.2464 197.25 37.1826 197.487 37.1826C197.578 37.1826 197.679 37.1917 197.788 37.21C198.134 37.2829 198.389 37.4743 198.554 37.7842C198.645 37.9665 198.69 38.1488 198.69 38.3311C198.69 38.4587 198.672 38.5954 198.636 38.7412C198.235 39.8167 197.834 40.8011 197.432 41.6943C197.414 41.7308 197.414 41.7673 197.432 41.8037C197.469 41.8402 197.514 41.8584 197.569 41.8584H200.085C200.413 41.8584 200.686 41.9769 200.905 42.2139C201.142 42.4326 201.261 42.7061 201.261 43.0342C201.261 43.3441 201.142 43.6175 200.905 43.8545C200.686 44.0732 200.413 44.1826 200.085 44.1826H197.514C197.369 44.1826 197.296 44.2555 197.296 44.4014V47.2451C197.296 47.3727 197.369 47.4365 197.514 47.4365H199.729C200.039 47.4365 200.294 47.5459 200.495 47.7646C200.714 47.9834 200.823 48.2477 200.823 48.5576C200.823 48.8493 200.714 49.1045 200.495 49.3232C200.294 49.542 200.039 49.6514 199.729 49.6514H197.514C197.369 49.6514 197.296 49.7243 197.296 49.8701V52.7686C197.296 52.9144 197.369 52.9873 197.514 52.9873H199.729C200.039 52.9873 200.294 53.0967 200.495 53.3154C200.714 53.5342 200.823 53.7985 200.823 54.1084C200.823 54.4001 200.714 54.6553 200.495 54.874C200.294 55.0928 200.039 55.2021 199.729 55.2021H197.514C197.369 55.2021 197.296 55.266 197.296 55.3936V58.374C197.296 58.5199 197.369 58.5928 197.514 58.5928H200.413ZM217.745 44.8936C217.763 44.766 217.699 44.7021 217.553 44.7021H214.026C213.898 44.7021 213.816 44.766 213.78 44.8936C213.123 47.5732 212.595 49.6423 212.194 51.1006C212.157 51.2282 212.203 51.3285 212.33 51.4014C213.351 51.9665 214.363 52.5863 215.366 53.2607C215.475 53.3337 215.557 53.3063 215.612 53.1787C216.651 50.8818 217.362 48.1201 217.745 44.8936ZM218.455 42.2139C218.729 42.1774 218.993 42.1774 219.248 42.2139L219.686 42.2959C219.905 42.3506 220.087 42.4691 220.233 42.6514C220.379 42.8337 220.442 43.0433 220.424 43.2803C220.005 47.9652 219.112 51.7751 217.745 54.71C217.69 54.8376 217.717 54.9378 217.827 55.0107C218.756 55.7035 219.54 56.3506 220.178 56.9521C220.452 57.2256 220.606 57.5628 220.643 57.9639C220.643 58.0186 220.643 58.0641 220.643 58.1006C220.643 58.4469 220.543 58.766 220.342 59.0576C220.16 59.3311 219.896 59.486 219.549 59.5225C219.531 59.5225 219.504 59.5225 219.467 59.5225C219.157 59.5225 218.893 59.4131 218.674 59.1943C218.091 58.5928 217.389 57.9456 216.569 57.2529C216.459 57.1618 216.368 57.18 216.295 57.3076C215.037 59.0941 213.47 60.5524 211.592 61.6826C211.373 61.8102 211.155 61.874 210.936 61.874C210.827 61.874 210.708 61.8558 210.58 61.8193C210.234 61.7282 209.952 61.5277 209.733 61.2178C209.605 61.0355 209.532 60.835 209.514 60.6162C209.496 60.4157 209.532 60.2243 209.623 60.042C209.715 59.8597 209.851 59.7139 210.034 59.6045C211.674 58.6566 213.06 57.3623 214.19 55.7217C214.263 55.6123 214.245 55.5212 214.135 55.4482C213.205 54.8102 212.367 54.2451 211.62 53.7529C211.547 53.6982 211.492 53.7165 211.455 53.8076C211.383 54.0811 211.218 54.2816 210.963 54.4092C210.708 54.5186 210.453 54.5094 210.198 54.3818L210.061 54.3271C209.751 54.1631 209.523 53.917 209.377 53.5889C209.304 53.4066 209.268 53.2152 209.268 53.0146C209.268 52.8688 209.286 52.7321 209.323 52.6045C209.997 50.2347 210.653 47.6644 211.291 44.8936C211.31 44.766 211.255 44.7021 211.127 44.7021H209.815C209.487 44.7021 209.195 44.5837 208.94 44.3467C208.703 44.0915 208.584 43.7998 208.584 43.4717C208.584 43.1253 208.703 42.8337 208.94 42.5967C209.195 42.3597 209.487 42.2412 209.815 42.2412H211.674C211.82 42.2412 211.911 42.1683 211.948 42.0225C212.239 40.7464 212.531 39.3519 212.823 37.8389C212.896 37.4925 213.078 37.2191 213.37 37.0186C213.606 36.8363 213.871 36.7451 214.162 36.7451C214.217 36.7451 214.272 36.7451 214.327 36.7451C214.673 36.7998 214.937 36.9639 215.12 37.2373C215.265 37.4378 215.338 37.6566 215.338 37.8936C215.338 37.9665 215.329 38.0485 215.311 38.1396C214.928 39.9079 214.646 41.2021 214.463 42.0225C214.427 42.1683 214.481 42.2412 214.627 42.2412H218.373C218.41 42.2412 218.437 42.2321 218.455 42.2139ZM224.553 56.8428C224.553 56.9704 224.617 57.0342 224.745 57.0342H230.323C230.468 57.0342 230.541 56.9704 230.541 56.8428V42.2412C230.541 42.0954 230.468 42.0225 230.323 42.0225H224.745C224.617 42.0225 224.553 42.0954 224.553 42.2412V56.8428ZM222.065 41.1748C222.065 40.7373 222.22 40.3636 222.53 40.0537C222.84 39.7256 223.222 39.5615 223.678 39.5615H231.498C231.954 39.5615 232.337 39.7256 232.647 40.0537C232.957 40.3636 233.112 40.7373 233.112 41.1748V59.9053C233.112 60.2516 232.984 60.5524 232.729 60.8076C232.492 61.0628 232.191 61.1904 231.827 61.1904C231.48 61.1904 231.179 61.0628 230.924 60.8076C230.669 60.5524 230.541 60.2516 230.541 59.9053V59.6865C230.541 59.5589 230.478 59.4951 230.35 59.4951H224.745C224.617 59.4951 224.553 59.568 224.553 59.7139V60.3701C224.553 60.7165 224.425 61.0081 224.17 61.2451C223.933 61.4821 223.642 61.6006 223.295 61.6006C222.949 61.6006 222.657 61.4821 222.42 61.2451C222.183 61.0081 222.065 60.7165 222.065 60.3701V41.1748ZM248.557 54.5459C248.684 54.5094 248.803 54.4912 248.912 54.4912C249.094 54.4912 249.277 54.5459 249.459 54.6553C249.751 54.8193 249.924 55.0654 249.978 55.3936C249.997 55.4847 250.006 55.5758 250.006 55.667C250.006 55.9222 249.933 56.1592 249.787 56.3779C249.605 56.7061 249.35 56.9248 249.021 57.0342C246.797 57.7998 244.683 58.5107 242.678 59.167C242.532 59.2217 242.395 59.249 242.267 59.249C242.067 59.249 241.866 59.1852 241.666 59.0576C241.356 58.8936 241.155 58.6292 241.064 58.2646C241.046 58.1553 241.037 58.0459 241.037 57.9365C241.037 57.6813 241.101 57.4443 241.228 57.2256C241.429 56.8975 241.711 56.6787 242.076 56.5693C242.842 56.3506 243.534 56.1501 244.154 55.9678C244.282 55.9131 244.346 55.8219 244.346 55.6943V48.9951C244.346 48.8493 244.273 48.7764 244.127 48.7764H242.514C242.185 48.7764 241.903 48.6579 241.666 48.4209C241.429 48.1839 241.31 47.9014 241.31 47.5732C241.31 47.2451 241.429 46.9626 241.666 46.7256C241.903 46.4886 242.185 46.3701 242.514 46.3701H244.127C244.273 46.3701 244.346 46.3063 244.346 46.1787V41.0107C244.346 40.8649 244.273 40.792 244.127 40.792H242.24C241.912 40.792 241.629 40.6826 241.392 40.4639C241.155 40.2269 241.037 39.9443 241.037 39.6162C241.037 39.2699 241.155 38.9782 241.392 38.7412C241.629 38.5042 241.912 38.3857 242.24 38.3857H248.748C249.076 38.3857 249.359 38.5042 249.596 38.7412C249.833 38.9782 249.951 39.2699 249.951 39.6162C249.951 39.9443 249.833 40.2269 249.596 40.4639C249.359 40.6826 249.076 40.792 248.748 40.792H247.053C246.907 40.792 246.834 40.8649 246.834 41.0107V46.1787C246.834 46.3063 246.907 46.3701 247.053 46.3701H248.283C248.629 46.3701 248.912 46.4886 249.131 46.7256C249.368 46.9626 249.486 47.2451 249.486 47.5732C249.486 47.9014 249.368 48.1839 249.131 48.4209C248.912 48.6579 248.629 48.7764 248.283 48.7764H247.053C246.907 48.7764 246.834 48.8493 246.834 48.9951V54.9014C246.834 54.9561 246.852 55.0016 246.889 55.0381C246.943 55.0563 246.989 55.0563 247.025 55.0381C247.153 55.0016 247.39 54.9287 247.736 54.8193C248.101 54.71 248.374 54.6188 248.557 54.5459ZM253.725 45.1943C253.597 45.1943 253.533 45.2673 253.533 45.4131V48.0654C253.533 48.2113 253.597 48.2842 253.725 48.2842H256.978C257.124 48.2842 257.197 48.2113 257.197 48.0654V45.4131C257.197 45.2673 257.124 45.1943 256.978 45.1943H253.725ZM253.725 40.1084C253.597 40.1084 253.533 40.1722 253.533 40.2998V42.9248C253.533 43.0524 253.597 43.1162 253.725 43.1162H256.978C257.124 43.1162 257.197 43.0524 257.197 42.9248V40.2998C257.197 40.1722 257.124 40.1084 256.978 40.1084H253.725ZM262.775 43.1162C262.921 43.1162 262.994 43.0524 262.994 42.9248V40.2998C262.994 40.1722 262.921 40.1084 262.775 40.1084H259.603C259.476 40.1084 259.412 40.1722 259.412 40.2998V42.9248C259.412 43.0524 259.476 43.1162 259.603 43.1162H262.775ZM262.775 48.2842C262.921 48.2842 262.994 48.2113 262.994 48.0654V45.4131C262.994 45.2673 262.921 45.1943 262.775 45.1943H259.603C259.476 45.1943 259.412 45.2673 259.412 45.4131V48.0654C259.412 48.2113 259.476 48.2842 259.603 48.2842H262.775ZM259.631 58.8662C259.631 58.9938 259.704 59.0576 259.85 59.0576H265.564C265.892 59.0576 266.166 59.1761 266.385 59.4131C266.622 59.6501 266.74 59.9326 266.74 60.2607C266.74 60.5889 266.622 60.8623 266.385 61.0811C266.166 61.318 265.892 61.4365 265.564 61.4365H250.033C249.705 61.4365 249.422 61.318 249.185 61.0811C248.967 60.8623 248.857 60.5889 248.857 60.2607C248.857 59.9326 248.967 59.6501 249.185 59.4131C249.422 59.1761 249.705 59.0576 250.033 59.0576H256.76C256.905 59.0576 256.978 58.9938 256.978 58.8662V55.9404C256.978 55.7946 256.905 55.7217 256.76 55.7217H252.084C251.756 55.7217 251.473 55.6123 251.236 55.3936C251.017 55.1566 250.908 54.874 250.908 54.5459C250.908 54.2178 251.017 53.9443 251.236 53.7256C251.473 53.4886 251.756 53.3701 252.084 53.3701H256.76C256.905 53.3701 256.978 53.3063 256.978 53.1787V50.6904C256.978 50.5628 256.905 50.499 256.76 50.499H252.767C252.312 50.499 251.929 50.3441 251.619 50.0342C251.309 49.7061 251.154 49.3232 251.154 48.8857V39.5068C251.154 39.0693 251.309 38.6956 251.619 38.3857C251.929 38.0576 252.312 37.8936 252.767 37.8936H263.869C264.307 37.8936 264.68 38.0576 264.99 38.3857C265.318 38.6956 265.482 39.0693 265.482 39.5068V48.8857C265.482 49.3232 265.318 49.7061 264.99 50.0342C264.68 50.3441 264.307 50.499 263.869 50.499H259.85C259.704 50.499 259.631 50.5628 259.631 50.6904V53.1787C259.631 53.3063 259.704 53.3701 259.85 53.3701H264.662C264.99 53.3701 265.264 53.4886 265.482 53.7256C265.719 53.9443 265.838 54.2178 265.838 54.5459C265.838 54.874 265.719 55.1566 265.482 55.3936C265.264 55.6123 264.99 55.7217 264.662 55.7217H259.85C259.704 55.7217 259.631 55.7946 259.631 55.9404V58.8662ZM293.204 56.2412C293.332 56.2412 293.396 56.1683 293.396 56.0225V54.71C293.396 54.5641 293.332 54.4912 293.204 54.4912H287.654C287.508 54.4912 287.435 54.5641 287.435 54.71V56.0225C287.435 56.1683 287.508 56.2412 287.654 56.2412H293.204ZM287.654 50.8545C287.508 50.8545 287.435 50.9274 287.435 51.0732V52.249C287.435 52.3766 287.508 52.4404 287.654 52.4404H293.204C293.332 52.4404 293.396 52.3766 293.396 52.249V51.0732C293.396 50.9274 293.332 50.8545 293.204 50.8545H287.654ZM279.533 45.4131C279.533 45.5589 279.606 45.6318 279.751 45.6318H284.591C284.737 45.6318 284.81 45.5589 284.81 45.4131V44.1553C284.81 44.0094 284.737 43.9365 284.591 43.9365H279.751C279.606 43.9365 279.533 44.0094 279.533 44.1553V45.4131ZM292.958 44.1553C292.958 44.0094 292.885 43.9365 292.74 43.9365H287.654C287.508 43.9365 287.435 44.0094 287.435 44.1553V45.4131C287.435 45.5589 287.508 45.6318 287.654 45.6318H292.74C292.885 45.6318 292.958 45.5589 292.958 45.4131V44.1553ZM297.935 52.4404C298.208 52.4404 298.445 52.5407 298.646 52.7412C298.846 52.9417 298.947 53.1878 298.947 53.4795C298.947 53.7529 298.846 53.9899 298.646 54.1904C298.445 54.391 298.208 54.4912 297.935 54.4912H296.24C296.094 54.4912 296.021 54.5641 296.021 54.71V58.0732C296.021 58.4378 295.893 58.7477 295.638 59.0029C295.383 59.2581 295.073 59.3857 294.708 59.3857H294.462C294.171 59.3857 293.915 59.2855 293.697 59.085C293.496 58.8662 293.396 58.611 293.396 58.3193C293.396 58.2282 293.35 58.1826 293.259 58.1826H287.654C287.508 58.1826 287.435 58.2555 287.435 58.4014V59.6592C287.435 60.3519 287.335 60.8714 287.134 61.2178C286.934 61.5824 286.596 61.8558 286.122 62.0381C285.484 62.2568 284.281 62.3753 282.513 62.3936C282.513 62.3936 282.504 62.3936 282.486 62.3936C282.158 62.3936 281.866 62.2933 281.611 62.0928C281.337 61.8923 281.128 61.6279 280.982 61.2998C280.891 61.0811 280.909 60.8623 281.037 60.6436C281.164 60.4248 281.356 60.3154 281.611 60.3154C282.212 60.3337 282.714 60.3428 283.115 60.3428C283.57 60.3428 283.908 60.3337 284.126 60.3154C284.382 60.2972 284.555 60.2425 284.646 60.1514C284.755 60.0785 284.81 59.9235 284.81 59.6865V58.4014C284.81 58.2555 284.737 58.1826 284.591 58.1826H277.044C276.771 58.1826 276.534 58.0915 276.333 57.9092C276.151 57.7087 276.06 57.4808 276.06 57.2256C276.06 56.9521 276.151 56.7243 276.333 56.542C276.534 56.3415 276.771 56.2412 277.044 56.2412H284.591C284.737 56.2412 284.81 56.1683 284.81 56.0225V54.71C284.81 54.5641 284.737 54.4912 284.591 54.4912H274.638C274.346 54.4912 274.1 54.391 273.9 54.1904C273.699 53.9899 273.599 53.7529 273.599 53.4795C273.599 53.1878 273.699 52.9417 273.9 52.7412C274.1 52.5407 274.346 52.4404 274.638 52.4404H284.591C284.737 52.4404 284.81 52.3766 284.81 52.249V51.0732C284.81 50.9274 284.737 50.8545 284.591 50.8545H277.236C276.981 50.8545 276.762 50.7633 276.579 50.5811C276.415 50.3988 276.333 50.18 276.333 49.9248C276.333 49.6696 276.415 49.4508 276.579 49.2686C276.762 49.0863 276.981 48.9951 277.236 48.9951H284.591C284.737 48.9951 284.81 48.9313 284.81 48.8037V47.5732C284.81 47.4274 284.737 47.3545 284.591 47.3545H278.658C278.22 47.3545 277.837 47.1995 277.509 46.8896C277.199 46.5615 277.044 46.1787 277.044 45.7412V43.8271C277.044 43.3714 277.199 42.9886 277.509 42.6787C277.837 42.3688 278.22 42.2139 278.658 42.2139H284.591C284.737 42.2139 284.81 42.141 284.81 41.9951V40.9834C284.81 40.8376 284.737 40.7646 284.591 40.7646H275.24C274.948 40.7646 274.702 40.6644 274.501 40.4639C274.301 40.2633 274.201 40.0173 274.201 39.7256C274.201 39.4339 274.301 39.1878 274.501 38.9873C274.702 38.7868 274.948 38.6865 275.24 38.6865H284.591C284.737 38.6865 284.81 38.6136 284.81 38.4678V37.9482C284.81 37.5837 284.938 37.2738 285.193 37.0186C285.448 36.7633 285.758 36.6357 286.122 36.6357C286.487 36.6357 286.797 36.7633 287.052 37.0186C287.307 37.2738 287.435 37.5837 287.435 37.9482V38.4678C287.435 38.6136 287.508 38.6865 287.654 38.6865H297.306C297.598 38.6865 297.844 38.7868 298.044 38.9873C298.245 39.1878 298.345 39.4339 298.345 39.7256C298.345 40.0173 298.245 40.2633 298.044 40.4639C297.844 40.6644 297.598 40.7646 297.306 40.7646H287.654C287.508 40.7646 287.435 40.8376 287.435 40.9834V41.9951C287.435 42.141 287.508 42.2139 287.654 42.2139H293.97C294.408 42.2139 294.781 42.3688 295.091 42.6787C295.419 42.9886 295.583 43.3714 295.583 43.8271V45.7412C295.583 46.1787 295.419 46.5615 295.091 46.8896C294.781 47.1995 294.408 47.3545 293.97 47.3545H287.654C287.508 47.3545 287.435 47.4274 287.435 47.5732V48.8037C287.435 48.9313 287.508 48.9951 287.654 48.9951H294.408C294.863 48.9951 295.246 49.1592 295.556 49.4873C295.866 49.7972 296.021 50.1709 296.021 50.6084V52.249C296.021 52.3766 296.094 52.4404 296.24 52.4404H297.935ZM327.79 51.6475C327.826 51.6292 327.836 51.6019 327.817 51.5654C327.799 51.529 327.772 51.5107 327.735 51.5107H320.188C320.152 51.5107 320.115 51.529 320.079 51.5654C320.061 51.6019 320.07 51.6475 320.106 51.7021C320.763 52.9053 321.546 53.9717 322.458 54.9014C322.549 54.9925 322.658 55.0016 322.786 54.9287C324.919 53.7256 326.587 52.6318 327.79 51.6475ZM328.227 51.5107C328.191 51.5107 328.164 51.529 328.145 51.5654C328.145 51.5837 328.155 51.6019 328.173 51.6201L328.774 52.0303C329.102 52.249 329.267 52.5589 329.267 52.96C329.267 53.3428 329.112 53.6436 328.802 53.8623C327.507 54.7191 326.076 55.5576 324.509 56.3779C324.454 56.3962 324.427 56.4326 324.427 56.4873C324.427 56.5238 324.445 56.5511 324.481 56.5693C326.177 57.7178 328.109 58.5745 330.278 59.1396C330.57 59.2126 330.761 59.3949 330.852 59.6865C330.944 59.9782 330.898 60.2516 330.716 60.5068C330.479 60.8714 330.169 61.1357 329.786 61.2998C329.567 61.4092 329.339 61.4639 329.102 61.4639C328.957 61.4639 328.802 61.4456 328.638 61.4092C326.14 60.68 324.007 59.5954 322.239 58.1553C320.216 56.4964 318.612 54.3454 317.427 51.7021C317.372 51.5745 317.272 51.5107 317.126 51.5107H313.899C313.772 51.5107 313.708 51.5745 313.708 51.7021V57.9912C313.708 58.137 313.772 58.2008 313.899 58.1826L319.286 57.335C319.359 57.335 319.423 57.335 319.477 57.335C319.714 57.335 319.924 57.4079 320.106 57.5537C320.38 57.7725 320.517 58.0641 320.517 58.4287C320.517 58.7021 320.425 58.9574 320.243 59.1943C320.043 59.4495 319.787 59.6045 319.477 59.6592C316.105 60.2425 312.742 60.7985 309.388 61.3271C309.296 61.3454 309.214 61.3545 309.142 61.3545C308.886 61.3545 308.64 61.2816 308.403 61.1357C308.112 60.9352 307.929 60.6709 307.856 60.3428C307.82 60.2334 307.802 60.1331 307.802 60.042C307.802 59.8232 307.865 59.6227 307.993 59.4404C308.175 59.167 308.431 59.0029 308.759 58.9482C309.251 58.8753 309.944 58.7751 310.837 58.6475C310.964 58.6292 311.028 58.5563 311.028 58.4287V51.7021C311.028 51.5745 310.964 51.5107 310.837 51.5107H307.392C307.082 51.5107 306.808 51.4014 306.571 51.1826C306.352 50.9456 306.243 50.6722 306.243 50.3623C306.243 50.0342 306.352 49.7607 306.571 49.542C306.808 49.305 307.082 49.1865 307.392 49.1865H310.837C310.983 49.1865 311.056 49.1136 311.056 48.9678V38.6592C311.056 38.2217 311.211 37.848 311.52 37.5381C311.849 37.21 312.231 37.0459 312.669 37.0459H327.27C327.58 37.0459 327.836 37.1553 328.036 37.374C328.255 37.5745 328.364 37.8298 328.364 38.1396C328.364 38.4495 328.255 38.7139 328.036 38.9326C327.836 39.1331 327.58 39.2334 327.27 39.2334H313.899C313.772 39.2334 313.708 39.3063 313.708 39.4521V40.9287C313.708 41.0745 313.772 41.1475 313.899 41.1475H326.532C326.824 41.1475 327.07 41.2477 327.27 41.4482C327.471 41.6488 327.571 41.8949 327.571 42.1865C327.571 42.4782 327.471 42.7243 327.27 42.9248C327.07 43.1253 326.824 43.2256 326.532 43.2256H313.899C313.772 43.2256 313.708 43.2985 313.708 43.4443V44.9756C313.708 45.1032 313.772 45.167 313.899 45.167H326.532C326.824 45.167 327.07 45.2673 327.27 45.4678C327.471 45.6683 327.571 45.9144 327.571 46.2061C327.571 46.4795 327.471 46.7165 327.27 46.917C327.07 47.1175 326.824 47.2178 326.532 47.2178H313.899C313.772 47.2178 313.708 47.2907 313.708 47.4365V48.9678C313.708 49.1136 313.772 49.1865 313.899 49.1865H330.032C330.342 49.1865 330.606 49.305 330.825 49.542C331.062 49.7607 331.181 50.0342 331.181 50.3623C331.181 50.6722 331.062 50.9456 330.825 51.1826C330.606 51.4014 330.342 51.5107 330.032 51.5107H328.227Z" fill="white"/>
</svg>
