<svg width="369" height="49" viewBox="0 0 369 49" fill="none" xmlns="http://www.w3.org/2000/svg">
<path d="M1.456 37.628C1.328 37.628 1.22133 37.5853 1.136 37.5C0.986667 37.3507 0.858667 37.1907 0.752 37.02C0.645333 36.8493 0.592 36.636 0.592 36.38C0.592 36.0387 0.698667 35.58 0.912 35.004C1.12533 34.4493 1.47733 33.692 1.968 32.732C3.01333 30.7053 4.35733 28.6467 6 26.556C7.664 24.4653 9.424 22.5133 11.28 20.7C11.472 20.508 11.7067 20.348 11.984 20.22C12.2613 20.0707 12.496 19.9 12.688 19.708C12.7947 19.6227 12.8587 19.5587 12.88 19.516C12.9013 19.4733 12.912 19.4413 12.912 19.42V19.388C12.912 19.3453 12.9227 19.3027 12.944 19.26C12.9867 19.196 13.0613 19.1213 13.168 19.036C14.0213 18.2893 14.832 17.5533 15.6 16.828C16.368 16.1027 17.104 15.5053 17.808 15.036C18.512 14.5667 19.1947 14.332 19.856 14.332C19.9413 14.332 20.016 14.3427 20.08 14.364C20.1653 14.364 20.2507 14.3747 20.336 14.396C20.5493 14.4173 20.72 14.4493 20.848 14.492C20.9973 14.5133 21.072 14.588 21.072 14.716C21.072 14.844 20.944 15.0893 20.688 15.452C20.176 16.1347 19.7173 16.988 19.312 18.012C18.928 19.0147 18.5867 20.0813 18.288 21.212C18.0107 22.3213 17.7653 23.3773 17.552 24.38C17.3387 25.3827 17.1573 26.2147 17.008 26.876C16.944 27.196 16.912 27.388 16.912 27.452C16.912 27.5373 16.9227 27.6013 16.944 27.644C16.9867 27.6653 17.0187 27.7187 17.04 27.804C17.0613 27.868 17.1147 28.0067 17.2 28.22C17.3067 28.4333 17.36 28.508 17.36 28.444C18.128 28.0813 18.8747 27.5693 19.6 26.908C20.3467 26.2467 21.2 25.4147 22.16 24.412C23.1413 23.388 24.368 22.172 25.84 20.764C25.9893 20.636 26.1173 20.5507 26.224 20.508C26.3307 20.4653 26.4267 20.4013 26.512 20.316C26.5547 20.2733 26.608 20.188 26.672 20.06C26.736 19.932 26.8107 19.836 26.896 19.772C27.7707 18.8973 28.6027 18.0013 29.392 17.084C30.1813 16.1667 31.0773 15.2813 32.08 14.428C32.1653 14.364 32.24 14.2573 32.304 14.108C32.3893 13.9587 32.4747 13.8413 32.56 13.756C32.6027 13.6707 32.6133 13.5853 32.592 13.5C32.592 13.3933 32.6453 13.2867 32.752 13.18C32.8373 13.116 32.9547 13.0627 33.104 13.02C33.2747 12.9773 33.4027 12.9133 33.488 12.828C33.6587 12.7 33.8827 12.636 34.16 12.636C34.544 12.636 34.9173 12.7533 35.28 12.988C35.664 13.2013 35.856 13.468 35.856 13.788C35.856 14.0013 35.7707 14.1933 35.6 14.364C35.472 14.5133 35.3013 14.652 35.088 14.78C34.896 14.8867 34.7253 15.0253 34.576 15.196C34.4693 15.3453 34.2987 15.484 34.064 15.612C33.8507 15.7187 33.7013 15.8253 33.616 15.932C32.5067 17.212 31.5253 18.5027 30.672 19.804C29.8187 21.084 29.0187 22.364 28.272 23.644C27.6107 24.8173 27.0027 26.012 26.448 27.228C25.9147 28.4227 25.4773 29.4893 25.136 30.428C24.816 31.3667 24.624 32.0387 24.56 32.444C24.5387 32.6573 24.4853 32.892 24.4 33.148C24.3147 33.404 24.2933 33.5533 24.336 33.596C24.4 33.6813 24.4533 33.7773 24.496 33.884C24.56 34.012 24.592 34.1507 24.592 34.3C24.592 34.5987 24.432 34.8547 24.112 35.068C24.0693 35.0893 24.016 35.1 23.952 35.1C23.8027 35.1 23.6747 35.036 23.568 34.908C23.4827 34.78 23.3867 34.6413 23.28 34.492C23.216 34.3427 23.1627 34.2147 23.12 34.108C23.0773 34.0013 23.056 33.884 23.056 33.756C23.056 33.628 23.088 33.468 23.152 33.276C23.1733 33.2547 23.184 33.2227 23.184 33.18C23.184 33.0733 23.152 32.9667 23.088 32.86C23.024 32.732 23.0133 32.5933 23.056 32.444C23.1627 32.1453 23.2373 31.7507 23.28 31.26C23.344 30.7693 23.4507 30.3533 23.6 30.012C23.9413 29.2867 24.2187 28.5933 24.432 27.932C24.6453 27.2707 24.8693 26.62 25.104 25.98C25.3387 25.3187 25.6587 24.6787 26.064 24.06C26.064 24.06 26.1067 23.9213 26.192 23.644C26.2773 23.3453 26.352 23.1427 26.416 23.036L26.448 23.004C26.96 22.236 27.3227 21.66 27.536 21.276C27.7493 20.892 27.9093 20.5827 28.016 20.348C28.1227 20.1133 28.272 19.8467 28.464 19.548L28.336 19.676L28.304 19.74C26.8747 21.1053 25.7227 22.2147 24.848 23.068C23.9947 23.9 23.312 24.572 22.8 25.084C22.3093 25.596 21.8933 26.012 21.552 26.332C21.232 26.652 20.8907 26.9613 20.528 27.26C20.1867 27.5373 19.7387 27.8893 19.184 28.316C19.0347 28.4227 18.8853 28.5827 18.736 28.796C18.5867 28.988 18.4373 29.1373 18.288 29.244V29.212C18.1173 29.3187 17.9253 29.4573 17.712 29.628C17.4987 29.7773 17.296 29.9053 17.104 30.012C17.0187 30.0547 16.8587 30.108 16.624 30.172C16.4107 30.236 16.1867 30.268 15.952 30.268C15.696 30.268 15.504 30.2147 15.376 30.108C15.248 29.9373 15.152 29.6813 15.088 29.34C15.0453 28.9987 15.024 28.668 15.024 28.348C15.024 27.9853 15.0453 27.6973 15.088 27.484C15.2587 26.8013 15.3867 26.3 15.472 25.98C15.5573 25.66 15.6107 25.4467 15.632 25.34C15.6747 25.2333 15.696 25.1693 15.696 25.148C15.696 25.1053 15.696 25.0307 15.696 24.924C15.696 24.8813 15.696 24.8067 15.696 24.7C15.696 24.572 15.7067 24.4227 15.728 24.252C15.7493 24.0387 15.8027 23.7187 15.888 23.292C15.9733 22.844 16.08 22.4067 16.208 21.98C16.3573 21.532 16.4853 21.212 16.592 21.02C16.6347 20.9773 16.688 20.8067 16.752 20.508C16.816 20.188 16.8907 19.836 16.976 19.452C17.0613 19.068 17.1253 18.7267 17.168 18.428C17.2107 18.1293 17.2213 17.9693 17.2 17.948C16.9227 18.0973 16.336 18.5133 15.44 19.196C14.544 19.8787 13.4027 20.9133 12.016 22.3C11.824 22.492 11.6107 22.6733 11.376 22.844C11.1627 22.9933 10.96 23.164 10.768 23.356C10.6187 23.5053 10.384 23.772 10.064 24.156C9.744 24.5187 9.424 24.892 9.104 25.276C8.784 25.6387 8.54933 25.8947 8.4 26.044L7.12 27.452C6.05333 28.6467 5.22133 29.6387 4.624 30.428C4.048 31.2173 3.6 31.8893 3.28 32.444C2.96 32.9773 2.65067 33.4893 2.352 33.98C2.224 34.1507 2.16 34.3213 2.16 34.492C2.16 34.6627 2.16 34.844 2.16 35.036C2.16 35.1 2.16 35.164 2.16 35.228C2.16 35.292 2.14933 35.356 2.128 35.42C2.064 35.612 2.032 35.8893 2.032 36.252C2.05333 36.6147 2.04267 36.8813 2 37.052V37.02C1.97867 37.2333 1.91467 37.3827 1.808 37.468C1.70133 37.5747 1.584 37.628 1.456 37.628ZM36.9247 33.468C36.5834 33.468 36.3167 33.4147 36.1247 33.308C35.9327 33.18 35.7514 33.052 35.5807 32.924C35.1967 32.604 35.0047 32.0173 35.0047 31.164C35.0047 30.5453 35.1221 29.8413 35.3567 29.052C35.5914 28.2413 35.9754 27.3987 36.5087 26.524V26.556C36.7434 26.1293 36.9781 25.7027 37.2127 25.276C37.4687 24.8493 37.7354 24.4333 38.0127 24.028C38.0981 23.9427 38.1834 23.8893 38.2687 23.868C38.3541 23.8253 38.4181 23.7827 38.4607 23.74C38.4607 23.6547 38.4821 23.5373 38.5247 23.388C38.5887 23.2173 38.6634 23.1 38.7487 23.036C39.1327 22.524 39.5701 22.14 40.0607 21.884C40.5514 21.628 40.9354 21.4147 41.2127 21.244H41.1807C41.3087 21.18 41.4581 21.148 41.6287 21.148C42.0554 21.148 42.5567 21.308 43.1327 21.628C43.2181 21.628 43.3034 21.6173 43.3887 21.596C43.4954 21.5533 43.6021 21.532 43.7087 21.532C43.9221 21.532 44.1354 21.6067 44.3487 21.756C44.5834 21.9053 44.6794 22.14 44.6367 22.46C44.6154 22.524 44.6047 22.5773 44.6047 22.62C44.6047 22.6627 44.6047 22.7053 44.6047 22.748C44.6047 22.9827 44.6901 23.1 44.8607 23.1C44.9461 23.1 45.0314 23.0893 45.1167 23.068C45.2021 23.0467 45.2874 23.036 45.3727 23.036C45.6074 23.036 45.9381 23.004 46.3647 22.94C46.7914 22.8547 47.1967 22.78 47.5807 22.716C47.9861 22.6307 48.2634 22.588 48.4127 22.588C48.4981 22.652 48.5407 22.7267 48.5407 22.812C48.5407 22.8973 48.4981 22.9933 48.4127 23.1C48.3487 23.2067 48.2741 23.2813 48.1887 23.324C48.1887 23.324 48.0501 23.3667 47.7727 23.452C47.5167 23.516 47.1967 23.6013 46.8127 23.708C46.4287 23.8147 46.0447 23.9213 45.6607 24.028C45.2981 24.1133 45.0101 24.1667 44.7967 24.188L44.4767 24.22C44.4554 24.476 44.3914 24.7533 44.2847 25.052C44.1781 25.3507 44.0607 25.6813 43.9327 26.044C43.8901 26.1507 43.8581 26.2893 43.8367 26.46C43.8154 26.6093 43.7727 26.7693 43.7087 26.94C43.5594 27.196 43.3887 27.452 43.1967 27.708C43.0047 27.964 42.8234 28.2307 42.6527 28.508C42.5247 28.7213 42.3861 28.956 42.2367 29.212C42.1087 29.4467 41.9487 29.692 41.7567 29.948C41.3301 30.5027 40.8287 31.0573 40.2527 31.612C39.6981 32.1453 39.1221 32.5933 38.5247 32.956C37.9487 33.2973 37.4154 33.468 36.9247 33.468ZM37.2127 32.412C37.6394 32.412 38.2261 32.1133 38.9727 31.516C39.7407 30.8973 40.4554 30.108 41.1167 29.148H41.0847C41.2554 28.892 41.4261 28.5933 41.5967 28.252C41.7887 27.9107 41.9381 27.6227 42.0447 27.388C42.0447 27.388 42.0981 27.324 42.2047 27.196C42.3327 27.068 42.4607 26.9293 42.5887 26.78C42.7167 26.6093 42.7914 26.4813 42.8127 26.396C42.8341 26.3533 42.8447 26.3 42.8447 26.236C42.8447 26.1933 42.8341 26.1613 42.8127 26.14C42.8127 26.0973 42.8127 26.0333 42.8127 25.948V25.916C42.9407 25.596 43.0474 25.308 43.1327 25.052C43.2181 24.796 43.2714 24.572 43.2927 24.38C43.1434 24.38 42.9087 24.3693 42.5887 24.348C42.2687 24.3267 42.0021 24.3053 41.7887 24.284C41.5967 24.2627 41.5967 24.252 41.7887 24.252H41.8847C41.8847 24.2307 41.7887 24.188 41.5967 24.124C41.4047 24.06 41.2554 24.0067 41.1487 23.964C41.0847 23.9853 41.0207 23.996 40.9567 23.996C40.8501 23.996 40.7647 23.9747 40.7007 23.932C40.6581 23.8893 40.6047 23.9 40.5407 23.964C40.4554 24.0493 40.4021 24.156 40.3807 24.284C40.3594 24.412 40.2741 24.5507 40.1247 24.7L40.0927 24.732C40.0927 24.7107 40.0394 24.732 39.9327 24.796C39.8261 24.86 39.7834 24.892 39.8047 24.892L39.7727 24.956C39.7301 24.9773 39.6981 25.0413 39.6767 25.148C39.6767 25.2333 39.6447 25.3293 39.5807 25.436C39.3674 25.7773 39.1327 26.14 38.8767 26.524C38.6421 26.8867 38.4181 27.2387 38.2047 27.58V27.548C37.9914 27.932 37.7781 28.348 37.5647 28.796C37.3514 29.244 37.1914 29.6813 37.0847 30.108C37.0847 30.2147 37.0634 30.3213 37.0207 30.428C36.9994 30.5133 36.9887 30.588 36.9887 30.652V30.684C36.9887 30.9187 36.9461 31.1213 36.8607 31.292C36.7754 31.4627 36.7327 31.6333 36.7327 31.804C36.7967 31.9533 36.8181 32.0707 36.7967 32.156C36.7754 32.22 36.8074 32.2733 36.8927 32.316C36.9994 32.38 37.1061 32.412 37.2127 32.412ZM51.4477 33.308C51.3624 33.308 51.3197 33.2333 51.3197 33.084C51.3197 32.956 51.3411 32.8173 51.3837 32.668C51.4264 32.5187 51.4264 32.4653 51.3837 32.508C51.3197 32.4653 51.2877 32.3587 51.2877 32.188C51.2877 31.9533 51.3304 31.6653 51.4157 31.324C51.5224 30.9827 51.6184 30.6627 51.7037 30.364C51.8104 30.0653 51.8637 29.8947 51.8637 29.852C51.9064 29.7667 51.9064 29.7133 51.8637 29.692C51.8211 29.6707 51.8317 29.5853 51.8957 29.436C52.1304 28.9453 52.2904 28.4973 52.3757 28.092C52.4611 27.6653 52.5997 27.2813 52.7917 26.94V26.908C52.8344 26.8653 52.8557 26.7907 52.8557 26.684C52.8771 26.556 52.9304 26.428 53.0157 26.3V26.332C53.0371 26.2893 53.0477 26.1827 53.0477 26.012C53.0477 25.8413 53.0477 25.724 53.0477 25.66C53.1331 25.468 53.1864 25.3507 53.2077 25.308C53.2291 25.2653 53.2397 25.2013 53.2397 25.116C53.2397 24.8173 53.2397 24.6147 53.2397 24.508C53.2397 24.4013 53.2504 24.2413 53.2717 24.028V23.996C53.3357 23.7613 53.4851 23.484 53.7197 23.164C53.9544 22.8227 54.2211 22.5347 54.5197 22.3C54.8184 22.044 55.1064 21.916 55.3837 21.916C55.6184 21.916 55.8317 22.044 56.0237 22.3C56.1304 22.556 56.1837 22.7373 56.1837 22.844C56.1837 23.1213 56.0877 23.388 55.8957 23.644C55.7037 23.9 55.5331 24.3053 55.3837 24.86C55.2557 25.3293 55.0851 25.852 54.8717 26.428C54.6797 26.9827 54.4877 27.5053 54.2957 27.996C54.1037 28.4867 53.9757 28.8707 53.9117 29.148C53.8691 29.4253 53.9331 29.5107 54.1037 29.404C54.1037 29.404 54.1891 29.3613 54.3597 29.276C54.5304 29.1693 54.7117 29.0627 54.9037 28.956C55.0957 28.828 55.2131 28.7427 55.2557 28.7C55.7464 28.2947 56.3544 27.7507 57.0797 27.068C57.8264 26.3853 58.6477 25.7667 59.5437 25.212C59.6077 25.1693 59.7571 25.0733 59.9917 24.924C60.2264 24.7747 60.3864 24.6787 60.4717 24.636C60.5357 24.6147 60.6637 24.508 60.8557 24.316C61.0477 24.1027 61.2397 23.9 61.4317 23.708C61.6451 23.4947 61.7837 23.3773 61.8477 23.356C62.1037 23.2493 62.3064 23.164 62.4557 23.1C62.6051 23.0147 62.7651 22.908 62.9357 22.78C63.1064 22.652 63.3517 22.4707 63.6717 22.236L64.0237 21.852C64.1091 21.8093 64.1731 21.7987 64.2157 21.82C64.2797 21.82 64.3117 21.8093 64.3117 21.788C64.6317 21.404 64.9517 21.1053 65.2717 20.892C65.5917 20.6573 65.8904 20.54 66.1677 20.54C66.2957 20.54 66.4237 20.572 66.5517 20.636L66.5837 20.7C66.5837 20.7 66.5731 20.796 66.5517 20.988C66.5304 21.18 66.4237 21.4253 66.2317 21.724C66.0611 22.0227 65.7304 22.3427 65.2397 22.684C64.9624 22.876 64.5571 23.1747 64.0237 23.58C63.5117 23.9853 62.8184 24.444 61.9437 24.956C61.7731 25.0413 61.5917 25.148 61.3997 25.276C61.2291 25.3827 61.0584 25.4893 60.8877 25.596H60.8557C60.6851 25.6813 60.4824 25.8413 60.2477 26.076C60.0131 26.3107 59.7997 26.5027 59.6077 26.652C59.4797 26.7373 59.3411 26.844 59.1917 26.972C59.0637 27.1 58.9357 27.2173 58.8077 27.324C57.7624 28.0493 56.7704 28.796 55.8317 29.564C54.8931 30.3107 54.0931 31.1533 53.4317 32.092C53.3464 32.22 53.2184 32.38 53.0477 32.572C52.8771 32.764 52.7704 32.9133 52.7277 33.02C52.6211 33.1693 52.4077 33.2333 52.0877 33.212C51.7891 33.1907 51.6291 33.2013 51.6077 33.244C51.5224 33.2867 51.4691 33.308 51.4477 33.308ZM75.883 19.868C75.691 19.868 75.563 19.804 75.499 19.676C75.4563 19.5267 75.4243 19.388 75.403 19.26C75.3817 19.1533 75.3603 19.036 75.339 18.908C75.3177 18.78 75.307 18.652 75.307 18.524C75.307 18.3533 75.3283 18.204 75.371 18.076C75.435 17.9267 75.5417 17.8093 75.691 17.724C76.1817 17.468 76.5977 17.2867 76.939 17.18C77.2803 17.0733 77.5577 17.02 77.771 17.02C78.091 17.02 78.3043 17.116 78.411 17.308C78.5177 17.5 78.571 17.7453 78.571 18.044C78.571 18.1293 78.571 18.2147 78.571 18.3C78.571 18.364 78.5603 18.4493 78.539 18.556C78.475 18.8333 78.2617 19.0253 77.899 19.132C77.5577 19.2387 77.2697 19.3453 77.035 19.452C76.8857 19.5373 76.7043 19.6333 76.491 19.74C76.299 19.8253 76.1177 19.868 75.947 19.868H75.883ZM68.907 33.66C68.8217 33.66 68.747 33.596 68.683 33.468C68.6403 33.2973 68.587 33.148 68.523 33.02C68.459 32.892 68.427 32.7 68.427 32.444C68.427 32.1453 68.491 31.708 68.619 31.132C68.747 30.556 68.9923 29.692 69.355 28.54C69.6323 27.6653 69.8883 26.9613 70.123 26.428C70.3577 25.8947 70.603 25.3827 70.859 24.892V24.86C70.923 24.7747 71.019 24.7 71.147 24.636C71.275 24.572 71.3603 24.508 71.403 24.444H71.371C71.4137 24.4013 71.4243 24.3373 71.403 24.252C71.3817 24.1453 71.371 24.0493 71.371 23.964C71.371 23.7293 71.4457 23.5373 71.595 23.388C71.7657 23.2173 71.9363 23.0573 72.107 22.908C72.2777 22.7373 72.5443 22.5453 72.907 22.332C73.2697 22.1187 73.6963 21.9693 74.187 21.884C74.251 21.8627 74.315 21.852 74.379 21.852C74.443 21.852 74.507 21.852 74.571 21.852C74.9337 21.852 75.211 21.9267 75.403 22.076C75.595 22.2253 75.7337 22.3853 75.819 22.556C75.8617 22.5987 75.9043 22.652 75.947 22.716C75.9897 22.78 76.011 22.8547 76.011 22.94C76.011 23.0253 75.9683 23.1427 75.883 23.292C75.819 23.42 75.6697 23.5907 75.435 23.804C75.3283 23.932 75.1683 24.0707 74.955 24.22C74.763 24.348 74.5817 24.4973 74.411 24.668C74.1977 24.8813 73.995 25.116 73.803 25.372C73.611 25.628 73.4297 25.8733 73.259 26.108C73.1097 26.3213 72.9497 26.524 72.779 26.716C72.6083 26.8867 72.4377 27.068 72.267 27.26C72.1817 27.3453 72.1177 27.5053 72.075 27.74C72.0323 27.9533 71.9363 28.1347 71.787 28.284C71.6377 28.476 71.467 28.6253 71.275 28.732C71.1043 28.8387 70.9657 28.988 70.859 29.18V29.148C70.7523 29.34 70.635 29.564 70.507 29.82C70.379 30.076 70.251 30.3213 70.123 30.556C69.9097 30.9827 69.771 31.3027 69.707 31.516C69.643 31.708 69.611 31.8573 69.611 31.964C69.611 32.092 69.6323 32.1773 69.675 32.22C69.739 32.2627 69.7497 32.3693 69.707 32.54C69.6217 32.732 69.5043 32.9667 69.355 33.244C69.227 33.5213 69.0777 33.66 68.907 33.66ZM80.1475 33.5C79.9555 33.436 79.8595 33.212 79.8595 32.828C79.8595 32.5933 79.8915 32.3267 79.9555 32.028C80.0408 31.7293 80.1582 31.3773 80.3075 30.972V31.068C80.3502 31.068 80.3928 30.9933 80.4355 30.844C80.4782 30.6947 80.4888 30.6093 80.4675 30.588C80.4888 30.46 80.5742 30.3213 80.7235 30.172C80.8942 30.0013 80.9688 29.9053 80.9475 29.884V29.852C80.9902 29.7667 80.9902 29.7133 80.9475 29.692C80.9048 29.6707 80.9155 29.5853 80.9795 29.436C81.2142 28.9453 81.4275 28.4973 81.6195 28.092C81.8115 27.6653 82.0035 27.2813 82.1955 26.94C82.1955 26.94 82.2168 26.8653 82.2595 26.716C82.3022 26.5667 82.3555 26.428 82.4195 26.3V26.364C82.4408 26.2787 82.4942 26.204 82.5795 26.14C82.6648 26.0547 82.7182 26.0013 82.7395 25.98C82.8462 25.788 82.8995 25.6493 82.8995 25.564C82.8995 25.5213 82.8888 25.5 82.8675 25.5C82.8462 25.5 82.8355 25.4893 82.8355 25.468C82.8355 25.4467 82.8568 25.404 82.8995 25.34C82.9422 25.2547 83.0275 25.1267 83.1555 24.956H83.1235C83.2088 24.8493 83.3368 24.6573 83.5075 24.38C83.6995 24.1027 83.8808 23.8253 84.0515 23.548C84.2435 23.2707 84.3608 23.0893 84.4035 23.004C84.5742 22.6413 84.8408 22.3747 85.2035 22.204C85.5875 22.012 85.9608 21.916 86.3235 21.916C86.6648 21.916 86.9528 22.0013 87.1875 22.172C87.4435 22.3213 87.5715 22.5773 87.5715 22.94C87.5715 23.2813 87.4862 23.516 87.3155 23.644C87.1662 23.772 86.9528 23.9107 86.6755 24.06C86.4195 24.188 86.1315 24.4227 85.8115 24.764C85.1928 25.4253 84.7768 25.9693 84.5635 26.396C84.3502 26.8013 84.2222 27.228 84.1795 27.676C84.2648 27.5693 84.3608 27.4733 84.4675 27.388C84.9155 26.94 85.4168 26.5347 85.9715 26.172C86.5475 25.788 87.2728 25.3293 88.1475 24.796H88.2115C88.2328 24.796 88.3715 24.7 88.6275 24.508C88.9048 24.316 89.1822 24.124 89.4595 23.932C89.7582 23.7187 89.9395 23.612 90.0035 23.612C90.0035 23.612 90.1315 23.548 90.3875 23.42C90.6435 23.292 90.9102 23.1853 91.1875 23.1C92.1262 22.78 92.9368 22.62 93.6195 22.62C94.1102 22.62 94.4728 22.7053 94.7075 22.876C94.8995 23.004 94.9955 23.26 94.9955 23.644C94.9955 23.9213 94.9315 24.2413 94.8035 24.604V24.54C94.7822 24.54 94.7395 24.6253 94.6755 24.796C94.6115 24.9453 94.5475 25.0733 94.4835 25.18C94.4408 25.244 94.3662 25.3613 94.2595 25.532C94.1528 25.7027 94.0888 25.8093 94.0675 25.852V25.82C93.9395 26.0547 93.8222 26.236 93.7155 26.364C93.6088 26.4707 93.4808 26.62 93.3315 26.812C93.1182 27.068 92.8302 27.4627 92.4675 27.996C92.1048 28.508 91.7528 29.0627 91.4115 29.66C91.0915 30.236 90.8782 30.7587 90.7715 31.228C90.7502 31.356 90.7075 31.5053 90.6435 31.676C90.6008 31.8253 90.5902 31.9533 90.6115 32.06V32.092C90.6115 32.1347 90.6542 32.1987 90.7395 32.284C90.8248 32.348 90.8782 32.4013 90.8995 32.444C90.9848 32.5293 91.0275 32.6253 91.0275 32.732C91.0275 32.86 90.9528 32.9773 90.8035 33.084C90.6755 33.1693 90.4302 33.1907 90.0675 33.148C89.8328 33.148 89.6728 33.084 89.5875 32.956C89.5235 32.828 89.4488 32.6893 89.3635 32.54V32.508C89.3635 32.4653 89.3528 32.4227 89.3315 32.38C89.3315 32.3373 89.3315 32.2733 89.3315 32.188C89.3528 32.1453 89.3208 32.124 89.2355 32.124C89.1715 32.1027 89.0968 32.0173 89.0115 31.868C89.0115 31.868 89.0008 31.7613 88.9795 31.548C88.9582 31.3347 88.9475 31.1853 88.9475 31.1C88.9475 30.8867 89.0222 30.6307 89.1715 30.332C89.3208 30.012 89.4382 29.7347 89.5235 29.5C89.6302 29.2653 89.8542 28.924 90.1955 28.476C90.5368 28.028 90.8888 27.5693 91.2515 27.1C91.6355 26.6093 91.9235 26.204 92.1155 25.884C92.3288 25.5213 92.4355 25.2013 92.4355 24.924C92.4355 24.668 92.3608 24.4867 92.2115 24.38C92.0622 24.252 91.8915 24.188 91.6995 24.188C91.5928 24.188 91.4328 24.1987 91.2195 24.22C91.0275 24.2413 90.8355 24.2947 90.6435 24.38C90.5582 24.4013 90.4088 24.4867 90.1955 24.636C90.0035 24.7853 89.8115 24.924 89.6195 25.052C89.4275 25.18 89.2995 25.244 89.2355 25.244C89.0862 25.3507 88.9475 25.4573 88.8195 25.564C88.6915 25.6493 88.5208 25.756 88.3075 25.884L87.3155 26.524C86.2488 27.2067 85.2355 27.996 84.2755 28.892C83.3368 29.788 82.5262 30.7053 81.8435 31.644C81.7582 31.7507 81.6942 31.9 81.6515 32.092C81.6088 32.284 81.5555 32.444 81.4915 32.572C81.4062 32.7213 81.3208 32.828 81.2355 32.892C81.1502 32.9347 81.0862 32.9773 81.0435 33.02C80.8728 33.2333 80.7022 33.372 80.5315 33.436C80.3822 33.4787 80.2542 33.5 80.1475 33.5ZM98.3445 45.468C97.6405 45.468 97.0858 45.2227 96.6805 44.732C96.2538 44.2627 95.9552 43.6973 95.7845 43.036C95.5925 42.396 95.4965 41.82 95.4965 41.308C95.6032 40.8173 95.6885 40.4227 95.7525 40.124C95.7952 39.8467 95.9872 39.4947 96.3285 39.068C96.4778 38.9187 96.5952 38.844 96.6805 38.844C96.7872 38.844 96.8405 38.9507 96.8405 39.164C96.8192 39.3773 96.8085 39.612 96.8085 39.868C96.8085 40.188 96.8085 40.604 96.8085 41.116C96.8085 41.628 96.8512 42.14 96.9365 42.652C97.0005 43.1853 97.1498 43.6227 97.3845 43.964C97.5978 44.3267 97.9178 44.508 98.3445 44.508C99.1552 44.508 99.8698 44.2947 100.488 43.868C101.128 43.4627 101.704 42.9293 102.216 42.268C102.728 41.628 103.208 40.956 103.656 40.252C103.827 39.996 104.019 39.7613 104.232 39.548C104.446 39.3347 104.627 39.1107 104.776 38.876C104.947 38.62 105.075 38.3533 105.16 38.076C105.267 37.7987 105.395 37.5533 105.544 37.34C106.206 36.4227 106.75 35.4093 107.176 34.3C107.603 33.1907 108.104 32.1027 108.68 31.036C108.787 30.6947 108.947 30.3 109.16 29.852C109.395 29.2973 109.544 28.9027 109.608 28.668C109.694 28.4333 109.736 28.2733 109.736 28.188C109.736 28.0813 109.736 27.9853 109.736 27.9C109.523 28.0493 109.352 28.156 109.224 28.22C109.118 28.2627 108.99 28.3267 108.84 28.412C108.691 28.4973 108.456 28.7 108.136 29.02L108.104 29.052C108.083 29.0307 108.008 29.084 107.88 29.212C107.774 29.34 107.678 29.4253 107.592 29.468C107.464 29.5533 107.262 29.7347 106.984 30.012C106.707 30.268 106.515 30.4387 106.408 30.524C105.683 31.0573 105.075 31.516 104.584 31.9C104.094 32.284 103.507 32.6573 102.824 33.02L102.632 33.244L102.568 33.276C102.526 33.276 102.419 33.2867 102.248 33.308C102.099 33.3293 102.067 33.34 102.152 33.34H102.184C102.035 33.4253 101.886 33.4893 101.736 33.532C101.608 33.596 101.491 33.66 101.384 33.724C101.107 33.8307 100.851 33.884 100.616 33.884C100.36 33.884 100.136 33.8093 99.9445 33.66C99.7738 33.5107 99.6885 33.276 99.6885 32.956C99.6885 32.8707 99.6992 32.7853 99.7205 32.7C99.7205 32.6147 99.7312 32.5293 99.7525 32.444C99.9445 31.74 100.254 30.908 100.68 29.948C101.128 28.988 101.726 27.964 102.472 26.876C103.219 25.788 104.147 24.7213 105.256 23.676C105.896 23.0573 106.558 22.556 107.24 22.172C107.944 21.788 108.659 21.5533 109.384 21.468C109.427 21.468 109.502 21.4467 109.608 21.404C109.715 21.3613 109.811 21.34 109.896 21.34C110.067 21.34 110.227 21.372 110.376 21.436C110.547 21.5 110.718 21.532 110.888 21.532C110.888 21.532 111.006 21.596 111.24 21.724C111.475 21.8307 111.742 21.98 112.04 22.172C112.339 22.364 112.595 22.5667 112.808 22.78C113.043 22.972 113.16 23.164 113.16 23.356C113.16 23.5693 113.075 23.7613 112.904 23.932C112.755 24.1027 112.659 24.2307 112.616 24.316C112.552 24.4013 112.446 24.444 112.296 24.444C111.976 24.444 111.795 24.284 111.752 23.964C111.752 23.7507 111.71 23.5693 111.624 23.42C111.56 23.2707 111.475 23.1427 111.368 23.036C111.326 22.9933 111.166 22.9507 110.888 22.908C110.611 22.8653 110.419 22.844 110.312 22.844C109.907 22.844 109.427 23.004 108.872 23.324C108.339 23.644 107.763 24.0813 107.144 24.636C106.867 24.8707 106.6 25.052 106.344 25.18C106.11 25.308 105.896 25.468 105.704 25.66C105.619 25.7453 105.534 25.884 105.448 26.076C105.384 26.2467 105.299 26.3853 105.192 26.492C104.424 27.3027 103.838 28.028 103.432 28.668C103.027 29.2867 102.739 29.8307 102.568 30.3C102.419 30.7693 102.291 31.196 102.184 31.58C102.184 31.7507 102.238 31.836 102.344 31.836H102.664C103.027 31.7293 103.454 31.516 103.944 31.196C104.435 30.8547 104.926 30.492 105.416 30.108C105.928 29.7027 106.366 29.3613 106.728 29.084C106.835 28.9773 106.942 28.9027 107.048 28.86C107.176 28.8173 107.272 28.764 107.336 28.7C107.443 28.6147 107.528 28.5293 107.592 28.444C107.678 28.3587 107.763 28.284 107.848 28.22C108.488 27.7293 108.958 27.3667 109.256 27.132C109.576 26.8973 109.8 26.7373 109.928 26.652C110.056 26.5453 110.163 26.4707 110.248 26.428C110.334 26.364 110.451 26.268 110.6 26.14C110.856 25.948 111.08 25.852 111.272 25.852C111.507 25.852 111.688 25.948 111.816 26.14C111.966 26.3107 112.051 26.4813 112.072 26.652C112.115 26.8227 112.136 26.9827 112.136 27.132C112.136 27.388 112.094 27.6013 112.008 27.772C111.902 27.9 111.848 28.0173 111.848 28.124C111.848 28.1667 111.859 28.2093 111.88 28.252C111.902 28.2947 111.912 28.348 111.912 28.412C111.912 28.476 111.891 28.572 111.848 28.7C111.806 28.8067 111.71 28.9773 111.56 29.212V29.18C111.454 29.3933 111.379 29.5533 111.336 29.66C111.294 29.7453 111.219 29.8733 111.112 30.044C110.942 30.5773 110.707 31.0893 110.408 31.58C110.11 32.0707 109.779 32.6253 109.416 33.244C109.139 33.9693 108.84 34.684 108.52 35.388C108.2 36.1133 107.795 36.828 107.304 37.532C106.814 38.2147 106.259 39.004 105.64 39.9C105.043 40.8173 104.371 41.692 103.624 42.524C102.899 43.3773 102.088 44.0813 101.192 44.636C100.318 45.1907 99.3685 45.468 98.3445 45.468ZM134.046 33.884C133.662 33.884 133.331 33.756 133.054 33.5C132.776 33.244 132.638 32.8387 132.638 32.284C132.638 31.6013 132.776 30.7373 133.054 29.692C133.331 28.6467 133.651 27.6547 134.014 26.716C134.248 26.14 134.451 25.66 134.622 25.276C134.792 24.8707 134.952 24.4973 135.102 24.156C135.208 23.9 135.251 23.708 135.23 23.58C135.23 23.452 135.23 23.3133 135.23 23.164C135.23 22.908 135.326 22.7267 135.518 22.62C135.71 22.5133 135.891 22.4387 136.062 22.396C136.467 22.2467 136.851 22.108 137.214 21.98C137.598 21.8307 137.928 21.756 138.206 21.756C138.462 21.756 138.696 21.8627 138.91 22.076L138.942 22.108C139.006 22.172 139.038 22.2467 139.038 22.332C139.059 22.4173 139.07 22.492 139.07 22.556C139.07 22.748 138.963 22.972 138.75 23.228C138.536 23.484 138.206 23.9 137.758 24.476C137.224 25.1373 136.798 25.7453 136.478 26.3C136.158 26.8333 135.891 27.3347 135.678 27.804C135.4 28.444 135.208 29.0093 135.102 29.5C134.995 29.9907 134.942 30.4387 134.942 30.844C134.942 30.972 134.942 31.1533 134.942 31.388C134.963 31.6013 134.974 31.6547 134.974 31.548V31.516C135.038 31.7293 135.144 31.836 135.294 31.836H135.326C135.368 31.836 135.411 31.8467 135.454 31.868C135.496 31.868 135.571 31.8573 135.678 31.836C136.019 31.7293 136.403 31.516 136.83 31.196C137.256 30.8547 137.683 30.492 138.11 30.108C138.536 29.724 138.899 29.3933 139.198 29.116C139.262 29.052 139.336 28.988 139.422 28.924C139.528 28.86 139.624 28.7853 139.71 28.7C139.774 28.636 139.816 28.5613 139.838 28.476C139.88 28.3907 139.944 28.3053 140.03 28.22C140.734 27.5587 141.384 26.8653 141.982 26.14C142.579 25.4147 143.08 24.764 143.486 24.188C143.912 23.5907 144.222 23.2067 144.414 23.036C144.734 22.7587 145.064 22.62 145.406 22.62C145.96 22.62 146.408 22.876 146.75 23.388L146.334 24.444C146.27 24.572 146.152 24.828 145.982 25.212C145.811 25.5747 145.619 25.9907 145.406 26.46C145.214 26.9293 145.022 27.388 144.83 27.836C144.638 28.2627 144.499 28.6253 144.414 28.924C144.35 29.1373 144.318 29.2973 144.318 29.404C144.318 29.4893 144.275 29.6173 144.19 29.788V29.756L144.126 31.004C144.126 31.004 144.136 31.0787 144.158 31.228C144.2 31.356 144.243 31.4947 144.286 31.644C144.35 31.772 144.414 31.836 144.478 31.836C144.52 31.836 144.648 31.7933 144.862 31.708C145.096 31.6227 145.256 31.5373 145.342 31.452H145.374C145.416 31.452 145.512 31.4307 145.662 31.388C145.811 31.3453 145.896 31.3133 145.918 31.292L145.95 31.26C146.248 31.0893 146.579 30.908 146.942 30.716C147.304 30.5027 147.806 30.1827 148.446 29.756C148.979 29.372 149.47 28.9133 149.918 28.38C150.366 27.8253 150.782 27.3027 151.166 26.812C151.55 26.3 151.902 25.916 152.222 25.66C152.264 25.6387 152.339 25.4893 152.446 25.212C152.574 24.9133 152.67 24.732 152.734 24.668V24.636C152.798 24.636 152.851 24.4973 152.894 24.22C152.958 23.9427 153.011 23.7613 153.054 23.676L153.022 23.708C153.107 23.58 153.16 23.5053 153.182 23.484C153.203 23.4627 153.224 23.452 153.246 23.452C153.267 23.452 153.278 23.4307 153.278 23.388C153.278 23.3453 153.31 23.132 153.374 22.748C153.374 22.684 153.395 22.524 153.438 22.268C153.48 21.9907 153.491 21.8413 153.47 21.82C153.47 21.82 153.459 21.7133 153.438 21.5C153.438 21.2867 153.448 21.052 153.47 20.796C153.491 20.5187 153.534 20.284 153.598 20.092C153.662 19.8787 153.758 19.7827 153.886 19.804C154.312 19.9533 154.568 20.2413 154.654 20.668C154.76 21.0947 154.814 21.5213 154.814 21.948C154.814 22.1613 154.771 22.4707 154.686 22.876C154.622 23.2813 154.472 23.8253 154.238 24.508C154.195 24.6573 154.131 24.8493 154.046 25.084C153.96 25.3187 153.811 25.5853 153.598 25.884C153.491 26.0333 153.384 26.1933 153.278 26.364C153.192 26.5133 153.043 26.6627 152.83 26.812C152.723 26.876 152.563 27.068 152.35 27.388C152.158 27.6867 152.008 27.8893 151.902 27.996C151.24 28.5507 150.654 29.0627 150.142 29.532C149.63 30.0013 149 30.5987 148.254 31.324C148.19 31.388 148.008 31.5053 147.71 31.676C147.432 31.8467 147.166 32.0173 146.91 32.188C146.654 32.3373 146.504 32.444 146.462 32.508C146.462 32.508 146.334 32.5613 146.078 32.668C145.822 32.7747 145.523 32.892 145.182 33.02C144.84 33.148 144.531 33.276 144.254 33.404C143.976 33.5107 143.816 33.5853 143.774 33.628C143.603 33.7133 143.39 33.756 143.134 33.756C142.856 33.756 142.654 33.7133 142.526 33.628V33.66C142.398 33.5747 142.312 33.4787 142.27 33.372C142.227 33.244 142.184 33.1587 142.142 33.116C141.907 32.8173 141.79 32.3587 141.79 31.74C141.79 31.0787 141.886 30.4173 142.078 29.756C142.248 29.116 142.334 28.604 142.334 28.22C142.355 27.836 142.408 27.4627 142.494 27.1C142.216 27.3773 141.928 27.676 141.63 27.996C141.352 28.2947 141.011 28.636 140.606 29.02V29.052C140.52 29.0733 140.424 29.116 140.318 29.18C140.211 29.244 140.136 29.2867 140.094 29.308C140.008 29.3933 139.88 29.532 139.71 29.724C139.56 29.916 139.454 30.0547 139.39 30.14C138.792 30.6733 138.259 31.164 137.79 31.612C137.32 32.0387 136.787 32.4333 136.19 32.796V32.764C136.168 32.7853 136.147 32.8173 136.126 32.86C136.126 32.9027 136.115 32.9453 136.094 32.988C136.094 33.0307 136.083 33.052 136.062 33.052C135.976 33.0733 135.891 33.084 135.806 33.084C135.72 33.084 135.646 33.1053 135.582 33.148C135.454 33.1907 135.326 33.276 135.198 33.404C135.07 33.532 134.942 33.6387 134.814 33.724C134.536 33.8307 134.28 33.884 134.046 33.884ZM165.764 19.868C165.572 19.868 165.444 19.804 165.38 19.676C165.338 19.5267 165.306 19.388 165.284 19.26C165.263 19.1533 165.242 19.036 165.22 18.908C165.199 18.78 165.188 18.652 165.188 18.524C165.188 18.3533 165.21 18.204 165.252 18.076C165.316 17.9267 165.423 17.8093 165.572 17.724C166.063 17.468 166.479 17.2867 166.82 17.18C167.162 17.0733 167.439 17.02 167.652 17.02C167.972 17.02 168.186 17.116 168.292 17.308C168.399 17.5 168.452 17.7453 168.452 18.044C168.452 18.1293 168.452 18.2147 168.452 18.3C168.452 18.364 168.442 18.4493 168.42 18.556C168.356 18.8333 168.143 19.0253 167.78 19.132C167.439 19.2387 167.151 19.3453 166.916 19.452C166.767 19.5373 166.586 19.6333 166.372 19.74C166.18 19.8253 165.999 19.868 165.828 19.868H165.764ZM158.788 33.66C158.703 33.66 158.628 33.596 158.564 33.468C158.522 33.2973 158.468 33.148 158.404 33.02C158.34 32.892 158.308 32.7 158.308 32.444C158.308 32.1453 158.372 31.708 158.5 31.132C158.628 30.556 158.874 29.692 159.236 28.54C159.514 27.6653 159.77 26.9613 160.004 26.428C160.239 25.8947 160.484 25.3827 160.74 24.892V24.86C160.804 24.7747 160.9 24.7 161.028 24.636C161.156 24.572 161.242 24.508 161.284 24.444H161.252C161.295 24.4013 161.306 24.3373 161.284 24.252C161.263 24.1453 161.252 24.0493 161.252 23.964C161.252 23.7293 161.327 23.5373 161.476 23.388C161.647 23.2173 161.818 23.0573 161.988 22.908C162.159 22.7373 162.426 22.5453 162.788 22.332C163.151 22.1187 163.578 21.9693 164.068 21.884C164.132 21.8627 164.196 21.852 164.26 21.852C164.324 21.852 164.388 21.852 164.452 21.852C164.815 21.852 165.092 21.9267 165.284 22.076C165.476 22.2253 165.615 22.3853 165.7 22.556C165.743 22.5987 165.786 22.652 165.828 22.716C165.871 22.78 165.892 22.8547 165.892 22.94C165.892 23.0253 165.85 23.1427 165.764 23.292C165.7 23.42 165.551 23.5907 165.316 23.804C165.21 23.932 165.05 24.0707 164.836 24.22C164.644 24.348 164.463 24.4973 164.292 24.668C164.079 24.8813 163.876 25.116 163.684 25.372C163.492 25.628 163.311 25.8733 163.14 26.108C162.991 26.3213 162.831 26.524 162.66 26.716C162.49 26.8867 162.319 27.068 162.148 27.26C162.063 27.3453 161.999 27.5053 161.956 27.74C161.914 27.9533 161.818 28.1347 161.668 28.284C161.519 28.476 161.348 28.6253 161.156 28.732C160.986 28.8387 160.847 28.988 160.74 29.18V29.148C160.634 29.34 160.516 29.564 160.388 29.82C160.26 30.076 160.132 30.3213 160.004 30.556C159.791 30.9827 159.652 31.3027 159.588 31.516C159.524 31.708 159.492 31.8573 159.492 31.964C159.492 32.092 159.514 32.1773 159.556 32.22C159.62 32.2627 159.631 32.3693 159.588 32.54C159.503 32.732 159.386 32.9667 159.236 33.244C159.108 33.5213 158.959 33.66 158.788 33.66ZM171.501 33.724C171.309 33.724 171.181 33.6387 171.117 33.468C171.053 33.2547 170.957 33.0413 170.829 32.828C170.722 32.5933 170.701 32.2733 170.765 31.868C170.765 31.868 170.807 31.7507 170.893 31.516C170.978 31.26 171.063 31.0253 171.149 30.812C171.255 30.5773 171.362 30.332 171.469 30.076C171.575 29.82 171.693 29.4573 171.821 28.988C171.906 28.7747 172.013 28.444 172.141 27.996C172.29 27.548 172.471 27.1427 172.685 26.78V26.812C173.005 26.236 173.335 25.6707 173.677 25.116C174.039 24.54 174.402 23.9747 174.765 23.42C174.658 23.5053 174.509 23.5693 174.317 23.612C174.082 23.6973 173.826 23.7933 173.549 23.9C173.271 23.9853 173.037 24.028 172.845 24.028C172.567 24.028 172.375 23.9213 172.269 23.708C172.183 23.4947 172.141 23.388 172.141 23.388V23.356C172.141 23.1213 172.141 22.876 172.141 22.62C172.162 22.3427 172.333 22.108 172.653 21.916H172.685C172.727 21.916 172.791 21.9267 172.877 21.948C172.983 21.9693 173.047 21.98 173.069 21.98C173.154 21.9373 173.261 21.8733 173.389 21.788C173.517 21.7027 173.655 21.66 173.805 21.66H173.837C174.199 21.66 174.583 21.6493 174.989 21.628C175.394 21.6067 175.735 21.564 176.013 21.5C176.141 21.3293 176.258 21.1693 176.365 21.02C176.471 20.8493 176.514 20.7427 176.493 20.7C176.514 20.5933 176.589 20.444 176.717 20.252C176.866 20.0387 176.973 19.8893 177.037 19.804C177.079 19.6973 177.165 19.58 177.293 19.452C177.442 19.3027 177.517 19.2067 177.517 19.164V19.132C177.538 19.0893 177.549 19.0147 177.549 18.908V18.652C177.549 18.5453 177.559 18.4387 177.581 18.332C177.623 18.204 177.687 18.0973 177.773 18.012C177.922 17.8627 178.039 17.6813 178.125 17.468C178.231 17.2547 178.423 17.0627 178.701 16.892C178.893 16.764 179.074 16.7 179.245 16.7C179.543 16.7 179.767 16.828 179.917 17.084C180.066 17.3187 180.183 17.5107 180.269 17.66C180.29 17.7453 180.397 17.8307 180.589 17.916C180.802 17.98 180.909 18.108 180.909 18.3C180.909 18.4707 180.781 18.6733 180.525 18.908C180.439 19.0147 180.29 19.1853 180.077 19.42C179.863 19.6333 179.671 19.8253 179.501 19.996C179.351 20.1453 179.085 20.4973 178.701 21.052C179.042 21.0307 179.394 20.9773 179.757 20.892C180.119 20.8067 180.493 20.764 180.877 20.764C180.983 20.7853 181.165 20.764 181.421 20.7C181.677 20.6147 181.911 20.572 182.125 20.572C182.21 20.572 182.274 20.636 182.317 20.764C182.381 20.8707 182.423 20.956 182.445 21.02C182.359 21.148 182.178 21.2653 181.901 21.372C181.645 21.4787 181.453 21.5427 181.325 21.564C181.239 21.564 181.015 21.596 180.653 21.66C180.29 21.724 179.917 21.7987 179.533 21.884C179.17 21.948 178.914 21.98 178.765 21.98C178.637 21.9587 178.509 22.0333 178.381 22.204C178.253 22.3533 178.103 22.4387 177.933 22.46C177.805 22.6307 177.666 22.7587 177.517 22.844C177.389 22.908 177.271 23.0147 177.165 23.164C176.887 23.5693 176.653 23.9213 176.461 24.22C176.269 24.4973 176.13 24.6893 176.045 24.796C175.938 24.924 175.789 25.1267 175.597 25.404C175.426 25.66 175.245 25.9267 175.053 26.204C174.861 26.4813 174.701 26.684 174.573 26.812C174.487 26.94 174.349 27.1533 174.157 27.452C173.965 27.7293 173.805 27.932 173.677 28.06C173.57 28.2093 173.485 28.3373 173.421 28.444C173.378 28.5507 173.293 28.7213 173.165 28.956V28.924C173.058 29.116 172.941 29.372 172.813 29.692C172.685 29.9907 172.599 30.2787 172.557 30.556C172.535 30.6627 172.514 30.78 172.493 30.908C172.493 31.036 172.493 31.1533 172.493 31.26C172.493 31.5373 172.503 31.7933 172.525 32.028C172.567 32.2413 172.589 32.4333 172.589 32.604C172.589 32.9027 172.461 33.1693 172.205 33.404C171.97 33.6173 171.735 33.724 171.501 33.724ZM182.477 20.988C182.477 20.988 182.466 20.9987 182.445 21.02L182.477 20.956V20.988ZM183.524 33.5C183.332 33.436 183.236 33.212 183.236 32.828C183.236 32.5933 183.268 32.3267 183.332 32.028C183.417 31.7293 183.534 31.3773 183.684 30.972V31.068C183.726 31.068 183.769 30.9933 183.812 30.844C183.854 30.6947 183.865 30.6093 183.844 30.588C183.865 30.46 183.95 30.3213 184.1 30.172C184.27 30.0013 184.345 29.9053 184.324 29.884V29.852C184.366 29.7667 184.366 29.7133 184.324 29.692C184.281 29.6707 184.292 29.5853 184.356 29.436C184.59 28.9453 184.782 28.6147 184.932 28.444C185.081 28.252 185.241 27.9853 185.412 27.644V27.708C185.433 27.708 185.454 27.6227 185.476 27.452C185.518 27.2813 185.572 27.1427 185.636 27.036V27.1C185.657 27.0147 185.7 26.94 185.764 26.876C185.849 26.7907 185.902 26.7373 185.924 26.716C186.116 26.3747 186.244 26.1187 186.308 25.948C186.393 25.7773 186.478 25.6173 186.564 25.468C186.67 25.2973 186.841 25.0627 187.076 24.764H187.044C187.129 24.6573 187.246 24.476 187.396 24.22C187.566 23.964 187.716 23.7507 187.844 23.58C187.993 23.388 188.068 23.3347 188.068 23.42V23.452C188.068 23.516 188.153 23.42 188.324 23.164C188.494 22.908 188.697 22.5987 188.932 22.236C189.166 21.852 189.38 21.5107 189.572 21.212C189.764 20.892 189.881 20.7 189.924 20.636V20.668C189.966 20.604 190.052 20.4653 190.18 20.252C190.329 20.0173 190.414 19.8893 190.436 19.868H190.404C190.617 19.5267 190.756 19.2707 190.82 19.1C190.905 18.908 190.99 18.7267 191.076 18.556C191.182 18.364 191.364 18.108 191.62 17.788L192.74 16.348C192.846 16.2413 192.974 16.06 193.124 15.804C193.294 15.5267 193.465 15.3453 193.636 15.26C193.934 15.1107 194.297 14.972 194.724 14.844C195.172 14.716 195.566 14.652 195.908 14.652C196.142 14.652 196.334 14.6947 196.484 14.78C196.654 14.844 196.75 14.9827 196.772 15.196C196.75 15.516 196.633 15.8893 196.42 16.316C196.206 16.7213 195.886 17.1267 195.46 17.532C195.204 17.7453 194.894 17.8947 194.532 17.98C194.169 18.044 193.913 18.1933 193.764 18.428H193.796C193.561 18.7693 193.262 19.1747 192.9 19.644C192.558 20.092 192.302 20.4333 192.132 20.668C191.961 20.8813 191.769 21.0733 191.556 21.244C191.342 21.4147 191.172 21.6067 191.044 21.82C190.724 22.2467 190.489 22.6093 190.34 22.908C190.19 23.2067 190.041 23.5053 189.892 23.804C189.764 24.0813 189.529 24.4013 189.188 24.764C188.569 25.4253 188.153 25.9693 187.94 26.396C187.726 26.8013 187.598 27.228 187.556 27.676C187.641 27.5693 187.737 27.4733 187.844 27.388C188.313 26.9187 188.964 26.4067 189.796 25.852C190.649 25.2973 191.524 24.7533 192.42 24.22H192.484C192.505 24.22 192.612 24.1667 192.804 24.06C193.017 23.9533 193.241 23.8253 193.476 23.676C193.732 23.5053 193.945 23.3667 194.116 23.26C194.286 23.132 194.34 23.068 194.276 23.068H194.244C194.478 22.9187 194.884 22.748 195.46 22.556C196.42 22.236 197.252 22.076 197.956 22.076C198.425 22.076 198.766 22.1507 198.98 22.3C199.172 22.492 199.268 22.7587 199.268 23.1C199.268 23.356 199.204 23.6653 199.076 24.028V23.964C199.054 23.964 199.012 24.0493 198.948 24.22C198.884 24.3693 198.809 24.4973 198.724 24.604C198.702 24.6893 198.628 24.828 198.5 25.02C198.372 25.1907 198.308 25.276 198.308 25.276V25.244C198.201 25.5 198.094 25.692 197.988 25.82C197.881 25.9267 197.753 26.076 197.604 26.268C197.412 26.524 197.156 26.8973 196.836 27.388C196.537 27.8787 196.238 28.3907 195.94 28.924C195.662 29.4573 195.47 29.9587 195.364 30.428C195.342 30.5773 195.246 30.7693 195.076 31.004C194.926 31.2387 194.862 31.4093 194.884 31.516V31.548C194.884 31.5907 194.926 31.644 195.012 31.708C195.097 31.772 195.15 31.8253 195.172 31.868C195.236 31.9533 195.268 32.06 195.268 32.188C195.268 32.38 195.182 32.572 195.012 32.764C194.841 32.956 194.564 33.052 194.18 33.052C193.902 33.052 193.721 32.988 193.636 32.86C193.572 32.732 193.486 32.5933 193.38 32.444V32.124L193.252 32.156H193.188C193.102 32.156 193.028 32.1027 192.964 31.996V31.964C192.964 31.8787 192.942 31.7613 192.9 31.612C192.878 31.4413 192.868 31.3133 192.868 31.228C192.868 31.0787 192.932 30.8547 193.06 30.556C193.188 30.2573 193.326 29.9587 193.476 29.66C193.625 29.34 193.732 29.1053 193.796 28.956C193.881 28.7 194.094 28.348 194.436 27.9C194.777 27.452 195.14 26.9933 195.524 26.524C195.908 26.0333 196.196 25.628 196.388 25.308C196.494 25.116 196.569 24.9453 196.612 24.796C196.654 24.6253 196.676 24.476 196.676 24.348C196.676 24.1133 196.601 23.9427 196.452 23.836C196.324 23.708 196.153 23.6333 195.94 23.612C195.854 23.612 195.705 23.6333 195.492 23.676C195.3 23.6973 195.097 23.7507 194.884 23.836C194.798 23.8573 194.628 23.9427 194.372 24.092C194.137 24.2413 193.913 24.38 193.7 24.508C193.508 24.636 193.444 24.7 193.508 24.7H193.54C193.369 24.8067 193.209 24.9027 193.06 24.988C192.932 25.052 192.761 25.1587 192.548 25.308C192.484 25.372 192.313 25.4893 192.036 25.66C191.78 25.8307 191.513 26.0013 191.236 26.172C190.98 26.3427 190.798 26.46 190.692 26.524C189.646 27.2707 188.644 28.0813 187.684 28.956C186.724 29.8093 185.902 30.7053 185.22 31.644C185.134 31.7507 185.07 31.9 185.028 32.092C184.985 32.284 184.932 32.444 184.868 32.572C184.782 32.7213 184.697 32.828 184.612 32.892C184.526 32.9347 184.462 32.9773 184.42 33.02C184.249 33.2333 184.078 33.372 183.908 33.436C183.758 33.4787 183.63 33.5 183.524 33.5ZM206.531 33.468C206.19 33.468 205.923 33.4147 205.731 33.308C205.539 33.18 205.358 33.052 205.187 32.924C204.803 32.604 204.611 32.0173 204.611 31.164C204.611 30.5453 204.728 29.8413 204.963 29.052C205.198 28.2413 205.582 27.3987 206.115 26.524V26.556C206.35 26.1293 206.584 25.7027 206.819 25.276C207.075 24.8493 207.342 24.4333 207.619 24.028C207.704 23.9427 207.79 23.8893 207.875 23.868C207.96 23.8253 208.024 23.7827 208.067 23.74C208.067 23.6547 208.088 23.5373 208.131 23.388C208.195 23.2173 208.27 23.1 208.355 23.036C208.739 22.524 209.176 22.14 209.667 21.884C210.158 21.628 210.542 21.4147 210.819 21.244H210.787C210.915 21.18 211.064 21.148 211.235 21.148C211.662 21.148 212.163 21.308 212.739 21.628C212.824 21.628 212.91 21.6173 212.995 21.596C213.102 21.5533 213.208 21.532 213.315 21.532C213.528 21.532 213.742 21.6067 213.955 21.756C214.19 21.9053 214.286 22.14 214.243 22.46C214.222 22.524 214.211 22.5773 214.211 22.62C214.211 22.6627 214.211 22.7053 214.211 22.748C214.211 22.9827 214.296 23.1 214.467 23.1C214.552 23.1 214.638 23.0893 214.723 23.068C214.808 23.0467 214.894 23.036 214.979 23.036C215.214 23.036 215.544 23.004 215.971 22.94C216.398 22.8547 216.803 22.78 217.187 22.716C217.592 22.6307 217.87 22.588 218.019 22.588C218.104 22.652 218.147 22.7267 218.147 22.812C218.147 22.8973 218.104 22.9933 218.019 23.1C217.955 23.2067 217.88 23.2813 217.795 23.324C217.795 23.324 217.656 23.3667 217.379 23.452C217.123 23.516 216.803 23.6013 216.419 23.708C216.035 23.8147 215.651 23.9213 215.267 24.028C214.904 24.1133 214.616 24.1667 214.403 24.188L214.083 24.22C214.062 24.476 213.998 24.7533 213.891 25.052C213.784 25.3507 213.667 25.6813 213.539 26.044C213.496 26.1507 213.464 26.2893 213.443 26.46C213.422 26.6093 213.379 26.7693 213.315 26.94C213.166 27.196 212.995 27.452 212.803 27.708C212.611 27.964 212.43 28.2307 212.259 28.508C212.131 28.7213 211.992 28.956 211.843 29.212C211.715 29.4467 211.555 29.692 211.363 29.948C210.936 30.5027 210.435 31.0573 209.859 31.612C209.304 32.1453 208.728 32.5933 208.131 32.956C207.555 33.2973 207.022 33.468 206.531 33.468ZM206.819 32.412C207.246 32.412 207.832 32.1133 208.579 31.516C209.347 30.8973 210.062 30.108 210.723 29.148H210.691C210.862 28.892 211.032 28.5933 211.203 28.252C211.395 27.9107 211.544 27.6227 211.651 27.388C211.651 27.388 211.704 27.324 211.811 27.196C211.939 27.068 212.067 26.9293 212.195 26.78C212.323 26.6093 212.398 26.4813 212.419 26.396C212.44 26.3533 212.451 26.3 212.451 26.236C212.451 26.1933 212.44 26.1613 212.419 26.14C212.419 26.0973 212.419 26.0333 212.419 25.948V25.916C212.547 25.596 212.654 25.308 212.739 25.052C212.824 24.796 212.878 24.572 212.899 24.38C212.75 24.38 212.515 24.3693 212.195 24.348C211.875 24.3267 211.608 24.3053 211.395 24.284C211.203 24.2627 211.203 24.252 211.395 24.252H211.491C211.491 24.2307 211.395 24.188 211.203 24.124C211.011 24.06 210.862 24.0067 210.755 23.964C210.691 23.9853 210.627 23.996 210.563 23.996C210.456 23.996 210.371 23.9747 210.307 23.932C210.264 23.8893 210.211 23.9 210.147 23.964C210.062 24.0493 210.008 24.156 209.987 24.284C209.966 24.412 209.88 24.5507 209.731 24.7L209.699 24.732C209.699 24.7107 209.646 24.732 209.539 24.796C209.432 24.86 209.39 24.892 209.411 24.892L209.379 24.956C209.336 24.9773 209.304 25.0413 209.283 25.148C209.283 25.2333 209.251 25.3293 209.187 25.436C208.974 25.7773 208.739 26.14 208.483 26.524C208.248 26.8867 208.024 27.2387 207.811 27.58V27.548C207.598 27.932 207.384 28.348 207.171 28.796C206.958 29.244 206.798 29.6813 206.691 30.108C206.691 30.2147 206.67 30.3213 206.627 30.428C206.606 30.5133 206.595 30.588 206.595 30.652V30.684C206.595 30.9187 206.552 31.1213 206.467 31.292C206.382 31.4627 206.339 31.6333 206.339 31.804C206.403 31.9533 206.424 32.0707 206.403 32.156C206.382 32.22 206.414 32.2733 206.499 32.316C206.606 32.38 206.712 32.412 206.819 32.412ZM220.862 33.884C220.606 33.884 220.393 33.8093 220.222 33.66C220.051 33.5107 219.966 33.276 219.966 32.956C219.966 32.8707 219.977 32.7853 219.998 32.7C219.998 32.6147 220.009 32.5293 220.03 32.444C220.137 31.996 220.318 31.4413 220.574 30.78C220.83 30.1187 221.139 29.4147 221.502 28.668C221.865 27.9213 222.249 27.2173 222.654 26.556C223.017 25.98 223.358 25.5213 223.678 25.18C224.019 24.8173 224.297 24.4653 224.51 24.124C224.681 23.8893 224.777 23.708 224.798 23.58C224.819 23.4307 224.851 23.2813 224.894 23.132C224.979 22.8973 225.107 22.7267 225.278 22.62C225.47 22.5133 225.641 22.4387 225.79 22.396C226.153 22.2467 226.505 22.108 226.846 21.98C227.187 21.8307 227.475 21.756 227.71 21.756C227.859 21.756 227.987 21.8627 228.094 22.076C228.201 22.268 228.254 22.2893 228.254 22.14V22.108C228.275 22.172 228.286 22.2573 228.286 22.364C228.286 22.62 228.169 22.876 227.934 23.132C227.699 23.3667 227.273 23.8147 226.654 24.476C226.014 25.1373 225.481 25.7453 225.054 26.3C224.627 26.8547 224.265 27.3667 223.966 27.836H223.934C223.401 28.668 223.017 29.3827 222.782 29.98C222.547 30.5773 222.377 31.1107 222.27 31.58C222.249 31.6867 222.249 31.7507 222.27 31.772C222.291 31.7933 222.345 31.8147 222.43 31.836C222.494 31.8573 222.579 31.8573 222.686 31.836C223.006 31.7293 223.39 31.516 223.838 31.196C224.307 30.8547 224.766 30.492 225.214 30.108C225.683 29.7027 226.078 29.3613 226.398 29.084C226.505 28.9773 226.601 28.9027 226.686 28.86C226.793 28.8173 226.878 28.764 226.942 28.7C227.049 28.636 227.123 28.5613 227.166 28.476C227.23 28.3693 227.305 28.284 227.39 28.22C228.158 27.5587 228.894 26.8653 229.598 26.14C230.302 25.3933 230.91 24.732 231.422 24.156C231.934 23.58 232.286 23.2067 232.478 23.036C232.777 22.7587 233.097 22.62 233.438 22.62C233.929 22.62 234.238 22.8867 234.366 23.42C234.451 23.6973 234.387 23.9107 234.174 24.06C233.982 24.188 233.833 24.3267 233.726 24.476C233.641 24.604 233.47 24.86 233.214 25.244C232.958 25.6067 232.67 26.0227 232.35 26.492C232.051 26.9613 231.763 27.42 231.486 27.868C231.209 28.2947 230.995 28.6467 230.846 28.924C230.739 29.1373 230.665 29.2973 230.622 29.404C230.601 29.5107 230.537 29.6493 230.43 29.82V29.788C230.409 29.8307 230.387 29.948 230.366 30.14C230.345 30.3107 230.323 30.4387 230.302 30.524C230.217 30.6733 230.163 30.8227 230.142 30.972C230.142 31.1213 230.163 31.164 230.206 31.1C230.206 31.1213 230.27 31.0893 230.398 31.004C230.526 30.9187 230.643 30.8333 230.75 30.748C230.793 30.7267 230.878 30.6947 231.006 30.652C231.155 30.6093 231.241 30.588 231.262 30.588L231.55 30.428C231.571 30.428 231.721 30.3427 231.998 30.172C232.297 29.98 232.595 29.788 232.894 29.596C233.193 29.404 233.353 29.308 233.374 29.308C233.609 29.18 233.737 29.116 233.758 29.116C233.801 29.116 233.865 29.0947 233.95 29.052C234.035 28.988 234.259 28.8387 234.622 28.604C235.006 28.348 235.305 28.22 235.518 28.22C235.667 28.22 235.742 28.2733 235.742 28.38C235.742 28.4653 235.667 28.5933 235.518 28.764C235.39 28.9347 235.155 29.1373 234.814 29.372C234.281 29.7133 233.694 30.1187 233.054 30.588C232.414 31.036 231.817 31.3987 231.262 31.676C231.07 31.804 230.867 31.9213 230.654 32.028C230.462 32.1347 230.27 32.284 230.078 32.476L230.046 32.508C230.003 32.508 229.897 32.5827 229.726 32.732C229.577 32.8813 229.491 32.9773 229.47 33.02C229.385 33.1053 229.31 33.212 229.246 33.34C229.182 33.4467 229.086 33.5427 228.958 33.628H228.99C228.905 33.6707 228.809 33.692 228.702 33.692C228.617 33.7133 228.531 33.724 228.446 33.724C228.147 33.724 227.966 33.692 227.902 33.628C227.859 33.5853 227.795 33.5427 227.71 33.5C227.646 33.4787 227.593 33.4147 227.55 33.308C227.507 33.1373 227.486 32.988 227.486 32.86C227.486 32.476 227.582 32.028 227.774 31.516C227.987 30.9827 228.265 30.396 228.606 29.756C228.883 29.2227 229.086 28.8067 229.214 28.508C229.342 28.2093 229.438 27.964 229.502 27.772C229.566 27.5587 229.641 27.356 229.726 27.164C229.427 27.4413 229.118 27.7293 228.798 28.028C228.478 28.3267 228.105 28.6573 227.678 29.02C227.614 29.0627 227.518 29.116 227.39 29.18C227.262 29.244 227.177 29.2867 227.134 29.308L226.334 30.14C225.673 30.6733 225.086 31.196 224.574 31.708C224.062 32.22 223.497 32.6573 222.878 33.02V32.988C222.857 33.0093 222.825 33.052 222.782 33.116C222.761 33.1587 222.718 33.2013 222.654 33.244V33.276C222.569 33.2973 222.494 33.308 222.43 33.308C222.366 33.308 222.313 33.3187 222.27 33.34C222.142 33.4253 222.014 33.4893 221.886 33.532C221.758 33.596 221.641 33.66 221.534 33.724C221.278 33.8307 221.054 33.884 220.862 33.884ZM241.543 33.724C241.351 33.724 241.223 33.6387 241.159 33.468C241.095 33.2547 240.999 33.0413 240.871 32.828C240.765 32.5933 240.743 32.2733 240.807 31.868C240.807 31.868 240.85 31.7507 240.935 31.516C241.021 31.26 241.106 31.0253 241.191 30.812C241.298 30.5773 241.405 30.332 241.511 30.076C241.618 29.82 241.735 29.4573 241.863 28.988C241.949 28.7747 242.055 28.444 242.183 27.996C242.333 27.548 242.514 27.1427 242.727 26.78V26.812C243.047 26.236 243.378 25.6707 243.719 25.116C244.082 24.54 244.445 23.9747 244.807 23.42C244.701 23.5053 244.551 23.5693 244.359 23.612C244.125 23.6973 243.869 23.7933 243.591 23.9C243.314 23.9853 243.079 24.028 242.887 24.028C242.61 24.028 242.418 23.9213 242.311 23.708C242.226 23.4947 242.183 23.388 242.183 23.388V23.356C242.183 23.1213 242.183 22.876 242.183 22.62C242.205 22.3427 242.375 22.108 242.695 21.916H242.727C242.77 21.916 242.834 21.9267 242.919 21.948C243.026 21.9693 243.09 21.98 243.111 21.98C243.197 21.9373 243.303 21.8733 243.431 21.788C243.559 21.7027 243.698 21.66 243.847 21.66H243.879C244.242 21.66 244.626 21.6493 245.031 21.628C245.437 21.6067 245.778 21.564 246.055 21.5C246.183 21.3293 246.301 21.1693 246.407 21.02C246.514 20.8493 246.557 20.7427 246.535 20.7C246.557 20.5933 246.631 20.444 246.759 20.252C246.909 20.0387 247.015 19.8893 247.079 19.804C247.122 19.6973 247.207 19.58 247.335 19.452C247.485 19.3027 247.559 19.2067 247.559 19.164V19.132C247.581 19.0893 247.591 19.0147 247.591 18.908V18.652C247.591 18.5453 247.602 18.4387 247.623 18.332C247.666 18.204 247.73 18.0973 247.815 18.012C247.965 17.8627 248.082 17.6813 248.167 17.468C248.274 17.2547 248.466 17.0627 248.743 16.892C248.935 16.764 249.117 16.7 249.287 16.7C249.586 16.7 249.81 16.828 249.959 17.084C250.109 17.3187 250.226 17.5107 250.311 17.66C250.333 17.7453 250.439 17.8307 250.631 17.916C250.845 17.98 250.951 18.108 250.951 18.3C250.951 18.4707 250.823 18.6733 250.567 18.908C250.482 19.0147 250.333 19.1853 250.119 19.42C249.906 19.6333 249.714 19.8253 249.543 19.996C249.394 20.1453 249.127 20.4973 248.743 21.052C249.085 21.0307 249.437 20.9773 249.799 20.892C250.162 20.8067 250.535 20.764 250.919 20.764C251.026 20.7853 251.207 20.764 251.463 20.7C251.719 20.6147 251.954 20.572 252.167 20.572C252.253 20.572 252.317 20.636 252.359 20.764C252.423 20.8707 252.466 20.956 252.487 21.02C252.402 21.148 252.221 21.2653 251.943 21.372C251.687 21.4787 251.495 21.5427 251.367 21.564C251.282 21.564 251.058 21.596 250.695 21.66C250.333 21.724 249.959 21.7987 249.575 21.884C249.213 21.948 248.957 21.98 248.807 21.98C248.679 21.9587 248.551 22.0333 248.423 22.204C248.295 22.3533 248.146 22.4387 247.975 22.46C247.847 22.6307 247.709 22.7587 247.559 22.844C247.431 22.908 247.314 23.0147 247.207 23.164C246.93 23.5693 246.695 23.9213 246.503 24.22C246.311 24.4973 246.173 24.6893 246.087 24.796C245.981 24.924 245.831 25.1267 245.639 25.404C245.469 25.66 245.287 25.9267 245.095 26.204C244.903 26.4813 244.743 26.684 244.615 26.812C244.53 26.94 244.391 27.1533 244.199 27.452C244.007 27.7293 243.847 27.932 243.719 28.06C243.613 28.2093 243.527 28.3373 243.463 28.444C243.421 28.5507 243.335 28.7213 243.207 28.956V28.924C243.101 29.116 242.983 29.372 242.855 29.692C242.727 29.9907 242.642 30.2787 242.599 30.556C242.578 30.6627 242.557 30.78 242.535 30.908C242.535 31.036 242.535 31.1533 242.535 31.26C242.535 31.5373 242.546 31.7933 242.567 32.028C242.61 32.2413 242.631 32.4333 242.631 32.604C242.631 32.9027 242.503 33.1693 242.247 33.404C242.013 33.6173 241.778 33.724 241.543 33.724ZM252.519 20.988C252.519 20.988 252.509 20.9987 252.487 21.02L252.519 20.956V20.988ZM266.936 33.5C266.744 33.436 266.648 33.212 266.648 32.828C266.648 32.5933 266.68 32.3267 266.744 32.028C266.83 31.7293 266.947 31.3773 267.096 30.972V31.004C267.118 30.8973 267.15 30.812 267.192 30.748C267.256 30.6627 267.278 30.6093 267.256 30.588C267.278 30.46 267.363 30.3213 267.512 30.172C267.683 30.0013 267.758 29.9053 267.736 29.884V29.852C267.779 29.7667 267.779 29.7133 267.736 29.692C267.694 29.6707 267.704 29.5853 267.768 29.436C268.003 28.9453 268.216 28.4973 268.408 28.092C268.6 27.6653 268.792 27.2813 268.984 26.94C268.984 26.94 269.006 26.8653 269.048 26.716C269.091 26.5667 269.144 26.428 269.208 26.3V26.364C269.23 26.2787 269.272 26.204 269.336 26.14C269.422 26.0547 269.475 26.0013 269.496 25.98C269.582 25.7453 269.646 25.5747 269.688 25.468C269.752 25.3613 269.827 25.2013 269.912 24.988C269.955 24.8813 270.008 24.7747 270.072 24.668C270.136 24.5613 270.243 24.4013 270.392 24.188C270.392 24.188 270.392 24.124 270.392 23.996C270.414 23.868 270.435 23.7293 270.456 23.58C270.499 23.4733 270.563 23.3667 270.648 23.26C270.755 23.1533 270.808 23.1 270.808 23.1C270.979 22.7587 271.246 22.5027 271.608 22.332C271.992 22.14 272.355 22.044 272.696 22.044C273.059 22.044 273.358 22.14 273.592 22.332C273.848 22.5027 273.976 22.7693 273.976 23.132C273.976 23.6013 273.848 23.964 273.592 24.22C273.358 24.476 273.091 24.6893 272.792 24.86C272.664 24.9453 272.451 25.0733 272.152 25.244C271.875 25.4147 271.704 25.5533 271.64 25.66C271.576 25.7453 271.544 25.8093 271.544 25.852C271.544 25.8733 271.544 25.9053 271.544 25.948C271.544 25.9693 271.523 26.0333 271.48 26.14C271.31 26.4173 271.182 26.684 271.096 26.94C271.032 27.1747 270.99 27.42 270.968 27.676C271.054 27.5693 271.15 27.4733 271.256 27.388C271.704 26.94 272.206 26.5347 272.76 26.172C273.336 25.788 274.062 25.3293 274.936 24.796H275C275.022 24.796 275.16 24.7 275.416 24.508C275.694 24.316 275.971 24.124 276.248 23.932C276.547 23.7187 276.728 23.612 276.792 23.612C276.792 23.612 276.92 23.548 277.176 23.42C277.432 23.292 277.699 23.1853 277.976 23.1C278.915 22.78 279.726 22.62 280.408 22.62C280.899 22.62 281.262 22.7053 281.496 22.876C281.688 23.004 281.784 23.26 281.784 23.644C281.784 23.9213 281.72 24.2413 281.592 24.604V24.572C281.592 24.6573 281.56 24.7533 281.496 24.86C281.432 24.9453 281.358 25.052 281.272 25.18C281.23 25.244 281.155 25.3613 281.048 25.532C280.942 25.7027 280.878 25.8093 280.856 25.852V25.82C280.728 26.0547 280.643 26.2253 280.6 26.332C280.579 26.4387 280.526 26.6093 280.44 26.844C280.355 27.0573 280.259 27.228 280.152 27.356C280.046 27.4627 279.982 27.612 279.96 27.804L280.536 27.388C281.027 26.9613 281.539 26.556 282.072 26.172C282.627 25.788 283.352 25.3293 284.248 24.796H284.28C284.302 24.796 284.44 24.7 284.696 24.508C284.974 24.316 285.262 24.124 285.56 23.932C285.859 23.7187 286.04 23.612 286.104 23.612H286.072C286.2 23.548 286.36 23.4733 286.552 23.388C286.744 23.2813 286.979 23.1853 287.256 23.1C288.195 22.78 289.006 22.62 289.688 22.62C290.158 22.62 290.531 22.7053 290.808 22.876C290.979 23.0467 291.064 23.292 291.064 23.612C291.064 23.8893 291 24.22 290.872 24.604V24.572C290.872 24.6573 290.84 24.7533 290.776 24.86C290.712 24.9453 290.638 25.052 290.552 25.18C290.51 25.244 290.435 25.3613 290.328 25.532C290.222 25.7027 290.158 25.8093 290.136 25.852V25.82C290.008 26.0547 289.891 26.236 289.784 26.364C289.699 26.4707 289.571 26.62 289.4 26.812C289.208 27.068 288.92 27.4627 288.536 27.996C288.174 28.508 287.822 29.0627 287.48 29.66C287.16 30.236 286.947 30.7587 286.84 31.228C286.819 31.356 286.776 31.5053 286.712 31.676C286.67 31.8253 286.659 31.9533 286.68 32.06V32.092C286.68 32.1347 286.723 32.1987 286.808 32.284C286.894 32.348 286.958 32.4013 287 32.444C287.086 32.572 287.128 32.668 287.128 32.732C287.128 32.86 287.054 32.9773 286.904 33.084C286.755 33.1693 286.51 33.1907 286.168 33.148C285.912 33.148 285.742 33.084 285.656 32.956C285.592 32.828 285.518 32.6893 285.432 32.54V32.508C285.432 32.4653 285.422 32.4227 285.4 32.38C285.4 32.3373 285.4 32.2733 285.4 32.188C285.443 32.1453 285.422 32.124 285.336 32.124C285.272 32.1027 285.198 32.0173 285.112 31.868C285.112 31.868 285.091 31.7613 285.048 31.548C285.027 31.3347 285.016 31.1853 285.016 31.1C285.016 30.8867 285.091 30.6307 285.24 30.332C285.39 30.012 285.507 29.7347 285.592 29.5C285.699 29.2653 285.88 28.9347 286.136 28.508C286.392 28.0813 286.659 27.644 286.936 27.196C287.235 26.748 287.48 26.364 287.672 26.044C288.035 25.4253 288.323 24.956 288.536 24.636C288.771 24.316 288.771 24.1987 288.536 24.284C288.451 24.284 288.206 24.316 287.8 24.38C287.395 24.444 287.107 24.5187 286.936 24.604C286.83 24.6467 286.659 24.7213 286.424 24.828C286.19 24.9347 285.966 25.0307 285.752 25.116C285.539 25.2013 285.4 25.244 285.336 25.244C285.336 25.244 285.219 25.3187 284.984 25.468C284.771 25.596 284.568 25.7347 284.376 25.884C284.248 25.9693 284.088 26.076 283.896 26.204C283.704 26.3107 283.544 26.4173 283.416 26.524C282.371 27.2707 281.358 28.0813 280.376 28.956C279.416 29.8093 278.595 30.7053 277.912 31.644C277.827 31.7507 277.763 31.9 277.72 32.092C277.678 32.284 277.624 32.444 277.56 32.572C277.496 32.7213 277.411 32.828 277.304 32.892C277.219 32.9347 277.155 32.9773 277.112 33.02C276.963 33.2333 276.803 33.372 276.632 33.436C276.462 33.4787 276.323 33.5 276.216 33.5C276.024 33.436 275.928 33.212 275.928 32.828C275.928 32.5933 275.96 32.3267 276.024 32.028C276.11 31.7293 276.227 31.3773 276.376 30.972V31.004C276.398 30.8973 276.44 30.812 276.504 30.748C276.568 30.6627 276.59 30.6093 276.568 30.588C276.59 30.46 276.675 30.3213 276.824 30.172C276.974 30.0013 277.038 29.9053 277.016 29.884V29.852C277.08 29.7667 277.091 29.7133 277.048 29.692C277.006 29.6707 277.006 29.5853 277.048 29.436C277.283 28.9453 277.496 28.4973 277.688 28.092C277.88 27.6653 278.083 27.2813 278.296 26.94L278.552 26.396V26.46C278.552 26.3747 278.584 26.204 278.648 25.948C278.734 25.6707 278.776 25.532 278.776 25.532V25.468C279.011 25.0627 279.128 24.7533 279.128 24.54C279.128 24.3907 279.064 24.3053 278.936 24.284C278.83 24.2413 278.68 24.2093 278.488 24.188C278.382 24.188 278.222 24.1987 278.008 24.22C277.816 24.2413 277.624 24.2947 277.432 24.38C277.347 24.4013 277.198 24.4867 276.984 24.636C276.792 24.7853 276.6 24.924 276.408 25.052C276.216 25.18 276.088 25.244 276.024 25.244H276.056C275.886 25.3507 275.726 25.4467 275.576 25.532C275.448 25.6173 275.288 25.7347 275.096 25.884L274.104 26.524C273.059 27.2707 272.056 28.0813 271.096 28.956C270.136 29.8093 269.315 30.7053 268.632 31.644C268.547 31.7507 268.483 31.9 268.44 32.092C268.398 32.284 268.344 32.444 268.28 32.572C268.195 32.7213 268.11 32.828 268.024 32.892C267.939 32.9347 267.875 32.9773 267.832 33.02C267.662 33.2333 267.491 33.372 267.32 33.436C267.171 33.4787 267.043 33.5 266.936 33.5ZM298.318 33.468C297.977 33.468 297.71 33.4147 297.518 33.308C297.326 33.18 297.145 33.052 296.974 32.924C296.59 32.604 296.398 32.0173 296.398 31.164C296.398 30.5453 296.516 29.8413 296.75 29.052C296.985 28.2413 297.369 27.3987 297.902 26.524V26.556C298.137 26.1293 298.372 25.7027 298.606 25.276C298.862 24.8493 299.129 24.4333 299.406 24.028C299.492 23.9427 299.577 23.8893 299.662 23.868C299.748 23.8253 299.812 23.7827 299.854 23.74C299.854 23.6547 299.876 23.5373 299.918 23.388C299.982 23.2173 300.057 23.1 300.142 23.036C300.526 22.524 300.964 22.14 301.454 21.884C301.945 21.628 302.329 21.4147 302.606 21.244H302.574C302.702 21.18 302.852 21.148 303.022 21.148C303.449 21.148 303.95 21.308 304.526 21.628C304.612 21.628 304.697 21.6173 304.782 21.596C304.889 21.5533 304.996 21.532 305.102 21.532C305.316 21.532 305.529 21.6067 305.742 21.756C305.977 21.9053 306.073 22.14 306.03 22.46C306.009 22.524 305.998 22.5773 305.998 22.62C305.998 22.6627 305.998 22.7053 305.998 22.748C305.998 22.9827 306.084 23.1 306.254 23.1C306.34 23.1 306.425 23.0893 306.51 23.068C306.596 23.0467 306.681 23.036 306.766 23.036C307.001 23.036 307.332 23.004 307.758 22.94C308.185 22.8547 308.59 22.78 308.974 22.716C309.38 22.6307 309.657 22.588 309.806 22.588C309.892 22.652 309.934 22.7267 309.934 22.812C309.934 22.8973 309.892 22.9933 309.806 23.1C309.742 23.2067 309.668 23.2813 309.582 23.324C309.582 23.324 309.444 23.3667 309.166 23.452C308.91 23.516 308.59 23.6013 308.206 23.708C307.822 23.8147 307.438 23.9213 307.054 24.028C306.692 24.1133 306.404 24.1667 306.19 24.188L305.87 24.22C305.849 24.476 305.785 24.7533 305.678 25.052C305.572 25.3507 305.454 25.6813 305.326 26.044C305.284 26.1507 305.252 26.2893 305.23 26.46C305.209 26.6093 305.166 26.7693 305.102 26.94C304.953 27.196 304.782 27.452 304.59 27.708C304.398 27.964 304.217 28.2307 304.046 28.508C303.918 28.7213 303.78 28.956 303.63 29.212C303.502 29.4467 303.342 29.692 303.15 29.948C302.724 30.5027 302.222 31.0573 301.646 31.612C301.092 32.1453 300.516 32.5933 299.918 32.956C299.342 33.2973 298.809 33.468 298.318 33.468ZM298.606 32.412C299.033 32.412 299.62 32.1133 300.366 31.516C301.134 30.8973 301.849 30.108 302.51 29.148H302.478C302.649 28.892 302.82 28.5933 302.99 28.252C303.182 27.9107 303.332 27.6227 303.438 27.388C303.438 27.388 303.492 27.324 303.598 27.196C303.726 27.068 303.854 26.9293 303.982 26.78C304.11 26.6093 304.185 26.4813 304.206 26.396C304.228 26.3533 304.238 26.3 304.238 26.236C304.238 26.1933 304.228 26.1613 304.206 26.14C304.206 26.0973 304.206 26.0333 304.206 25.948V25.916C304.334 25.596 304.441 25.308 304.526 25.052C304.612 24.796 304.665 24.572 304.686 24.38C304.537 24.38 304.302 24.3693 303.982 24.348C303.662 24.3267 303.396 24.3053 303.182 24.284C302.99 24.2627 302.99 24.252 303.182 24.252H303.278C303.278 24.2307 303.182 24.188 302.99 24.124C302.798 24.06 302.649 24.0067 302.542 23.964C302.478 23.9853 302.414 23.996 302.35 23.996C302.244 23.996 302.158 23.9747 302.094 23.932C302.052 23.8893 301.998 23.9 301.934 23.964C301.849 24.0493 301.796 24.156 301.774 24.284C301.753 24.412 301.668 24.5507 301.518 24.7L301.486 24.732C301.486 24.7107 301.433 24.732 301.326 24.796C301.22 24.86 301.177 24.892 301.198 24.892L301.166 24.956C301.124 24.9773 301.092 25.0413 301.07 25.148C301.07 25.2333 301.038 25.3293 300.974 25.436C300.761 25.7773 300.526 26.14 300.27 26.524C300.036 26.8867 299.812 27.2387 299.598 27.58V27.548C299.385 27.932 299.172 28.348 298.958 28.796C298.745 29.244 298.585 29.6813 298.478 30.108C298.478 30.2147 298.457 30.3213 298.414 30.428C298.393 30.5133 298.382 30.588 298.382 30.652V30.684C298.382 30.9187 298.34 31.1213 298.254 31.292C298.169 31.4627 298.126 31.6333 298.126 31.804C298.19 31.9533 298.212 32.0707 298.19 32.156C298.169 32.22 298.201 32.2733 298.286 32.316C298.393 32.38 298.5 32.412 298.606 32.412ZM313.93 33.724C313.738 33.724 313.61 33.6387 313.546 33.468C313.482 33.2547 313.386 33.0413 313.258 32.828C313.151 32.5933 313.13 32.2733 313.194 31.868C313.194 31.868 313.236 31.7507 313.322 31.516C313.407 31.26 313.492 31.0253 313.578 30.812C313.684 30.5773 313.791 30.332 313.898 30.076C314.004 29.82 314.122 29.4573 314.25 28.988C314.335 28.7747 314.442 28.444 314.57 27.996C314.719 27.548 314.9 27.1427 315.114 26.78V26.812C315.434 26.236 315.764 25.6707 316.106 25.116C316.468 24.54 316.831 23.9747 317.194 23.42C317.087 23.5053 316.938 23.5693 316.746 23.612C316.511 23.6973 316.255 23.7933 315.978 23.9C315.7 23.9853 315.466 24.028 315.274 24.028C314.996 24.028 314.804 23.9213 314.698 23.708C314.612 23.4947 314.57 23.388 314.57 23.388V23.356C314.57 23.1213 314.57 22.876 314.57 22.62C314.591 22.3427 314.762 22.108 315.082 21.916H315.114C315.156 21.916 315.22 21.9267 315.306 21.948C315.412 21.9693 315.476 21.98 315.498 21.98C315.583 21.9373 315.69 21.8733 315.818 21.788C315.946 21.7027 316.084 21.66 316.234 21.66H316.266C316.628 21.66 317.012 21.6493 317.418 21.628C317.823 21.6067 318.164 21.564 318.442 21.5C318.57 21.3293 318.687 21.1693 318.794 21.02C318.9 20.8493 318.943 20.7427 318.922 20.7C318.943 20.5933 319.018 20.444 319.146 20.252C319.295 20.0387 319.402 19.8893 319.466 19.804C319.508 19.6973 319.594 19.58 319.722 19.452C319.871 19.3027 319.946 19.2067 319.946 19.164V19.132C319.967 19.0893 319.978 19.0147 319.978 18.908V18.652C319.978 18.5453 319.988 18.4387 320.01 18.332C320.052 18.204 320.116 18.0973 320.202 18.012C320.351 17.8627 320.468 17.6813 320.554 17.468C320.66 17.2547 320.852 17.0627 321.13 16.892C321.322 16.764 321.503 16.7 321.674 16.7C321.972 16.7 322.196 16.828 322.346 17.084C322.495 17.3187 322.612 17.5107 322.698 17.66C322.719 17.7453 322.826 17.8307 323.018 17.916C323.231 17.98 323.338 18.108 323.338 18.3C323.338 18.4707 323.21 18.6733 322.954 18.908C322.868 19.0147 322.719 19.1853 322.506 19.42C322.292 19.6333 322.1 19.8253 321.93 19.996C321.78 20.1453 321.514 20.4973 321.13 21.052C321.471 21.0307 321.823 20.9773 322.186 20.892C322.548 20.8067 322.922 20.764 323.306 20.764C323.412 20.7853 323.594 20.764 323.85 20.7C324.106 20.6147 324.34 20.572 324.554 20.572C324.639 20.572 324.703 20.636 324.746 20.764C324.81 20.8707 324.852 20.956 324.874 21.02C324.788 21.148 324.607 21.2653 324.33 21.372C324.074 21.4787 323.882 21.5427 323.754 21.564C323.668 21.564 323.444 21.596 323.082 21.66C322.719 21.724 322.346 21.7987 321.962 21.884C321.599 21.948 321.343 21.98 321.194 21.98C321.066 21.9587 320.938 22.0333 320.81 22.204C320.682 22.3533 320.532 22.4387 320.362 22.46C320.234 22.6307 320.095 22.7587 319.946 22.844C319.818 22.908 319.7 23.0147 319.594 23.164C319.316 23.5693 319.082 23.9213 318.89 24.22C318.698 24.4973 318.559 24.6893 318.474 24.796C318.367 24.924 318.218 25.1267 318.026 25.404C317.855 25.66 317.674 25.9267 317.482 26.204C317.29 26.4813 317.13 26.684 317.002 26.812C316.916 26.94 316.778 27.1533 316.586 27.452C316.394 27.7293 316.234 27.932 316.106 28.06C315.999 28.2093 315.914 28.3373 315.85 28.444C315.807 28.5507 315.722 28.7213 315.594 28.956V28.924C315.487 29.116 315.37 29.372 315.242 29.692C315.114 29.9907 315.028 30.2787 314.986 30.556C314.964 30.6627 314.943 30.78 314.922 30.908C314.922 31.036 314.922 31.1533 314.922 31.26C314.922 31.5373 314.932 31.7933 314.954 32.028C314.996 32.2413 315.018 32.4333 315.018 32.604C315.018 32.9027 314.89 33.1693 314.634 33.404C314.399 33.6173 314.164 33.724 313.93 33.724ZM324.906 20.988C324.906 20.988 324.895 20.9987 324.874 21.02L324.906 20.956V20.988ZM333.121 19.868C332.929 19.868 332.801 19.804 332.737 19.676C332.694 19.5267 332.662 19.388 332.641 19.26C332.619 19.1533 332.598 19.036 332.577 18.908C332.555 18.78 332.545 18.652 332.545 18.524C332.545 18.3533 332.566 18.204 332.609 18.076C332.673 17.9267 332.779 17.8093 332.929 17.724C333.419 17.468 333.835 17.2867 334.177 17.18C334.518 17.0733 334.795 17.02 335.009 17.02C335.329 17.02 335.542 17.116 335.649 17.308C335.755 17.5 335.809 17.7453 335.809 18.044C335.809 18.1293 335.809 18.2147 335.809 18.3C335.809 18.364 335.798 18.4493 335.777 18.556C335.713 18.8333 335.499 19.0253 335.137 19.132C334.795 19.2387 334.507 19.3453 334.273 19.452C334.123 19.5373 333.942 19.6333 333.729 19.74C333.537 19.8253 333.355 19.868 333.185 19.868H333.121ZM326.145 33.66C326.059 33.66 325.985 33.596 325.921 33.468C325.878 33.2973 325.825 33.148 325.761 33.02C325.697 32.892 325.665 32.7 325.665 32.444C325.665 32.1453 325.729 31.708 325.857 31.132C325.985 30.556 326.23 29.692 326.593 28.54C326.87 27.6653 327.126 26.9613 327.361 26.428C327.595 25.8947 327.841 25.3827 328.097 24.892V24.86C328.161 24.7747 328.257 24.7 328.385 24.636C328.513 24.572 328.598 24.508 328.641 24.444H328.609C328.651 24.4013 328.662 24.3373 328.641 24.252C328.619 24.1453 328.609 24.0493 328.609 23.964C328.609 23.7293 328.683 23.5373 328.833 23.388C329.003 23.2173 329.174 23.0573 329.345 22.908C329.515 22.7373 329.782 22.5453 330.145 22.332C330.507 22.1187 330.934 21.9693 331.425 21.884C331.489 21.8627 331.553 21.852 331.617 21.852C331.681 21.852 331.745 21.852 331.809 21.852C332.171 21.852 332.449 21.9267 332.641 22.076C332.833 22.2253 332.971 22.3853 333.057 22.556C333.099 22.5987 333.142 22.652 333.185 22.716C333.227 22.78 333.249 22.8547 333.249 22.94C333.249 23.0253 333.206 23.1427 333.121 23.292C333.057 23.42 332.907 23.5907 332.673 23.804C332.566 23.932 332.406 24.0707 332.193 24.22C332.001 24.348 331.819 24.4973 331.649 24.668C331.435 24.8813 331.233 25.116 331.041 25.372C330.849 25.628 330.667 25.8733 330.497 26.108C330.347 26.3213 330.187 26.524 330.017 26.716C329.846 26.8867 329.675 27.068 329.505 27.26C329.419 27.3453 329.355 27.5053 329.313 27.74C329.27 27.9533 329.174 28.1347 329.025 28.284C328.875 28.476 328.705 28.6253 328.513 28.732C328.342 28.8387 328.203 28.988 328.097 29.18V29.148C327.99 29.34 327.873 29.564 327.745 29.82C327.617 30.076 327.489 30.3213 327.361 30.556C327.147 30.9827 327.009 31.3027 326.945 31.516C326.881 31.708 326.849 31.8573 326.849 31.964C326.849 32.092 326.87 32.1773 326.913 32.22C326.977 32.2627 326.987 32.3693 326.945 32.54C326.859 32.732 326.742 32.9667 326.593 33.244C326.465 33.5213 326.315 33.66 326.145 33.66ZM339.241 33.468C338.9 33.468 338.633 33.4147 338.441 33.308C338.249 33.18 338.068 33.052 337.897 32.924C337.513 32.604 337.321 32.0173 337.321 31.164C337.321 30.5453 337.438 29.8413 337.673 29.052C337.908 28.2413 338.292 27.3987 338.825 26.524V26.556C339.06 26.1293 339.294 25.7027 339.529 25.276C339.785 24.8493 340.052 24.4333 340.329 24.028C340.414 23.9427 340.5 23.8893 340.585 23.868C340.67 23.8253 340.734 23.7827 340.777 23.74C340.777 23.6547 340.798 23.5373 340.841 23.388C340.905 23.2173 340.98 23.1 341.065 23.036C341.449 22.524 341.886 22.14 342.377 21.884C342.868 21.628 343.252 21.4147 343.529 21.244H343.497C343.625 21.18 343.774 21.148 343.945 21.148C344.372 21.148 344.873 21.308 345.449 21.628C345.534 21.628 345.62 21.6173 345.705 21.596C345.812 21.5533 345.918 21.532 346.025 21.532C346.238 21.532 346.452 21.6067 346.665 21.756C346.9 21.9053 346.996 22.14 346.953 22.46C346.932 22.524 346.921 22.5773 346.921 22.62C346.921 22.6627 346.921 22.7053 346.921 22.748C346.921 22.9827 347.006 23.1 347.177 23.1C347.262 23.1 347.348 23.0893 347.433 23.068C347.518 23.0467 347.604 23.036 347.689 23.036C347.924 23.036 348.254 23.004 348.681 22.94C349.108 22.8547 349.513 22.78 349.897 22.716C350.302 22.6307 350.58 22.588 350.729 22.588C350.814 22.652 350.857 22.7267 350.857 22.812C350.857 22.8973 350.814 22.9933 350.729 23.1C350.665 23.2067 350.59 23.2813 350.505 23.324C350.505 23.324 350.366 23.3667 350.089 23.452C349.833 23.516 349.513 23.6013 349.129 23.708C348.745 23.8147 348.361 23.9213 347.977 24.028C347.614 24.1133 347.326 24.1667 347.113 24.188L346.793 24.22C346.772 24.476 346.708 24.7533 346.601 25.052C346.494 25.3507 346.377 25.6813 346.249 26.044C346.206 26.1507 346.174 26.2893 346.153 26.46C346.132 26.6093 346.089 26.7693 346.025 26.94C345.876 27.196 345.705 27.452 345.513 27.708C345.321 27.964 345.14 28.2307 344.969 28.508C344.841 28.7213 344.702 28.956 344.553 29.212C344.425 29.4467 344.265 29.692 344.073 29.948C343.646 30.5027 343.145 31.0573 342.569 31.612C342.014 32.1453 341.438 32.5933 340.841 32.956C340.265 33.2973 339.732 33.468 339.241 33.468ZM339.529 32.412C339.956 32.412 340.542 32.1133 341.289 31.516C342.057 30.8973 342.772 30.108 343.433 29.148H343.401C343.572 28.892 343.742 28.5933 343.913 28.252C344.105 27.9107 344.254 27.6227 344.361 27.388C344.361 27.388 344.414 27.324 344.521 27.196C344.649 27.068 344.777 26.9293 344.905 26.78C345.033 26.6093 345.108 26.4813 345.129 26.396C345.15 26.3533 345.161 26.3 345.161 26.236C345.161 26.1933 345.15 26.1613 345.129 26.14C345.129 26.0973 345.129 26.0333 345.129 25.948V25.916C345.257 25.596 345.364 25.308 345.449 25.052C345.534 24.796 345.588 24.572 345.609 24.38C345.46 24.38 345.225 24.3693 344.905 24.348C344.585 24.3267 344.318 24.3053 344.105 24.284C343.913 24.2627 343.913 24.252 344.105 24.252H344.201C344.201 24.2307 344.105 24.188 343.913 24.124C343.721 24.06 343.572 24.0067 343.465 23.964C343.401 23.9853 343.337 23.996 343.273 23.996C343.166 23.996 343.081 23.9747 343.017 23.932C342.974 23.8893 342.921 23.9 342.857 23.964C342.772 24.0493 342.718 24.156 342.697 24.284C342.676 24.412 342.59 24.5507 342.441 24.7L342.409 24.732C342.409 24.7107 342.356 24.732 342.249 24.796C342.142 24.86 342.1 24.892 342.121 24.892L342.089 24.956C342.046 24.9773 342.014 25.0413 341.993 25.148C341.993 25.2333 341.961 25.3293 341.897 25.436C341.684 25.7773 341.449 26.14 341.193 26.524C340.958 26.8867 340.734 27.2387 340.521 27.58V27.548C340.308 27.932 340.094 28.348 339.881 28.796C339.668 29.244 339.508 29.6813 339.401 30.108C339.401 30.2147 339.38 30.3213 339.337 30.428C339.316 30.5133 339.305 30.588 339.305 30.652V30.684C339.305 30.9187 339.262 31.1213 339.177 31.292C339.092 31.4627 339.049 31.6333 339.049 31.804C339.113 31.9533 339.134 32.0707 339.113 32.156C339.092 32.22 339.124 32.2733 339.209 32.316C339.316 32.38 339.422 32.412 339.529 32.412ZM353.38 33.5C353.188 33.436 353.092 33.212 353.092 32.828C353.092 32.5933 353.124 32.3267 353.188 32.028C353.273 31.7293 353.391 31.3773 353.54 30.972V31.068C353.583 31.068 353.625 30.9933 353.668 30.844C353.711 30.6947 353.721 30.6093 353.7 30.588C353.721 30.46 353.807 30.3213 353.956 30.172C354.127 30.0013 354.201 29.9053 354.18 29.884V29.852C354.223 29.7667 354.223 29.7133 354.18 29.692C354.137 29.6707 354.148 29.5853 354.212 29.436C354.447 28.9453 354.66 28.4973 354.852 28.092C355.044 27.6653 355.236 27.2813 355.428 26.94C355.428 26.94 355.449 26.8653 355.492 26.716C355.535 26.5667 355.588 26.428 355.652 26.3V26.364C355.673 26.2787 355.727 26.204 355.812 26.14C355.897 26.0547 355.951 26.0013 355.972 25.98C356.079 25.788 356.132 25.6493 356.132 25.564C356.132 25.5213 356.121 25.5 356.1 25.5C356.079 25.5 356.068 25.4893 356.068 25.468C356.068 25.4467 356.089 25.404 356.132 25.34C356.175 25.2547 356.26 25.1267 356.388 24.956H356.356C356.441 24.8493 356.569 24.6573 356.74 24.38C356.932 24.1027 357.113 23.8253 357.284 23.548C357.476 23.2707 357.593 23.0893 357.636 23.004C357.807 22.6413 358.073 22.3747 358.436 22.204C358.82 22.012 359.193 21.916 359.556 21.916C359.897 21.916 360.185 22.0013 360.42 22.172C360.676 22.3213 360.804 22.5773 360.804 22.94C360.804 23.2813 360.719 23.516 360.548 23.644C360.399 23.772 360.185 23.9107 359.908 24.06C359.652 24.188 359.364 24.4227 359.044 24.764C358.425 25.4253 358.009 25.9693 357.796 26.396C357.583 26.8013 357.455 27.228 357.412 27.676C357.497 27.5693 357.593 27.4733 357.7 27.388C358.148 26.94 358.649 26.5347 359.204 26.172C359.78 25.788 360.505 25.3293 361.38 24.796H361.444C361.465 24.796 361.604 24.7 361.86 24.508C362.137 24.316 362.415 24.124 362.692 23.932C362.991 23.7187 363.172 23.612 363.236 23.612C363.236 23.612 363.364 23.548 363.62 23.42C363.876 23.292 364.143 23.1853 364.42 23.1C365.359 22.78 366.169 22.62 366.852 22.62C367.343 22.62 367.705 22.7053 367.94 22.876C368.132 23.004 368.228 23.26 368.228 23.644C368.228 23.9213 368.164 24.2413 368.036 24.604V24.54C368.015 24.54 367.972 24.6253 367.908 24.796C367.844 24.9453 367.78 25.0733 367.716 25.18C367.673 25.244 367.599 25.3613 367.492 25.532C367.385 25.7027 367.321 25.8093 367.3 25.852V25.82C367.172 26.0547 367.055 26.236 366.948 26.364C366.841 26.4707 366.713 26.62 366.564 26.812C366.351 27.068 366.063 27.4627 365.7 27.996C365.337 28.508 364.985 29.0627 364.644 29.66C364.324 30.236 364.111 30.7587 364.004 31.228C363.983 31.356 363.94 31.5053 363.876 31.676C363.833 31.8253 363.823 31.9533 363.844 32.06V32.092C363.844 32.1347 363.887 32.1987 363.972 32.284C364.057 32.348 364.111 32.4013 364.132 32.444C364.217 32.5293 364.26 32.6253 364.26 32.732C364.26 32.86 364.185 32.9773 364.036 33.084C363.908 33.1693 363.663 33.1907 363.3 33.148C363.065 33.148 362.905 33.084 362.82 32.956C362.756 32.828 362.681 32.6893 362.596 32.54V32.508C362.596 32.4653 362.585 32.4227 362.564 32.38C362.564 32.3373 362.564 32.2733 362.564 32.188C362.585 32.1453 362.553 32.124 362.468 32.124C362.404 32.1027 362.329 32.0173 362.244 31.868C362.244 31.868 362.233 31.7613 362.212 31.548C362.191 31.3347 362.18 31.1853 362.18 31.1C362.18 30.8867 362.255 30.6307 362.404 30.332C362.553 30.012 362.671 29.7347 362.756 29.5C362.863 29.2653 363.087 28.924 363.428 28.476C363.769 28.028 364.121 27.5693 364.484 27.1C364.868 26.6093 365.156 26.204 365.348 25.884C365.561 25.5213 365.668 25.2013 365.668 24.924C365.668 24.668 365.593 24.4867 365.444 24.38C365.295 24.252 365.124 24.188 364.932 24.188C364.825 24.188 364.665 24.1987 364.452 24.22C364.26 24.2413 364.068 24.2947 363.876 24.38C363.791 24.4013 363.641 24.4867 363.428 24.636C363.236 24.7853 363.044 24.924 362.852 25.052C362.66 25.18 362.532 25.244 362.468 25.244C362.319 25.3507 362.18 25.4573 362.052 25.564C361.924 25.6493 361.753 25.756 361.54 25.884L360.548 26.524C359.481 27.2067 358.468 27.996 357.508 28.892C356.569 29.788 355.759 30.7053 355.076 31.644C354.991 31.7507 354.927 31.9 354.884 32.092C354.841 32.284 354.788 32.444 354.724 32.572C354.639 32.7213 354.553 32.828 354.468 32.892C354.383 32.9347 354.319 32.9773 354.276 33.02C354.105 33.2333 353.935 33.372 353.764 33.436C353.615 33.4787 353.487 33.5 353.38 33.5Z" fill="url(#paint0_linear_53_3686)"/>
<defs>
<linearGradient id="paint0_linear_53_3686" x1="185.5" y1="0.5" x2="185.5" y2="48.5" gradientUnits="userSpaceOnUse">
<stop stop-color="#E7275A"/>
<stop offset="1" stop-color="#F8B01E"/>
</linearGradient>
</defs>
</svg>
