<svg width="1920" height="732" viewBox="0 0 1920 732" fill="none" xmlns="http://www.w3.org/2000/svg">
<g clip-path="url(#clip0_37_8788)">
<path d="M216.673 188.63C227.544 193.131 239.362 196.681 251.587 199.033C240.021 237.65 219.848 274.179 193.752 304.967C182.453 318.303 170.042 330.559 156.739 341.445C89.3944 396.557 -6.72369 425.302 -89.3986 389.271C-101.145 384.153 -112.364 377.942 -123 370.809L-123 0.000976562L143.319 0.00095328C138.959 6.51173 135.239 13.4469 132.275 20.7785C102.67 94.0113 148.17 160.249 216.673 188.63Z" fill="#FFE5B2"/>
<path d="M381.745 156.533C354.028 199.051 299.663 208.292 251.586 199.033C239.362 196.681 227.543 193.131 216.673 188.63C148.169 160.249 102.669 94.0113 132.275 20.7785C135.239 13.4469 138.959 6.51175 143.319 0.000974793L379.264 0.000954166C407.184 47.2413 410.942 111.745 381.745 156.533Z" fill="url(#paint0_linear_37_8788)"/>
<path d="M416.066 135.575C400.029 178.26 362.121 212.391 316.585 219.607C288.792 224.016 260.172 219.497 234.021 209.578C231.273 208.536 232.465 204.077 235.246 205.133C257.89 213.724 282.282 218.266 306.521 216.223C329.664 214.272 351.673 205.645 369.886 191.226C386.698 177.914 400.199 160.494 408.928 140.915C418.989 118.348 421.516 93.2874 417.851 68.9548C414.231 44.9127 405.525 22.0557 395.445 0.000962314L400.49 0.000961873C409.274 19.409 416.933 39.4117 421.018 60.3367C425.92 85.4347 425.118 111.483 416.066 135.575Z" fill="#FFE5B2"/>
</g>
<defs>
<linearGradient id="paint0_linear_37_8788" x1="262.532" y1="0.000964371" x2="262.532" y2="202.306" gradientUnits="userSpaceOnUse">
<stop stop-color="#FF7167"/>
<stop offset="1" stop-color="#FF9934"/>
</linearGradient>
<clipPath id="clip0_37_8788">
<rect width="1920" height="731.31" fill="white"/>
</clipPath>
</defs>
</svg>
