<svg width="1920" height="500" viewBox="0 0 1920 500" fill="none" xmlns="http://www.w3.org/2000/svg">
<g clip-path="url(#clip0_55_3849)">
<path d="M423.269 543.204C441.726 523.366 459.302 501.944 472.085 477.945C481.419 460.402 489.976 438.707 484.44 418.616C478.281 396.28 456.158 385.086 435.091 380.328C393.567 370.942 342.453 387.066 300.502 371.806C250.913 353.767 234.903 298.44 234.803 250.305C234.731 217.971 238.265 184.988 229.85 153.762C210.984 83.7765 143.766 53.761 76.4042 56.0033C18.7386 57.923 -45.0383 75.5675 -100.472 106.383L-100.472 562.532L403.84 562.532C410.51 556.392 416.992 549.956 423.269 543.204Z" fill="#FFE5B2"/>
<path d="M496.092 502.417C515.351 468.218 526.841 424.445 509.435 387.093C494.877 355.86 461.602 342.226 429.319 337.749C396.87 333.25 364.657 336.273 332.47 341.154C302.662 345.682 270.996 352.038 240.915 346.344C227.656 343.839 214.943 338.527 205.082 329.104C193.19 317.738 186.704 302.146 183.112 286.346C174.035 246.41 175.526 204.746 165.066 165.069C159.999 145.893 151.836 127.638 139.664 111.895C127.009 95.53 110.619 81.9655 92.3996 72.1881C57.7902 53.6078 17.1054 48.2444 -21.6358 52.2481C-48.7446 55.049 -75.7311 62.2839 -100.472 74.0488L-100.472 80.5676C-83.6204 72.3141 -65.6607 66.248 -47.4346 62.276C-9.67949 54.0462 30.8181 54.6048 67.4647 67.5632C105.479 81.0017 137.886 109.167 152.973 146.958C167.687 183.806 167.643 224.498 173.143 263.283C175.741 281.624 178.93 300.376 188.187 316.709C195.018 328.751 205.082 338.714 217.535 344.861C243.521 357.681 274.61 354.996 302.424 351.411C333.226 347.445 363.595 341.255 394.771 341.334C426.45 341.413 463.069 345.358 487.683 367.471C516.505 393.378 516.218 436.179 504.349 470.277C491.962 505.865 467.763 538.236 438.688 562.53L447.904 562.53C467.223 545.269 483.655 524.502 496.092 502.417Z" fill="#FFD37D" fill-opacity="0.32"/>
</g>
<defs>
<clipPath id="clip0_55_3849">
<rect width="1920" height="500" fill="white"/>
</clipPath>
</defs>
</svg>
