<svg width="300" height="49" viewBox="0 0 300 49" fill="none" xmlns="http://www.w3.org/2000/svg">
<path d="M15.296 34.748C15.04 34.748 14.912 34.556 14.912 34.172C14.912 33.9587 14.976 33.5427 15.104 32.924C15.2533 32.3053 15.4987 31.6653 15.84 31.004C15.9893 30.7053 16.1813 30.3213 16.416 29.852C16.672 29.3827 16.928 28.9027 17.184 28.412C17.4613 27.9213 17.7067 27.4733 17.92 27.068C18.1547 26.6627 18.336 26.364 18.464 26.172C18.8267 25.6173 19.264 24.9667 19.776 24.22C20.3093 23.452 20.7467 22.8333 21.088 22.364C20.3627 22.364 19.456 22.3747 18.368 22.396C17.3013 22.4173 16.1707 22.4493 14.976 22.492C13.7813 22.5133 12.64 22.5453 11.552 22.588C10.4853 22.6307 9.6 22.6733 8.896 22.716C8.23467 23.5907 7.584 24.4973 6.944 25.436C6.32533 26.3533 5.80267 27.1533 5.376 27.836C4.94933 28.4973 4.704 28.892 4.64 29.02C4.49067 29.3613 4.352 29.596 4.224 29.724C4.11733 29.852 4.032 30.0333 3.968 30.268C3.92533 30.3747 3.86133 30.556 3.776 30.812C3.69067 31.068 3.616 31.3027 3.552 31.516C3.50933 31.708 3.50933 31.7827 3.552 31.74C3.63733 31.7827 3.70133 31.9213 3.744 32.156C3.808 32.3907 3.84 32.604 3.84 32.796C3.84 32.9453 3.82933 33.0413 3.808 33.084C3.70133 33.1907 3.60533 33.308 3.52 33.436C3.43467 33.564 3.328 33.66 3.2 33.724C3.09333 33.788 2.98667 33.8307 2.88 33.852C2.77333 33.8733 2.66667 33.884 2.56 33.884C2.34667 33.884 2.208 33.852 2.144 33.788C2.10133 33.724 2.05867 33.6707 2.016 33.628C1.99467 33.5853 1.952 33.5427 1.888 33.5C1.824 33.436 1.73867 33.372 1.632 33.308C1.52533 33.244 1.472 33.084 1.472 32.828C1.472 32.5507 1.568 32.124 1.76 31.548C1.97333 30.9507 2.368 30.0973 2.944 28.988H2.976C3.33867 28.54 3.648 28.0707 3.904 27.58C4.16 27.068 4.42667 26.6307 4.704 26.268C4.74667 26.204 4.896 26.0013 5.152 25.66C5.408 25.2973 5.71733 24.8707 6.08 24.38C6.44267 23.868 6.816 23.356 7.2 22.844C7.11467 22.844 7.04 22.8547 6.976 22.876C6.912 22.876 6.848 22.8867 6.784 22.908C6.50667 22.972 6.24 23.0147 5.984 23.036C5.74933 23.0573 5.536 23.068 5.344 23.068C4.68267 23.068 4.352 22.972 4.352 22.78C4.352 22.652 4.61867 22.5027 5.152 22.332C5.70667 22.14 6.63467 21.9693 7.936 21.82C8.192 21.4573 8.40533 21.1587 8.576 20.924C8.74667 20.668 8.84267 20.5293 8.864 20.508C8.90667 20.4653 9.024 20.3267 9.216 20.092C9.408 19.836 9.504 19.708 9.504 19.708C9.78133 19.3667 9.952 19.1107 10.016 18.94C10.08 18.7693 10.1547 18.5987 10.24 18.428C10.3253 18.2573 10.5173 18.0013 10.816 17.66C10.9013 17.5533 11.072 17.3507 11.328 17.052C11.6053 16.732 11.872 16.4227 12.128 16.124C12.4053 15.804 12.5867 15.6013 12.672 15.516C12.7787 15.4093 12.8213 15.292 12.8 15.164C12.7787 15.0147 12.8747 14.8653 13.088 14.716C13.3867 14.5667 13.7067 14.4387 14.048 14.332C14.3893 14.2253 14.688 14.172 14.944 14.172C15.4133 14.172 15.648 14.3747 15.648 14.78V14.812C15.648 15.0893 15.616 15.3133 15.552 15.484C15.5093 15.6547 15.264 15.9427 14.816 16.348C14.56 16.5613 14.2187 16.892 13.792 17.34C13.3867 17.788 13.088 18.1293 12.896 18.364C12.6187 18.7267 12.3093 19.1107 11.968 19.516C11.6267 19.9 11.3387 20.2093 11.104 20.444C10.912 20.6573 10.688 20.8387 10.432 20.988C10.176 21.116 9.984 21.276 9.856 21.468L9.728 21.66C10.3467 21.596 11.0933 21.5427 11.968 21.5C12.8427 21.436 13.7387 21.3933 14.656 21.372C15.5733 21.3293 16.4053 21.308 17.152 21.308C18.0693 21.308 18.72 21.34 19.104 21.404C19.6587 21.4893 20.1493 21.532 20.576 21.532C21.0027 21.532 21.3547 21.5427 21.632 21.564C21.696 21.4573 21.8347 21.2653 22.048 20.988C22.2827 20.7107 22.496 20.4547 22.688 20.22C22.9013 19.9853 23.008 19.868 23.008 19.868C23.2853 19.5267 23.6053 19.132 23.968 18.684C24.3307 18.236 24.6933 17.788 25.056 17.34C25.44 16.892 25.7707 16.5187 26.048 16.22C26.1547 16.0707 26.2827 15.804 26.432 15.42C26.5813 15.0147 26.7307 14.7373 26.88 14.588C27.0293 14.46 27.2427 14.2893 27.52 14.076C27.8187 13.8413 28.0427 13.6813 28.192 13.596C28.512 13.4467 28.896 13.308 29.344 13.18C29.792 13.052 30.1867 12.988 30.528 12.988C31.0613 12.988 31.328 13.1693 31.328 13.532C31.2853 13.8307 31.1893 14.1933 31.04 14.62C30.8907 15.0253 30.5707 15.4413 30.08 15.868C29.824 16.0813 29.504 16.3053 29.12 16.54C28.736 16.7747 28.4587 17.0093 28.288 17.244C28.1173 17.4787 27.84 17.7347 27.456 18.012C27.0933 18.2893 26.7413 18.5453 26.4 18.78C26.0587 18.9933 25.824 19.1747 25.696 19.324C25.568 19.4733 25.3013 19.804 24.896 20.316C24.4907 20.828 24.1173 21.2973 23.776 21.724C23.712 21.8093 23.7227 21.9267 23.808 22.076C23.8933 22.2253 23.9787 22.3747 24.064 22.524C24.1493 22.6733 24.1493 22.7907 24.064 22.876C24 22.94 23.904 22.972 23.776 22.972C23.584 22.972 23.36 22.9293 23.104 22.844C22.8693 22.7587 22.7307 22.7373 22.688 22.78C21.8773 23.804 21.3227 24.6253 21.024 25.244C20.7467 25.8627 20.5547 26.2787 20.448 26.492H20.416C20.3093 26.6413 20.1707 26.876 20 27.196C19.8293 27.4947 19.6693 27.7933 19.52 28.092C19.3707 28.3907 19.2533 28.6147 19.168 28.764C19.0613 28.9987 18.8907 29.2013 18.656 29.372C18.4213 29.5213 18.1973 29.66 17.984 29.788C17.792 29.916 17.6853 30.0547 17.664 30.204C17.5787 30.3747 17.3867 30.6733 17.088 31.1C16.8107 31.5267 16.576 32.1347 16.384 32.924C16.2133 33.6067 16.0213 34.076 15.808 34.332C15.616 34.6093 15.4453 34.748 15.296 34.748ZM32.794 34.332C32.73 34.332 32.5913 34.2893 32.378 34.204C32.1647 34.14 31.9407 34.076 31.706 34.012C31.4713 33.948 31.3007 33.916 31.194 33.916H31.162C30.7567 33.916 30.4473 33.756 30.234 33.436C30.042 33.0947 29.914 32.7853 29.85 32.508C29.8287 32.4013 29.8073 32.2947 29.786 32.188C29.786 32.06 29.786 31.932 29.786 31.804C29.786 31.1 29.9567 30.3 30.298 29.404C30.6393 28.508 31.098 27.58 31.674 26.62C32.2713 25.66 32.9433 24.764 33.69 23.932C34.458 23.0573 35.2367 22.3747 36.026 21.884C36.8153 21.3933 37.53 21.116 38.17 21.052C38.5113 21.052 38.8633 21.148 39.226 21.34C39.5887 21.532 39.8447 21.628 39.994 21.628H40.026C40.474 21.628 40.7727 21.8093 40.922 22.172C41.0713 22.5347 41.146 22.8973 41.146 23.26C41.146 23.4733 41.1033 23.6973 41.018 23.932C40.9327 24.1667 40.858 24.3587 40.794 24.508C40.7513 24.6573 40.7513 24.7107 40.794 24.668L40.826 24.636C40.5913 25.0627 40.3247 25.5 40.026 25.948C39.7487 26.3747 39.29 26.94 38.65 27.644C38.394 27.9213 38.042 28.1987 37.594 28.476C37.1673 28.732 36.7513 28.9667 36.346 29.18C35.9407 29.3933 35.6527 29.5427 35.482 29.628C35.3113 29.7133 35.0873 29.756 34.81 29.756C34.5327 29.756 34.2233 29.724 33.882 29.66C33.562 29.596 33.2847 29.564 33.05 29.564C32.922 29.564 32.8047 29.5747 32.698 29.596C32.5913 29.6173 32.5167 29.6813 32.474 29.788C32.1327 30.3427 31.962 30.8973 31.962 31.452C31.962 31.7933 32.0367 32.0813 32.186 32.316C32.3567 32.5293 32.634 32.636 33.018 32.636C33.146 32.636 33.2847 32.6253 33.434 32.604C33.5833 32.5827 33.7327 32.54 33.882 32.476C34.2447 32.412 34.5007 32.38 34.65 32.38C34.7993 32.38 34.9593 32.3587 35.13 32.316C35.322 32.2733 35.6313 32.1667 36.058 31.996C36.5273 31.804 36.8793 31.6653 37.114 31.58C37.37 31.4947 37.562 31.42 37.69 31.356C37.8393 31.292 37.9887 31.2173 38.138 31.132C38.2873 31.0467 38.522 30.9187 38.842 30.748C39.0767 30.62 39.2047 30.556 39.226 30.556C39.2687 30.556 39.3327 30.5347 39.418 30.492C39.5033 30.428 39.7273 30.2787 40.09 30.044C40.474 29.788 40.7727 29.66 40.986 29.66C41.1353 29.66 41.21 29.7133 41.21 29.82C41.21 29.9053 41.1353 30.0333 40.986 30.204C40.858 30.3747 40.6233 30.5773 40.282 30.812C39.9193 31.068 39.5033 31.3667 39.034 31.708C38.586 32.0493 38.17 32.316 37.786 32.508C37.658 32.5293 37.5407 32.5827 37.434 32.668C37.3487 32.732 37.2207 32.7853 37.05 32.828L35.258 33.596L35.29 33.564C35.354 33.5 35.2793 33.5 35.066 33.564C34.874 33.628 34.618 33.724 34.298 33.852C33.9993 33.98 33.7007 34.0867 33.402 34.172C33.1247 34.2787 32.922 34.332 32.794 34.332ZM34.042 28.828C34.1273 28.828 34.2127 28.828 34.298 28.828C34.3833 28.8067 34.4687 28.7853 34.554 28.764C34.7033 28.636 34.842 28.54 34.97 28.476C35.098 28.412 35.2687 28.3053 35.482 28.156C35.6953 28.0067 35.994 27.74 36.378 27.356C36.698 27.036 36.9753 26.812 37.21 26.684C37.4447 26.5347 37.6367 26.3747 37.786 26.204C38.234 25.5853 38.4687 25.116 38.49 24.796C38.5327 24.476 38.554 24.1773 38.554 23.9C38.298 23.5587 38.0633 23.388 37.85 23.388C37.722 23.388 37.53 23.4413 37.274 23.548C36.9113 23.6973 36.6127 23.836 36.378 23.964C36.1647 24.092 35.8447 24.3693 35.418 24.796C34.9273 25.308 34.4793 25.8093 34.074 26.3C33.6687 26.7693 33.3487 27.2493 33.114 27.74C33.0927 27.8253 33.0607 27.9107 33.018 27.996C32.9967 28.06 32.986 28.1133 32.986 28.156C32.986 28.3907 33.0927 28.5613 33.306 28.668C33.5193 28.7747 33.7647 28.828 34.042 28.828ZM47.5295 33.884C47.2735 33.884 47.0602 33.8093 46.8895 33.66C46.7188 33.5107 46.6335 33.276 46.6335 32.956C46.6335 32.8707 46.6442 32.7853 46.6655 32.7C46.6655 32.6147 46.6762 32.5293 46.6975 32.444C46.8682 31.74 47.1562 30.908 47.5615 29.948C47.9668 28.988 48.5002 27.964 49.1615 26.876C49.8442 25.788 50.6868 24.7213 51.6895 23.676C52.4362 22.908 53.2362 22.364 54.0895 22.044C54.9428 21.7027 55.8495 21.532 56.8095 21.532H56.8415C57.5668 21.532 58.0468 21.724 58.2815 22.108C58.5162 22.4707 58.6335 22.844 58.6335 23.228C58.6335 23.676 58.5695 24.028 58.4415 24.284L58.4095 24.316C58.3242 24.4013 58.2175 24.444 58.0895 24.444C57.9828 24.444 57.8762 24.4013 57.7695 24.316C57.6842 24.2307 57.6415 24.1133 57.6415 23.964C57.6415 23.7507 57.5988 23.5693 57.5135 23.42C57.4495 23.2707 57.3642 23.1427 57.2575 23.036C57.2362 22.9933 57.1828 22.972 57.0975 22.972C57.0122 22.9507 56.9162 22.94 56.8095 22.94H56.7775C56.7135 22.94 56.6495 22.9293 56.5855 22.908C56.5215 22.8653 56.4575 22.844 56.3935 22.844C55.5828 22.844 54.5802 23.4093 53.3855 24.54C52.1695 25.7347 51.2628 26.7693 50.6655 27.644C50.0682 28.5187 49.6522 29.276 49.4175 29.916C49.2042 30.5347 49.0442 31.0893 48.9375 31.58C48.9162 31.7507 48.9695 31.836 49.0975 31.836C49.3322 31.836 49.6202 31.7293 49.9615 31.516C50.3242 31.3027 50.6975 31.0467 51.0815 30.748C51.4655 30.4493 51.8388 30.1507 52.2015 29.852C52.5642 29.532 52.8522 29.276 53.0655 29.084C53.1722 28.9773 53.2682 28.9027 53.3535 28.86C53.4602 28.8173 53.5455 28.764 53.6095 28.7C53.7162 28.6147 53.7908 28.5293 53.8335 28.444C53.8975 28.3587 53.9722 28.284 54.0575 28.22C54.8255 27.5587 55.4442 27.036 55.9135 26.652C56.3828 26.2467 56.7455 25.9267 57.0015 25.692C57.2788 25.4573 57.5135 25.2547 57.7055 25.084C57.9828 24.8067 58.2922 24.668 58.6335 24.668C59.1242 24.668 59.4335 24.9347 59.5615 25.468C59.6468 25.7667 59.5722 25.98 59.3375 26.108C59.1028 26.2147 58.9322 26.3427 58.8255 26.492C58.6548 26.7053 58.4735 27.0253 58.2815 27.452C58.0895 27.8573 57.8335 28.348 57.5135 28.924C57.3215 29.2867 57.1508 29.692 57.0015 30.14C56.8735 30.5667 56.8308 30.8867 56.8735 31.1L57.4175 30.748C57.6948 30.62 57.9935 30.5133 58.3135 30.428C58.6335 30.3213 58.9002 30.1933 59.1135 30.044C59.2628 29.9587 59.3908 29.916 59.4975 29.916C59.6682 29.916 59.7535 29.9907 59.7535 30.14C59.7535 30.3107 59.6255 30.4813 59.3695 30.652C58.7508 31.1 58.2602 31.42 57.8975 31.612C57.5348 31.7827 57.1508 32.0707 56.7455 32.476C56.6602 32.5613 56.4788 32.764 56.2015 33.084C55.9455 33.3827 55.7642 33.564 55.6575 33.628C55.5722 33.6707 55.4762 33.692 55.3695 33.692C55.2842 33.7133 55.1988 33.724 55.1135 33.724C54.8148 33.724 54.6335 33.692 54.5695 33.628C54.5268 33.5853 54.4628 33.5427 54.3775 33.5C54.3135 33.4787 54.2602 33.4147 54.2175 33.308C54.1748 33.1373 54.1535 32.988 54.1535 32.86C54.1535 32.476 54.2495 32.028 54.4415 31.516C54.6548 30.9827 54.9322 30.396 55.2735 29.756C55.5508 29.2227 55.7535 28.8067 55.8815 28.508C56.0095 28.2093 56.1055 27.964 56.1695 27.772C56.2335 27.5587 56.3082 27.356 56.3935 27.164C56.0948 27.4413 55.7855 27.7293 55.4655 28.028C55.1455 28.3267 54.7722 28.6573 54.3455 29.02C54.2815 29.0627 54.1962 29.1267 54.0895 29.212C53.9828 29.276 53.9082 29.3187 53.8655 29.34L53.0015 30.14C52.4042 30.6093 51.8708 31.0467 51.4015 31.452C50.9322 31.8573 50.4522 32.2413 49.9615 32.604C49.4708 32.9667 48.8842 33.34 48.2015 33.724C47.9455 33.8307 47.7215 33.884 47.5295 33.884ZM66.215 33.5C66.023 33.4573 65.927 33.2333 65.927 32.828C65.927 32.124 66.1297 31.3667 66.535 30.556C66.663 30.4067 66.7697 30.2573 66.855 30.108C66.9617 29.9587 67.015 29.788 67.015 29.596C67.015 29.468 67.079 29.276 67.207 29.02C67.335 28.7427 67.4737 28.4547 67.623 28.156C67.7937 27.836 67.943 27.5587 68.071 27.324C68.199 27.0893 68.263 26.9507 68.263 26.908C68.3057 26.8013 68.3483 26.684 68.391 26.556C68.455 26.4067 68.487 26.332 68.487 26.332C68.7003 26.012 68.9563 25.6173 69.255 25.148C69.575 24.6787 69.9483 24.1347 70.375 23.516H70.343C70.6417 23.0253 70.9083 22.6093 71.143 22.268C71.399 21.9053 71.6337 21.6173 71.847 21.404C72.5297 20.7213 73.3083 20.38 74.183 20.38C74.7163 20.38 74.983 20.6147 74.983 21.084C74.983 21.4893 74.7377 21.9053 74.247 22.332C74.055 22.5027 73.8523 22.6733 73.639 22.844C73.447 22.9933 73.2657 23.1533 73.095 23.324C72.9243 23.516 72.6897 23.804 72.391 24.188C72.0923 24.5507 71.7403 25.0093 71.335 25.564C71.2923 25.628 71.175 25.788 70.983 26.044C70.8123 26.2787 70.631 26.5453 70.439 26.844C70.2683 27.1213 70.1403 27.3667 70.055 27.58C69.991 27.772 70.0337 27.8573 70.183 27.836C70.4817 27.4093 71.2177 26.78 72.391 25.948C72.8817 25.6067 73.287 25.2653 73.607 24.924C73.927 24.5827 74.247 24.3053 74.567 24.092C74.6737 24.0493 74.791 23.9853 74.919 23.9C75.047 23.8147 75.1857 23.6973 75.335 23.548H75.367C75.943 23.2493 76.5617 22.9187 77.223 22.556C77.8843 22.172 78.5777 21.7453 79.303 21.276C79.367 21.2333 79.4523 21.2333 79.559 21.276C80.519 20.9347 81.1803 20.764 81.543 20.764C81.9057 20.764 82.087 20.924 82.087 21.244C82.087 21.308 82.055 21.468 81.991 21.724C81.9483 21.98 81.8523 22.2253 81.703 22.46C81.575 22.6947 81.383 22.812 81.127 22.812H79.719C79.015 23.0893 78.2577 23.388 77.447 23.708C76.6577 24.0067 75.8363 24.4653 74.983 25.084H74.951C71.815 27.1533 69.4683 29.34 67.911 31.644C67.8897 31.7507 67.847 31.8787 67.783 32.028C67.719 32.1773 67.6443 32.3587 67.559 32.572C67.239 33.1267 66.791 33.436 66.215 33.5ZM91.7842 19.868C91.5922 19.868 91.4642 19.804 91.4002 19.676C91.3576 19.5267 91.3256 19.388 91.3042 19.26C91.2829 19.1533 91.2616 19.036 91.2402 18.908C91.2189 18.78 91.2082 18.652 91.2082 18.524C91.2082 18.3533 91.2296 18.204 91.2722 18.076C91.3362 17.9267 91.4429 17.8093 91.5922 17.724C92.0829 17.468 92.4989 17.2867 92.8402 17.18C93.1816 17.0733 93.4589 17.02 93.6722 17.02C93.9922 17.02 94.2056 17.116 94.3122 17.308C94.4189 17.5 94.4722 17.7453 94.4722 18.044C94.4722 18.1293 94.4722 18.2147 94.4722 18.3C94.4722 18.364 94.4616 18.4493 94.4402 18.556C94.3762 18.8333 94.1629 19.0253 93.8002 19.132C93.4589 19.2387 93.1709 19.3453 92.9362 19.452C92.7869 19.5373 92.6056 19.6333 92.3922 19.74C92.2002 19.8253 92.0189 19.868 91.8482 19.868H91.7842ZM84.8082 33.66C84.7229 33.66 84.6482 33.596 84.5842 33.468C84.5416 33.2973 84.4882 33.148 84.4242 33.02C84.3602 32.892 84.3282 32.7 84.3282 32.444C84.3282 32.1453 84.3922 31.708 84.5202 31.132C84.6482 30.556 84.8936 29.692 85.2562 28.54C85.5336 27.6653 85.7896 26.9613 86.0242 26.428C86.2589 25.8947 86.5042 25.3827 86.7602 24.892V24.86C86.8242 24.7747 86.9202 24.7 87.0482 24.636C87.1762 24.572 87.2616 24.508 87.3042 24.444H87.2722C87.3149 24.4013 87.3256 24.3373 87.3042 24.252C87.2829 24.1453 87.2722 24.0493 87.2722 23.964C87.2722 23.7293 87.3469 23.5373 87.4962 23.388C87.6669 23.2173 87.8376 23.0573 88.0082 22.908C88.1789 22.7373 88.4456 22.5453 88.8082 22.332C89.1709 22.1187 89.5976 21.9693 90.0882 21.884C90.1522 21.8627 90.2162 21.852 90.2802 21.852C90.3442 21.852 90.4082 21.852 90.4722 21.852C90.8349 21.852 91.1122 21.9267 91.3042 22.076C91.4962 22.2253 91.6349 22.3853 91.7202 22.556C91.7629 22.5987 91.8056 22.652 91.8482 22.716C91.8909 22.78 91.9122 22.8547 91.9122 22.94C91.9122 23.0253 91.8696 23.1427 91.7842 23.292C91.7202 23.42 91.5709 23.5907 91.3362 23.804C91.2296 23.932 91.0696 24.0707 90.8562 24.22C90.6642 24.348 90.4829 24.4973 90.3122 24.668C90.0989 24.8813 89.8962 25.116 89.7042 25.372C89.5122 25.628 89.3309 25.8733 89.1602 26.108C89.0109 26.3213 88.8509 26.524 88.6802 26.716C88.5096 26.8867 88.3389 27.068 88.1682 27.26C88.0829 27.3453 88.0189 27.5053 87.9762 27.74C87.9336 27.9533 87.8376 28.1347 87.6882 28.284C87.5389 28.476 87.3682 28.6253 87.1762 28.732C87.0056 28.8387 86.8669 28.988 86.7602 29.18V29.148C86.6536 29.34 86.5362 29.564 86.4082 29.82C86.2802 30.076 86.1522 30.3213 86.0242 30.556C85.8109 30.9827 85.6722 31.3027 85.6082 31.516C85.5442 31.708 85.5122 31.8573 85.5122 31.964C85.5122 32.092 85.5336 32.1773 85.5762 32.22C85.6402 32.2627 85.6509 32.3693 85.6082 32.54C85.5229 32.732 85.4056 32.9667 85.2562 33.244C85.1282 33.5213 84.9789 33.66 84.8082 33.66ZM96.0487 33.5C95.8567 33.436 95.7607 33.212 95.7607 32.828C95.7607 32.5933 95.7927 32.3267 95.8567 32.028C95.9421 31.7293 96.0594 31.3773 96.2087 30.972V31.068C96.2514 31.068 96.2941 30.9933 96.3367 30.844C96.3794 30.6947 96.3901 30.6093 96.3687 30.588C96.3901 30.46 96.4754 30.3213 96.6247 30.172C96.7954 30.0013 96.8701 29.9053 96.8487 29.884V29.852C96.8914 29.7667 96.8914 29.7133 96.8487 29.692C96.8061 29.6707 96.8167 29.5853 96.8807 29.436C97.1154 28.9453 97.3287 28.4973 97.5207 28.092C97.7127 27.6653 97.9047 27.2813 98.0967 26.94C98.0967 26.94 98.1181 26.8653 98.1607 26.716C98.2034 26.5667 98.2567 26.428 98.3207 26.3V26.364C98.3421 26.2787 98.3954 26.204 98.4807 26.14C98.5661 26.0547 98.6194 26.0013 98.6407 25.98C98.7474 25.788 98.8007 25.6493 98.8007 25.564C98.8007 25.5213 98.7901 25.5 98.7687 25.5C98.7474 25.5 98.7367 25.4893 98.7367 25.468C98.7367 25.4467 98.7581 25.404 98.8007 25.34C98.8434 25.2547 98.9287 25.1267 99.0567 24.956H99.0247C99.1101 24.8493 99.2381 24.6573 99.4087 24.38C99.6007 24.1027 99.7821 23.8253 99.9527 23.548C100.145 23.2707 100.262 23.0893 100.305 23.004C100.475 22.6413 100.742 22.3747 101.105 22.204C101.489 22.012 101.862 21.916 102.225 21.916C102.566 21.916 102.854 22.0013 103.089 22.172C103.345 22.3213 103.473 22.5773 103.473 22.94C103.473 23.2813 103.387 23.516 103.217 23.644C103.067 23.772 102.854 23.9107 102.577 24.06C102.321 24.188 102.033 24.4227 101.713 24.764C101.094 25.4253 100.678 25.9693 100.465 26.396C100.251 26.8013 100.123 27.228 100.081 27.676C100.166 27.5693 100.262 27.4733 100.369 27.388C100.817 26.94 101.318 26.5347 101.873 26.172C102.449 25.788 103.174 25.3293 104.049 24.796H104.113C104.134 24.796 104.273 24.7 104.529 24.508C104.806 24.316 105.083 24.124 105.361 23.932C105.659 23.7187 105.841 23.612 105.905 23.612C105.905 23.612 106.033 23.548 106.289 23.42C106.545 23.292 106.811 23.1853 107.089 23.1C108.027 22.78 108.838 22.62 109.521 22.62C110.011 22.62 110.374 22.7053 110.609 22.876C110.801 23.004 110.897 23.26 110.897 23.644C110.897 23.9213 110.833 24.2413 110.705 24.604V24.54C110.683 24.54 110.641 24.6253 110.577 24.796C110.513 24.9453 110.449 25.0733 110.385 25.18C110.342 25.244 110.267 25.3613 110.161 25.532C110.054 25.7027 109.99 25.8093 109.969 25.852V25.82C109.841 26.0547 109.723 26.236 109.617 26.364C109.51 26.4707 109.382 26.62 109.233 26.812C109.019 27.068 108.731 27.4627 108.369 27.996C108.006 28.508 107.654 29.0627 107.313 29.66C106.993 30.236 106.779 30.7587 106.673 31.228C106.651 31.356 106.609 31.5053 106.545 31.676C106.502 31.8253 106.491 31.9533 106.513 32.06V32.092C106.513 32.1347 106.555 32.1987 106.641 32.284C106.726 32.348 106.779 32.4013 106.801 32.444C106.886 32.5293 106.929 32.6253 106.929 32.732C106.929 32.86 106.854 32.9773 106.705 33.084C106.577 33.1693 106.331 33.1907 105.969 33.148C105.734 33.148 105.574 33.084 105.489 32.956C105.425 32.828 105.35 32.6893 105.265 32.54V32.508C105.265 32.4653 105.254 32.4227 105.233 32.38C105.233 32.3373 105.233 32.2733 105.233 32.188C105.254 32.1453 105.222 32.124 105.137 32.124C105.073 32.1027 104.998 32.0173 104.913 31.868C104.913 31.868 104.902 31.7613 104.881 31.548C104.859 31.3347 104.849 31.1853 104.849 31.1C104.849 30.8867 104.923 30.6307 105.073 30.332C105.222 30.012 105.339 29.7347 105.425 29.5C105.531 29.2653 105.755 28.924 106.097 28.476C106.438 28.028 106.79 27.5693 107.153 27.1C107.537 26.6093 107.825 26.204 108.017 25.884C108.23 25.5213 108.337 25.2013 108.337 24.924C108.337 24.668 108.262 24.4867 108.113 24.38C107.963 24.252 107.793 24.188 107.601 24.188C107.494 24.188 107.334 24.1987 107.121 24.22C106.929 24.2413 106.737 24.2947 106.545 24.38C106.459 24.4013 106.31 24.4867 106.097 24.636C105.905 24.7853 105.713 24.924 105.521 25.052C105.329 25.18 105.201 25.244 105.137 25.244C104.987 25.3507 104.849 25.4573 104.721 25.564C104.593 25.6493 104.422 25.756 104.209 25.884L103.217 26.524C102.15 27.2067 101.137 27.996 100.177 28.892C99.2381 29.788 98.4274 30.7053 97.7447 31.644C97.6594 31.7507 97.5954 31.9 97.5527 32.092C97.5101 32.284 97.4567 32.444 97.3927 32.572C97.3074 32.7213 97.2221 32.828 97.1367 32.892C97.0514 32.9347 96.9874 32.9773 96.9447 33.02C96.7741 33.2333 96.6034 33.372 96.4327 33.436C96.2834 33.4787 96.1554 33.5 96.0487 33.5ZM114.246 45.468C113.542 45.468 112.987 45.2227 112.582 44.732C112.155 44.2627 111.856 43.6973 111.686 43.036C111.494 42.396 111.398 41.82 111.398 41.308C111.504 40.8173 111.59 40.4227 111.654 40.124C111.696 39.8467 111.888 39.4947 112.23 39.068C112.379 38.9187 112.496 38.844 112.582 38.844C112.688 38.844 112.742 38.9507 112.742 39.164C112.72 39.3773 112.71 39.612 112.71 39.868C112.71 40.188 112.71 40.604 112.71 41.116C112.71 41.628 112.752 42.14 112.838 42.652C112.902 43.1853 113.051 43.6227 113.286 43.964C113.499 44.3267 113.819 44.508 114.246 44.508C115.056 44.508 115.771 44.2947 116.39 43.868C117.03 43.4627 117.606 42.9293 118.118 42.268C118.63 41.628 119.11 40.956 119.558 40.252C119.728 39.996 119.92 39.7613 120.134 39.548C120.347 39.3347 120.528 39.1107 120.678 38.876C120.848 38.62 120.976 38.3533 121.062 38.076C121.168 37.7987 121.296 37.5533 121.446 37.34C122.107 36.4227 122.651 35.4093 123.078 34.3C123.504 33.1907 124.006 32.1027 124.582 31.036C124.688 30.6947 124.848 30.3 125.062 29.852C125.296 29.2973 125.446 28.9027 125.51 28.668C125.595 28.4333 125.638 28.2733 125.638 28.188C125.638 28.0813 125.638 27.9853 125.638 27.9C125.424 28.0493 125.254 28.156 125.126 28.22C125.019 28.2627 124.891 28.3267 124.742 28.412C124.592 28.4973 124.358 28.7 124.038 29.02L124.006 29.052C123.984 29.0307 123.91 29.084 123.782 29.212C123.675 29.34 123.579 29.4253 123.494 29.468C123.366 29.5533 123.163 29.7347 122.886 30.012C122.608 30.268 122.416 30.4387 122.31 30.524C121.584 31.0573 120.976 31.516 120.486 31.9C119.995 32.284 119.408 32.6573 118.726 33.02L118.534 33.244L118.47 33.276C118.427 33.276 118.32 33.2867 118.15 33.308C118 33.3293 117.968 33.34 118.054 33.34H118.086C117.936 33.4253 117.787 33.4893 117.638 33.532C117.51 33.596 117.392 33.66 117.286 33.724C117.008 33.8307 116.752 33.884 116.518 33.884C116.262 33.884 116.038 33.8093 115.846 33.66C115.675 33.5107 115.59 33.276 115.59 32.956C115.59 32.8707 115.6 32.7853 115.622 32.7C115.622 32.6147 115.632 32.5293 115.654 32.444C115.846 31.74 116.155 30.908 116.582 29.948C117.03 28.988 117.627 27.964 118.374 26.876C119.12 25.788 120.048 24.7213 121.158 23.676C121.798 23.0573 122.459 22.556 123.142 22.172C123.846 21.788 124.56 21.5533 125.286 21.468C125.328 21.468 125.403 21.4467 125.51 21.404C125.616 21.3613 125.712 21.34 125.798 21.34C125.968 21.34 126.128 21.372 126.278 21.436C126.448 21.5 126.619 21.532 126.79 21.532C126.79 21.532 126.907 21.596 127.142 21.724C127.376 21.8307 127.643 21.98 127.942 22.172C128.24 22.364 128.496 22.5667 128.71 22.78C128.944 22.972 129.062 23.164 129.062 23.356C129.062 23.5693 128.976 23.7613 128.806 23.932C128.656 24.1027 128.56 24.2307 128.518 24.316C128.454 24.4013 128.347 24.444 128.198 24.444C127.878 24.444 127.696 24.284 127.654 23.964C127.654 23.7507 127.611 23.5693 127.526 23.42C127.462 23.2707 127.376 23.1427 127.27 23.036C127.227 22.9933 127.067 22.9507 126.79 22.908C126.512 22.8653 126.32 22.844 126.214 22.844C125.808 22.844 125.328 23.004 124.774 23.324C124.24 23.644 123.664 24.0813 123.046 24.636C122.768 24.8707 122.502 25.052 122.246 25.18C122.011 25.308 121.798 25.468 121.606 25.66C121.52 25.7453 121.435 25.884 121.35 26.076C121.286 26.2467 121.2 26.3853 121.094 26.492C120.326 27.3027 119.739 28.028 119.334 28.668C118.928 29.2867 118.64 29.8307 118.47 30.3C118.32 30.7693 118.192 31.196 118.086 31.58C118.086 31.7507 118.139 31.836 118.246 31.836H118.566C118.928 31.7293 119.355 31.516 119.846 31.196C120.336 30.8547 120.827 30.492 121.318 30.108C121.83 29.7027 122.267 29.3613 122.63 29.084C122.736 28.9773 122.843 28.9027 122.95 28.86C123.078 28.8173 123.174 28.764 123.238 28.7C123.344 28.6147 123.43 28.5293 123.494 28.444C123.579 28.3587 123.664 28.284 123.75 28.22C124.39 27.7293 124.859 27.3667 125.158 27.132C125.478 26.8973 125.702 26.7373 125.83 26.652C125.958 26.5453 126.064 26.4707 126.15 26.428C126.235 26.364 126.352 26.268 126.502 26.14C126.758 25.948 126.982 25.852 127.174 25.852C127.408 25.852 127.59 25.948 127.718 26.14C127.867 26.3107 127.952 26.4813 127.974 26.652C128.016 26.8227 128.038 26.9827 128.038 27.132C128.038 27.388 127.995 27.6013 127.91 27.772C127.803 27.9 127.75 28.0173 127.75 28.124C127.75 28.1667 127.76 28.2093 127.782 28.252C127.803 28.2947 127.814 28.348 127.814 28.412C127.814 28.476 127.792 28.572 127.75 28.7C127.707 28.8067 127.611 28.9773 127.462 29.212V29.18C127.355 29.3933 127.28 29.5533 127.238 29.66C127.195 29.7453 127.12 29.8733 127.014 30.044C126.843 30.5773 126.608 31.0893 126.31 31.58C126.011 32.0707 125.68 32.6253 125.318 33.244C125.04 33.9693 124.742 34.684 124.422 35.388C124.102 36.1133 123.696 36.828 123.206 37.532C122.715 38.2147 122.16 39.004 121.542 39.9C120.944 40.8173 120.272 41.692 119.526 42.524C118.8 43.3773 117.99 44.0813 117.094 44.636C116.219 45.1907 115.27 45.468 114.246 45.468ZM155.483 19.868C155.291 19.868 155.163 19.804 155.099 19.676C155.056 19.5267 155.024 19.388 155.003 19.26C154.982 19.1533 154.96 19.036 154.939 18.908C154.918 18.78 154.907 18.652 154.907 18.524C154.907 18.3533 154.928 18.204 154.971 18.076C155.035 17.9267 155.142 17.8093 155.291 17.724C155.782 17.468 156.198 17.2867 156.539 17.18C156.88 17.0733 157.158 17.02 157.371 17.02C157.691 17.02 157.904 17.116 158.011 17.308C158.118 17.5 158.171 17.7453 158.171 18.044C158.171 18.1293 158.171 18.2147 158.171 18.3C158.171 18.364 158.16 18.4493 158.139 18.556C158.075 18.8333 157.862 19.0253 157.499 19.132C157.158 19.2387 156.87 19.3453 156.635 19.452C156.486 19.5373 156.304 19.6333 156.091 19.74C155.899 19.8253 155.718 19.868 155.547 19.868H155.483ZM148.507 33.66C148.422 33.66 148.347 33.596 148.283 33.468C148.24 33.2973 148.187 33.148 148.123 33.02C148.059 32.892 148.027 32.7 148.027 32.444C148.027 32.1453 148.091 31.708 148.219 31.132C148.347 30.556 148.592 29.692 148.955 28.54C149.232 27.6653 149.488 26.9613 149.723 26.428C149.958 25.8947 150.203 25.3827 150.459 24.892V24.86C150.523 24.7747 150.619 24.7 150.747 24.636C150.875 24.572 150.96 24.508 151.003 24.444H150.971C151.014 24.4013 151.024 24.3373 151.003 24.252C150.982 24.1453 150.971 24.0493 150.971 23.964C150.971 23.7293 151.046 23.5373 151.195 23.388C151.366 23.2173 151.536 23.0573 151.707 22.908C151.878 22.7373 152.144 22.5453 152.507 22.332C152.87 22.1187 153.296 21.9693 153.787 21.884C153.851 21.8627 153.915 21.852 153.979 21.852C154.043 21.852 154.107 21.852 154.171 21.852C154.534 21.852 154.811 21.9267 155.003 22.076C155.195 22.2253 155.334 22.3853 155.419 22.556C155.462 22.5987 155.504 22.652 155.547 22.716C155.59 22.78 155.611 22.8547 155.611 22.94C155.611 23.0253 155.568 23.1427 155.483 23.292C155.419 23.42 155.27 23.5907 155.035 23.804C154.928 23.932 154.768 24.0707 154.555 24.22C154.363 24.348 154.182 24.4973 154.011 24.668C153.798 24.8813 153.595 25.116 153.403 25.372C153.211 25.628 153.03 25.8733 152.859 26.108C152.71 26.3213 152.55 26.524 152.379 26.716C152.208 26.8867 152.038 27.068 151.867 27.26C151.782 27.3453 151.718 27.5053 151.675 27.74C151.632 27.9533 151.536 28.1347 151.387 28.284C151.238 28.476 151.067 28.6253 150.875 28.732C150.704 28.8387 150.566 28.988 150.459 29.18V29.148C150.352 29.34 150.235 29.564 150.107 29.82C149.979 30.076 149.851 30.3213 149.723 30.556C149.51 30.9827 149.371 31.3027 149.307 31.516C149.243 31.708 149.211 31.8573 149.211 31.964C149.211 32.092 149.232 32.1773 149.275 32.22C149.339 32.2627 149.35 32.3693 149.307 32.54C149.222 32.732 149.104 32.9667 148.955 33.244C148.827 33.5213 148.678 33.66 148.507 33.66ZM159.748 33.5C159.556 33.436 159.46 33.212 159.46 32.828C159.46 32.5933 159.492 32.3267 159.556 32.028C159.641 31.7293 159.758 31.3773 159.908 30.972V31.068C159.95 31.068 159.993 30.9933 160.036 30.844C160.078 30.6947 160.089 30.6093 160.068 30.588C160.089 30.46 160.174 30.3213 160.324 30.172C160.494 30.0013 160.569 29.9053 160.548 29.884V29.852C160.59 29.7667 160.59 29.7133 160.548 29.692C160.505 29.6707 160.516 29.5853 160.58 29.436C160.814 28.9453 161.028 28.4973 161.22 28.092C161.412 27.6653 161.604 27.2813 161.796 26.94C161.796 26.94 161.817 26.8653 161.86 26.716C161.902 26.5667 161.956 26.428 162.02 26.3V26.364C162.041 26.2787 162.094 26.204 162.18 26.14C162.265 26.0547 162.318 26.0013 162.34 25.98C162.446 25.788 162.5 25.6493 162.5 25.564C162.5 25.5213 162.489 25.5 162.468 25.5C162.446 25.5 162.436 25.4893 162.436 25.468C162.436 25.4467 162.457 25.404 162.5 25.34C162.542 25.2547 162.628 25.1267 162.756 24.956H162.724C162.809 24.8493 162.937 24.6573 163.108 24.38C163.3 24.1027 163.481 23.8253 163.652 23.548C163.844 23.2707 163.961 23.0893 164.004 23.004C164.174 22.6413 164.441 22.3747 164.804 22.204C165.188 22.012 165.561 21.916 165.924 21.916C166.265 21.916 166.553 22.0013 166.788 22.172C167.044 22.3213 167.172 22.5773 167.172 22.94C167.172 23.2813 167.086 23.516 166.916 23.644C166.766 23.772 166.553 23.9107 166.276 24.06C166.02 24.188 165.732 24.4227 165.412 24.764C164.793 25.4253 164.377 25.9693 164.164 26.396C163.95 26.8013 163.822 27.228 163.78 27.676C163.865 27.5693 163.961 27.4733 164.068 27.388C164.516 26.94 165.017 26.5347 165.572 26.172C166.148 25.788 166.873 25.3293 167.748 24.796H167.812C167.833 24.796 167.972 24.7 168.228 24.508C168.505 24.316 168.782 24.124 169.06 23.932C169.358 23.7187 169.54 23.612 169.604 23.612C169.604 23.612 169.732 23.548 169.988 23.42C170.244 23.292 170.51 23.1853 170.788 23.1C171.726 22.78 172.537 22.62 173.22 22.62C173.71 22.62 174.073 22.7053 174.308 22.876C174.5 23.004 174.596 23.26 174.596 23.644C174.596 23.9213 174.532 24.2413 174.404 24.604V24.54C174.382 24.54 174.34 24.6253 174.276 24.796C174.212 24.9453 174.148 25.0733 174.084 25.18C174.041 25.244 173.966 25.3613 173.86 25.532C173.753 25.7027 173.689 25.8093 173.668 25.852V25.82C173.54 26.0547 173.422 26.236 173.316 26.364C173.209 26.4707 173.081 26.62 172.932 26.812C172.718 27.068 172.43 27.4627 172.068 27.996C171.705 28.508 171.353 29.0627 171.012 29.66C170.692 30.236 170.478 30.7587 170.372 31.228C170.35 31.356 170.308 31.5053 170.244 31.676C170.201 31.8253 170.19 31.9533 170.212 32.06V32.092C170.212 32.1347 170.254 32.1987 170.34 32.284C170.425 32.348 170.478 32.4013 170.5 32.444C170.585 32.5293 170.628 32.6253 170.628 32.732C170.628 32.86 170.553 32.9773 170.404 33.084C170.276 33.1693 170.03 33.1907 169.668 33.148C169.433 33.148 169.273 33.084 169.188 32.956C169.124 32.828 169.049 32.6893 168.964 32.54V32.508C168.964 32.4653 168.953 32.4227 168.932 32.38C168.932 32.3373 168.932 32.2733 168.932 32.188C168.953 32.1453 168.921 32.124 168.836 32.124C168.772 32.1027 168.697 32.0173 168.612 31.868C168.612 31.868 168.601 31.7613 168.58 31.548C168.558 31.3347 168.548 31.1853 168.548 31.1C168.548 30.8867 168.622 30.6307 168.772 30.332C168.921 30.012 169.038 29.7347 169.124 29.5C169.23 29.2653 169.454 28.924 169.796 28.476C170.137 28.028 170.489 27.5693 170.852 27.1C171.236 26.6093 171.524 26.204 171.716 25.884C171.929 25.5213 172.036 25.2013 172.036 24.924C172.036 24.668 171.961 24.4867 171.812 24.38C171.662 24.252 171.492 24.188 171.3 24.188C171.193 24.188 171.033 24.1987 170.82 24.22C170.628 24.2413 170.436 24.2947 170.244 24.38C170.158 24.4013 170.009 24.4867 169.796 24.636C169.604 24.7853 169.412 24.924 169.22 25.052C169.028 25.18 168.9 25.244 168.836 25.244C168.686 25.3507 168.548 25.4573 168.42 25.564C168.292 25.6493 168.121 25.756 167.908 25.884L166.916 26.524C165.849 27.2067 164.836 27.996 163.876 28.892C162.937 29.788 162.126 30.7053 161.444 31.644C161.358 31.7507 161.294 31.9 161.252 32.092C161.209 32.284 161.156 32.444 161.092 32.572C161.006 32.7213 160.921 32.828 160.836 32.892C160.75 32.9347 160.686 32.9773 160.644 33.02C160.473 33.2333 160.302 33.372 160.132 33.436C159.982 33.4787 159.854 33.5 159.748 33.5ZM192.21 35.324C191.869 35.324 191.581 35.3027 191.346 35.26C191.112 35.2173 191.005 35.1213 191.026 34.972C190.984 34.972 190.92 34.9293 190.834 34.844L190.802 34.78C190.802 34.6093 190.856 34.4707 190.962 34.364L190.994 34.332C191.016 34.3107 191.048 34.3 191.09 34.3C191.24 34.3 191.41 34.3213 191.602 34.364C191.794 34.4067 191.933 34.4173 192.018 34.396C192.936 34.1187 193.768 33.7667 194.514 33.34C195.282 32.9133 195.933 32.4653 196.466 31.996C196.68 31.8253 196.872 31.644 197.042 31.452C197.234 31.26 197.405 31.0787 197.554 30.908C197.597 30.844 197.661 30.8013 197.746 30.78C197.853 30.7373 197.917 30.7053 197.938 30.684L197.97 30.652C197.97 30.6093 197.96 30.5773 197.938 30.556C197.938 30.5133 197.96 30.4493 198.002 30.364C198.429 29.7667 198.642 29.308 198.642 28.988C198.642 28.796 198.589 28.6787 198.482 28.636C198.248 28.4227 197.917 28.252 197.49 28.124C197.085 27.996 196.68 27.8893 196.274 27.804C195.869 27.6973 195.56 27.6013 195.346 27.516C194.962 27.3453 194.77 27.0573 194.77 26.652C194.77 26.2467 194.93 25.788 195.25 25.276C195.592 24.7427 196.061 24.2093 196.658 23.676C197.618 22.8653 198.632 22.2147 199.698 21.724C200.765 21.212 201.704 20.956 202.514 20.956C202.941 20.956 203.314 21.0413 203.634 21.212C203.954 21.3827 204.178 21.66 204.306 22.044C204.37 22.236 204.402 22.4173 204.402 22.588C204.402 22.8653 204.328 23.1107 204.178 23.324C204.05 23.516 203.89 23.612 203.698 23.612C203.656 23.612 203.57 23.6227 203.442 23.644C203.336 23.6653 203.24 23.6653 203.154 23.644C203.069 23.6013 202.984 23.5267 202.898 23.42C202.813 23.3133 202.749 23.26 202.706 23.26H202.674C202.589 23.2173 202.525 23.1747 202.482 23.132C202.461 23.0893 202.397 23.068 202.29 23.068H202.162L201.522 23.036C201.202 23.036 200.84 23.1 200.434 23.228C200.029 23.356 199.549 23.6013 198.994 23.964V23.932C198.802 24.0813 198.6 24.2733 198.386 24.508C198.173 24.7213 197.97 24.9453 197.778 25.18C197.65 25.308 197.501 25.436 197.33 25.564C197.181 25.692 197.085 25.8093 197.042 25.916C196.957 26.0867 196.914 26.236 196.914 26.364C196.914 26.492 196.968 26.5987 197.074 26.684C197.416 26.8333 197.885 27.004 198.482 27.196C199.08 27.3667 199.698 27.6653 200.338 28.092C200.466 28.1773 200.594 28.316 200.722 28.508C200.872 28.6787 200.946 28.9027 200.946 29.18C200.946 29.3933 200.904 29.596 200.818 29.788C200.754 29.8947 200.658 30.0227 200.53 30.172C200.402 30.3 200.317 30.4173 200.274 30.524L200.242 30.556C199.858 30.94 199.368 31.4413 198.77 32.06C198.173 32.6573 197.33 33.2867 196.242 33.948C195.41 34.46 194.632 34.812 193.906 35.004C193.181 35.2173 192.616 35.324 192.21 35.324ZM215.994 19.868C215.802 19.868 215.674 19.804 215.61 19.676C215.568 19.5267 215.536 19.388 215.514 19.26C215.493 19.1533 215.472 19.036 215.45 18.908C215.429 18.78 215.418 18.652 215.418 18.524C215.418 18.3533 215.44 18.204 215.482 18.076C215.546 17.9267 215.653 17.8093 215.802 17.724C216.293 17.468 216.709 17.2867 217.05 17.18C217.392 17.0733 217.669 17.02 217.882 17.02C218.202 17.02 218.416 17.116 218.522 17.308C218.629 17.5 218.682 17.7453 218.682 18.044C218.682 18.1293 218.682 18.2147 218.682 18.3C218.682 18.364 218.672 18.4493 218.65 18.556C218.586 18.8333 218.373 19.0253 218.01 19.132C217.669 19.2387 217.381 19.3453 217.146 19.452C216.997 19.5373 216.816 19.6333 216.602 19.74C216.41 19.8253 216.229 19.868 216.058 19.868H215.994ZM209.018 33.66C208.933 33.66 208.858 33.596 208.794 33.468C208.752 33.2973 208.698 33.148 208.634 33.02C208.57 32.892 208.538 32.7 208.538 32.444C208.538 32.1453 208.602 31.708 208.73 31.132C208.858 30.556 209.104 29.692 209.466 28.54C209.744 27.6653 210 26.9613 210.234 26.428C210.469 25.8947 210.714 25.3827 210.97 24.892V24.86C211.034 24.7747 211.13 24.7 211.258 24.636C211.386 24.572 211.472 24.508 211.514 24.444H211.482C211.525 24.4013 211.536 24.3373 211.514 24.252C211.493 24.1453 211.482 24.0493 211.482 23.964C211.482 23.7293 211.557 23.5373 211.706 23.388C211.877 23.2173 212.048 23.0573 212.218 22.908C212.389 22.7373 212.656 22.5453 213.018 22.332C213.381 22.1187 213.808 21.9693 214.298 21.884C214.362 21.8627 214.426 21.852 214.49 21.852C214.554 21.852 214.618 21.852 214.682 21.852C215.045 21.852 215.322 21.9267 215.514 22.076C215.706 22.2253 215.845 22.3853 215.93 22.556C215.973 22.5987 216.016 22.652 216.058 22.716C216.101 22.78 216.122 22.8547 216.122 22.94C216.122 23.0253 216.08 23.1427 215.994 23.292C215.93 23.42 215.781 23.5907 215.546 23.804C215.44 23.932 215.28 24.0707 215.066 24.22C214.874 24.348 214.693 24.4973 214.522 24.668C214.309 24.8813 214.106 25.116 213.914 25.372C213.722 25.628 213.541 25.8733 213.37 26.108C213.221 26.3213 213.061 26.524 212.89 26.716C212.72 26.8867 212.549 27.068 212.378 27.26C212.293 27.3453 212.229 27.5053 212.186 27.74C212.144 27.9533 212.048 28.1347 211.898 28.284C211.749 28.476 211.578 28.6253 211.386 28.732C211.216 28.8387 211.077 28.988 210.97 29.18V29.148C210.864 29.34 210.746 29.564 210.618 29.82C210.49 30.076 210.362 30.3213 210.234 30.556C210.021 30.9827 209.882 31.3027 209.818 31.516C209.754 31.708 209.722 31.8573 209.722 31.964C209.722 32.092 209.744 32.1773 209.786 32.22C209.85 32.2627 209.861 32.3693 209.818 32.54C209.733 32.732 209.616 32.9667 209.466 33.244C209.338 33.5213 209.189 33.66 209.018 33.66ZM220.161 33.756C219.927 33.756 219.767 33.7133 219.681 33.628C219.617 33.564 219.564 33.5107 219.521 33.468C219.5 33.4253 219.457 33.3827 219.393 33.34C219.308 33.276 219.201 33.2013 219.073 33.116C218.945 33.0093 218.881 32.7853 218.881 32.444C218.881 32.1453 218.945 31.7187 219.073 31.164C219.223 30.588 219.5 29.82 219.905 28.86H219.937C220.236 28.412 220.481 27.9533 220.673 27.484C220.887 26.9933 221.1 26.556 221.313 26.172V26.236C221.313 26.1933 221.431 25.9907 221.665 25.628C221.9 25.244 222.177 24.7853 222.497 24.252C222.839 23.7187 223.18 23.1853 223.521 22.652C223.863 22.1187 224.151 21.66 224.385 21.276C224.641 20.892 224.78 20.6787 224.801 20.636V20.668C224.844 20.604 224.929 20.4653 225.057 20.252C225.207 20.0173 225.292 19.8893 225.313 19.868H225.281C225.495 19.5267 225.633 19.2707 225.697 19.1C225.783 18.908 225.868 18.7267 225.953 18.556C226.06 18.364 226.241 18.108 226.497 17.788L227.617 16.348C227.724 16.2413 227.852 16.06 228.001 15.804C228.172 15.5267 228.343 15.3453 228.513 15.26C228.812 15.1107 229.175 14.972 229.601 14.844C230.049 14.716 230.444 14.652 230.785 14.652C231.02 14.652 231.212 14.6947 231.361 14.78C231.532 14.844 231.628 14.9827 231.649 15.196C231.628 15.516 231.511 15.8893 231.297 16.316C231.084 16.7213 230.764 17.1267 230.337 17.532C230.124 17.7453 229.847 17.9693 229.505 18.204C229.164 18.4387 228.908 18.6733 228.737 18.908H228.769C228.535 19.2493 228.225 19.5693 227.841 19.868C227.479 20.1667 227.201 20.4333 227.009 20.668C226.86 20.8813 226.668 21.0627 226.433 21.212C226.199 21.34 226.017 21.4893 225.889 21.66C224.929 22.9613 224.183 24.0707 223.649 24.988C223.116 25.884 222.785 26.4493 222.657 26.684C222.572 26.8333 222.455 27.068 222.305 27.388C222.177 27.6867 222.049 27.996 221.921 28.316C221.793 28.6147 221.697 28.8387 221.633 28.988C221.527 29.3293 221.42 29.564 221.313 29.692C221.207 29.7987 221.121 29.9693 221.057 30.204C221.036 30.2893 220.993 30.46 220.929 30.716C220.887 30.972 220.855 31.2067 220.833 31.42C220.812 31.612 220.812 31.6867 220.833 31.644L221.441 31.26L222.657 30.652L222.689 30.62C222.924 30.5133 223.095 30.46 223.201 30.46C223.308 30.46 223.447 30.4387 223.617 30.396C223.788 30.3533 224.055 30.2147 224.417 29.98C224.439 29.98 224.545 29.9267 224.737 29.82C224.929 29.7133 225.121 29.6067 225.313 29.5C225.527 29.372 225.644 29.308 225.665 29.308C225.9 29.18 226.028 29.116 226.049 29.116C226.092 29.116 226.156 29.0947 226.241 29.052C226.327 28.988 226.551 28.8387 226.913 28.604C227.297 28.348 227.596 28.22 227.809 28.22C227.959 28.22 228.033 28.2733 228.033 28.38C228.033 28.4653 227.959 28.5933 227.809 28.764C227.681 28.9347 227.447 29.1373 227.105 29.372C226.508 29.7773 225.9 30.1613 225.281 30.524C224.684 30.8653 224.076 31.2173 223.457 31.58C223.116 31.772 222.881 31.9 222.753 31.964C222.625 32.0067 222.54 32.028 222.497 32.028C222.476 32.028 222.433 32.0493 222.369 32.092C222.305 32.1347 222.167 32.2627 221.953 32.476L221.921 32.508C221.879 32.508 221.772 32.5827 221.601 32.732C221.431 32.8813 221.324 32.9773 221.281 33.02C221.196 33.1053 221.111 33.212 221.025 33.34C220.961 33.468 220.865 33.564 220.737 33.628C220.588 33.7133 220.396 33.756 220.161 33.756ZM236.448 34.332C236.384 34.332 236.245 34.2893 236.032 34.204C235.818 34.14 235.594 34.076 235.36 34.012C235.125 33.948 234.954 33.916 234.848 33.916H234.816C234.41 33.916 234.101 33.756 233.888 33.436C233.696 33.0947 233.568 32.7853 233.504 32.508C233.482 32.4013 233.461 32.2947 233.44 32.188C233.44 32.06 233.44 31.932 233.44 31.804C233.44 31.1 233.61 30.3 233.952 29.404C234.293 28.508 234.752 27.58 235.328 26.62C235.925 25.66 236.597 24.764 237.344 23.932C238.112 23.0573 238.89 22.3747 239.68 21.884C240.469 21.3933 241.184 21.116 241.824 21.052C242.165 21.052 242.517 21.148 242.88 21.34C243.242 21.532 243.498 21.628 243.648 21.628H243.68C244.128 21.628 244.426 21.8093 244.576 22.172C244.725 22.5347 244.8 22.8973 244.8 23.26C244.8 23.4733 244.757 23.6973 244.672 23.932C244.586 24.1667 244.512 24.3587 244.448 24.508C244.405 24.6573 244.405 24.7107 244.448 24.668L244.48 24.636C244.245 25.0627 243.978 25.5 243.68 25.948C243.402 26.3747 242.944 26.94 242.304 27.644C242.048 27.9213 241.696 28.1987 241.248 28.476C240.821 28.732 240.405 28.9667 240 29.18C239.594 29.3933 239.306 29.5427 239.136 29.628C238.965 29.7133 238.741 29.756 238.464 29.756C238.186 29.756 237.877 29.724 237.536 29.66C237.216 29.596 236.938 29.564 236.704 29.564C236.576 29.564 236.458 29.5747 236.352 29.596C236.245 29.6173 236.17 29.6813 236.128 29.788C235.786 30.3427 235.616 30.8973 235.616 31.452C235.616 31.7933 235.69 32.0813 235.84 32.316C236.01 32.5293 236.288 32.636 236.672 32.636C236.8 32.636 236.938 32.6253 237.088 32.604C237.237 32.5827 237.386 32.54 237.536 32.476C237.898 32.412 238.154 32.38 238.304 32.38C238.453 32.38 238.613 32.3587 238.784 32.316C238.976 32.2733 239.285 32.1667 239.712 31.996C240.181 31.804 240.533 31.6653 240.768 31.58C241.024 31.4947 241.216 31.42 241.344 31.356C241.493 31.292 241.642 31.2173 241.792 31.132C241.941 31.0467 242.176 30.9187 242.496 30.748C242.73 30.62 242.858 30.556 242.88 30.556C242.922 30.556 242.986 30.5347 243.072 30.492C243.157 30.428 243.381 30.2787 243.744 30.044C244.128 29.788 244.426 29.66 244.64 29.66C244.789 29.66 244.864 29.7133 244.864 29.82C244.864 29.9053 244.789 30.0333 244.64 30.204C244.512 30.3747 244.277 30.5773 243.936 30.812C243.573 31.068 243.157 31.3667 242.688 31.708C242.24 32.0493 241.824 32.316 241.44 32.508C241.312 32.5293 241.194 32.5827 241.088 32.668C241.002 32.732 240.874 32.7853 240.704 32.828L238.912 33.596L238.944 33.564C239.008 33.5 238.933 33.5 238.72 33.564C238.528 33.628 238.272 33.724 237.952 33.852C237.653 33.98 237.354 34.0867 237.056 34.172C236.778 34.2787 236.576 34.332 236.448 34.332ZM237.696 28.828C237.781 28.828 237.866 28.828 237.952 28.828C238.037 28.8067 238.122 28.7853 238.208 28.764C238.357 28.636 238.496 28.54 238.624 28.476C238.752 28.412 238.922 28.3053 239.136 28.156C239.349 28.0067 239.648 27.74 240.032 27.356C240.352 27.036 240.629 26.812 240.864 26.684C241.098 26.5347 241.29 26.3747 241.44 26.204C241.888 25.5853 242.122 25.116 242.144 24.796C242.186 24.476 242.208 24.1773 242.208 23.9C241.952 23.5587 241.717 23.388 241.504 23.388C241.376 23.388 241.184 23.4413 240.928 23.548C240.565 23.6973 240.266 23.836 240.032 23.964C239.818 24.092 239.498 24.3693 239.072 24.796C238.581 25.308 238.133 25.8093 237.728 26.3C237.322 26.7693 237.002 27.2493 236.768 27.74C236.746 27.8253 236.714 27.9107 236.672 27.996C236.65 28.06 236.64 28.1133 236.64 28.156C236.64 28.3907 236.746 28.5613 236.96 28.668C237.173 28.7747 237.418 28.828 237.696 28.828ZM251.311 33.5C251.119 33.436 251.023 33.212 251.023 32.828C251.023 32.5933 251.055 32.3267 251.119 32.028C251.205 31.7293 251.322 31.3773 251.471 30.972V31.068C251.514 31.068 251.557 30.9933 251.599 30.844C251.642 30.6947 251.653 30.6093 251.631 30.588C251.653 30.46 251.738 30.3213 251.887 30.172C252.058 30.0013 252.133 29.9053 252.111 29.884V29.852C252.154 29.7667 252.154 29.7133 252.111 29.692C252.069 29.6707 252.079 29.5853 252.143 29.436C252.378 28.9453 252.591 28.4973 252.783 28.092C252.975 27.6653 253.167 27.2813 253.359 26.94C253.359 26.94 253.381 26.8653 253.423 26.716C253.466 26.5667 253.519 26.428 253.583 26.3V26.364C253.605 26.2787 253.658 26.204 253.743 26.14C253.829 26.0547 253.882 26.0013 253.903 25.98C254.01 25.788 254.063 25.6493 254.063 25.564C254.063 25.5213 254.053 25.5 254.031 25.5C254.01 25.5 253.999 25.4893 253.999 25.468C253.999 25.4467 254.021 25.404 254.063 25.34C254.106 25.2547 254.191 25.1267 254.319 24.956H254.287C254.373 24.8493 254.501 24.6573 254.671 24.38C254.863 24.1027 255.045 23.8253 255.215 23.548C255.407 23.2707 255.525 23.0893 255.567 23.004C255.738 22.6413 256.005 22.3747 256.367 22.204C256.751 22.012 257.125 21.916 257.487 21.916C257.829 21.916 258.117 22.0013 258.351 22.172C258.607 22.3213 258.735 22.5773 258.735 22.94C258.735 23.2813 258.65 23.516 258.479 23.644C258.33 23.772 258.117 23.9107 257.839 24.06C257.583 24.188 257.295 24.4227 256.975 24.764C256.357 25.4253 255.941 25.9693 255.727 26.396C255.514 26.8013 255.386 27.228 255.343 27.676C255.429 27.5693 255.525 27.4733 255.631 27.388C256.079 26.94 256.581 26.5347 257.135 26.172C257.711 25.788 258.437 25.3293 259.311 24.796H259.375C259.397 24.796 259.535 24.7 259.791 24.508C260.069 24.316 260.346 24.124 260.623 23.932C260.922 23.7187 261.103 23.612 261.167 23.612C261.167 23.612 261.295 23.548 261.551 23.42C261.807 23.292 262.074 23.1853 262.351 23.1C263.29 22.78 264.101 22.62 264.783 22.62C265.274 22.62 265.637 22.7053 265.871 22.876C266.063 23.004 266.159 23.26 266.159 23.644C266.159 23.9213 266.095 24.2413 265.967 24.604V24.54C265.946 24.54 265.903 24.6253 265.839 24.796C265.775 24.9453 265.711 25.0733 265.647 25.18C265.605 25.244 265.53 25.3613 265.423 25.532C265.317 25.7027 265.253 25.8093 265.231 25.852V25.82C265.103 26.0547 264.986 26.236 264.879 26.364C264.773 26.4707 264.645 26.62 264.495 26.812C264.282 27.068 263.994 27.4627 263.631 27.996C263.269 28.508 262.917 29.0627 262.575 29.66C262.255 30.236 262.042 30.7587 261.935 31.228C261.914 31.356 261.871 31.5053 261.807 31.676C261.765 31.8253 261.754 31.9533 261.775 32.06V32.092C261.775 32.1347 261.818 32.1987 261.903 32.284C261.989 32.348 262.042 32.4013 262.063 32.444C262.149 32.5293 262.191 32.6253 262.191 32.732C262.191 32.86 262.117 32.9773 261.967 33.084C261.839 33.1693 261.594 33.1907 261.231 33.148C260.997 33.148 260.837 33.084 260.751 32.956C260.687 32.828 260.613 32.6893 260.527 32.54V32.508C260.527 32.4653 260.517 32.4227 260.495 32.38C260.495 32.3373 260.495 32.2733 260.495 32.188C260.517 32.1453 260.485 32.124 260.399 32.124C260.335 32.1027 260.261 32.0173 260.175 31.868C260.175 31.868 260.165 31.7613 260.143 31.548C260.122 31.3347 260.111 31.1853 260.111 31.1C260.111 30.8867 260.186 30.6307 260.335 30.332C260.485 30.012 260.602 29.7347 260.687 29.5C260.794 29.2653 261.018 28.924 261.359 28.476C261.701 28.028 262.053 27.5693 262.415 27.1C262.799 26.6093 263.087 26.204 263.279 25.884C263.493 25.5213 263.599 25.2013 263.599 24.924C263.599 24.668 263.525 24.4867 263.375 24.38C263.226 24.252 263.055 24.188 262.863 24.188C262.757 24.188 262.597 24.1987 262.383 24.22C262.191 24.2413 261.999 24.2947 261.807 24.38C261.722 24.4013 261.573 24.4867 261.359 24.636C261.167 24.7853 260.975 24.924 260.783 25.052C260.591 25.18 260.463 25.244 260.399 25.244C260.25 25.3507 260.111 25.4573 259.983 25.564C259.855 25.6493 259.685 25.756 259.471 25.884L258.479 26.524C257.413 27.2067 256.399 27.996 255.439 28.892C254.501 29.788 253.69 30.7053 253.007 31.644C252.922 31.7507 252.858 31.9 252.815 32.092C252.773 32.284 252.719 32.444 252.655 32.572C252.57 32.7213 252.485 32.828 252.399 32.892C252.314 32.9347 252.25 32.9773 252.207 33.02C252.037 33.2333 251.866 33.372 251.695 33.436C251.546 33.4787 251.418 33.5 251.311 33.5ZM273.892 33.98C273.828 33.98 273.69 33.9267 273.476 33.82C273.284 33.7347 273.082 33.6387 272.868 33.532C272.676 33.4467 272.527 33.404 272.42 33.404H272.388C272.111 33.404 271.908 33.3187 271.78 33.148C271.674 32.956 271.599 32.732 271.556 32.476C271.514 32.22 271.471 32.0067 271.428 31.836C271.364 31.58 271.332 31.3133 271.332 31.036C271.332 30.076 271.652 28.9667 272.292 27.708C272.954 26.428 273.828 25.1693 274.916 23.932C275.684 23.0573 276.463 22.3747 277.252 21.884C278.042 21.3933 278.756 21.116 279.396 21.052C279.738 21.0093 280.09 21.0947 280.452 21.308C280.815 21.5213 281.071 21.628 281.22 21.628H281.252C281.85 21.628 282.255 21.8307 282.468 22.236C282.682 22.62 282.788 22.9933 282.788 23.356C282.788 23.676 282.714 23.9853 282.564 24.284C282.415 24.4973 282.18 24.604 281.86 24.604C281.455 24.604 281.188 24.4867 281.06 24.252C280.911 23.9107 280.634 23.644 280.228 23.452C279.823 23.26 279.439 23.164 279.076 23.164C278.714 23.164 278.319 23.324 277.892 23.644C277.487 23.964 277.071 24.348 276.644 24.796C275.343 26.14 274.436 27.3987 273.924 28.572C273.434 29.724 273.188 30.6307 273.188 31.292C273.188 31.3773 273.188 31.4627 273.188 31.548C273.21 31.612 273.22 31.676 273.22 31.74V31.772C273.22 31.9213 273.359 32.0813 273.636 32.252C273.914 32.4013 274.223 32.4547 274.564 32.412C275.14 32.348 275.62 32.252 276.004 32.124C276.388 31.996 276.879 31.7613 277.476 31.42C277.498 31.42 277.604 31.3667 277.796 31.26C277.988 31.1533 278.18 31.0467 278.372 30.94C278.586 30.812 278.703 30.748 278.724 30.748C278.959 30.62 279.087 30.556 279.108 30.556C279.151 30.556 279.215 30.5347 279.3 30.492C279.386 30.428 279.61 30.2787 279.972 30.044C280.356 29.788 280.655 29.66 280.868 29.66C281.018 29.66 281.092 29.7133 281.092 29.82C281.092 29.9053 281.018 30.0333 280.868 30.204C280.74 30.3747 280.506 30.5773 280.164 30.812C279.738 31.0893 279.386 31.3027 279.108 31.452C278.852 31.6013 278.618 31.7507 278.404 31.9C278.191 32.028 277.956 32.22 277.7 32.476L277.668 32.508C277.626 32.508 277.508 32.5507 277.316 32.636C277.146 32.7213 276.975 32.8067 276.804 32.892C276.634 32.956 276.538 32.9987 276.516 33.02C276.431 33.084 276.207 33.2013 275.844 33.372C275.503 33.5213 275.14 33.66 274.756 33.788C274.372 33.916 274.084 33.98 273.892 33.98ZM290.37 34.332C290.306 34.332 290.168 34.2893 289.954 34.204C289.741 34.14 289.517 34.076 289.282 34.012C289.048 33.948 288.877 33.916 288.77 33.916H288.738C288.333 33.916 288.024 33.756 287.81 33.436C287.618 33.0947 287.49 32.7853 287.426 32.508C287.405 32.4013 287.384 32.2947 287.362 32.188C287.362 32.06 287.362 31.932 287.362 31.804C287.362 31.1 287.533 30.3 287.874 29.404C288.216 28.508 288.674 27.58 289.25 26.62C289.848 25.66 290.52 24.764 291.266 23.932C292.034 23.0573 292.813 22.3747 293.602 21.884C294.392 21.3933 295.106 21.116 295.746 21.052C296.088 21.052 296.44 21.148 296.802 21.34C297.165 21.532 297.421 21.628 297.57 21.628H297.602C298.05 21.628 298.349 21.8093 298.498 22.172C298.648 22.5347 298.722 22.8973 298.722 23.26C298.722 23.4733 298.68 23.6973 298.594 23.932C298.509 24.1667 298.434 24.3587 298.37 24.508C298.328 24.6573 298.328 24.7107 298.37 24.668L298.402 24.636C298.168 25.0627 297.901 25.5 297.602 25.948C297.325 26.3747 296.866 26.94 296.226 27.644C295.97 27.9213 295.618 28.1987 295.17 28.476C294.744 28.732 294.328 28.9667 293.922 29.18C293.517 29.3933 293.229 29.5427 293.058 29.628C292.888 29.7133 292.664 29.756 292.386 29.756C292.109 29.756 291.8 29.724 291.458 29.66C291.138 29.596 290.861 29.564 290.626 29.564C290.498 29.564 290.381 29.5747 290.274 29.596C290.168 29.6173 290.093 29.6813 290.05 29.788C289.709 30.3427 289.538 30.8973 289.538 31.452C289.538 31.7933 289.613 32.0813 289.762 32.316C289.933 32.5293 290.21 32.636 290.594 32.636C290.722 32.636 290.861 32.6253 291.01 32.604C291.16 32.5827 291.309 32.54 291.458 32.476C291.821 32.412 292.077 32.38 292.226 32.38C292.376 32.38 292.536 32.3587 292.706 32.316C292.898 32.2733 293.208 32.1667 293.634 31.996C294.104 31.804 294.456 31.6653 294.69 31.58C294.946 31.4947 295.138 31.42 295.266 31.356C295.416 31.292 295.565 31.2173 295.714 31.132C295.864 31.0467 296.098 30.9187 296.418 30.748C296.653 30.62 296.781 30.556 296.802 30.556C296.845 30.556 296.909 30.5347 296.994 30.492C297.08 30.428 297.304 30.2787 297.666 30.044C298.05 29.788 298.349 29.66 298.562 29.66C298.712 29.66 298.786 29.7133 298.786 29.82C298.786 29.9053 298.712 30.0333 298.562 30.204C298.434 30.3747 298.2 30.5773 297.858 30.812C297.496 31.068 297.08 31.3667 296.61 31.708C296.162 32.0493 295.746 32.316 295.362 32.508C295.234 32.5293 295.117 32.5827 295.01 32.668C294.925 32.732 294.797 32.7853 294.626 32.828L292.834 33.596L292.866 33.564C292.93 33.5 292.856 33.5 292.642 33.564C292.45 33.628 292.194 33.724 291.874 33.852C291.576 33.98 291.277 34.0867 290.978 34.172C290.701 34.2787 290.498 34.332 290.37 34.332ZM291.618 28.828C291.704 28.828 291.789 28.828 291.874 28.828C291.96 28.8067 292.045 28.7853 292.13 28.764C292.28 28.636 292.418 28.54 292.546 28.476C292.674 28.412 292.845 28.3053 293.058 28.156C293.272 28.0067 293.57 27.74 293.954 27.356C294.274 27.036 294.552 26.812 294.786 26.684C295.021 26.5347 295.213 26.3747 295.362 26.204C295.81 25.5853 296.045 25.116 296.066 24.796C296.109 24.476 296.13 24.1773 296.13 23.9C295.874 23.5587 295.64 23.388 295.426 23.388C295.298 23.388 295.106 23.4413 294.85 23.548C294.488 23.6973 294.189 23.836 293.954 23.964C293.741 24.092 293.421 24.3693 292.994 24.796C292.504 25.308 292.056 25.8093 291.65 26.3C291.245 26.7693 290.925 27.2493 290.69 27.74C290.669 27.8253 290.637 27.9107 290.594 27.996C290.573 28.06 290.562 28.1133 290.562 28.156C290.562 28.3907 290.669 28.5613 290.882 28.668C291.096 28.7747 291.341 28.828 291.618 28.828Z" fill="url(#paint0_linear_53_3687)"/>
<defs>
<linearGradient id="paint0_linear_53_3687" x1="150" y1="0.5" x2="150" y2="48.5" gradientUnits="userSpaceOnUse">
<stop stop-color="#E7275A"/>
<stop offset="1" stop-color="#F8B01E"/>
</linearGradient>
</defs>
</svg>
