<svg width="333" height="49" viewBox="0 0 333 49" fill="none" xmlns="http://www.w3.org/2000/svg">
<path d="M6.912 35.836C6.50667 35.836 6.15467 35.804 5.856 35.74C5.36533 35.612 5.12 35.356 5.12 34.972C5.12 34.6733 5.26933 34.364 5.568 34.044C5.86667 33.724 6.28267 33.4893 6.816 33.34C6.98667 33.34 7.04 33.4147 6.976 33.564C6.912 33.7133 6.816 33.8733 6.688 34.044C6.58133 34.236 6.528 34.396 6.528 34.524C6.528 34.6733 6.63467 34.748 6.848 34.748C6.912 34.748 6.976 34.7373 7.04 34.716C7.12533 34.716 7.21067 34.7053 7.296 34.684C7.57333 34.62 7.94667 34.556 8.416 34.492C8.90667 34.4493 9.38667 34.396 9.856 34.332C10.3253 34.2893 10.6987 34.236 10.976 34.172C11.4667 34.044 11.936 33.852 12.384 33.596C12.8533 33.3613 13.2693 33.1693 13.632 33.02C13.696 32.9987 13.7813 32.988 13.888 32.988C13.9947 32.988 14.08 32.9987 14.144 33.02C14.2293 33.02 14.3147 32.988 14.4 32.924C14.6133 32.8173 14.8053 32.7 14.976 32.572C15.168 32.444 15.3387 32.3053 15.488 32.156C15.744 31.9213 15.9573 31.676 16.128 31.42C16.2987 31.164 16.384 30.8973 16.384 30.62C16.384 30.3213 16.288 30.0333 16.096 29.756C15.8827 29.3507 15.3813 28.9667 14.592 28.604C13.8027 28.22 12.9067 27.8573 11.904 27.516C11.712 27.452 11.5413 27.356 11.392 27.228C11.264 27.0787 11.1147 26.9827 10.944 26.94C10.88 26.9187 10.816 26.908 10.752 26.908C10.7093 26.8867 10.656 26.876 10.592 26.876C10.4427 26.876 10.2933 26.8867 10.144 26.908C9.99467 26.9293 9.83467 26.94 9.664 26.94C9.36533 26.94 9.07733 26.8333 8.8 26.62C8.52267 26.4067 8.26667 26.268 8.032 26.204C6.368 25.6067 5.536 24.7533 5.536 23.644C5.536 23.004 5.77067 22.3107 6.24 21.564V21.596C6.32533 21.4893 6.44267 21.436 6.592 21.436C6.76267 21.436 6.86933 21.3933 6.912 21.308C7.01867 21.1373 7.08267 20.9347 7.104 20.7C7.14667 20.444 7.2 20.2627 7.264 20.156C7.56267 19.772 7.88267 19.388 8.224 19.004C9.01333 18.1507 9.888 17.3293 10.848 16.54C11.808 15.7507 12.768 15.068 13.728 14.492C14.688 13.8947 15.5627 13.468 16.352 13.212C17.2053 12.9133 18.24 12.6147 19.456 12.316C20.672 11.996 21.8347 11.836 22.944 11.836C23.9253 11.836 24.7787 12.0173 25.504 12.38C26.2507 12.7427 26.6987 13.4147 26.848 14.396C26.8907 14.5453 26.912 14.684 26.912 14.812C26.912 14.94 26.912 15.068 26.912 15.196C26.912 16.0707 26.6987 16.86 26.272 17.564C25.8667 18.2467 25.408 18.844 24.896 19.356C24.4053 19.8467 24.0213 20.2733 23.744 20.636C23.6373 20.7853 23.5307 20.9027 23.424 20.988C23.3173 21.052 23.168 21.1693 22.976 21.34C22.8907 21.4253 22.752 21.5427 22.56 21.692C22.368 21.82 22.208 21.9373 22.08 22.044C21.952 22.1507 21.728 22.332 21.408 22.588C21.088 22.844 20.864 22.9933 20.736 23.036C20.672 23.0573 20.576 23.068 20.448 23.068C20.2347 23.068 20.0427 23.004 19.872 22.876C19.7227 22.7267 19.648 22.5453 19.648 22.332C19.648 22.1827 19.6907 22.012 19.776 21.82C19.8827 21.6067 20.0533 21.3933 20.288 21.18L20.352 21.148C20.3307 21.148 20.48 21.116 20.8 21.052C21.1413 20.9667 21.4613 20.8067 21.76 20.572C21.8667 20.4653 22.016 20.3053 22.208 20.092C22.4 19.8573 22.6133 19.6013 22.848 19.324C22.8907 19.2813 22.9547 19.164 23.04 18.972C23.1253 18.78 23.2107 18.6413 23.296 18.556C23.552 18.2147 23.7547 17.82 23.904 17.372C24.0747 16.9027 24.288 16.4547 24.544 16.028V16.06C24.6293 15.8893 24.672 15.708 24.672 15.516C24.672 15.1747 24.5973 14.7907 24.448 14.364C24.32 13.9373 24.1387 13.5747 23.904 13.276C23.6693 12.956 23.4027 12.8173 23.104 12.86C22.208 12.9667 21.248 13.0947 20.224 13.244C19.2 13.372 18.3253 13.564 17.6 13.82C17.0027 14.0333 16.384 14.3107 15.744 14.652C15.1253 14.9933 14.5067 15.3773 13.888 15.804C13.7387 15.9107 13.5893 15.9747 13.44 15.996C13.312 16.0173 13.184 16.0813 13.056 16.188C12.9067 16.316 12.7573 16.4867 12.608 16.7C12.4587 16.892 12.2987 17.0413 12.128 17.148C11.0187 18.108 10.1013 19.1 9.376 20.124C8.672 21.148 8.32 22.076 8.32 22.908C8.32 23.4413 8.49067 23.9107 8.832 24.316C9.17333 24.7 9.71733 24.9987 10.464 25.212C11.2107 25.404 12.0107 25.66 12.864 25.98C13.7387 26.3 14.5813 26.652 15.392 27.036C16.2027 27.3987 16.896 27.7827 17.472 28.188C18.0693 28.572 18.4427 28.9453 18.592 29.308C18.72 29.5853 18.784 29.8627 18.784 30.14C18.784 30.78 18.496 31.388 17.92 31.964C17.344 32.54 16.5973 33.0627 15.68 33.532C14.7627 34.0013 13.7707 34.4067 12.704 34.748C11.6373 35.0893 10.592 35.356 9.568 35.548C8.544 35.74 7.65867 35.836 6.912 35.836ZM30.419 34.332C30.355 34.332 30.2163 34.2893 30.003 34.204C29.7897 34.14 29.5657 34.076 29.331 34.012C29.0963 33.948 28.9257 33.916 28.819 33.916H28.787C28.3817 33.916 28.0723 33.756 27.859 33.436C27.667 33.0947 27.539 32.7853 27.475 32.508C27.4537 32.4013 27.4323 32.2947 27.411 32.188C27.411 32.06 27.411 31.932 27.411 31.804C27.411 31.1 27.5817 30.3 27.923 29.404C28.2643 28.508 28.723 27.58 29.299 26.62C29.8963 25.66 30.5683 24.764 31.315 23.932C32.083 23.0573 32.8617 22.3747 33.651 21.884C34.4403 21.3933 35.155 21.116 35.795 21.052C36.1363 21.052 36.4883 21.148 36.851 21.34C37.2137 21.532 37.4697 21.628 37.619 21.628H37.651C38.099 21.628 38.3977 21.8093 38.547 22.172C38.6963 22.5347 38.771 22.8973 38.771 23.26C38.771 23.4733 38.7283 23.6973 38.643 23.932C38.5577 24.1667 38.483 24.3587 38.419 24.508C38.3763 24.6573 38.3763 24.7107 38.419 24.668L38.451 24.636C38.2163 25.0627 37.9497 25.5 37.651 25.948C37.3737 26.3747 36.915 26.94 36.275 27.644C36.019 27.9213 35.667 28.1987 35.219 28.476C34.7923 28.732 34.3763 28.9667 33.971 29.18C33.5657 29.3933 33.2777 29.5427 33.107 29.628C32.9363 29.7133 32.7123 29.756 32.435 29.756C32.1577 29.756 31.8483 29.724 31.507 29.66C31.187 29.596 30.9097 29.564 30.675 29.564C30.547 29.564 30.4297 29.5747 30.323 29.596C30.2163 29.6173 30.1417 29.6813 30.099 29.788C29.7577 30.3427 29.587 30.8973 29.587 31.452C29.587 31.7933 29.6617 32.0813 29.811 32.316C29.9817 32.5293 30.259 32.636 30.643 32.636C30.771 32.636 30.9097 32.6253 31.059 32.604C31.2083 32.5827 31.3577 32.54 31.507 32.476C31.8697 32.412 32.1257 32.38 32.275 32.38C32.4243 32.38 32.5843 32.3587 32.755 32.316C32.947 32.2733 33.2563 32.1667 33.683 31.996C34.1523 31.804 34.5043 31.6653 34.739 31.58C34.995 31.4947 35.187 31.42 35.315 31.356C35.4643 31.292 35.6137 31.2173 35.763 31.132C35.9123 31.0467 36.147 30.9187 36.467 30.748C36.7017 30.62 36.8297 30.556 36.851 30.556C36.8937 30.556 36.9577 30.5347 37.043 30.492C37.1283 30.428 37.3523 30.2787 37.715 30.044C38.099 29.788 38.3977 29.66 38.611 29.66C38.7603 29.66 38.835 29.7133 38.835 29.82C38.835 29.9053 38.7603 30.0333 38.611 30.204C38.483 30.3747 38.2483 30.5773 37.907 30.812C37.5443 31.068 37.1283 31.3667 36.659 31.708C36.211 32.0493 35.795 32.316 35.411 32.508C35.283 32.5293 35.1657 32.5827 35.059 32.668C34.9737 32.732 34.8457 32.7853 34.675 32.828L32.883 33.596L32.915 33.564C32.979 33.5 32.9043 33.5 32.691 33.564C32.499 33.628 32.243 33.724 31.923 33.852C31.6243 33.98 31.3257 34.0867 31.027 34.172C30.7497 34.2787 30.547 34.332 30.419 34.332ZM31.667 28.828C31.7523 28.828 31.8377 28.828 31.923 28.828C32.0083 28.8067 32.0937 28.7853 32.179 28.764C32.3283 28.636 32.467 28.54 32.595 28.476C32.723 28.412 32.8937 28.3053 33.107 28.156C33.3203 28.0067 33.619 27.74 34.003 27.356C34.323 27.036 34.6003 26.812 34.835 26.684C35.0697 26.5347 35.2617 26.3747 35.411 26.204C35.859 25.5853 36.0937 25.116 36.115 24.796C36.1577 24.476 36.179 24.1773 36.179 23.9C35.923 23.5587 35.6883 23.388 35.475 23.388C35.347 23.388 35.155 23.4413 34.899 23.548C34.5363 23.6973 34.2377 23.836 34.003 23.964C33.7897 24.092 33.4697 24.3693 33.043 24.796C32.5523 25.308 32.1043 25.8093 31.699 26.3C31.2937 26.7693 30.9737 27.2493 30.739 27.74C30.7177 27.8253 30.6857 27.9107 30.643 27.996C30.6217 28.06 30.611 28.1133 30.611 28.156C30.611 28.3907 30.7177 28.5613 30.931 28.668C31.1443 28.7747 31.3897 28.828 31.667 28.828ZM48.2265 34.332C48.1625 34.332 48.0238 34.2893 47.8105 34.204C47.5972 34.14 47.3732 34.076 47.1385 34.012C46.9038 33.948 46.7332 33.916 46.6265 33.916H46.5945C46.1892 33.916 45.8798 33.756 45.6665 33.436C45.4745 33.0947 45.3465 32.7853 45.2825 32.508C45.2612 32.4013 45.2398 32.2947 45.2185 32.188C45.2185 32.06 45.2185 31.932 45.2185 31.804C45.2185 31.1 45.3892 30.3 45.7305 29.404C46.0718 28.508 46.5305 27.58 47.1065 26.62C47.7038 25.66 48.3758 24.764 49.1225 23.932C49.8905 23.0573 50.6692 22.3747 51.4585 21.884C52.2478 21.3933 52.9625 21.116 53.6025 21.052C53.9438 21.052 54.2958 21.148 54.6585 21.34C55.0212 21.532 55.2772 21.628 55.4265 21.628H55.4585C55.9065 21.628 56.2052 21.8093 56.3545 22.172C56.5038 22.5347 56.5785 22.8973 56.5785 23.26C56.5785 23.4733 56.5358 23.6973 56.4505 23.932C56.3652 24.1667 56.2905 24.3587 56.2265 24.508C56.1838 24.6573 56.1838 24.7107 56.2265 24.668L56.2585 24.636C56.0238 25.0627 55.7572 25.5 55.4585 25.948C55.1812 26.3747 54.7225 26.94 54.0825 27.644C53.8265 27.9213 53.4745 28.1987 53.0265 28.476C52.5998 28.732 52.1838 28.9667 51.7785 29.18C51.3732 29.3933 51.0852 29.5427 50.9145 29.628C50.7438 29.7133 50.5198 29.756 50.2425 29.756C49.9652 29.756 49.6558 29.724 49.3145 29.66C48.9945 29.596 48.7172 29.564 48.4825 29.564C48.3545 29.564 48.2372 29.5747 48.1305 29.596C48.0238 29.6173 47.9492 29.6813 47.9065 29.788C47.5652 30.3427 47.3945 30.8973 47.3945 31.452C47.3945 31.7933 47.4692 32.0813 47.6185 32.316C47.7892 32.5293 48.0665 32.636 48.4505 32.636C48.5785 32.636 48.7172 32.6253 48.8665 32.604C49.0158 32.5827 49.1652 32.54 49.3145 32.476C49.6772 32.412 49.9332 32.38 50.0825 32.38C50.2318 32.38 50.3918 32.3587 50.5625 32.316C50.7545 32.2733 51.0638 32.1667 51.4905 31.996C51.9598 31.804 52.3118 31.6653 52.5465 31.58C52.8025 31.4947 52.9945 31.42 53.1225 31.356C53.2718 31.292 53.4212 31.2173 53.5705 31.132C53.7198 31.0467 53.9545 30.9187 54.2745 30.748C54.5092 30.62 54.6372 30.556 54.6585 30.556C54.7012 30.556 54.7652 30.5347 54.8505 30.492C54.9358 30.428 55.1598 30.2787 55.5225 30.044C55.9065 29.788 56.2052 29.66 56.4185 29.66C56.5678 29.66 56.6425 29.7133 56.6425 29.82C56.6425 29.9053 56.5678 30.0333 56.4185 30.204C56.2905 30.3747 56.0558 30.5773 55.7145 30.812C55.3518 31.068 54.9358 31.3667 54.4665 31.708C54.0185 32.0493 53.6025 32.316 53.2185 32.508C53.0905 32.5293 52.9732 32.5827 52.8665 32.668C52.7812 32.732 52.6532 32.7853 52.4825 32.828L50.6905 33.596L50.7225 33.564C50.7865 33.5 50.7118 33.5 50.4985 33.564C50.3065 33.628 50.0505 33.724 49.7305 33.852C49.4318 33.98 49.1332 34.0867 48.8345 34.172C48.5572 34.2787 48.3545 34.332 48.2265 34.332ZM49.4745 28.828C49.5598 28.828 49.6452 28.828 49.7305 28.828C49.8158 28.8067 49.9012 28.7853 49.9865 28.764C50.1358 28.636 50.2745 28.54 50.4025 28.476C50.5305 28.412 50.7012 28.3053 50.9145 28.156C51.1278 28.0067 51.4265 27.74 51.8105 27.356C52.1305 27.036 52.4078 26.812 52.6425 26.684C52.8772 26.5347 53.0692 26.3747 53.2185 26.204C53.6665 25.5853 53.9012 25.116 53.9225 24.796C53.9652 24.476 53.9865 24.1773 53.9865 23.9C53.7305 23.5587 53.4958 23.388 53.2825 23.388C53.1545 23.388 52.9625 23.4413 52.7065 23.548C52.3438 23.6973 52.0452 23.836 51.8105 23.964C51.5972 24.092 51.2772 24.3693 50.8505 24.796C50.3598 25.308 49.9118 25.8093 49.5065 26.3C49.1012 26.7693 48.7812 27.2493 48.5465 27.74C48.5252 27.8253 48.4932 27.9107 48.4505 27.996C48.4292 28.06 48.4185 28.1133 48.4185 28.156C48.4185 28.3907 48.5252 28.5613 48.7385 28.668C48.9518 28.7747 49.1972 28.828 49.4745 28.828ZM70.258 19.868C70.066 19.868 69.938 19.804 69.874 19.676C69.8313 19.5267 69.7993 19.388 69.778 19.26C69.7567 19.1533 69.7353 19.036 69.714 18.908C69.6927 18.78 69.682 18.652 69.682 18.524C69.682 18.3533 69.7033 18.204 69.746 18.076C69.81 17.9267 69.9167 17.8093 70.066 17.724C70.5567 17.468 70.9727 17.2867 71.314 17.18C71.6553 17.0733 71.9327 17.02 72.146 17.02C72.466 17.02 72.6793 17.116 72.786 17.308C72.8927 17.5 72.946 17.7453 72.946 18.044C72.946 18.1293 72.946 18.2147 72.946 18.3C72.946 18.364 72.9353 18.4493 72.914 18.556C72.85 18.8333 72.6367 19.0253 72.274 19.132C71.9327 19.2387 71.6447 19.3453 71.41 19.452C71.2607 19.5373 71.0793 19.6333 70.866 19.74C70.674 19.8253 70.4927 19.868 70.322 19.868H70.258ZM63.282 33.66C63.1967 33.66 63.122 33.596 63.058 33.468C63.0153 33.2973 62.962 33.148 62.898 33.02C62.834 32.892 62.802 32.7 62.802 32.444C62.802 32.1453 62.866 31.708 62.994 31.132C63.122 30.556 63.3673 29.692 63.73 28.54C64.0073 27.6653 64.2633 26.9613 64.498 26.428C64.7327 25.8947 64.978 25.3827 65.234 24.892V24.86C65.298 24.7747 65.394 24.7 65.522 24.636C65.65 24.572 65.7353 24.508 65.778 24.444H65.746C65.7887 24.4013 65.7993 24.3373 65.778 24.252C65.7567 24.1453 65.746 24.0493 65.746 23.964C65.746 23.7293 65.8207 23.5373 65.97 23.388C66.1407 23.2173 66.3113 23.0573 66.482 22.908C66.6527 22.7373 66.9193 22.5453 67.282 22.332C67.6447 22.1187 68.0713 21.9693 68.562 21.884C68.626 21.8627 68.69 21.852 68.754 21.852C68.818 21.852 68.882 21.852 68.946 21.852C69.3087 21.852 69.586 21.9267 69.778 22.076C69.97 22.2253 70.1087 22.3853 70.194 22.556C70.2367 22.5987 70.2793 22.652 70.322 22.716C70.3647 22.78 70.386 22.8547 70.386 22.94C70.386 23.0253 70.3433 23.1427 70.258 23.292C70.194 23.42 70.0447 23.5907 69.81 23.804C69.7033 23.932 69.5433 24.0707 69.33 24.22C69.138 24.348 68.9567 24.4973 68.786 24.668C68.5727 24.8813 68.37 25.116 68.178 25.372C67.986 25.628 67.8047 25.8733 67.634 26.108C67.4847 26.3213 67.3247 26.524 67.154 26.716C66.9833 26.8867 66.8127 27.068 66.642 27.26C66.5567 27.3453 66.4927 27.5053 66.45 27.74C66.4073 27.9533 66.3113 28.1347 66.162 28.284C66.0127 28.476 65.842 28.6253 65.65 28.732C65.4793 28.8387 65.3407 28.988 65.234 29.18V29.148C65.1273 29.34 65.01 29.564 64.882 29.82C64.754 30.076 64.626 30.3213 64.498 30.556C64.2847 30.9827 64.146 31.3027 64.082 31.516C64.018 31.708 63.986 31.8573 63.986 31.964C63.986 32.092 64.0073 32.1773 64.05 32.22C64.114 32.2627 64.1247 32.3693 64.082 32.54C63.9967 32.732 63.8793 32.9667 63.73 33.244C63.602 33.5213 63.4527 33.66 63.282 33.66ZM74.5225 33.5C74.3305 33.436 74.2345 33.212 74.2345 32.828C74.2345 32.5933 74.2665 32.3267 74.3305 32.028C74.4158 31.7293 74.5332 31.3773 74.6825 30.972V31.068C74.7252 31.068 74.7678 30.9933 74.8105 30.844C74.8532 30.6947 74.8638 30.6093 74.8425 30.588C74.8638 30.46 74.9492 30.3213 75.0985 30.172C75.2692 30.0013 75.3438 29.9053 75.3225 29.884V29.852C75.3652 29.7667 75.3652 29.7133 75.3225 29.692C75.2798 29.6707 75.2905 29.5853 75.3545 29.436C75.5892 28.9453 75.8025 28.4973 75.9945 28.092C76.1865 27.6653 76.3785 27.2813 76.5705 26.94C76.5705 26.94 76.5918 26.8653 76.6345 26.716C76.6772 26.5667 76.7305 26.428 76.7945 26.3V26.364C76.8158 26.2787 76.8692 26.204 76.9545 26.14C77.0398 26.0547 77.0932 26.0013 77.1145 25.98C77.2212 25.788 77.2745 25.6493 77.2745 25.564C77.2745 25.5213 77.2638 25.5 77.2425 25.5C77.2212 25.5 77.2105 25.4893 77.2105 25.468C77.2105 25.4467 77.2318 25.404 77.2745 25.34C77.3172 25.2547 77.4025 25.1267 77.5305 24.956H77.4985C77.5838 24.8493 77.7118 24.6573 77.8825 24.38C78.0745 24.1027 78.2558 23.8253 78.4265 23.548C78.6185 23.2707 78.7358 23.0893 78.7785 23.004C78.9492 22.6413 79.2158 22.3747 79.5785 22.204C79.9625 22.012 80.3358 21.916 80.6985 21.916C81.0398 21.916 81.3278 22.0013 81.5625 22.172C81.8185 22.3213 81.9465 22.5773 81.9465 22.94C81.9465 23.2813 81.8612 23.516 81.6905 23.644C81.5412 23.772 81.3278 23.9107 81.0505 24.06C80.7945 24.188 80.5065 24.4227 80.1865 24.764C79.5678 25.4253 79.1518 25.9693 78.9385 26.396C78.7252 26.8013 78.5972 27.228 78.5545 27.676C78.6398 27.5693 78.7358 27.4733 78.8425 27.388C79.2905 26.94 79.7918 26.5347 80.3465 26.172C80.9225 25.788 81.6478 25.3293 82.5225 24.796H82.5865C82.6078 24.796 82.7465 24.7 83.0025 24.508C83.2798 24.316 83.5572 24.124 83.8345 23.932C84.1332 23.7187 84.3145 23.612 84.3785 23.612C84.3785 23.612 84.5065 23.548 84.7625 23.42C85.0185 23.292 85.2852 23.1853 85.5625 23.1C86.5012 22.78 87.3118 22.62 87.9945 22.62C88.4852 22.62 88.8478 22.7053 89.0825 22.876C89.2745 23.004 89.3705 23.26 89.3705 23.644C89.3705 23.9213 89.3065 24.2413 89.1785 24.604V24.54C89.1572 24.54 89.1145 24.6253 89.0505 24.796C88.9865 24.9453 88.9225 25.0733 88.8585 25.18C88.8158 25.244 88.7412 25.3613 88.6345 25.532C88.5278 25.7027 88.4638 25.8093 88.4425 25.852V25.82C88.3145 26.0547 88.1972 26.236 88.0905 26.364C87.9838 26.4707 87.8558 26.62 87.7065 26.812C87.4932 27.068 87.2052 27.4627 86.8425 27.996C86.4798 28.508 86.1278 29.0627 85.7865 29.66C85.4665 30.236 85.2532 30.7587 85.1465 31.228C85.1252 31.356 85.0825 31.5053 85.0185 31.676C84.9758 31.8253 84.9652 31.9533 84.9865 32.06V32.092C84.9865 32.1347 85.0292 32.1987 85.1145 32.284C85.1998 32.348 85.2532 32.4013 85.2745 32.444C85.3598 32.5293 85.4025 32.6253 85.4025 32.732C85.4025 32.86 85.3278 32.9773 85.1785 33.084C85.0505 33.1693 84.8052 33.1907 84.4425 33.148C84.2078 33.148 84.0478 33.084 83.9625 32.956C83.8985 32.828 83.8238 32.6893 83.7385 32.54V32.508C83.7385 32.4653 83.7278 32.4227 83.7065 32.38C83.7065 32.3373 83.7065 32.2733 83.7065 32.188C83.7278 32.1453 83.6958 32.124 83.6105 32.124C83.5465 32.1027 83.4718 32.0173 83.3865 31.868C83.3865 31.868 83.3758 31.7613 83.3545 31.548C83.3332 31.3347 83.3225 31.1853 83.3225 31.1C83.3225 30.8867 83.3972 30.6307 83.5465 30.332C83.6958 30.012 83.8132 29.7347 83.8985 29.5C84.0052 29.2653 84.2292 28.924 84.5705 28.476C84.9118 28.028 85.2638 27.5693 85.6265 27.1C86.0105 26.6093 86.2985 26.204 86.4905 25.884C86.7038 25.5213 86.8105 25.2013 86.8105 24.924C86.8105 24.668 86.7358 24.4867 86.5865 24.38C86.4372 24.252 86.2665 24.188 86.0745 24.188C85.9678 24.188 85.8078 24.1987 85.5945 24.22C85.4025 24.2413 85.2105 24.2947 85.0185 24.38C84.9332 24.4013 84.7838 24.4867 84.5705 24.636C84.3785 24.7853 84.1865 24.924 83.9945 25.052C83.8025 25.18 83.6745 25.244 83.6105 25.244C83.4612 25.3507 83.3225 25.4573 83.1945 25.564C83.0665 25.6493 82.8958 25.756 82.6825 25.884L81.6905 26.524C80.6238 27.2067 79.6105 27.996 78.6505 28.892C77.7118 29.788 76.9012 30.7053 76.2185 31.644C76.1332 31.7507 76.0692 31.9 76.0265 32.092C75.9838 32.284 75.9305 32.444 75.8665 32.572C75.7812 32.7213 75.6958 32.828 75.6105 32.892C75.5252 32.9347 75.4612 32.9773 75.4185 33.02C75.2478 33.2333 75.0772 33.372 74.9065 33.436C74.7572 33.4787 74.6292 33.5 74.5225 33.5ZM92.7195 45.468C92.0155 45.468 91.4608 45.2227 91.0555 44.732C90.6288 44.2627 90.3302 43.6973 90.1595 43.036C89.9675 42.396 89.8715 41.82 89.8715 41.308C89.9782 40.8173 90.0635 40.4227 90.1275 40.124C90.1702 39.8467 90.3622 39.4947 90.7035 39.068C90.8528 38.9187 90.9702 38.844 91.0555 38.844C91.1622 38.844 91.2155 38.9507 91.2155 39.164C91.1942 39.3773 91.1835 39.612 91.1835 39.868C91.1835 40.188 91.1835 40.604 91.1835 41.116C91.1835 41.628 91.2262 42.14 91.3115 42.652C91.3755 43.1853 91.5248 43.6227 91.7595 43.964C91.9728 44.3267 92.2928 44.508 92.7195 44.508C93.5302 44.508 94.2448 44.2947 94.8635 43.868C95.5035 43.4627 96.0795 42.9293 96.5915 42.268C97.1035 41.628 97.5835 40.956 98.0315 40.252C98.2022 39.996 98.3942 39.7613 98.6075 39.548C98.8208 39.3347 99.0022 39.1107 99.1515 38.876C99.3222 38.62 99.4502 38.3533 99.5355 38.076C99.6422 37.7987 99.7702 37.5533 99.9195 37.34C100.581 36.4227 101.125 35.4093 101.551 34.3C101.978 33.1907 102.479 32.1027 103.055 31.036C103.162 30.6947 103.322 30.3 103.535 29.852C103.77 29.2973 103.919 28.9027 103.983 28.668C104.069 28.4333 104.111 28.2733 104.111 28.188C104.111 28.0813 104.111 27.9853 104.111 27.9C103.898 28.0493 103.727 28.156 103.599 28.22C103.493 28.2627 103.365 28.3267 103.215 28.412C103.066 28.4973 102.831 28.7 102.511 29.02L102.479 29.052C102.458 29.0307 102.383 29.084 102.255 29.212C102.149 29.34 102.053 29.4253 101.967 29.468C101.839 29.5533 101.637 29.7347 101.359 30.012C101.082 30.268 100.89 30.4387 100.783 30.524C100.058 31.0573 99.4502 31.516 98.9595 31.9C98.4688 32.284 97.8822 32.6573 97.1995 33.02L97.0075 33.244L96.9435 33.276C96.9008 33.276 96.7942 33.2867 96.6235 33.308C96.4742 33.3293 96.4422 33.34 96.5275 33.34H96.5595C96.4102 33.4253 96.2608 33.4893 96.1115 33.532C95.9835 33.596 95.8662 33.66 95.7595 33.724C95.4822 33.8307 95.2262 33.884 94.9915 33.884C94.7355 33.884 94.5115 33.8093 94.3195 33.66C94.1488 33.5107 94.0635 33.276 94.0635 32.956C94.0635 32.8707 94.0742 32.7853 94.0955 32.7C94.0955 32.6147 94.1062 32.5293 94.1275 32.444C94.3195 31.74 94.6288 30.908 95.0555 29.948C95.5035 28.988 96.1008 27.964 96.8475 26.876C97.5942 25.788 98.5222 24.7213 99.6315 23.676C100.271 23.0573 100.933 22.556 101.615 22.172C102.319 21.788 103.034 21.5533 103.759 21.468C103.802 21.468 103.877 21.4467 103.983 21.404C104.09 21.3613 104.186 21.34 104.271 21.34C104.442 21.34 104.602 21.372 104.751 21.436C104.922 21.5 105.093 21.532 105.263 21.532C105.263 21.532 105.381 21.596 105.615 21.724C105.85 21.8307 106.117 21.98 106.415 22.172C106.714 22.364 106.97 22.5667 107.183 22.78C107.418 22.972 107.535 23.164 107.535 23.356C107.535 23.5693 107.45 23.7613 107.279 23.932C107.13 24.1027 107.034 24.2307 106.991 24.316C106.927 24.4013 106.821 24.444 106.671 24.444C106.351 24.444 106.17 24.284 106.127 23.964C106.127 23.7507 106.085 23.5693 105.999 23.42C105.935 23.2707 105.85 23.1427 105.743 23.036C105.701 22.9933 105.541 22.9507 105.263 22.908C104.986 22.8653 104.794 22.844 104.687 22.844C104.282 22.844 103.802 23.004 103.247 23.324C102.714 23.644 102.138 24.0813 101.519 24.636C101.242 24.8707 100.975 25.052 100.719 25.18C100.485 25.308 100.271 25.468 100.079 25.66C99.9942 25.7453 99.9088 25.884 99.8235 26.076C99.7595 26.2467 99.6742 26.3853 99.5675 26.492C98.7995 27.3027 98.2128 28.028 97.8075 28.668C97.4022 29.2867 97.1142 29.8307 96.9435 30.3C96.7942 30.7693 96.6662 31.196 96.5595 31.58C96.5595 31.7507 96.6128 31.836 96.7195 31.836H97.0395C97.4022 31.7293 97.8288 31.516 98.3195 31.196C98.8102 30.8547 99.3008 30.492 99.7915 30.108C100.303 29.7027 100.741 29.3613 101.103 29.084C101.21 28.9773 101.317 28.9027 101.423 28.86C101.551 28.8173 101.647 28.764 101.711 28.7C101.818 28.6147 101.903 28.5293 101.967 28.444C102.053 28.3587 102.138 28.284 102.223 28.22C102.863 27.7293 103.333 27.3667 103.631 27.132C103.951 26.8973 104.175 26.7373 104.303 26.652C104.431 26.5453 104.538 26.4707 104.623 26.428C104.709 26.364 104.826 26.268 104.975 26.14C105.231 25.948 105.455 25.852 105.647 25.852C105.882 25.852 106.063 25.948 106.191 26.14C106.341 26.3107 106.426 26.4813 106.447 26.652C106.49 26.8227 106.511 26.9827 106.511 27.132C106.511 27.388 106.469 27.6013 106.383 27.772C106.277 27.9 106.223 28.0173 106.223 28.124C106.223 28.1667 106.234 28.2093 106.255 28.252C106.277 28.2947 106.287 28.348 106.287 28.412C106.287 28.476 106.266 28.572 106.223 28.7C106.181 28.8067 106.085 28.9773 105.935 29.212V29.18C105.829 29.3933 105.754 29.5533 105.711 29.66C105.669 29.7453 105.594 29.8733 105.487 30.044C105.317 30.5773 105.082 31.0893 104.783 31.58C104.485 32.0707 104.154 32.6253 103.791 33.244C103.514 33.9693 103.215 34.684 102.895 35.388C102.575 36.1133 102.17 36.828 101.679 37.532C101.189 38.2147 100.634 39.004 100.015 39.9C99.4182 40.8173 98.7462 41.692 97.9995 42.524C97.2742 43.3773 96.4635 44.0813 95.5675 44.636C94.6928 45.1907 93.7435 45.468 92.7195 45.468ZM131.365 34.14C130.874 34.14 130.405 34.076 129.957 33.948C129.53 33.8413 129.178 33.628 128.901 33.308C128.645 32.988 128.527 32.54 128.549 31.964H128.517C128.41 32.1133 128.346 32.188 128.325 32.188C128.325 32.188 128.271 32.2733 128.165 32.444C128.079 32.572 127.994 32.6893 127.909 32.796C127.823 32.8813 127.749 32.9773 127.685 33.084C127.599 33.2333 127.471 33.2867 127.301 33.244C127.151 33.2013 127.077 33.2013 127.077 33.244C126.97 33.372 126.874 33.436 126.789 33.436C126.703 33.436 126.629 33.3933 126.565 33.308C126.522 33.2013 126.49 33.1693 126.469 33.212C126.277 33.1693 126.181 32.9987 126.181 32.7C126.181 32.5293 126.223 32.3053 126.309 32.028C126.373 31.7507 126.479 31.4093 126.629 31.004V31.036C126.65 30.9293 126.682 30.844 126.725 30.78C126.789 30.716 126.821 30.6627 126.821 30.62C126.821 30.492 126.895 30.3533 127.045 30.204C127.215 30.0547 127.29 29.9693 127.269 29.948V29.916C127.333 29.8093 127.418 29.6387 127.525 29.404C127.653 29.148 127.749 28.9667 127.813 28.86C128.047 28.3693 128.282 27.8787 128.517 27.388C128.751 26.8973 128.965 26.4707 129.157 26.108L132.133 20.54V20.572C132.154 20.4867 132.197 20.412 132.261 20.348C132.346 20.2627 132.399 20.2093 132.421 20.188C132.719 19.6973 132.901 19.2707 132.965 18.908C133.05 18.5453 133.263 18.1293 133.605 17.66H133.573C133.637 17.5533 133.754 17.3613 133.925 17.084C134.117 16.8067 134.298 16.5293 134.469 16.252C134.661 15.9747 134.799 15.7827 134.885 15.676C135.119 15.4413 135.525 15.2067 136.101 14.972C136.698 14.716 137.231 14.588 137.701 14.588C137.957 14.588 138.17 14.6413 138.341 14.748C138.511 14.8547 138.607 15.036 138.629 15.292C138.629 15.6333 138.533 15.9107 138.341 16.124C138.149 16.316 137.903 16.5187 137.605 16.732C137.327 16.924 137.029 17.1907 136.709 17.532C136.431 17.8093 136.005 18.3853 135.429 19.26C134.853 20.1347 134.191 21.1267 133.445 22.236C132.719 23.3027 132.154 24.156 131.749 24.796C131.365 25.436 131.077 25.9267 130.885 26.268C130.714 26.588 130.586 26.8333 130.501 27.004C130.437 27.132 130.394 27.2493 130.373 27.356C130.351 27.4413 130.33 27.516 130.309 27.58C130.671 27.2813 131.077 26.94 131.525 26.556C131.994 26.172 132.495 25.8093 133.029 25.468C133.605 24.9133 134.394 24.3267 135.397 23.708C136.421 23.068 137.487 22.588 138.597 22.268C139.023 22.14 139.407 22.044 139.749 21.98C140.111 21.8947 140.431 21.852 140.709 21.852C141.199 21.852 141.615 21.98 141.957 22.236C142.618 22.7053 142.949 23.4413 142.949 24.444C142.949 24.7213 142.917 25.0413 142.853 25.404C142.639 26.0227 142.255 26.7693 141.701 27.644C141.146 28.5187 140.559 29.2653 139.941 29.884C139.877 29.948 139.834 30.0333 139.813 30.14C139.813 30.2253 139.749 30.3427 139.621 30.492C139.535 30.5987 139.386 30.716 139.173 30.844C138.981 30.972 138.842 31.0573 138.757 31.1C138.223 31.5693 137.519 32.092 136.645 32.668C135.791 33.2227 134.703 33.6493 133.381 33.948H133.349C133.071 33.9907 132.762 34.0333 132.421 34.076C132.079 34.1187 131.727 34.14 131.365 34.14ZM131.429 32.508C131.685 32.508 131.941 32.4867 132.197 32.444C132.453 32.38 132.677 32.3267 132.869 32.284C133.594 32.092 134.255 31.8787 134.853 31.644C135.45 31.4093 135.941 31.164 136.325 30.908C136.495 30.78 136.687 30.6733 136.901 30.588C137.114 30.5027 137.274 30.4067 137.381 30.3C137.466 30.2147 137.551 30.1187 137.637 30.012C137.743 29.884 137.839 29.788 137.925 29.724C138.138 29.5107 138.309 29.3293 138.437 29.18C138.586 29.0307 138.746 28.86 138.917 28.668C139.365 28.1773 139.834 27.6333 140.325 27.036C140.815 26.4387 141.146 25.9587 141.317 25.596C141.487 25.2547 141.573 24.892 141.573 24.508C141.573 24.2307 141.53 23.9853 141.445 23.772C141.381 23.5587 141.263 23.4093 141.093 23.324C140.901 23.196 140.709 23.132 140.517 23.132C140.325 23.132 140.101 23.1747 139.845 23.26C139.61 23.324 139.322 23.4093 138.981 23.516C138.298 23.7293 137.615 23.964 136.933 24.22C136.271 24.476 135.674 24.764 135.141 25.084V25.052C135.055 25.1373 134.97 25.2227 134.885 25.308C134.821 25.372 134.735 25.4147 134.629 25.436H134.661C134.469 25.5213 134.298 25.6493 134.149 25.82C133.999 25.9693 133.829 26.1187 133.637 26.268C133.509 26.3533 133.381 26.4387 133.253 26.524C133.125 26.6093 132.997 26.7053 132.869 26.812C132.463 27.1533 131.973 27.5907 131.397 28.124C130.821 28.636 130.351 29.148 129.989 29.66C129.967 29.6813 129.935 29.82 129.893 30.076C129.871 30.3107 129.85 30.556 129.829 30.812C129.829 31.0467 129.829 31.196 129.829 31.26C129.893 31.7507 130.074 32.0813 130.373 32.252C130.693 32.4227 131.045 32.508 131.429 32.508ZM150.946 34.332C150.882 34.332 150.744 34.2893 150.53 34.204C150.317 34.14 150.093 34.076 149.858 34.012C149.624 33.948 149.453 33.916 149.346 33.916H149.314C148.909 33.916 148.6 33.756 148.386 33.436C148.194 33.0947 148.066 32.7853 148.002 32.508C147.981 32.4013 147.96 32.2947 147.938 32.188C147.938 32.06 147.938 31.932 147.938 31.804C147.938 31.1 148.109 30.3 148.45 29.404C148.792 28.508 149.25 27.58 149.826 26.62C150.424 25.66 151.096 24.764 151.842 23.932C152.61 23.0573 153.389 22.3747 154.178 21.884C154.968 21.3933 155.682 21.116 156.322 21.052C156.664 21.052 157.016 21.148 157.378 21.34C157.741 21.532 157.997 21.628 158.146 21.628H158.178C158.626 21.628 158.925 21.8093 159.074 22.172C159.224 22.5347 159.298 22.8973 159.298 23.26C159.298 23.4733 159.256 23.6973 159.17 23.932C159.085 24.1667 159.01 24.3587 158.946 24.508C158.904 24.6573 158.904 24.7107 158.946 24.668L158.978 24.636C158.744 25.0627 158.477 25.5 158.178 25.948C157.901 26.3747 157.442 26.94 156.802 27.644C156.546 27.9213 156.194 28.1987 155.746 28.476C155.32 28.732 154.904 28.9667 154.498 29.18C154.093 29.3933 153.805 29.5427 153.634 29.628C153.464 29.7133 153.24 29.756 152.962 29.756C152.685 29.756 152.376 29.724 152.034 29.66C151.714 29.596 151.437 29.564 151.202 29.564C151.074 29.564 150.957 29.5747 150.85 29.596C150.744 29.6173 150.669 29.6813 150.626 29.788C150.285 30.3427 150.114 30.8973 150.114 31.452C150.114 31.7933 150.189 32.0813 150.338 32.316C150.509 32.5293 150.786 32.636 151.17 32.636C151.298 32.636 151.437 32.6253 151.586 32.604C151.736 32.5827 151.885 32.54 152.034 32.476C152.397 32.412 152.653 32.38 152.802 32.38C152.952 32.38 153.112 32.3587 153.282 32.316C153.474 32.2733 153.784 32.1667 154.21 31.996C154.68 31.804 155.032 31.6653 155.266 31.58C155.522 31.4947 155.714 31.42 155.842 31.356C155.992 31.292 156.141 31.2173 156.29 31.132C156.44 31.0467 156.674 30.9187 156.994 30.748C157.229 30.62 157.357 30.556 157.378 30.556C157.421 30.556 157.485 30.5347 157.57 30.492C157.656 30.428 157.88 30.2787 158.242 30.044C158.626 29.788 158.925 29.66 159.138 29.66C159.288 29.66 159.362 29.7133 159.362 29.82C159.362 29.9053 159.288 30.0333 159.138 30.204C159.01 30.3747 158.776 30.5773 158.434 30.812C158.072 31.068 157.656 31.3667 157.186 31.708C156.738 32.0493 156.322 32.316 155.938 32.508C155.81 32.5293 155.693 32.5827 155.586 32.668C155.501 32.732 155.373 32.7853 155.202 32.828L153.41 33.596L153.442 33.564C153.506 33.5 153.432 33.5 153.218 33.564C153.026 33.628 152.77 33.724 152.45 33.852C152.152 33.98 151.853 34.0867 151.554 34.172C151.277 34.2787 151.074 34.332 150.946 34.332ZM152.194 28.828C152.28 28.828 152.365 28.828 152.45 28.828C152.536 28.8067 152.621 28.7853 152.706 28.764C152.856 28.636 152.994 28.54 153.122 28.476C153.25 28.412 153.421 28.3053 153.634 28.156C153.848 28.0067 154.146 27.74 154.53 27.356C154.85 27.036 155.128 26.812 155.362 26.684C155.597 26.5347 155.789 26.3747 155.938 26.204C156.386 25.5853 156.621 25.116 156.642 24.796C156.685 24.476 156.706 24.1773 156.706 23.9C156.45 23.5587 156.216 23.388 156.002 23.388C155.874 23.388 155.682 23.4413 155.426 23.548C155.064 23.6973 154.765 23.836 154.53 23.964C154.317 24.092 153.997 24.3693 153.57 24.796C153.08 25.308 152.632 25.8093 152.226 26.3C151.821 26.7693 151.501 27.2493 151.266 27.74C151.245 27.8253 151.213 27.9107 151.17 27.996C151.149 28.06 151.138 28.1133 151.138 28.156C151.138 28.3907 151.245 28.5613 151.458 28.668C151.672 28.7747 151.917 28.828 152.194 28.828ZM163.506 45.468C162.802 45.468 162.247 45.2227 161.842 44.732C161.415 44.2627 161.117 43.6973 160.946 43.036C160.754 42.396 160.658 41.82 160.658 41.308C160.765 40.8173 160.85 40.4227 160.914 40.124C160.957 39.8467 161.149 39.4947 161.49 39.068C161.639 38.9187 161.757 38.844 161.842 38.844C161.949 38.844 162.002 38.9507 162.002 39.164C161.981 39.3773 161.97 39.612 161.97 39.868C161.97 40.188 161.97 40.604 161.97 41.116C161.97 41.628 162.013 42.14 162.098 42.652C162.162 43.1853 162.311 43.6227 162.546 43.964C162.759 44.3267 163.079 44.508 163.506 44.508C164.317 44.508 165.031 44.2947 165.65 43.868C166.29 43.4627 166.866 42.9293 167.378 42.268C167.89 41.628 168.37 40.956 168.818 40.252C168.989 39.996 169.181 39.7613 169.394 39.548C169.607 39.3347 169.789 39.1107 169.938 38.876C170.109 38.62 170.237 38.3533 170.322 38.076C170.429 37.7987 170.557 37.5533 170.706 37.34C171.367 36.4227 171.943 35.3987 172.434 34.268C172.925 33.1587 173.469 32.0707 174.066 31.004C174.173 30.7693 174.333 30.4067 174.546 29.916C174.759 29.4253 174.973 28.9347 175.186 28.444C175.399 27.932 175.559 27.548 175.666 27.292C175.837 26.78 175.943 26.4813 175.986 26.396V26.364C175.773 26.5347 175.655 26.6413 175.634 26.684C175.613 26.7053 175.57 26.748 175.506 26.812C175.463 26.8547 175.261 27.0147 174.898 27.292L174.834 27.324C174.813 27.3027 174.695 27.388 174.482 27.58C174.29 27.7507 174.077 27.932 173.842 28.124C173.629 28.316 173.469 28.4333 173.362 28.476C173.255 28.5613 173.053 28.7533 172.754 29.052C172.477 29.3293 172.285 29.5 172.178 29.564C171.623 30.076 171.079 30.5347 170.546 30.94C170.013 31.324 169.447 31.6973 168.85 32.06C168.829 32.06 168.797 32.092 168.754 32.156C168.733 32.22 168.69 32.2733 168.626 32.316H168.594C168.53 32.3587 168.466 32.38 168.402 32.38C168.338 32.3587 168.285 32.3693 168.242 32.412L167.474 32.764C167.218 32.8707 166.994 32.924 166.802 32.924C166.567 32.924 166.365 32.8493 166.194 32.7C166.023 32.5507 165.938 32.316 165.938 31.996C165.938 31.932 165.938 31.8573 165.938 31.772C165.959 31.6653 165.981 31.5693 166.002 31.484C166.173 30.8227 166.407 30.076 166.706 29.244C167.026 28.3907 167.495 27.4627 168.114 26.46C168.263 26.2253 168.349 26.0547 168.37 25.948C168.413 25.8413 168.434 25.7667 168.434 25.724V25.596C168.434 25.5533 168.445 25.5 168.466 25.436C168.487 25.372 168.541 25.2653 168.626 25.116C168.797 24.8813 168.893 24.7 168.914 24.572C168.957 24.4227 168.989 24.284 169.01 24.156C169.117 23.9 169.255 23.7293 169.426 23.644C169.597 23.5373 169.757 23.452 169.906 23.388C170.269 23.2387 170.621 23.1 170.962 22.972C171.325 22.8227 171.623 22.748 171.858 22.748C172.157 22.748 172.338 22.876 172.402 23.132C172.423 23.2173 172.434 23.292 172.434 23.356C172.434 23.42 172.434 23.484 172.434 23.548C172.434 23.932 172.317 24.2627 172.082 24.54C171.869 24.8173 171.527 25.148 171.058 25.532C170.887 25.6813 170.759 25.7987 170.674 25.884C170.589 25.9693 170.493 26.0867 170.386 26.236C170.301 26.364 170.151 26.588 169.938 26.908H169.906C169.351 27.74 168.957 28.4547 168.722 29.052C168.487 29.6493 168.327 30.172 168.242 30.62C168.221 30.7267 168.221 30.7907 168.242 30.812C168.263 30.8333 168.306 30.8547 168.37 30.876C168.477 30.9187 168.573 30.9187 168.658 30.876C168.978 30.7693 169.362 30.556 169.81 30.236C170.279 29.8947 170.749 29.532 171.218 29.148C171.687 28.7427 172.103 28.4013 172.466 28.124C172.573 28.0387 172.679 27.9747 172.786 27.932C172.914 27.868 173.01 27.8147 173.074 27.772C173.181 27.6653 173.266 27.5693 173.33 27.484C173.415 27.3987 173.501 27.324 173.586 27.26C174.439 26.5987 175.09 26.012 175.538 25.5C175.986 24.9667 176.338 24.5187 176.594 24.156C176.85 23.772 177.085 23.4947 177.298 23.324C177.554 23.132 177.778 23.036 177.97 23.036C178.205 23.036 178.386 23.1213 178.514 23.292C178.663 23.4627 178.749 23.6333 178.77 23.804C178.813 23.9747 178.834 24.1453 178.834 24.316C178.834 24.5507 178.791 24.7533 178.706 24.924C178.557 25.1373 178.493 25.3187 178.514 25.468C178.535 25.596 178.482 25.7773 178.354 26.012C178.247 26.2253 178.13 26.4813 178.002 26.78C177.874 27.0787 177.746 27.3133 177.618 27.484C177.447 27.9747 177.202 28.5293 176.882 29.148C176.562 29.7667 176.231 30.3747 175.89 30.972C175.57 31.548 175.293 32.028 175.058 32.412C174.845 32.7747 174.738 32.956 174.738 32.956C174.461 33.6813 174.13 34.4493 173.746 35.26C173.383 36.0707 172.957 36.828 172.466 37.532C171.975 38.2147 171.421 39.004 170.802 39.9C170.205 40.8173 169.533 41.692 168.786 42.524C168.061 43.3773 167.25 44.0813 166.354 44.636C165.479 45.1907 164.53 45.468 163.506 45.468ZM186.286 33.468C185.945 33.468 185.678 33.4147 185.486 33.308C185.294 33.18 185.113 33.052 184.942 32.924C184.558 32.604 184.366 32.0173 184.366 31.164C184.366 30.5453 184.483 29.8413 184.718 29.052C184.953 28.2413 185.337 27.3987 185.87 26.524V26.556C186.105 26.1293 186.339 25.7027 186.574 25.276C186.83 24.8493 187.097 24.4333 187.374 24.028C187.459 23.9427 187.545 23.8893 187.63 23.868C187.715 23.8253 187.779 23.7827 187.822 23.74C187.822 23.6547 187.843 23.5373 187.886 23.388C187.95 23.2173 188.025 23.1 188.11 23.036C188.494 22.524 188.931 22.14 189.422 21.884C189.913 21.628 190.297 21.4147 190.574 21.244H190.542C190.67 21.18 190.819 21.148 190.99 21.148C191.417 21.148 191.918 21.308 192.494 21.628C192.579 21.628 192.665 21.6173 192.75 21.596C192.857 21.5533 192.963 21.532 193.07 21.532C193.283 21.532 193.497 21.6067 193.71 21.756C193.945 21.9053 194.041 22.14 193.998 22.46C193.977 22.524 193.966 22.5773 193.966 22.62C193.966 22.6627 193.966 22.7053 193.966 22.748C193.966 22.9827 194.051 23.1 194.222 23.1C194.307 23.1 194.393 23.0893 194.478 23.068C194.563 23.0467 194.649 23.036 194.734 23.036C194.969 23.036 195.299 23.004 195.726 22.94C196.153 22.8547 196.558 22.78 196.942 22.716C197.347 22.6307 197.625 22.588 197.774 22.588C197.859 22.652 197.902 22.7267 197.902 22.812C197.902 22.8973 197.859 22.9933 197.774 23.1C197.71 23.2067 197.635 23.2813 197.55 23.324C197.55 23.324 197.411 23.3667 197.134 23.452C196.878 23.516 196.558 23.6013 196.174 23.708C195.79 23.8147 195.406 23.9213 195.022 24.028C194.659 24.1133 194.371 24.1667 194.158 24.188L193.838 24.22C193.817 24.476 193.753 24.7533 193.646 25.052C193.539 25.3507 193.422 25.6813 193.294 26.044C193.251 26.1507 193.219 26.2893 193.198 26.46C193.177 26.6093 193.134 26.7693 193.07 26.94C192.921 27.196 192.75 27.452 192.558 27.708C192.366 27.964 192.185 28.2307 192.014 28.508C191.886 28.7213 191.747 28.956 191.598 29.212C191.47 29.4467 191.31 29.692 191.118 29.948C190.691 30.5027 190.19 31.0573 189.614 31.612C189.059 32.1453 188.483 32.5933 187.886 32.956C187.31 33.2973 186.777 33.468 186.286 33.468ZM186.574 32.412C187.001 32.412 187.587 32.1133 188.334 31.516C189.102 30.8973 189.817 30.108 190.478 29.148H190.446C190.617 28.892 190.787 28.5933 190.958 28.252C191.15 27.9107 191.299 27.6227 191.406 27.388C191.406 27.388 191.459 27.324 191.566 27.196C191.694 27.068 191.822 26.9293 191.95 26.78C192.078 26.6093 192.153 26.4813 192.174 26.396C192.195 26.3533 192.206 26.3 192.206 26.236C192.206 26.1933 192.195 26.1613 192.174 26.14C192.174 26.0973 192.174 26.0333 192.174 25.948V25.916C192.302 25.596 192.409 25.308 192.494 25.052C192.579 24.796 192.633 24.572 192.654 24.38C192.505 24.38 192.27 24.3693 191.95 24.348C191.63 24.3267 191.363 24.3053 191.15 24.284C190.958 24.2627 190.958 24.252 191.15 24.252H191.246C191.246 24.2307 191.15 24.188 190.958 24.124C190.766 24.06 190.617 24.0067 190.51 23.964C190.446 23.9853 190.382 23.996 190.318 23.996C190.211 23.996 190.126 23.9747 190.062 23.932C190.019 23.8893 189.966 23.9 189.902 23.964C189.817 24.0493 189.763 24.156 189.742 24.284C189.721 24.412 189.635 24.5507 189.486 24.7L189.454 24.732C189.454 24.7107 189.401 24.732 189.294 24.796C189.187 24.86 189.145 24.892 189.166 24.892L189.134 24.956C189.091 24.9773 189.059 25.0413 189.038 25.148C189.038 25.2333 189.006 25.3293 188.942 25.436C188.729 25.7773 188.494 26.14 188.238 26.524C188.003 26.8867 187.779 27.2387 187.566 27.58V27.548C187.353 27.932 187.139 28.348 186.926 28.796C186.713 29.244 186.553 29.6813 186.446 30.108C186.446 30.2147 186.425 30.3213 186.382 30.428C186.361 30.5133 186.35 30.588 186.35 30.652V30.684C186.35 30.9187 186.307 31.1213 186.222 31.292C186.137 31.4627 186.094 31.6333 186.094 31.804C186.158 31.9533 186.179 32.0707 186.158 32.156C186.137 32.22 186.169 32.2733 186.254 32.316C186.361 32.38 186.467 32.412 186.574 32.412ZM200.425 33.5C200.233 33.436 200.137 33.212 200.137 32.828C200.137 32.5933 200.169 32.3267 200.233 32.028C200.318 31.7293 200.436 31.3773 200.585 30.972V31.068C200.628 31.068 200.67 30.9933 200.713 30.844C200.756 30.6947 200.766 30.6093 200.745 30.588C200.766 30.46 200.852 30.3213 201.001 30.172C201.172 30.0013 201.246 29.9053 201.225 29.884V29.852C201.268 29.7667 201.268 29.7133 201.225 29.692C201.182 29.6707 201.193 29.5853 201.257 29.436C201.492 28.9453 201.705 28.4973 201.897 28.092C202.089 27.6653 202.281 27.2813 202.473 26.94C202.473 26.94 202.494 26.8653 202.537 26.716C202.58 26.5667 202.633 26.428 202.697 26.3V26.364C202.718 26.2787 202.772 26.204 202.857 26.14C202.942 26.0547 202.996 26.0013 203.017 25.98C203.124 25.788 203.177 25.6493 203.177 25.564C203.177 25.5213 203.166 25.5 203.145 25.5C203.124 25.5 203.113 25.4893 203.113 25.468C203.113 25.4467 203.134 25.404 203.177 25.34C203.22 25.2547 203.305 25.1267 203.433 24.956H203.401C203.486 24.8493 203.614 24.6573 203.785 24.38C203.977 24.1027 204.158 23.8253 204.329 23.548C204.521 23.2707 204.638 23.0893 204.681 23.004C204.852 22.6413 205.118 22.3747 205.481 22.204C205.865 22.012 206.238 21.916 206.601 21.916C206.942 21.916 207.23 22.0013 207.465 22.172C207.721 22.3213 207.849 22.5773 207.849 22.94C207.849 23.2813 207.764 23.516 207.593 23.644C207.444 23.772 207.23 23.9107 206.953 24.06C206.697 24.188 206.409 24.4227 206.089 24.764C205.47 25.4253 205.054 25.9693 204.841 26.396C204.628 26.8013 204.5 27.228 204.457 27.676C204.542 27.5693 204.638 27.4733 204.745 27.388C205.193 26.94 205.694 26.5347 206.249 26.172C206.825 25.788 207.55 25.3293 208.425 24.796H208.489C208.51 24.796 208.649 24.7 208.905 24.508C209.182 24.316 209.46 24.124 209.737 23.932C210.036 23.7187 210.217 23.612 210.281 23.612C210.281 23.612 210.409 23.548 210.665 23.42C210.921 23.292 211.188 23.1853 211.465 23.1C212.404 22.78 213.214 22.62 213.897 22.62C214.388 22.62 214.75 22.7053 214.985 22.876C215.177 23.004 215.273 23.26 215.273 23.644C215.273 23.9213 215.209 24.2413 215.081 24.604V24.54C215.06 24.54 215.017 24.6253 214.953 24.796C214.889 24.9453 214.825 25.0733 214.761 25.18C214.718 25.244 214.644 25.3613 214.537 25.532C214.43 25.7027 214.366 25.8093 214.345 25.852V25.82C214.217 26.0547 214.1 26.236 213.993 26.364C213.886 26.4707 213.758 26.62 213.609 26.812C213.396 27.068 213.108 27.4627 212.745 27.996C212.382 28.508 212.03 29.0627 211.689 29.66C211.369 30.236 211.156 30.7587 211.049 31.228C211.028 31.356 210.985 31.5053 210.921 31.676C210.878 31.8253 210.868 31.9533 210.889 32.06V32.092C210.889 32.1347 210.932 32.1987 211.017 32.284C211.102 32.348 211.156 32.4013 211.177 32.444C211.262 32.5293 211.305 32.6253 211.305 32.732C211.305 32.86 211.23 32.9773 211.081 33.084C210.953 33.1693 210.708 33.1907 210.345 33.148C210.11 33.148 209.95 33.084 209.865 32.956C209.801 32.828 209.726 32.6893 209.641 32.54V32.508C209.641 32.4653 209.63 32.4227 209.609 32.38C209.609 32.3373 209.609 32.2733 209.609 32.188C209.63 32.1453 209.598 32.124 209.513 32.124C209.449 32.1027 209.374 32.0173 209.289 31.868C209.289 31.868 209.278 31.7613 209.257 31.548C209.236 31.3347 209.225 31.1853 209.225 31.1C209.225 30.8867 209.3 30.6307 209.449 30.332C209.598 30.012 209.716 29.7347 209.801 29.5C209.908 29.2653 210.132 28.924 210.473 28.476C210.814 28.028 211.166 27.5693 211.529 27.1C211.913 26.6093 212.201 26.204 212.393 25.884C212.606 25.5213 212.713 25.2013 212.713 24.924C212.713 24.668 212.638 24.4867 212.489 24.38C212.34 24.252 212.169 24.188 211.977 24.188C211.87 24.188 211.71 24.1987 211.497 24.22C211.305 24.2413 211.113 24.2947 210.921 24.38C210.836 24.4013 210.686 24.4867 210.473 24.636C210.281 24.7853 210.089 24.924 209.897 25.052C209.705 25.18 209.577 25.244 209.513 25.244C209.364 25.3507 209.225 25.4573 209.097 25.564C208.969 25.6493 208.798 25.756 208.585 25.884L207.593 26.524C206.526 27.2067 205.513 27.996 204.553 28.892C203.614 29.788 202.804 30.7053 202.121 31.644C202.036 31.7507 201.972 31.9 201.929 32.092C201.886 32.284 201.833 32.444 201.769 32.572C201.684 32.7213 201.598 32.828 201.513 32.892C201.428 32.9347 201.364 32.9773 201.321 33.02C201.15 33.2333 200.98 33.372 200.809 33.436C200.66 33.4787 200.532 33.5 200.425 33.5ZM220.542 33.884C220.286 33.884 220.073 33.8093 219.902 33.66C219.731 33.5107 219.646 33.2653 219.646 32.924C219.646 32.86 219.657 32.7853 219.678 32.7C219.678 32.6147 219.689 32.5293 219.71 32.444C219.902 31.74 220.19 30.908 220.574 29.948C220.979 28.988 221.513 27.964 222.174 26.876C222.857 25.788 223.699 24.7213 224.702 23.676C225.001 23.3773 225.417 23.1 225.95 22.844C226.505 22.5667 227.038 22.332 227.55 22.14C228.062 21.9267 228.425 21.7667 228.638 21.66C228.873 21.532 228.819 21.468 228.478 21.468H228.446C228.51 21.4467 228.585 21.4253 228.67 21.404C228.755 21.3613 228.841 21.34 228.926 21.34C229.097 21.34 229.246 21.372 229.374 21.436C229.523 21.5 229.673 21.532 229.822 21.532H229.854C230.366 21.532 230.75 21.6387 231.006 21.852C231.262 22.044 231.433 22.2893 231.518 22.588C231.603 22.8653 231.646 23.132 231.646 23.388C231.646 23.452 231.646 23.5267 231.646 23.612C231.646 23.676 231.635 23.74 231.614 23.804C231.87 23.356 232.115 22.8973 232.35 22.428C232.606 21.9373 232.819 21.5107 232.99 21.148C233.182 20.7853 233.289 20.5827 233.31 20.54V20.572C233.31 20.6573 233.353 20.6253 233.438 20.476C233.523 20.3053 233.577 20.2093 233.598 20.188C233.875 19.6973 234.046 19.2707 234.11 18.908C234.195 18.5453 234.409 18.1293 234.75 17.66H234.718C234.782 17.5533 234.899 17.3613 235.07 17.084C235.262 16.8067 235.443 16.5293 235.614 16.252C235.806 15.9747 235.945 15.7827 236.03 15.676C236.265 15.4413 236.67 15.2067 237.246 14.972C237.843 14.716 238.377 14.588 238.846 14.588C239.102 14.588 239.315 14.6413 239.486 14.748C239.678 14.8547 239.785 15.036 239.806 15.292C239.806 15.6333 239.71 15.9107 239.518 16.124C239.347 16.316 239.113 16.5187 238.814 16.732C238.537 16.924 238.227 17.1907 237.886 17.532C237.63 17.8093 237.214 18.3853 236.638 19.26C236.062 20.1347 235.39 21.1267 234.622 22.236C233.875 23.3027 233.31 24.124 232.926 24.7C232.542 25.2547 232.275 25.6493 232.126 25.884C231.998 26.1187 231.913 26.3107 231.87 26.46L231.838 26.492C231.625 26.7053 231.433 27.0253 231.262 27.452C231.091 27.8573 230.846 28.348 230.526 28.924C230.355 29.244 230.238 29.5107 230.174 29.724C230.11 29.916 230.046 30.1827 229.982 30.524C229.897 30.6733 229.843 30.8227 229.822 30.972C229.822 31.1213 229.843 31.164 229.886 31.1C229.886 31.1213 229.95 31.0893 230.078 31.004C230.206 30.9187 230.323 30.8333 230.43 30.748C230.473 30.7267 230.558 30.6947 230.686 30.652C230.835 30.6093 230.921 30.588 230.942 30.588L230.974 30.556C231.166 30.4707 231.294 30.428 231.358 30.428H231.422C231.465 30.428 231.529 30.4067 231.614 30.364C231.699 30.3213 231.87 30.2147 232.126 30.044C232.275 29.9587 232.403 29.916 232.51 29.916C232.681 29.916 232.766 29.9907 232.766 30.14C232.766 30.3107 232.638 30.4813 232.382 30.652C231.763 31.1 231.273 31.42 230.91 31.612C230.547 31.7827 230.163 32.0707 229.758 32.476L229.726 32.508C229.683 32.508 229.577 32.5827 229.406 32.732C229.257 32.8813 229.171 32.9773 229.15 33.02C229.065 33.1053 228.99 33.212 228.926 33.34C228.862 33.4467 228.766 33.5427 228.638 33.628H228.67C228.585 33.6707 228.489 33.692 228.382 33.692C228.297 33.7133 228.211 33.724 228.126 33.724C227.827 33.724 227.646 33.692 227.582 33.628C227.539 33.5853 227.475 33.5427 227.39 33.5C227.326 33.4787 227.273 33.4147 227.23 33.308C227.187 33.1373 227.166 32.988 227.166 32.86C227.166 32.476 227.262 32.028 227.454 31.516C227.667 30.9827 227.945 30.396 228.286 29.756C228.563 29.2227 228.766 28.8067 228.894 28.508C229.022 28.2093 229.118 27.964 229.182 27.772C229.246 27.5587 229.321 27.356 229.406 27.164C229.107 27.4413 228.798 27.7293 228.478 28.028C228.158 28.3267 227.785 28.6573 227.358 29.02C227.294 29.0627 227.198 29.116 227.07 29.18C226.942 29.244 226.857 29.2867 226.814 29.308L226.014 30.14C225.353 30.6733 224.766 31.196 224.254 31.708C223.742 32.22 223.177 32.6573 222.558 33.02V32.988C222.537 33.0093 222.505 33.052 222.462 33.116C222.441 33.1587 222.398 33.2013 222.334 33.244V33.276C222.249 33.2973 222.174 33.308 222.11 33.308C222.046 33.308 221.993 33.3187 221.95 33.34C221.822 33.4253 221.694 33.4893 221.566 33.532C221.438 33.596 221.321 33.66 221.214 33.724C220.958 33.8307 220.734 33.884 220.542 33.884ZM222.11 31.836C222.174 31.8573 222.259 31.8573 222.366 31.836C222.686 31.7293 223.07 31.516 223.518 31.196C223.987 30.8547 224.446 30.492 224.894 30.108C225.363 29.7027 225.758 29.3613 226.078 29.084C226.185 28.9773 226.281 28.9027 226.366 28.86C226.473 28.8173 226.558 28.764 226.622 28.7C226.729 28.636 226.803 28.5613 226.846 28.476C226.91 28.3693 226.985 28.284 227.07 28.22C227.838 27.5587 228.457 27.036 228.926 26.652C229.395 26.2467 229.758 25.9267 230.014 25.692C230.291 25.4573 230.526 25.2547 230.718 25.084C230.782 25.02 230.857 24.9347 230.942 24.828C231.049 24.7 231.145 24.5613 231.23 24.412H231.134C231.027 24.412 230.921 24.38 230.814 24.316C230.707 24.2307 230.654 24.1133 230.654 23.964C230.654 23.7507 230.611 23.5693 230.526 23.42C230.462 23.2707 230.377 23.1427 230.27 23.036C230.249 22.9933 230.195 22.972 230.11 22.972C230.025 22.9507 229.929 22.94 229.822 22.94H229.79C229.726 22.94 229.662 22.9293 229.598 22.908C229.534 22.8653 229.47 22.844 229.406 22.844C228.595 22.844 227.593 23.4093 226.398 24.54C225.182 25.7347 224.275 26.7693 223.678 27.644C223.081 28.5187 222.665 29.276 222.43 29.916C222.217 30.5347 222.057 31.0893 221.95 31.58C221.929 31.6867 221.929 31.7507 221.95 31.772C221.971 31.7933 222.025 31.8147 222.11 31.836ZM251.789 35.324C251.448 35.324 251.16 35.3027 250.925 35.26C250.691 35.2173 250.584 35.1213 250.605 34.972C250.563 34.972 250.499 34.9293 250.413 34.844L250.381 34.78C250.381 34.6093 250.435 34.4707 250.541 34.364L250.573 34.332C250.595 34.3107 250.627 34.3 250.669 34.3C250.819 34.3 250.989 34.3213 251.181 34.364C251.373 34.4067 251.512 34.4173 251.597 34.396C252.515 34.1187 253.347 33.7667 254.093 33.34C254.861 32.9133 255.512 32.4653 256.045 31.996C256.259 31.8253 256.451 31.644 256.621 31.452C256.813 31.26 256.984 31.0787 257.133 30.908C257.176 30.844 257.24 30.8013 257.325 30.78C257.432 30.7373 257.496 30.7053 257.517 30.684L257.549 30.652C257.549 30.6093 257.539 30.5773 257.517 30.556C257.517 30.5133 257.539 30.4493 257.581 30.364C258.008 29.7667 258.221 29.308 258.221 28.988C258.221 28.796 258.168 28.6787 258.061 28.636C257.827 28.4227 257.496 28.252 257.069 28.124C256.664 27.996 256.259 27.8893 255.853 27.804C255.448 27.6973 255.139 27.6013 254.925 27.516C254.541 27.3453 254.349 27.0573 254.349 26.652C254.349 26.2467 254.509 25.788 254.829 25.276C255.171 24.7427 255.64 24.2093 256.237 23.676C257.197 22.8653 258.211 22.2147 259.277 21.724C260.344 21.212 261.283 20.956 262.093 20.956C262.52 20.956 262.893 21.0413 263.213 21.212C263.533 21.3827 263.757 21.66 263.885 22.044C263.949 22.236 263.981 22.4173 263.981 22.588C263.981 22.8653 263.907 23.1107 263.757 23.324C263.629 23.516 263.469 23.612 263.277 23.612C263.235 23.612 263.149 23.6227 263.021 23.644C262.915 23.6653 262.819 23.6653 262.733 23.644C262.648 23.6013 262.563 23.5267 262.477 23.42C262.392 23.3133 262.328 23.26 262.285 23.26H262.253C262.168 23.2173 262.104 23.1747 262.061 23.132C262.04 23.0893 261.976 23.068 261.869 23.068H261.741L261.101 23.036C260.781 23.036 260.419 23.1 260.013 23.228C259.608 23.356 259.128 23.6013 258.573 23.964V23.932C258.381 24.0813 258.179 24.2733 257.965 24.508C257.752 24.7213 257.549 24.9453 257.357 25.18C257.229 25.308 257.08 25.436 256.909 25.564C256.76 25.692 256.664 25.8093 256.621 25.916C256.536 26.0867 256.493 26.236 256.493 26.364C256.493 26.492 256.547 26.5987 256.653 26.684C256.995 26.8333 257.464 27.004 258.061 27.196C258.659 27.3667 259.277 27.6653 259.917 28.092C260.045 28.1773 260.173 28.316 260.301 28.508C260.451 28.6787 260.525 28.9027 260.525 29.18C260.525 29.3933 260.483 29.596 260.397 29.788C260.333 29.8947 260.237 30.0227 260.109 30.172C259.981 30.3 259.896 30.4173 259.853 30.524L259.821 30.556C259.437 30.94 258.947 31.4413 258.349 32.06C257.752 32.6573 256.909 33.2867 255.821 33.948C254.989 34.46 254.211 34.812 253.485 35.004C252.76 35.2173 252.195 35.324 251.789 35.324ZM275.573 19.868C275.381 19.868 275.253 19.804 275.189 19.676C275.146 19.5267 275.114 19.388 275.093 19.26C275.072 19.1533 275.05 19.036 275.029 18.908C275.008 18.78 274.997 18.652 274.997 18.524C274.997 18.3533 275.018 18.204 275.061 18.076C275.125 17.9267 275.232 17.8093 275.381 17.724C275.872 17.468 276.288 17.2867 276.629 17.18C276.97 17.0733 277.248 17.02 277.461 17.02C277.781 17.02 277.994 17.116 278.101 17.308C278.208 17.5 278.261 17.7453 278.261 18.044C278.261 18.1293 278.261 18.2147 278.261 18.3C278.261 18.364 278.25 18.4493 278.229 18.556C278.165 18.8333 277.952 19.0253 277.589 19.132C277.248 19.2387 276.96 19.3453 276.725 19.452C276.576 19.5373 276.394 19.6333 276.181 19.74C275.989 19.8253 275.808 19.868 275.637 19.868H275.573ZM268.597 33.66C268.512 33.66 268.437 33.596 268.373 33.468C268.33 33.2973 268.277 33.148 268.213 33.02C268.149 32.892 268.117 32.7 268.117 32.444C268.117 32.1453 268.181 31.708 268.309 31.132C268.437 30.556 268.682 29.692 269.045 28.54C269.322 27.6653 269.578 26.9613 269.813 26.428C270.048 25.8947 270.293 25.3827 270.549 24.892V24.86C270.613 24.7747 270.709 24.7 270.837 24.636C270.965 24.572 271.05 24.508 271.093 24.444H271.061C271.104 24.4013 271.114 24.3373 271.093 24.252C271.072 24.1453 271.061 24.0493 271.061 23.964C271.061 23.7293 271.136 23.5373 271.285 23.388C271.456 23.2173 271.626 23.0573 271.797 22.908C271.968 22.7373 272.234 22.5453 272.597 22.332C272.96 22.1187 273.386 21.9693 273.877 21.884C273.941 21.8627 274.005 21.852 274.069 21.852C274.133 21.852 274.197 21.852 274.261 21.852C274.624 21.852 274.901 21.9267 275.093 22.076C275.285 22.2253 275.424 22.3853 275.509 22.556C275.552 22.5987 275.594 22.652 275.637 22.716C275.68 22.78 275.701 22.8547 275.701 22.94C275.701 23.0253 275.658 23.1427 275.573 23.292C275.509 23.42 275.36 23.5907 275.125 23.804C275.018 23.932 274.858 24.0707 274.645 24.22C274.453 24.348 274.272 24.4973 274.101 24.668C273.888 24.8813 273.685 25.116 273.493 25.372C273.301 25.628 273.12 25.8733 272.949 26.108C272.8 26.3213 272.64 26.524 272.469 26.716C272.298 26.8867 272.128 27.068 271.957 27.26C271.872 27.3453 271.808 27.5053 271.765 27.74C271.722 27.9533 271.626 28.1347 271.477 28.284C271.328 28.476 271.157 28.6253 270.965 28.732C270.794 28.8387 270.656 28.988 270.549 29.18V29.148C270.442 29.34 270.325 29.564 270.197 29.82C270.069 30.076 269.941 30.3213 269.813 30.556C269.6 30.9827 269.461 31.3027 269.397 31.516C269.333 31.708 269.301 31.8573 269.301 31.964C269.301 32.092 269.322 32.1773 269.365 32.22C269.429 32.2627 269.44 32.3693 269.397 32.54C269.312 32.732 269.194 32.9667 269.045 33.244C268.917 33.5213 268.768 33.66 268.597 33.66ZM277.789 45.468C277.085 45.468 276.531 45.2227 276.125 44.732C275.699 44.2627 275.4 43.6973 275.229 43.036C275.037 42.396 274.941 41.82 274.941 41.308C275.048 40.8173 275.133 40.4227 275.197 40.124C275.24 39.8467 275.432 39.4947 275.773 39.068C275.923 38.9187 276.04 38.844 276.125 38.844C276.232 38.844 276.285 38.9507 276.285 39.164C276.264 39.3773 276.253 39.612 276.253 39.868C276.253 40.188 276.253 40.604 276.253 41.116C276.253 41.628 276.296 42.14 276.381 42.652C276.445 43.1853 276.595 43.6227 276.829 43.964C277.043 44.3267 277.363 44.508 277.789 44.508C278.6 44.508 279.315 44.2947 279.933 43.868C280.573 43.4627 281.149 42.9293 281.661 42.268C282.173 41.628 282.653 40.956 283.101 40.252C283.272 39.996 283.464 39.7613 283.677 39.548C283.891 39.3347 284.072 39.1107 284.221 38.876C284.392 38.62 284.52 38.3533 284.605 38.076C284.712 37.7987 284.84 37.5533 284.989 37.34C285.651 36.4227 286.195 35.4093 286.621 34.3C287.048 33.1907 287.549 32.1027 288.125 31.036C288.232 30.6947 288.392 30.3 288.605 29.852C288.84 29.2973 288.989 28.9027 289.053 28.668C289.139 28.4333 289.181 28.2733 289.181 28.188C289.181 28.0813 289.181 27.9853 289.181 27.9C288.968 28.0493 288.797 28.156 288.669 28.22C288.563 28.2627 288.435 28.3267 288.285 28.412C288.136 28.4973 287.901 28.7 287.581 29.02L287.549 29.052C287.528 29.0307 287.453 29.084 287.325 29.212C287.219 29.34 287.123 29.4253 287.037 29.468C286.909 29.5533 286.707 29.7347 286.429 30.012C286.152 30.268 285.96 30.4387 285.853 30.524C285.128 31.0573 284.52 31.516 284.029 31.9C283.539 32.284 282.952 32.6573 282.269 33.02L282.077 33.244L282.013 33.276C281.971 33.276 281.864 33.2867 281.693 33.308C281.544 33.3293 281.512 33.34 281.597 33.34H281.629C281.48 33.4253 281.331 33.4893 281.181 33.532C281.053 33.596 280.936 33.66 280.829 33.724C280.552 33.8307 280.296 33.884 280.061 33.884C279.805 33.884 279.581 33.8093 279.389 33.66C279.219 33.5107 279.133 33.276 279.133 32.956C279.133 32.8707 279.144 32.7853 279.165 32.7C279.165 32.6147 279.176 32.5293 279.197 32.444C279.389 31.74 279.699 30.908 280.125 29.948C280.573 28.988 281.171 27.964 281.917 26.876C282.664 25.788 283.592 24.7213 284.701 23.676C285.341 23.0573 286.003 22.556 286.685 22.172C287.389 21.788 288.104 21.5533 288.829 21.468C288.872 21.468 288.947 21.4467 289.053 21.404C289.16 21.3613 289.256 21.34 289.341 21.34C289.512 21.34 289.672 21.372 289.821 21.436C289.992 21.5 290.163 21.532 290.333 21.532C290.333 21.532 290.451 21.596 290.685 21.724C290.92 21.8307 291.187 21.98 291.485 22.172C291.784 22.364 292.04 22.5667 292.253 22.78C292.488 22.972 292.605 23.164 292.605 23.356C292.605 23.5693 292.52 23.7613 292.349 23.932C292.2 24.1027 292.104 24.2307 292.061 24.316C291.997 24.4013 291.891 24.444 291.741 24.444C291.421 24.444 291.24 24.284 291.197 23.964C291.197 23.7507 291.155 23.5693 291.069 23.42C291.005 23.2707 290.92 23.1427 290.813 23.036C290.771 22.9933 290.611 22.9507 290.333 22.908C290.056 22.8653 289.864 22.844 289.757 22.844C289.352 22.844 288.872 23.004 288.317 23.324C287.784 23.644 287.208 24.0813 286.589 24.636C286.312 24.8707 286.045 25.052 285.789 25.18C285.555 25.308 285.341 25.468 285.149 25.66C285.064 25.7453 284.979 25.884 284.893 26.076C284.829 26.2467 284.744 26.3853 284.637 26.492C283.869 27.3027 283.283 28.028 282.877 28.668C282.472 29.2867 282.184 29.8307 282.013 30.3C281.864 30.7693 281.736 31.196 281.629 31.58C281.629 31.7507 281.683 31.836 281.789 31.836H282.109C282.472 31.7293 282.899 31.516 283.389 31.196C283.88 30.8547 284.371 30.492 284.861 30.108C285.373 29.7027 285.811 29.3613 286.173 29.084C286.28 28.9773 286.387 28.9027 286.493 28.86C286.621 28.8173 286.717 28.764 286.781 28.7C286.888 28.6147 286.973 28.5293 287.037 28.444C287.123 28.3587 287.208 28.284 287.293 28.22C287.933 27.7293 288.403 27.3667 288.701 27.132C289.021 26.8973 289.245 26.7373 289.373 26.652C289.501 26.5453 289.608 26.4707 289.693 26.428C289.779 26.364 289.896 26.268 290.045 26.14C290.301 25.948 290.525 25.852 290.717 25.852C290.952 25.852 291.133 25.948 291.261 26.14C291.411 26.3107 291.496 26.4813 291.517 26.652C291.56 26.8227 291.581 26.9827 291.581 27.132C291.581 27.388 291.539 27.6013 291.453 27.772C291.347 27.9 291.293 28.0173 291.293 28.124C291.293 28.1667 291.304 28.2093 291.325 28.252C291.347 28.2947 291.357 28.348 291.357 28.412C291.357 28.476 291.336 28.572 291.293 28.7C291.251 28.8067 291.155 28.9773 291.005 29.212V29.18C290.899 29.3933 290.824 29.5533 290.781 29.66C290.739 29.7453 290.664 29.8733 290.557 30.044C290.387 30.5773 290.152 31.0893 289.853 31.58C289.555 32.0707 289.224 32.6253 288.861 33.244C288.584 33.9693 288.285 34.684 287.965 35.388C287.645 36.1133 287.24 36.828 286.749 37.532C286.259 38.2147 285.704 39.004 285.085 39.9C284.488 40.8173 283.816 41.692 283.069 42.524C282.344 43.3773 281.533 44.0813 280.637 44.636C279.763 45.1907 278.813 45.468 277.789 45.468ZM298.489 33.5C298.297 33.436 298.201 33.212 298.201 32.828C298.201 32.5933 298.233 32.3267 298.297 32.028C298.382 31.7293 298.499 31.3773 298.649 30.972V31.068C298.691 31.068 298.734 30.9933 298.777 30.844C298.819 30.6947 298.83 30.6093 298.809 30.588C298.83 30.46 298.915 30.3213 299.065 30.172C299.235 30.0013 299.31 29.9053 299.289 29.884V29.852C299.331 29.7667 299.331 29.7133 299.289 29.692C299.246 29.6707 299.257 29.5853 299.321 29.436C299.555 28.9453 299.747 28.6147 299.897 28.444C300.046 28.252 300.206 27.9853 300.377 27.644V27.708C300.398 27.708 300.419 27.6227 300.441 27.452C300.483 27.2813 300.537 27.1427 300.601 27.036V27.1C300.622 27.0147 300.665 26.94 300.729 26.876C300.814 26.7907 300.867 26.7373 300.889 26.716C301.081 26.3747 301.209 26.1187 301.273 25.948C301.358 25.7773 301.443 25.6173 301.529 25.468C301.635 25.2973 301.806 25.0627 302.041 24.764H302.009C302.094 24.6573 302.211 24.476 302.361 24.22C302.531 23.964 302.681 23.7507 302.809 23.58C302.958 23.388 303.033 23.3347 303.033 23.42V23.452C303.033 23.516 303.118 23.42 303.289 23.164C303.459 22.908 303.662 22.5987 303.897 22.236C304.131 21.852 304.345 21.5107 304.537 21.212C304.729 20.892 304.846 20.7 304.889 20.636V20.668C304.931 20.604 305.017 20.4653 305.145 20.252C305.294 20.0173 305.379 19.8893 305.401 19.868H305.369C305.582 19.5267 305.721 19.2707 305.785 19.1C305.87 18.908 305.955 18.7267 306.041 18.556C306.147 18.364 306.329 18.108 306.585 17.788L307.705 16.348C307.811 16.2413 307.939 16.06 308.089 15.804C308.259 15.5267 308.43 15.3453 308.601 15.26C308.899 15.1107 309.262 14.972 309.689 14.844C310.137 14.716 310.531 14.652 310.873 14.652C311.107 14.652 311.299 14.6947 311.449 14.78C311.619 14.844 311.715 14.9827 311.737 15.196C311.715 15.516 311.598 15.8893 311.385 16.316C311.171 16.7213 310.851 17.1267 310.425 17.532C310.169 17.7453 309.859 17.8947 309.497 17.98C309.134 18.044 308.878 18.1933 308.729 18.428H308.761C308.526 18.7693 308.227 19.1747 307.865 19.644C307.523 20.092 307.267 20.4333 307.097 20.668C306.926 20.8813 306.734 21.0733 306.521 21.244C306.307 21.4147 306.137 21.6067 306.009 21.82C305.689 22.2467 305.454 22.6093 305.305 22.908C305.155 23.2067 305.006 23.5053 304.857 23.804C304.729 24.0813 304.494 24.4013 304.153 24.764C303.534 25.4253 303.118 25.9693 302.905 26.396C302.691 26.8013 302.563 27.228 302.521 27.676C302.606 27.5693 302.702 27.4733 302.809 27.388C303.278 26.9187 303.929 26.4067 304.761 25.852C305.614 25.2973 306.489 24.7533 307.385 24.22H307.449C307.47 24.22 307.577 24.1667 307.769 24.06C307.982 23.9533 308.206 23.8253 308.441 23.676C308.697 23.5053 308.91 23.3667 309.081 23.26C309.251 23.132 309.305 23.068 309.241 23.068H309.209C309.443 22.9187 309.849 22.748 310.425 22.556C311.385 22.236 312.217 22.076 312.921 22.076C313.39 22.076 313.731 22.1507 313.945 22.3C314.137 22.492 314.233 22.7587 314.233 23.1C314.233 23.356 314.169 23.6653 314.041 24.028V23.964C314.019 23.964 313.977 24.0493 313.913 24.22C313.849 24.3693 313.774 24.4973 313.689 24.604C313.667 24.6893 313.593 24.828 313.465 25.02C313.337 25.1907 313.273 25.276 313.273 25.276V25.244C313.166 25.5 313.059 25.692 312.953 25.82C312.846 25.9267 312.718 26.076 312.569 26.268C312.377 26.524 312.121 26.8973 311.801 27.388C311.502 27.8787 311.203 28.3907 310.905 28.924C310.627 29.4573 310.435 29.9587 310.329 30.428C310.307 30.5773 310.211 30.7693 310.041 31.004C309.891 31.2387 309.827 31.4093 309.849 31.516V31.548C309.849 31.5907 309.891 31.644 309.977 31.708C310.062 31.772 310.115 31.8253 310.137 31.868C310.201 31.9533 310.233 32.06 310.233 32.188C310.233 32.38 310.147 32.572 309.977 32.764C309.806 32.956 309.529 33.052 309.145 33.052C308.867 33.052 308.686 32.988 308.601 32.86C308.537 32.732 308.451 32.5933 308.345 32.444V32.124L308.217 32.156H308.153C308.067 32.156 307.993 32.1027 307.929 31.996V31.964C307.929 31.8787 307.907 31.7613 307.865 31.612C307.843 31.4413 307.833 31.3133 307.833 31.228C307.833 31.0787 307.897 30.8547 308.025 30.556C308.153 30.2573 308.291 29.9587 308.441 29.66C308.59 29.34 308.697 29.1053 308.761 28.956C308.846 28.7 309.059 28.348 309.401 27.9C309.742 27.452 310.105 26.9933 310.489 26.524C310.873 26.0333 311.161 25.628 311.353 25.308C311.459 25.116 311.534 24.9453 311.577 24.796C311.619 24.6253 311.641 24.476 311.641 24.348C311.641 24.1133 311.566 23.9427 311.417 23.836C311.289 23.708 311.118 23.6333 310.905 23.612C310.819 23.612 310.67 23.6333 310.457 23.676C310.265 23.6973 310.062 23.7507 309.849 23.836C309.763 23.8573 309.593 23.9427 309.337 24.092C309.102 24.2413 308.878 24.38 308.665 24.508C308.473 24.636 308.409 24.7 308.473 24.7H308.505C308.334 24.8067 308.174 24.9027 308.025 24.988C307.897 25.052 307.726 25.1587 307.513 25.308C307.449 25.372 307.278 25.4893 307.001 25.66C306.745 25.8307 306.478 26.0013 306.201 26.172C305.945 26.3427 305.763 26.46 305.657 26.524C304.611 27.2707 303.609 28.0813 302.649 28.956C301.689 29.8093 300.867 30.7053 300.185 31.644C300.099 31.7507 300.035 31.9 299.993 32.092C299.95 32.284 299.897 32.444 299.833 32.572C299.747 32.7213 299.662 32.828 299.577 32.892C299.491 32.9347 299.427 32.9773 299.385 33.02C299.214 33.2333 299.043 33.372 298.873 33.436C298.723 33.4787 298.595 33.5 298.489 33.5ZM321.112 33.724C320.92 33.724 320.792 33.6387 320.728 33.468C320.664 33.2547 320.568 33.0413 320.44 32.828C320.333 32.5933 320.312 32.2733 320.376 31.868C320.376 31.868 320.419 31.7507 320.504 31.516C320.589 31.26 320.675 31.0253 320.76 30.812C320.867 30.5773 320.973 30.332 321.08 30.076C321.187 29.82 321.304 29.4573 321.432 28.988C321.517 28.7747 321.624 28.444 321.752 27.996C321.901 27.548 322.083 27.1427 322.296 26.78V26.812C322.616 26.236 322.947 25.6707 323.288 25.116C323.651 24.54 324.013 23.9747 324.376 23.42C324.269 23.5053 324.12 23.5693 323.928 23.612C323.693 23.6973 323.437 23.7933 323.16 23.9C322.883 23.9853 322.648 24.028 322.456 24.028C322.179 24.028 321.987 23.9213 321.88 23.708C321.795 23.4947 321.752 23.388 321.752 23.388V23.356C321.752 23.1213 321.752 22.876 321.752 22.62C321.773 22.3427 321.944 22.108 322.264 21.916H322.296C322.339 21.916 322.403 21.9267 322.488 21.948C322.595 21.9693 322.659 21.98 322.68 21.98C322.765 21.9373 322.872 21.8733 323 21.788C323.128 21.7027 323.267 21.66 323.416 21.66H323.448C323.811 21.66 324.195 21.6493 324.6 21.628C325.005 21.6067 325.347 21.564 325.624 21.5C325.752 21.3293 325.869 21.1693 325.976 21.02C326.083 20.8493 326.125 20.7427 326.104 20.7C326.125 20.5933 326.2 20.444 326.328 20.252C326.477 20.0387 326.584 19.8893 326.648 19.804C326.691 19.6973 326.776 19.58 326.904 19.452C327.053 19.3027 327.128 19.2067 327.128 19.164V19.132C327.149 19.0893 327.16 19.0147 327.16 18.908V18.652C327.16 18.5453 327.171 18.4387 327.192 18.332C327.235 18.204 327.299 18.0973 327.384 18.012C327.533 17.8627 327.651 17.6813 327.736 17.468C327.843 17.2547 328.035 17.0627 328.312 16.892C328.504 16.764 328.685 16.7 328.856 16.7C329.155 16.7 329.379 16.828 329.528 17.084C329.677 17.3187 329.795 17.5107 329.88 17.66C329.901 17.7453 330.008 17.8307 330.2 17.916C330.413 17.98 330.52 18.108 330.52 18.3C330.52 18.4707 330.392 18.6733 330.136 18.908C330.051 19.0147 329.901 19.1853 329.688 19.42C329.475 19.6333 329.283 19.8253 329.112 19.996C328.963 20.1453 328.696 20.4973 328.312 21.052C328.653 21.0307 329.005 20.9773 329.368 20.892C329.731 20.8067 330.104 20.764 330.488 20.764C330.595 20.7853 330.776 20.764 331.032 20.7C331.288 20.6147 331.523 20.572 331.736 20.572C331.821 20.572 331.885 20.636 331.928 20.764C331.992 20.8707 332.035 20.956 332.056 21.02C331.971 21.148 331.789 21.2653 331.512 21.372C331.256 21.4787 331.064 21.5427 330.936 21.564C330.851 21.564 330.627 21.596 330.264 21.66C329.901 21.724 329.528 21.7987 329.144 21.884C328.781 21.948 328.525 21.98 328.376 21.98C328.248 21.9587 328.12 22.0333 327.992 22.204C327.864 22.3533 327.715 22.4387 327.544 22.46C327.416 22.6307 327.277 22.7587 327.128 22.844C327 22.908 326.883 23.0147 326.776 23.164C326.499 23.5693 326.264 23.9213 326.072 24.22C325.88 24.4973 325.741 24.6893 325.656 24.796C325.549 24.924 325.4 25.1267 325.208 25.404C325.037 25.66 324.856 25.9267 324.664 26.204C324.472 26.4813 324.312 26.684 324.184 26.812C324.099 26.94 323.96 27.1533 323.768 27.452C323.576 27.7293 323.416 27.932 323.288 28.06C323.181 28.2093 323.096 28.3373 323.032 28.444C322.989 28.5507 322.904 28.7213 322.776 28.956V28.924C322.669 29.116 322.552 29.372 322.424 29.692C322.296 29.9907 322.211 30.2787 322.168 30.556C322.147 30.6627 322.125 30.78 322.104 30.908C322.104 31.036 322.104 31.1533 322.104 31.26C322.104 31.5373 322.115 31.7933 322.136 32.028C322.179 32.2413 322.2 32.4333 322.2 32.604C322.2 32.9027 322.072 33.1693 321.816 33.404C321.581 33.6173 321.347 33.724 321.112 33.724ZM332.088 20.988C332.088 20.988 332.077 20.9987 332.056 21.02L332.088 20.956V20.988Z" fill="url(#paint0_linear_53_3685)"/>
<defs>
<linearGradient id="paint0_linear_53_3685" x1="164" y1="0.5" x2="164" y2="48.5" gradientUnits="userSpaceOnUse">
<stop stop-color="#E7275A"/>
<stop offset="1" stop-color="#F8B01E"/>
</linearGradient>
</defs>
</svg>
