<svg width="302" height="141" viewBox="0 0 302 141" fill="none" xmlns="http://www.w3.org/2000/svg">
<path fill-rule="evenodd" clip-rule="evenodd" d="M168.407 126.185C217.695 126.969 264.193 122.42 282.847 110.459C306.336 95.3973 313.729 76.1077 265.259 64.0806C212.182 50.9104 136.394 51.2041 80.7221 60.305C23.617 69.6402 -16.4397 87.5256 8.27104 106.091C30.4349 122.744 105.88 125.191 168.407 126.185Z" fill="#FFD37D" fill-opacity="0.32"/>
<path fill-rule="evenodd" clip-rule="evenodd" d="M168.407 136.185C217.695 136.969 264.193 132.42 282.847 120.459C306.336 105.397 313.729 86.1077 265.259 74.0806C212.182 60.9104 136.394 61.2041 80.7221 70.305C23.617 79.6402 -16.4397 97.5256 8.27104 116.091C30.4349 132.744 105.88 135.191 168.407 136.185Z" fill="#FFD37D" fill-opacity="0.4"/>
<path d="M98.7965 49.9141H203.958C204.753 49.9141 205.263 49.0687 204.893 48.3654L196.653 32.7113C196.471 32.3633 196.111 32.1465 195.718 32.1465H169.824C168.502 34.6022 166.703 36.7621 164.552 38.505H176.224C176.91 38.505 177.466 39.0626 177.466 39.7492V42.3114C177.466 42.998 176.91 43.5549 176.224 43.5549H126.53C125.844 43.5549 125.286 42.998 125.286 42.3114V39.7492C125.286 39.0626 125.844 38.505 126.53 38.505H138.2C136.052 36.7621 134.25 34.6022 132.928 32.1465H107.037C106.644 32.1465 106.283 32.3633 106.101 32.7113L97.8613 48.3654C97.4909 49.0687 98.0015 49.9141 98.7965 49.9141Z" fill="#FE8C43"/>
<path d="M154.198 26.0652C153.869 25.4403 153.213 25.0662 152.567 24.7819C151.361 24.2527 150.078 23.925 148.849 23.4443C147.624 22.9694 146.42 22.3132 145.601 21.2866C145.339 20.9553 145.12 20.5927 144.95 20.2092C144.209 18.5337 144.361 16.463 145.159 14.8324C145.548 14.032 146.214 13.3454 146.944 12.8422C147.325 12.5768 147.737 12.3579 148.167 12.1897C148.272 12.1469 149.455 11.8214 149.455 11.8533C149.457 10.9477 149.457 10.0443 149.459 9.14311H153.291C153.297 10.0334 153.3 10.9238 153.306 11.8156C155.695 12.223 157.767 14.1103 158.395 16.4521C157.195 16.919 155.99 17.3867 154.788 17.8507C154.313 16.3093 152.764 15.1674 151.15 15.1724C150.342 15.1724 149.513 15.4552 148.96 16.0439C148.406 16.6334 148.18 17.5476 148.503 18.2886C148.833 19.0383 149.618 19.4704 150.379 19.7807C152.102 20.484 154.02 20.8653 155.573 21.8362C155.895 22.0384 156.199 22.2646 156.486 22.5242C158.107 24.004 158.732 26.4691 158.058 28.5579C157.551 30.1305 156.343 31.4377 154.855 32.1468C154.365 32.3824 153.843 32.5506 153.308 32.6441C153.303 33.5403 153.298 34.4321 153.291 35.326H149.463C149.457 34.4364 149.453 33.5454 149.448 32.6536C148.896 32.56 148.361 32.386 147.858 32.1468C146.181 31.35 144.842 29.818 144.359 28.017C145.563 27.5501 146.768 27.0825 147.971 26.6148C148.438 28.0699 149.839 29.1749 151.363 29.2894C152.233 29.3525 153.151 29.0966 153.762 28.4716C154.372 27.8488 154.602 26.8352 154.198 26.0652ZM142.152 38.5053C144.875 40.0539 148.023 40.937 151.376 40.937C154.731 40.937 157.88 40.0525 160.602 38.5053C163.307 36.9704 165.59 34.7779 167.238 32.1468C169.039 29.272 170.078 25.876 170.078 22.2349C170.078 11.9076 161.705 3.53212 151.376 3.53212C141.049 3.53212 132.674 11.9076 132.674 22.2349C132.674 25.876 133.715 29.272 135.516 32.1468C137.162 34.7779 139.448 36.9704 142.152 38.5053Z" fill="#F8B01E"/>
<path d="M171.419 85.2449C168.432 88.1716 165.461 91.1162 162.481 94.0495C162.3 94.2273 162.201 94.4004 162.201 94.6694C162.201 95.638 161.762 95.9773 160.698 95.913C159.017 95.8108 157.332 95.7992 155.651 95.9099C154.422 95.9903 153.983 95.6787 153.983 94.5963C153.982 92.353 153.999 90.1097 153.98 87.8666C153.97 86.7949 154.324 85.9133 155.086 85.1548C157.062 83.1879 159.013 81.1963 160.977 79.2175C161.123 79.0711 161.285 78.9371 161.453 78.8145C162.429 78.1033 164.153 78.6064 164.512 79.8468C164.721 80.5718 164.657 81.3181 164.22 81.8219C163.312 82.8682 162.255 83.7838 161.253 84.7476C160.929 85.0585 160.752 85.4267 160.807 85.8711C160.855 86.2511 161.093 86.5208 161.458 86.6304C161.93 86.7708 162.33 86.6173 162.675 86.2707C164.439 84.4995 166.203 82.7282 167.979 80.97C168.25 80.7033 168.373 80.4342 168.37 80.0484C168.355 77.8697 168.387 72.8121 168.387 72.8121C168.387 71.6962 169.291 70.7922 170.407 70.7922C171.522 70.7922 172.427 71.6962 172.427 72.8121C172.427 72.8121 172.446 81.268 172.454 82.8064C172.46 83.773 172.114 84.5646 171.419 85.2449ZM141.353 72.9143C139.128 70.4405 139.527 66.4477 141.928 64.2299C144.414 61.9321 148.129 61.8953 150.644 64.1421C150.885 64.3568 151.122 64.5751 151.401 64.828C153.675 62.5515 156.25 61.7293 159.227 63.14C163.076 64.9643 164.069 69.9561 161.26 73.1485C160.949 73.5022 160.623 73.8424 160.297 74.1822C157.366 77.2413 154.434 80.2994 151.42 83.4431C148.035 79.9239 144.59 76.5134 141.353 72.9143ZM148.772 94.5963C148.772 95.6787 148.332 95.9903 147.103 95.9099C145.422 95.7992 143.737 95.8108 142.056 95.913C140.991 95.9773 140.553 95.638 140.553 94.6694C140.553 94.4004 140.454 94.2273 140.273 94.0495C137.293 91.1162 134.322 88.1716 131.335 85.2449C130.64 84.5646 130.294 83.773 130.3 82.8064C130.308 81.268 130.328 72.8121 130.328 72.8121C130.328 71.6962 131.232 70.7922 132.347 70.7922C133.463 70.7922 134.367 71.6962 134.367 72.8121C134.367 72.8121 134.399 77.8697 134.384 80.0484C134.381 80.4342 134.505 80.7033 134.775 80.97C136.551 82.7282 138.315 84.4995 140.079 86.2707C140.424 86.6173 140.824 86.7708 141.296 86.6304C141.661 86.5208 141.899 86.2511 141.947 85.8711C142.002 85.4267 141.825 85.0585 141.502 84.7476C140.5 83.7838 139.442 82.8682 138.534 81.8219C138.097 81.3181 138.033 80.5718 138.242 79.8468C138.6 78.6064 140.325 78.1033 141.302 78.8145C141.469 78.9371 141.631 79.0711 141.777 79.2175C143.741 81.1963 145.692 83.1879 147.668 85.1548C148.43 85.9133 148.783 86.7949 148.774 87.8666C148.754 90.1097 148.772 92.353 148.772 94.5963ZM204.697 56.0858H98.0567C97.4729 56.0858 97 56.559 97 57.1427V101.224C97 101.807 97.4729 102.281 98.0567 102.281H204.697C205.281 102.281 205.754 101.807 205.754 101.224V57.1427C205.754 56.559 205.281 56.0858 204.697 56.0858Z" fill="#FE8C43"/>
</svg>
