<svg width="40" height="41" viewBox="0 0 40 41" fill="none" xmlns="http://www.w3.org/2000/svg">
<g clip-path="url(#clip0_51_1268)">
<path d="M20.0097 0.445312C11.7851 0.445312 9.37975 0.453797 8.91219 0.492584C7.22436 0.632883 6.17409 0.898632 5.02988 1.46831C4.14809 1.90618 3.45266 2.41374 2.76631 3.12523C1.51635 4.42277 0.758798 6.01908 0.484564 7.9166C0.351235 8.83779 0.312448 9.02566 0.304569 13.731C0.301539 15.2994 0.304569 17.3636 0.304569 20.1323C0.304569 28.3502 0.31366 30.7532 0.353053 31.2198C0.489412 32.8622 0.74698 33.8955 1.29242 35.0258C2.33481 37.1894 4.32566 38.8135 6.67104 39.4196C7.48314 39.6287 8.38008 39.7438 9.53156 39.7984C10.0194 39.8196 14.992 39.8347 19.9676 39.8347C24.9432 39.8347 29.9188 39.8287 30.3946 39.8044C31.7279 39.7417 32.5021 39.6378 33.3581 39.4166C35.7186 38.8075 37.6731 37.2075 38.7367 35.0137C39.2716 33.9107 39.5428 32.838 39.6655 31.2813C39.6922 30.942 39.7034 25.5309 39.7034 20.1271C39.7034 14.7225 39.6913 9.32141 39.6646 8.98202C39.5404 7.40025 39.2691 6.33665 38.717 5.21244C38.264 4.29217 37.761 3.60491 37.0307 2.90221C35.7274 1.6574 34.1335 0.899844 32.2342 0.625913C31.3139 0.492887 31.1306 0.453494 26.4217 0.445312H20.0097Z" fill="url(#paint0_linear_51_1268)"/>
<path d="M20.0006 5.59668C16.0504 5.59668 15.5546 5.61395 14.0032 5.68456C12.4547 5.75546 11.3978 6.00061 10.473 6.36029C9.51634 6.7318 8.70485 7.22875 7.89639 8.03751C7.08733 8.84598 6.59037 9.65747 6.21766 10.6138C5.85706 11.5389 5.61161 12.5962 5.54192 14.144C5.47253 15.6955 5.45435 16.1915 5.45435 20.1417C5.45435 24.0919 5.47192 24.5861 5.54222 26.1376C5.61343 27.686 5.85858 28.7429 6.21796 29.6678C6.58977 30.6244 7.08672 31.4359 7.89548 32.2444C8.70364 33.0534 9.51513 33.5516 10.4712 33.9231C11.3966 34.2828 12.4538 34.5279 14.002 34.5988C15.5534 34.6694 16.0489 34.6867 19.9988 34.6867C23.9492 34.6867 24.4435 34.6694 25.9949 34.5988C27.5434 34.5279 28.6015 34.2828 29.527 33.9231C30.4833 33.5516 31.2936 33.0534 32.1017 32.2444C32.9108 31.4359 33.4077 30.6244 33.7805 29.6681C34.138 28.743 34.3835 27.6857 34.4562 26.1379C34.5259 24.5864 34.5441 24.0919 34.5441 20.1417C34.5441 16.1915 34.5259 15.6958 34.4562 14.1443C34.3835 12.5959 34.138 11.5389 33.7805 10.6141C33.4077 9.65747 32.9108 8.84598 32.1017 8.03751C31.2927 7.22845 30.4836 6.73149 29.526 6.36029C28.5988 6.00061 27.5413 5.75546 25.9928 5.68456C24.4413 5.61395 23.9474 5.59668 19.996 5.59668H20.0006ZM18.6958 8.21781C19.083 8.21721 19.5151 8.21781 20.0006 8.21781C23.8841 8.21781 24.3444 8.23175 25.878 8.30145C27.2961 8.36629 28.0658 8.60326 28.5785 8.80234C29.2573 9.06597 29.7412 9.38111 30.25 9.89019C30.759 10.3993 31.0742 10.8841 31.3384 11.5629C31.5375 12.075 31.7748 12.8446 31.8393 14.2628C31.909 15.7961 31.9242 16.2567 31.9242 20.1384C31.9242 24.0201 31.909 24.4807 31.8393 26.0139C31.7745 27.4321 31.5375 28.2018 31.3384 28.7139C31.0748 29.3926 30.759 29.8759 30.25 30.3847C29.7409 30.8938 29.2576 31.2089 28.5785 31.4726C28.0664 31.6726 27.2961 31.9089 25.878 31.9738C24.3447 32.0435 23.8841 32.0586 20.0006 32.0586C16.1167 32.0586 15.6565 32.0435 14.1232 31.9738C12.705 31.9083 11.9354 31.6713 11.4223 31.4723C10.7436 31.2086 10.2587 30.8935 9.74967 30.3844C9.24059 29.8753 8.92545 29.3917 8.66122 28.7126C8.46213 28.2005 8.22487 27.4309 8.16032 26.0127C8.09063 24.4794 8.07669 24.0188 8.07669 20.1347C8.07669 16.2506 8.09063 15.7924 8.16032 14.2591C8.22517 12.841 8.46213 12.0713 8.66122 11.5586C8.92485 10.8799 9.24059 10.395 9.74967 9.88594C10.2587 9.37687 10.7436 9.06173 11.4223 8.79749C11.9351 8.5975 12.705 8.36114 14.1232 8.29599C15.465 8.23539 15.9849 8.21721 18.6958 8.21418V8.21781ZM27.7646 10.6329C26.801 10.6329 26.0192 11.4138 26.0192 12.3777C26.0192 13.3413 26.801 14.1231 27.7646 14.1231C28.7282 14.1231 29.51 13.3413 29.51 12.3777C29.51 11.4141 28.7282 10.6323 27.7646 10.6323V10.6329ZM20.0006 12.6722C15.8755 12.6722 12.5311 16.0167 12.5311 20.1417C12.5311 24.2667 15.8755 27.6096 20.0006 27.6096C24.1256 27.6096 27.4688 24.2667 27.4688 20.1417C27.4688 16.0167 24.1256 12.6722 20.0006 12.6722ZM20.0006 15.2934C22.6781 15.2934 24.8489 17.4639 24.8489 20.1417C24.8489 22.8192 22.6781 24.99 20.0006 24.99C17.3228 24.99 15.1522 22.8192 15.1522 20.1417C15.1522 17.4639 17.3228 15.2934 20.0006 15.2934Z" fill="white"/>
</g>
<defs>
<linearGradient id="paint0_linear_51_1268" x1="20.0033" y1="0.445312" x2="20.0033" y2="39.8347" gradientUnits="userSpaceOnUse">
<stop stop-color="#E7275A"/>
<stop offset="1" stop-color="#F8B01E"/>
</linearGradient>
<clipPath id="clip0_51_1268">
<rect width="40" height="39.9988" fill="white" transform="translate(0 0.142578)"/>
</clipPath>
</defs>
</svg>
