<svg width="302" height="141" viewBox="0 0 302 141" fill="none" xmlns="http://www.w3.org/2000/svg">
<path fill-rule="evenodd" clip-rule="evenodd" d="M168.407 126.185C217.695 126.969 264.193 122.42 282.847 110.459C306.336 95.3973 313.729 76.1077 265.259 64.0806C212.182 50.9104 136.394 51.2041 80.7221 60.305C23.617 69.6402 -16.4397 87.5256 8.27104 106.091C30.4349 122.744 105.88 125.191 168.407 126.185Z" fill="#FFD37D" fill-opacity="0.32"/>
<path fill-rule="evenodd" clip-rule="evenodd" d="M168.407 136.185C217.695 136.969 264.193 132.42 282.847 120.459C306.336 105.397 313.729 86.1077 265.259 74.0806C212.182 60.9104 136.394 61.2041 80.7221 70.305C23.617 79.6402 -16.4397 97.5256 8.27104 116.091C30.4349 132.744 105.88 135.191 168.407 136.185Z" fill="#FFD37D" fill-opacity="0.4"/>
<path fill-rule="evenodd" clip-rule="evenodd" d="M118.407 65.1752H188.969C190.716 65.1752 192.089 66.6122 192.089 68.2988C192.089 70.048 190.716 71.4222 188.969 71.4222H118.407C116.723 71.4222 115.287 70.048 115.287 68.2988C115.287 66.6122 116.723 65.1752 118.407 65.1752ZM133.131 52.4948H188.969C190.716 52.4948 192.089 53.9315 192.089 55.6181C192.089 57.3673 190.716 58.7413 188.969 58.7413H133.131C131.446 58.7413 130.011 57.3673 130.011 55.6181C130.011 53.9315 131.446 52.4948 133.131 52.4948ZM206.751 36.2534V55.1808L186.474 77.2943C186.037 77.7939 185.6 78.6682 185.101 79.7928H118.407C116.723 79.7928 115.287 81.167 115.287 82.9163C115.287 84.6024 116.723 86.0394 118.407 86.0394H182.793C182.606 86.6018 182.419 87.0391 182.294 87.4136C180.983 90.6622 183.916 93.4101 187.036 91.8487C189.282 90.7245 195.334 88.3506 196.768 86.7269L206.751 75.795V96.7838C206.751 99.7823 204.318 102.281 201.26 102.281H104.432C101.437 102.281 98.9414 99.7823 98.9414 96.7838V36.2534H206.751Z" fill="#FE8C43"/>
<path fill-rule="evenodd" clip-rule="evenodd" d="M183.105 20.4489C184.914 20.4489 186.349 21.8859 186.349 23.6352C186.349 25.3845 184.914 26.821 183.105 26.821C181.358 26.821 179.923 25.3845 179.923 23.6352C179.923 21.8859 181.358 20.4489 183.105 20.4489ZM171.251 20.4489C172.998 20.4489 174.433 21.8859 174.433 23.6352C174.433 25.3845 172.998 26.821 171.251 26.821C169.442 26.821 168.007 25.3845 168.007 23.6352C168.007 21.8859 169.442 20.4489 171.251 20.4489ZM195.021 20.4489C196.768 20.4489 198.203 21.8859 198.203 23.6352C198.203 25.3845 196.768 26.821 195.021 26.821C193.274 26.821 191.839 25.3845 191.839 23.6352C191.839 21.8859 193.274 20.4489 195.021 20.4489ZM104.432 14.14H201.26C204.318 14.14 206.751 16.5762 206.751 19.637V33.1299H98.9414V19.637C98.9414 16.5762 101.437 14.14 104.432 14.14Z" fill="#FE8C43"/>
<path fill-rule="evenodd" clip-rule="evenodd" d="M243.684 25.1969C242.124 23.7599 239.691 23.8849 238.256 25.4469L188.781 79.418C188.095 80.1676 185.787 87.1016 185.163 88.6008C184.976 89.1631 185.1 89.2876 185.599 89.0381C187.035 88.3508 193.773 85.4149 194.459 84.6653L243.934 30.6316C245.368 29.0701 245.243 26.6334 243.684 25.1969Z" fill="#F8B01E"/>
</svg>
