<svg width="302" height="244" viewBox="0 0 302 244" fill="none" xmlns="http://www.w3.org/2000/svg">
<path fill-rule="evenodd" clip-rule="evenodd" d="M168.407 233.904C217.695 234.688 264.193 230.14 282.847 218.178C306.336 203.117 313.729 183.827 265.259 171.8C212.182 158.63 136.394 158.923 80.7221 168.024C23.617 177.359 -16.4397 195.245 8.27104 213.811C30.4349 230.463 105.88 232.91 168.407 233.904Z" fill="#FFD37D" fill-opacity="0.32"/>
<path fill-rule="evenodd" clip-rule="evenodd" d="M168.407 243.904C217.695 244.688 264.193 240.14 282.847 228.178C306.336 213.117 313.729 193.827 265.259 181.8C212.182 168.63 136.394 168.923 80.7221 178.024C23.617 187.359 -16.4397 205.245 8.27104 223.811C30.4349 240.463 105.88 242.91 168.407 243.904Z" fill="#FFD37D" fill-opacity="0.4"/>
<g clip-path="url(#clip0_17_1743)">
<path d="M183.235 91.0007C182.451 91.0007 181.668 90.6912 181.086 90.0771C180.43 89.3857 179.734 88.7084 179.017 88.0637C177.801 86.9702 177.702 85.0977 178.795 83.8814C179.889 82.6654 181.762 82.5659 182.978 83.6594C183.811 84.4086 184.62 85.1964 185.383 86.0011C186.509 87.1879 186.459 89.0624 185.273 90.1876C184.7 90.731 183.967 91.0003 183.235 91.0003L183.235 91.0007Z" fill="#3E3A39"/>
<path fill-rule="evenodd" clip-rule="evenodd" d="M68.9342 110.823C69.4962 111.314 70.1911 111.555 70.8832 111.555H70.8836C71.7078 111.555 72.5281 111.213 73.1135 110.544C76.5884 106.573 80.3362 102.802 84.2534 99.3364C89.967 94.2813 96.1275 89.784 102.564 85.9697C110.65 81.1782 119.259 77.4155 128.154 74.7862C133.214 73.2901 138.455 72.1369 143.73 71.3591C149.418 70.5204 155.299 70.0953 161.209 70.0953C174.292 70.0953 186.671 71.8327 198.003 75.2587C199.568 75.732 201.221 74.8466 201.695 73.281C202.168 71.7153 201.283 70.0624 199.717 69.5891C187.829 65.9948 174.873 64.1724 161.209 64.1724C155.01 64.1724 148.839 64.6189 142.866 65.4997C137.316 66.3181 131.801 67.5314 126.474 69.1062C117.111 71.8741 108.051 75.8334 99.5443 80.874C92.7865 84.8785 86.3214 89.5977 80.3281 94.9004C76.223 98.5325 72.2958 102.483 68.6556 106.644C67.5786 107.875 67.7033 109.746 68.9342 110.823ZM237.379 98.6022L237.375 98.5971L242 94.8973C241.893 94.7645 239.337 91.5953 234.103 87.3486C231.069 84.8869 227.735 82.5475 224.193 80.3961C219.778 77.7143 215.023 75.3161 210.059 73.2683C208.547 72.6446 206.816 73.3643 206.192 74.8764C205.569 76.3882 206.288 78.1199 207.801 78.7436C212.433 80.6547 216.869 82.8873 220.987 85.3785C224.282 87.3727 227.382 89.5364 230.2 91.8096C234.91 95.608 237.261 98.4587 237.375 98.5971L237.375 98.5972L237.378 98.6022H237.379ZM69.8249 151.535H79.7687V151.536C81.4044 151.536 82.7302 150.21 82.7302 148.574C82.7302 146.939 81.4044 145.613 79.7687 145.613H69.8241C69.5066 145.613 67.9222 145.541 67.9222 144.132V143.71C67.9222 143.425 67.9864 143.146 68.1127 142.88C69.9741 138.966 78.6083 124.855 93.3585 111.801C101.322 104.754 109.854 99.0796 118.742 94.915C115.533 100.888 113.825 107.599 113.825 114.517C113.825 120.311 114.998 125.918 117.311 131.182C118.422 133.709 119.794 136.137 121.39 138.399C122.971 140.639 124.783 142.733 126.776 144.621C127.349 145.164 128.081 145.433 128.813 145.433L128.812 145.433C129.597 145.433 130.38 145.123 130.963 144.508C132.087 143.321 132.037 141.446 130.85 140.322C129.14 138.702 127.585 136.906 126.229 134.984C124.861 133.045 123.685 130.965 122.734 128.8C120.752 124.292 119.748 119.487 119.748 114.518C119.748 105.786 122.922 97.4403 128.702 90.9322C131.604 89.9641 134.538 89.1485 137.483 88.4923C143.762 87.0931 150.25 86.3837 156.765 86.3837C166.346 86.3837 175.464 87.4547 183.866 89.5671C184.108 89.6279 184.351 89.657 184.59 89.657C185.915 89.6566 187.122 88.7605 187.46 87.4168C187.859 85.8305 186.896 84.2212 185.31 83.8225C176.436 81.5914 166.833 80.46 156.766 80.46C149.818 80.46 142.896 81.2172 136.195 82.7106C132.835 83.4596 129.489 84.4026 126.184 85.5307C126.104 85.5544 126.025 85.5815 125.947 85.612C123.292 86.526 120.665 87.5593 118.079 88.7074C108.009 93.1798 98.3708 99.457 89.434 107.366C85.7969 110.584 82.2642 114.088 78.9346 117.778C76.1285 120.888 73.4559 124.142 70.9907 127.448C66.7169 133.18 63.8886 137.973 62.7645 140.337C62.2571 141.403 62 142.539 62 143.71V144.131C62 146.268 62.8628 148.204 64.4292 149.583C65.8591 150.842 67.7756 151.535 69.8249 151.535ZM111.415 161.341C111.812 161.521 112.228 161.607 112.637 161.607L112.637 161.607C113.763 161.607 114.839 160.961 115.335 159.869C116.012 158.38 115.353 156.624 113.863 155.948C109.44 153.94 105.177 151.587 101.191 148.956C97.9989 146.848 94.9762 144.557 92.2072 142.147C87.5597 138.101 85.184 135.06 85.0859 134.933L85.086 134.933L85.0829 134.929L85.0859 134.933L80.3748 138.523C80.4815 138.662 83.0424 141.998 88.1607 146.476C91.1351 149.078 94.3813 151.549 97.8095 153.82C102.088 156.654 106.666 159.184 111.415 161.341ZM139.4 132.093C139.967 132.606 140.678 132.858 141.386 132.858V132.858C142.194 132.858 142.999 132.529 143.584 131.883C144.681 130.669 144.586 128.797 143.373 127.7C141.547 126.048 140.107 124.08 139.095 121.848C138.048 119.541 137.518 117.075 137.518 114.517C137.518 112.117 137.987 109.79 138.913 107.601C139.808 105.486 141.089 103.585 142.722 101.952C144.355 100.319 146.255 99.038 148.371 98.143C150.559 97.2175 152.886 96.748 155.286 96.748C157.844 96.748 160.31 97.2787 162.618 98.3255C164.849 99.3379 166.818 100.777 168.469 102.604C169.566 103.817 171.439 103.911 172.652 102.814C173.865 101.717 173.96 99.8445 172.863 98.6312C170.664 96.1993 168.04 94.2817 165.065 92.9318C161.984 91.5341 158.694 90.8251 155.286 90.8251C152.089 90.8251 148.986 91.4518 146.063 92.6881C143.242 93.8814 140.708 95.5894 138.533 97.7642C136.359 99.939 134.651 102.473 133.457 105.294C132.221 108.217 131.594 111.32 131.594 114.517C131.594 117.925 132.303 121.215 133.701 124.296C135.051 127.271 136.969 129.895 139.4 132.093Z" fill="#3E3A39"/>
<path fill-rule="evenodd" clip-rule="evenodd" d="M71.7518 199.532C72.3299 200.11 73.0879 200.399 73.8458 200.399C74.6038 200.399 75.3618 200.11 75.9399 199.532L231.417 44.0555C232.573 42.8988 232.573 41.024 231.417 39.8674C230.26 38.7107 228.385 38.7107 227.229 39.8674L71.7518 195.344C70.5951 196.501 70.5951 198.375 71.7518 199.532ZM156.767 170.785C144.243 170.785 132.245 168.89 121.105 165.152C119.554 164.632 118.719 162.953 119.24 161.403C119.76 159.852 121.438 159.017 122.989 159.537C133.52 163.07 144.884 164.862 156.767 164.862C163.078 164.862 169.305 164.265 175.275 163.089C180.699 162.021 186.035 160.45 191.135 158.42C199.739 154.995 207.848 150.213 215.236 144.208C221.836 138.843 226.63 133.472 229.489 129.911C231.266 127.698 232.537 125.89 233.303 124.742C232.121 122.645 229.477 118.402 225.027 113.52C221.334 109.467 217.136 105.77 212.547 102.531C206.817 98.4855 200.455 95.1445 193.639 92.6004C192.106 92.0284 191.328 90.3227 191.9 88.7903C192.472 87.258 194.177 86.4793 195.71 87.0513C203.061 89.7951 209.926 93.4104 216.111 97.7968C221.067 101.312 225.602 105.327 229.587 109.731C236.425 117.287 239.293 123.38 239.412 123.636C239.821 124.517 239.772 125.543 239.28 126.381C239.212 126.498 237.561 129.297 234.25 133.441C232.324 135.852 230.221 138.237 227.999 140.531C225.223 143.395 222.251 146.126 219.165 148.647C211.301 155.07 202.657 160.19 193.473 163.864C188.017 166.046 182.309 167.735 176.507 168.884C170.133 170.146 163.492 170.785 156.767 170.785V170.785ZM138.998 158.939C138.24 158.939 137.482 158.649 136.904 158.071C135.747 156.915 135.747 155.04 136.904 153.883L191.691 99.0962C192.847 97.9395 194.722 97.9395 195.879 99.0962C197.036 100.253 197.036 102.128 195.879 103.284L141.092 158.071C140.514 158.649 139.756 158.939 138.998 158.939ZM157.695 161.033C158.273 161.611 159.031 161.9 159.789 161.9C160.547 161.9 161.305 161.611 161.883 161.033L212.166 110.75C213.323 109.594 213.323 107.719 212.166 106.562C211.01 105.406 209.135 105.406 207.978 106.562L157.695 156.845C156.538 158.002 156.538 159.876 157.695 161.033ZM192.366 153.016C191.608 153.016 190.85 152.726 190.272 152.148C189.115 150.992 189.115 149.117 190.272 147.96L219.825 118.407C220.981 117.25 222.856 117.25 224.013 118.407C225.169 119.563 225.169 121.438 224.013 122.595L194.46 152.148C193.882 152.726 193.124 153.016 192.366 153.016Z" fill="url(#paint0_linear_17_1743)"/>
</g>
<defs>
<linearGradient id="paint0_linear_17_1743" x1="155.286" y1="38.9999" x2="155.286" y2="200.399" gradientUnits="userSpaceOnUse">
<stop stop-color="#E7275A"/>
<stop offset="1" stop-color="#F8B01E"/>
</linearGradient>
<clipPath id="clip0_17_1743">
<rect width="180" height="161.399" fill="white" transform="translate(62 39)"/>
</clipPath>
</defs>
</svg>
