<svg width="302" height="244" viewBox="0 0 302 244" fill="none" xmlns="http://www.w3.org/2000/svg">
<path fill-rule="evenodd" clip-rule="evenodd" d="M168.407 233.904C217.695 234.688 264.193 230.14 282.847 218.178C306.336 203.117 313.729 183.827 265.259 171.8C212.182 158.63 136.394 158.923 80.7221 168.024C23.617 177.359 -16.4397 195.245 8.27104 213.811C30.4349 230.463 105.88 232.91 168.407 233.904Z" fill="#FFD37D" fill-opacity="0.32"/>
<path fill-rule="evenodd" clip-rule="evenodd" d="M168.407 243.904C217.695 244.688 264.193 240.14 282.847 228.178C306.336 213.117 313.729 193.827 265.259 181.8C212.182 168.63 136.394 168.923 80.7221 178.024C23.617 187.359 -16.4397 205.245 8.27104 223.811C30.4349 240.463 105.88 242.91 168.407 243.904Z" fill="#FFD37D" fill-opacity="0.4"/>
<g clip-path="url(#clip0_17_1770)">
<path fill-rule="evenodd" clip-rule="evenodd" d="M173.103 112.586C173.103 114.043 174.284 115.224 175.741 115.224V115.224C177.198 115.224 178.379 114.043 178.379 112.587V101.438C178.379 100.045 178.109 98.6864 177.576 97.3996C177.043 96.1135 176.273 94.9616 175.288 93.9757L164.015 82.7027C163.03 81.7179 161.879 80.9485 160.592 80.4153C159.305 79.8825 157.947 79.6122 156.554 79.6122H112.431C110.974 79.6122 109.793 80.7932 109.793 82.25C109.793 83.7067 110.974 84.8877 112.431 84.8877H156.554C157.963 84.8877 159.288 85.4366 160.285 86.4332L171.557 97.7055C172.554 98.7035 173.103 100.029 173.103 101.438V112.586ZM112.431 197C106.557 197 100.857 195.849 95.4887 193.578C92.909 192.487 90.4212 191.136 88.0943 189.564C85.7903 188.007 83.6233 186.22 81.6544 184.251C79.6855 182.282 77.8976 180.115 76.3411 177.811C74.769 175.484 73.4188 172.996 72.3275 170.417C70.0565 165.049 68.9054 159.349 68.9054 153.474C68.9054 147.6 70.0565 141.899 72.3271 136.532C73.4184 133.952 74.7686 131.464 76.3408 129.137C77.8976 126.832 79.6852 124.666 81.6541 122.697C83.623 120.728 85.7899 118.94 88.094 117.383C90.4208 115.811 92.909 114.46 95.4884 113.37C100.856 111.099 106.556 109.948 112.431 109.948C113.888 109.948 115.069 111.129 115.069 112.586C115.069 114.042 113.888 115.223 112.431 115.223C107.267 115.223 102.258 116.235 97.5438 118.228C95.2779 119.187 93.0924 120.373 91.0477 121.755C89.0218 123.124 87.1163 124.696 85.385 126.427C83.6533 128.159 82.0815 130.064 80.7127 132.09C79.3312 134.135 78.1448 136.321 77.1863 138.587C75.1925 143.301 74.1813 148.31 74.1813 153.474C74.1813 158.639 75.1925 163.648 77.1863 168.362C78.1448 170.628 79.3312 172.813 80.7127 174.858C82.0815 176.884 83.6536 178.789 85.385 180.52C87.1166 182.252 89.0218 183.824 91.0477 185.193C93.0924 186.574 95.2779 187.761 97.5438 188.719C102.258 190.713 107.267 191.724 112.431 191.724C117.595 191.724 122.604 190.713 127.318 188.719C129.584 187.761 131.769 186.574 133.814 185.193C135.84 183.824 137.745 182.252 139.477 180.521C141.209 178.789 142.78 176.884 144.149 174.858C145.53 172.813 146.717 170.628 147.675 168.362C149.669 163.648 150.68 158.639 150.68 153.475C150.68 149.153 149.965 144.912 148.554 140.869C147.191 136.964 145.208 133.317 142.66 130.03C141.767 128.879 141.977 127.222 143.129 126.329C144.28 125.437 145.937 125.647 146.83 126.798C149.728 130.537 151.985 134.687 153.535 139.131C155.142 143.735 155.956 148.561 155.956 153.476C155.956 159.35 154.805 165.05 152.534 170.418C151.443 172.997 150.093 175.485 148.521 177.812C146.964 180.116 145.176 182.283 143.207 184.252C141.239 186.221 139.072 188.009 136.768 189.565C134.441 191.137 131.953 192.488 129.373 193.579C124.005 195.85 118.305 197.001 112.431 197.001L112.431 197ZM232.456 179.853H217.403C216.321 179.853 215.349 179.193 214.951 178.187L204.393 151.531C204.002 150.545 203.331 149.708 202.451 149.111C201.572 148.514 200.545 148.198 199.482 148.198H183.655C182.198 148.198 181.017 147.017 181.017 145.56C181.017 144.104 182.198 142.923 183.655 142.923H199.482C201.606 142.923 203.657 143.553 205.414 144.746C207.173 145.94 208.516 147.614 209.298 149.589L219.195 174.578H232.456C233.913 174.578 235.094 175.759 235.094 177.215C235.094 178.672 233.913 179.853 232.456 179.853Z" fill="url(#paint0_linear_17_1770)"/>
<path fill-rule="evenodd" clip-rule="evenodd" d="M115.065 134.029L115.067 131.052H181.018V160.255C179.454 160.479 177.931 160.902 176.466 161.521C174.267 162.452 172.293 163.783 170.598 165.478C168.903 167.173 167.572 169.147 166.642 171.346C165.678 173.624 165.19 176.043 165.19 178.534C165.19 181.026 165.678 183.445 166.642 185.723C167.572 187.922 168.903 189.897 170.598 191.592C172.293 193.287 174.267 194.618 176.466 195.548C178.745 196.511 181.163 197 183.655 197C186.147 197 188.565 196.511 190.844 195.548C193.043 194.618 195.017 193.287 196.712 191.592C198.407 189.897 199.738 187.922 200.668 185.723C201.632 183.445 202.12 181.026 202.12 178.534C202.12 176.043 201.632 173.624 200.668 171.346C199.738 169.147 198.407 167.173 196.712 165.478C195.017 163.783 193.043 162.452 190.844 161.521C189.379 160.902 187.856 160.479 186.293 160.256V131.052H194.207L194.207 131.053C195.663 131.053 196.844 129.872 196.844 128.415V123.139C196.844 121.359 196.495 119.631 195.807 118.004C195.142 116.433 194.192 115.022 192.981 113.812C191.771 112.601 190.361 111.651 188.79 110.986C187.162 110.298 185.435 109.949 183.655 109.949H115.069V51.9141C115.069 49.8002 114.246 47.8128 112.751 46.3179C111.256 44.8231 109.269 44 107.155 44H96.6035C95.1464 44 93.9661 45.1814 93.9661 46.6381C93.9661 48.0949 95.1471 49.2759 96.6039 49.2759H107.155C108.61 49.2759 109.793 50.4595 109.793 51.9141V112.545C109.793 112.559 109.793 112.572 109.793 112.586C109.793 112.6 109.793 112.614 109.793 112.628V128.34C109.793 128.364 109.792 128.388 109.792 128.412L109.789 134.03C108.072 134.261 106.4 134.718 104.794 135.397C102.457 136.386 100.359 137.8 98.5582 139.601C96.7574 141.402 95.3431 143.5 94.3547 145.836C93.3307 148.257 92.8118 150.827 92.8118 153.474C92.8118 156.121 93.3311 158.691 94.3547 161.112C95.3431 163.448 96.7574 165.546 98.5582 167.347C100.359 169.148 102.457 170.562 104.794 171.551C107.214 172.574 109.784 173.094 112.431 173.094C115.079 173.094 117.648 172.574 120.069 171.551C122.405 170.562 124.503 169.148 126.304 167.347C128.105 165.546 129.52 163.448 130.508 161.112C131.532 158.691 132.051 156.121 132.051 153.474C132.051 150.827 131.532 148.257 130.508 145.836C129.52 143.5 128.105 141.402 126.304 139.601C124.504 137.8 122.405 136.386 120.069 135.397C118.46 134.717 116.785 134.259 115.065 134.029ZM109.785 139.372L109.776 153.473C109.775 154.93 110.956 156.111 112.412 156.112H112.414C113.87 156.112 115.051 154.933 115.052 153.476L115.061 139.369C117.891 139.891 120.495 141.253 122.574 143.331C125.283 146.04 126.775 149.642 126.775 153.474C126.775 157.305 125.283 160.907 122.574 163.616C119.865 166.325 116.263 167.817 112.431 167.817C108.6 167.817 104.998 166.325 102.289 163.616C99.5793 160.907 98.0873 157.305 98.0873 153.474C98.0873 149.642 99.5797 146.04 102.289 143.331C104.363 141.257 106.962 139.896 109.785 139.372ZM115.069 115.224V125.777H183.59C183.612 125.776 183.634 125.776 183.655 125.776C183.677 125.776 183.699 125.776 183.72 125.777H191.569V123.139C191.569 121.024 190.746 119.037 189.251 117.542C187.757 116.047 185.769 115.224 183.656 115.224H115.069ZM174.329 169.208C176.82 166.717 180.132 165.345 183.655 165.345C187.178 165.345 190.49 166.717 192.981 169.208C195.472 171.699 196.844 175.011 196.844 178.534C196.844 182.058 195.472 185.37 192.981 187.861C190.49 190.352 187.178 191.724 183.655 191.724C180.132 191.724 176.82 190.352 174.329 187.861C171.838 185.37 170.466 182.058 170.466 178.534C170.466 175.011 171.838 171.699 174.329 169.208Z" fill="#3E3A39"/>
</g>
<defs>
<linearGradient id="paint0_linear_17_1770" x1="152" y1="79.6122" x2="152" y2="197.001" gradientUnits="userSpaceOnUse">
<stop stop-color="#E7275A"/>
<stop offset="1" stop-color="#F8B01E"/>
</linearGradient>
<clipPath id="clip0_17_1770">
<rect width="166.189" height="153" fill="white" transform="translate(68.9054 44)"/>
</clipPath>
</defs>
</svg>
