<svg width="76" height="77" viewBox="0 0 76 77" fill="none" xmlns="http://www.w3.org/2000/svg">
<g clip-path="url(#clip0_37_9201)">
<path d="M38.6256 59.7064C42.3984 60.1615 48.9602 58.885 53.5998 53.1723C61.9551 42.8659 61.0369 24.3396 51.8693 18.2404C50.0786 17.0498 45.5821 15.1265 40.1215 14.9319C38.6713 14.8804 37.2211 14.9519 35.7709 15.0034C31.1799 15.1666 29.9413 15.1437 29.4522 16.6978C6.86354 24.5571 11.875 56.5095 38.6256 59.7122V59.7064ZM27.5043 49.0423C27.5043 49.0423 27.7617 49.131 28.0849 49.2312C29.252 50.3875 30.5077 51.4579 31.8864 52.3595C30.3332 51.5123 28.8344 50.3875 27.5071 49.0423H27.5043ZM26.978 29.7833C26.9179 31.0626 25.7909 32.6082 28.0449 37.1102C29.518 40.0525 33.1393 43.4927 35.3618 44.5402C29.9127 45.9026 24.4436 35.3329 26.978 29.7833ZM31.2028 29.9636C33.4968 33.255 37.1639 36.5435 40.8853 36.1371C40.9482 37.3363 40.8624 38.3266 39.6725 38.9448C39.129 39.108 37.7588 38.7674 36.4717 37.8372C33.2594 35.164 30.9997 30.018 31.2028 29.9636ZM32.8246 26.2257C33.2308 25.9338 33.6513 25.6676 34.0889 25.43C34.435 25.7534 34.5752 25.9538 34.7754 26.26C34.129 26.1942 33.4768 26.1885 32.8275 26.2257H32.8246ZM35.5792 30.9539C35.5706 30.951 35.5735 30.9539 35.5792 30.9539V30.9539ZM37.5958 32.6883C37.7789 32.4565 37.919 32.1302 38.0191 31.8526C38.308 32.0644 39.0231 32.7141 39.7354 33.5355C38.8172 33.3466 38.3195 33.1176 37.5958 32.6883ZM36.2342 46.3491C36.6261 46.2203 37.4099 45.8797 38.2051 45.2929C39.0947 45.3674 39.9356 45.2786 40.7766 44.938C42.1238 44.9667 42.5558 44.566 42.121 44.9266C40.6507 45.9598 38.5826 46.5437 36.2371 46.3519L36.2342 46.3491ZM40.9539 55.3647C41.7291 55.067 40.9997 55.2588 42.4213 55.1013C42.0066 55.1986 41.4202 55.3217 40.9539 55.3647ZM47.4442 50.4876C46.4602 51.2146 47.1095 50.8196 48.411 48.7904C49.3492 47.9576 50.3332 46.8871 51.1112 45.9083C50.3246 47.5941 49.2577 49.028 47.4471 50.4848L47.4442 50.4876ZM54.7526 38.9191C54.2377 33.0317 55.1702 30.6648 50.2846 22.3161C54.3464 25.8679 55.3733 33.5727 54.7526 38.9191ZM50.2045 36.678C50.4562 35.7336 50.6507 34.769 50.7794 33.7959C50.6622 37.1589 49.9242 40.0725 48.7314 42.9661C47.5901 45.6135 47.3813 45.9369 45.522 47.4281C43.1078 49.2369 40.5449 50.2386 37.4556 50.0183C44.8899 48.8391 48.2394 44.0165 50.2045 36.6809V36.678ZM43.6627 34.3397C44.0117 33.8474 44.4122 32.7942 44.3063 31.5692C44.5323 32.7341 44.6296 34.231 44.5437 35.4273C44.2148 36.8584 44.415 36.5292 43.5254 34.9551C43.6084 34.3598 43.5626 34.4828 43.6627 34.3397ZM42.3155 21.5576C42.6959 21.8639 43.0592 22.1873 43.4053 22.525C42.8847 22.1415 42.3183 21.8238 41.7177 21.5777C41.4288 21.1226 40.728 20.3756 42.3155 21.5576ZM41.6547 30.7564C40.768 29.1422 39.7068 27.9115 38.0191 27.1444C37.7274 26.24 37.2783 25.3671 36.7348 24.6029C39.5094 24.6286 41.1112 27.9573 41.6547 30.7564ZM38.2737 20.7705C38.5855 20.9652 38.6599 21.0339 38.74 21.1054C37.7731 21.2342 36.7177 21.6835 36.0998 21.9154C34.5209 22.5107 35.1959 22.1415 33.9288 22.5536C35.2846 21.7751 36.6748 21.1626 38.2737 20.7705ZM24.9928 28.4696C26.855 24.3081 31.2199 21.3945 33.6513 20.5416C27.8904 23.5353 23.5826 28.7615 24.5151 35.2871C24.8098 37.3421 25.7251 39.1795 25.2846 38.2121C24.1347 35.3128 23.7543 31.5864 24.9928 28.4696Z" fill="#FFD47F"/>
<path d="M42.3011 11.7833C43.8629 11.3254 43.9773 9.38487 44.1232 7.44437C44.229 6.05911 44.1976 4.27603 43.9058 2.87361C43.9172 2.22677 44.0088 1.68584 43.4138 1.25652C42.7645 0.123135 41.6403 0.237619 41.3514 0.340654C40.4962 0.646898 40.2559 0.91021 39.7839 3.21133C38.348 4.42772 38.6598 13.014 42.304 11.7804L42.3011 11.7833Z" fill="#FFD47F"/>
<path d="M8.92882 43.3812C5.7652 43.7991 3.32527 44.0824 3.15365 45.9056C2.33271 46.2462 1.72344 46.5095 1.24861 47.0504C0.276073 48.1552 0.510626 49.6206 1.47745 50.1701C2.1382 50.545 2.79037 50.6223 3.52264 50.7082C4.12905 51.2377 4.66108 50.9944 5.10159 50.8427C7.65879 50.9572 10.688 50.4105 12.081 48.2897C12.1954 48.2897 12.3098 48.2926 12.4242 48.2954C14.0833 48.3183 14.3464 45.7854 12.6016 45.5421C12.2927 44.1368 10.9855 43.0979 8.92882 43.3841V43.3812Z" fill="#FFD47F"/>
<path d="M20.6223 71.2148C21.7121 70.837 24.1492 67.9435 24.8185 65.2388C25.6509 61.873 23.0222 59.2656 20.3963 62.8289C18.0994 65.7368 18.2567 66.2863 17.9678 67.6343C17.3614 70.4592 19.1749 71.7214 20.6194 71.2148H20.6223ZM22.3042 65.1243C22.3042 65.1243 22.2985 65.1443 22.2956 65.1529C21.9924 65.5479 22.2384 65.3132 21.7722 64.7751C22.1383 64.3372 21.7579 64.7494 22.3042 65.1243Z" fill="#FFD47F"/>
<path d="M46.2256 75.0214C46.4201 74.3602 46.2285 72.829 46.1799 72.3453C45.9653 70.2617 45.768 68.2525 44.2462 67.5685C43.6799 66.3235 42.2897 65.359 41.0855 66.9617C40.4219 67.2422 40.153 68.0837 40.5191 68.6618C41.4831 70.1816 41.1026 71.2635 41.6633 73.1438C41.403 73.9366 41.8749 74.801 42.7559 74.967C42.8017 74.9985 42.8389 75.0185 42.8732 75.0357C43.0963 75.3362 43.3652 75.6053 43.6227 75.88C44.4951 76.8102 45.9568 75.9516 46.2285 75.0214H46.2256Z" fill="#FFD47F"/>
<path d="M68.1851 62.2249C69.3264 62.8803 70.1645 62.534 70.4963 61.9301C71.2458 60.5649 70.0272 60.0697 69.9128 59.4487C69.7698 58.673 69.7727 58.404 68.926 57.4853C66.0341 54.3484 62.5587 52.3764 61.0484 52.8344C60.1874 53.0977 59.1262 54.5087 60.6851 56.0456C62.1497 57.491 66.1771 61.0801 68.1851 62.222V62.2249Z" fill="#FFD47F"/>
<path d="M63.577 31.7182C63.0392 33.8133 66.6233 34.4773 68.7829 34.7864C72.0467 35.2615 75.2303 34.6032 75.0758 32.8115C74.9843 31.724 74.581 31.5665 74.2149 31.2803C73.0993 30.4274 67.8562 30.1784 66.3888 30.2872C65.1588 30.3788 63.9116 30.4274 63.5798 31.7182H63.577ZM71.5632 30.5734C71.5632 30.5734 71.5489 30.5734 71.5432 30.5705C71.6119 30.5791 71.6662 30.5877 71.5632 30.5734Z" fill="#FFD47F"/>
<path d="M57.9964 18.9815C59.3036 20.0663 60.1874 19.3994 61.4947 18.3175C69.684 11.5401 66.8751 8.84688 63.5627 9.3506C62.8133 9.44219 62.5187 9.43361 62.2326 9.72268C61.9266 10.0289 61.8408 10.5098 62.0553 10.9133C61.1571 11.2424 60.9397 11.4628 59.0519 13.8985C57.2984 15.5442 57.3442 16.0565 57.3728 16.8922C57.4043 17.8024 57.3127 18.183 57.9964 18.9787V18.9815Z" fill="#FFD47F"/>
<path d="M21.2344 13.4405C22.8619 14.7285 23.926 13.6724 23.8945 12.954C23.7973 10.8017 20.4249 4.45929 18.2767 5.79303C17.4443 5.33795 16.672 5.3494 16.3202 6.26241C15.9941 7.1239 19.9243 13.0942 21.2315 13.4405H21.2344Z" fill="#FFD47F"/>
<path d="M6.30573 29.411C14.8269 30.9823 12.9362 26.3314 7.22964 23.9759C5.419 23.226 4.23765 23.0257 2.62152 23.6353C2.3698 23.7298 2.1896 23.8757 2.12381 24.1505C-2.47001 25.1837 1.46877 28.5152 6.30859 29.4082L6.30573 29.411ZM7.83319 26.1626C7.51568 26.0538 7.01225 25.8792 6.68616 25.7704C7.04944 25.8534 7.47278 25.988 7.83319 26.1626ZM2.04371 25.9765C1.99223 25.9336 1.93788 25.8878 1.88639 25.842C2.04944 25.7819 1.96648 25.7962 2.04371 25.9765Z" fill="#FFD47F"/>
</g>
<defs>
<clipPath id="clip0_37_9201">
<rect width="75" height="76" fill="white" transform="translate(0.081543 0.280762)"/>
</clipPath>
</defs>
</svg>
