<svg width="40" height="41" viewBox="0 0 40 41" fill="none" xmlns="http://www.w3.org/2000/svg">
<g clip-path="url(#clip0_51_1272)">
<path d="M30.9825 0.142578H9.0175C4.03727 0.142578 0 4.17985 0 9.16008V31.1251C0 36.1053 4.03727 40.1426 9.0175 40.1426H30.9825C35.9627 40.1426 40 36.1053 40 31.1251V9.16008C40 4.17985 35.9627 0.142578 30.9825 0.142578Z" fill="url(#paint0_linear_51_1272)"/>
<path fill-rule="evenodd" clip-rule="evenodd" d="M19.9964 7.43555C27.3502 7.43555 33.3327 12.2905 33.3327 18.258C33.3327 20.643 32.4064 22.798 30.4739 24.9168C27.6764 28.138 21.4202 32.0618 19.9964 32.6605C18.6108 33.2433 18.7726 32.3295 18.8364 31.969C18.8381 31.9591 18.8398 31.9496 18.8414 31.9405C18.8752 31.7405 19.0314 30.7993 19.0314 30.7993C19.0764 30.4593 19.1227 29.9305 18.9877 29.593C18.8389 29.2218 18.2477 29.0293 17.8127 28.9355C11.4102 28.0893 6.66016 23.608 6.66016 18.258C6.66016 12.2905 12.6427 7.43555 19.9964 7.43555ZM23.7301 15.3745H22.7851C22.7188 15.3745 22.6552 15.4009 22.6083 15.4477C22.5614 15.4946 22.5351 15.5582 22.5351 15.6245V19.082L19.8726 15.4858C19.8665 15.4762 19.8594 15.4674 19.8513 15.4595L19.8363 15.4445L19.8226 15.4333H19.8151L19.8013 15.4233H19.7938L19.7801 15.4158H19.7713H19.7576H19.7488H19.7338H19.7238H19.7088H19.6988H19.6851H18.7213C18.655 15.4158 18.5914 15.4421 18.5445 15.489C18.4977 15.5359 18.4713 15.5995 18.4713 15.6658V21.4858C18.4713 21.5521 18.4977 21.6157 18.5445 21.6625C18.5914 21.7094 18.655 21.7358 18.7213 21.7358H19.6676C19.7339 21.7358 19.7975 21.7094 19.8443 21.6625C19.8912 21.6157 19.9176 21.5521 19.9176 21.4858V17.9945L22.5838 21.5945C22.6013 21.62 22.6233 21.642 22.6488 21.6595L22.6638 21.6695H22.6713L22.6838 21.6758H22.6963H22.7051H22.7226C22.7447 21.6812 22.7673 21.6841 22.7901 21.6845H23.7301C23.7964 21.6845 23.86 21.6582 23.9068 21.6113C23.9537 21.5644 23.9801 21.5008 23.9801 21.4345V15.6295C23.9807 15.5963 23.9748 15.5632 23.9625 15.5323C23.9502 15.5014 23.9319 15.4732 23.9086 15.4495C23.8853 15.4257 23.8576 15.4069 23.8269 15.394C23.7962 15.3811 23.7633 15.3745 23.7301 15.3745ZM16.3464 15.3745H17.2914C17.4323 15.3745 17.5464 15.4887 17.5464 15.6295V21.4495C17.5464 21.5903 17.4323 21.7045 17.2914 21.7045H16.3464C16.2056 21.7045 16.0914 21.5903 16.0914 21.4495V15.6295C16.0914 15.4887 16.2056 15.3745 16.3464 15.3745ZM15.0364 21.7043C15.1027 21.7043 15.1663 21.6779 15.2132 21.6311C15.2601 21.5842 15.2864 21.5206 15.2864 21.4543V20.5093C15.2864 20.443 15.2601 20.3794 15.2132 20.3325C15.1663 20.2856 15.1027 20.2593 15.0364 20.2593H12.4902V15.6343C12.4902 15.568 12.4638 15.5044 12.4169 15.4575C12.3701 15.4106 12.3065 15.3843 12.2402 15.3843H11.2902C11.2239 15.3843 11.1603 15.4106 11.1134 15.4575C11.0665 15.5044 11.0402 15.568 11.0402 15.6343V21.4505C11.0402 21.5168 11.0665 21.5804 11.1134 21.6273C11.1603 21.6742 11.2239 21.7005 11.2902 21.7005H15.0402L15.0364 21.7043ZM28.8951 21.7045H25.1451C25.0788 21.7045 25.0152 21.6782 24.9684 21.6313C24.9215 21.5844 24.8951 21.5208 24.8951 21.4545V15.6357C24.8951 15.5694 24.9215 15.5058 24.9684 15.459C25.0152 15.4121 25.0788 15.3857 25.1451 15.3857H28.8951C28.9614 15.3857 29.025 15.4121 29.0719 15.459C29.1188 15.5058 29.1451 15.5694 29.1451 15.6357V16.582C29.1451 16.6483 29.1188 16.7119 29.0719 16.7588C29.025 16.8057 28.9614 16.832 28.8951 16.832H26.3489V17.8132H28.8951C28.9614 17.8132 29.025 17.8396 29.0719 17.8865C29.1188 17.9333 29.1451 17.9969 29.1451 18.0632V19.0182C29.1451 19.0845 29.1188 19.1481 29.0719 19.195C29.025 19.2419 28.9614 19.2682 28.8951 19.2682H26.3489V20.2507H28.8951C28.9614 20.2507 29.025 20.2771 29.0719 20.324C29.1188 20.3708 29.1451 20.4344 29.1451 20.5007V21.4457C29.1463 21.4793 29.1407 21.5128 29.1287 21.5441C29.1166 21.5755 29.0984 21.6041 29.0751 21.6282C29.0518 21.6524 29.0238 21.6716 28.9929 21.6847C28.962 21.6978 28.9287 21.7045 28.8951 21.7045Z" fill="white"/>
</g>
<defs>
<linearGradient id="paint0_linear_51_1272" x1="20" y1="0.142578" x2="20" y2="40.1426" gradientUnits="userSpaceOnUse">
<stop stop-color="#E7275A"/>
<stop offset="1" stop-color="#F8B01E"/>
</linearGradient>
<clipPath id="clip0_51_1272">
<rect width="40" height="40" fill="white" transform="translate(0 0.142578)"/>
</clipPath>
</defs>
</svg>
