<svg width="302" height="244" viewBox="0 0 302 244" fill="none" xmlns="http://www.w3.org/2000/svg">
<path fill-rule="evenodd" clip-rule="evenodd" d="M168.407 233.904C217.695 234.688 264.193 230.14 282.847 218.178C306.336 203.117 313.729 183.827 265.259 171.8C212.182 158.63 136.394 158.923 80.7221 168.024C23.617 177.359 -16.4397 195.245 8.27104 213.811C30.4349 230.463 105.88 232.91 168.407 233.904Z" fill="#FFD37D" fill-opacity="0.32"/>
<path fill-rule="evenodd" clip-rule="evenodd" d="M168.407 243.904C217.695 244.688 264.193 240.14 282.847 228.178C306.336 213.117 313.729 193.827 265.259 181.8C212.182 168.63 136.394 168.923 80.7221 178.024C23.617 187.359 -16.4397 205.245 8.27104 223.811C30.4349 240.463 105.88 242.91 168.407 243.904Z" fill="#FFD37D" fill-opacity="0.4"/>
<g clip-path="url(#clip0_17_1792)">
<path fill-rule="evenodd" clip-rule="evenodd" d="M116.974 149.179C117.501 149.731 118.208 150.01 118.916 150.01H118.917C119.582 150.01 120.248 149.764 120.767 149.27C121.839 148.25 121.88 146.555 120.858 145.484C118.826 143.356 116.533 141.45 114.041 139.819C106.799 135.081 100.843 128.54 96.816 120.905C94.7679 117.022 93.234 112.888 92.2565 108.616C91.2462 104.2 90.8313 99.6363 91.0236 95.0503C91.298 88.5005 92.8283 82.1569 95.5714 76.1955C96.8922 73.3249 98.4959 70.556 100.337 67.9656C102.163 65.3985 104.239 62.9822 106.508 60.7849C108.778 58.5875 111.26 56.5891 113.887 54.8453C116.537 53.0865 119.359 51.5696 122.275 50.3376C128.328 47.7793 134.728 46.4413 141.296 46.36C146.109 46.301 150.878 46.909 155.469 48.1683C159.913 49.3872 164.176 51.2105 168.138 53.5874C175.983 58.2936 182.43 65.0269 186.783 73.0586C187.433 74.2578 187.94 75.55 188.292 76.8989C188.606 78.1043 189.694 78.9032 190.886 78.9032C191.109 78.9032 191.337 78.8748 191.563 78.8161C192.997 78.4434 193.856 76.9812 193.483 75.55C193.023 73.7839 192.356 72.0882 191.501 70.5098C186.691 61.6351 179.568 54.1961 170.901 48.9964C166.52 46.3681 161.805 44.3518 156.89 43.0036C151.814 41.6113 146.545 40.9388 141.229 41.0044C133.962 41.0943 126.881 42.5748 120.183 45.4049C116.961 46.7666 113.843 48.4419 110.916 50.385C108.017 52.3099 105.277 54.5152 102.773 56.9399C100.268 59.3649 97.9766 62.0315 95.9618 64.8652C93.9276 67.7266 92.1554 70.7862 90.6956 73.9591C87.6598 80.5566 85.9665 87.5775 85.6629 94.8263C85.4509 99.888 85.9092 104.929 87.0257 109.808C88.1068 114.533 89.8031 119.106 92.0682 123.401C96.5179 131.837 103.099 139.063 111.099 144.299C113.248 145.705 115.225 147.347 116.974 149.179ZM136.76 190.17C143.096 195.864 151.28 199 159.804 199L159.804 199C164.453 199 168.964 198.09 173.211 196.296C177.313 194.564 180.996 192.085 184.159 188.928C187.321 185.771 189.804 182.094 191.539 177.999C193.336 173.758 194.247 169.254 194.247 164.613V148.118C194.247 146.639 193.046 145.44 191.565 145.44C190.083 145.44 188.882 146.639 188.882 148.118V164.613C188.882 168.533 188.114 172.335 186.598 175.912C185.134 179.369 183.037 182.474 180.365 185.141C177.694 187.808 174.584 189.901 171.122 191.363C167.539 192.877 163.731 193.644 159.804 193.644C152.608 193.644 145.698 190.996 140.349 186.189C135.001 181.381 131.64 174.798 130.887 167.652L130.782 166.659C130.342 162.484 129.168 158.444 127.293 154.651C126.637 153.325 125.029 152.78 123.701 153.435C122.372 154.089 121.827 155.695 122.482 157.021C124.075 160.245 125.073 163.676 125.446 167.221L125.552 168.214C126.444 176.678 130.424 184.475 136.76 190.17ZM171.447 138.745H168.765C167.136 138.745 165.555 138.427 164.065 137.797C162.628 137.191 161.337 136.322 160.23 135.216C159.122 134.111 158.252 132.822 157.644 131.387C157.014 129.899 156.694 128.321 156.694 126.696C156.694 125.07 157.014 123.491 157.644 122.003C158.252 120.568 159.121 119.28 160.229 118.174C161.337 117.068 162.628 116.199 164.065 115.592C165.555 114.963 167.136 114.644 168.765 114.644H171.236C172.137 112.988 172.903 111.231 173.519 109.405C174.286 107.132 174.823 104.747 175.115 102.316C175.292 100.848 176.627 99.8003 178.098 99.9766C179.569 100.153 180.618 101.486 180.442 102.955C180.106 105.749 179.487 108.494 178.603 111.115C177.699 113.795 176.514 116.35 175.082 118.709C174.596 119.511 173.726 120 172.788 120H168.765C165.067 120 162.059 123.003 162.059 126.695C162.059 130.386 165.067 133.389 168.765 133.389H171.447C172.928 133.389 174.129 134.588 174.129 136.067C174.129 137.546 172.928 138.745 171.447 138.745V138.745ZM103.048 97.2375C103.048 98.7165 104.249 99.9153 105.73 99.9153H105.731C107.212 99.9153 108.413 98.7165 108.413 97.2375C108.413 92.8887 109.239 88.6503 110.868 84.6395C112.554 80.4885 115.032 76.763 118.233 73.5668C121.434 70.3706 125.166 67.8964 129.323 66.2134C133.34 64.5873 137.585 63.7625 141.942 63.7625C146.298 63.7625 150.543 64.5873 154.56 66.2134C158.718 67.8968 162.449 70.3706 165.65 73.5668C168.646 76.5575 171.022 80.1506 172.679 84.1564C170.722 82.8449 168.624 81.7387 166.441 80.8685C164.172 79.964 161.798 79.3083 159.384 78.92C156.899 78.52 154.349 78.3998 151.806 78.5626C143.876 79.0708 136.339 82.4451 130.584 88.0642C124.826 93.6861 121.283 101.134 120.608 109.036C120.388 111.612 120.459 114.198 120.819 116.723C121.169 119.173 121.793 121.586 122.676 123.894C123.539 126.151 124.653 128.321 125.987 130.345C127.306 132.344 128.845 134.209 130.562 135.886C131.084 136.396 131.761 136.65 132.438 136.65L132.437 136.65C133.134 136.65 133.829 136.381 134.355 135.845C135.391 134.788 135.372 133.092 134.313 132.058C132.87 130.648 131.576 129.08 130.467 127.4C129.347 125.701 128.411 123.879 127.687 121.984C126.168 118.01 125.584 113.807 125.953 109.491C126.519 102.868 129.495 96.6182 134.334 91.8935C139.173 87.1698 145.499 84.3339 152.149 83.9077C156.408 83.6349 160.547 84.2858 164.451 85.8424C166.315 86.5855 168.105 87.5334 169.773 88.6601C171.425 89.7752 172.963 91.0706 174.345 92.5095C175.37 93.5772 177.068 93.6125 178.137 92.5889C178.309 92.4243 178.454 92.2423 178.573 92.0483C179.535 91.4783 180.072 90.341 179.827 89.1883C178.228 81.6768 174.638 74.9653 169.443 69.779C165.732 66.0735 161.403 63.2037 156.576 61.2497C151.916 59.3627 146.992 58.4061 141.942 58.4061C136.891 58.4061 131.968 59.3631 127.307 61.2497C122.481 63.2037 118.152 66.0735 114.439 69.7794C110.728 73.4856 107.853 77.8082 105.896 82.6269C104.006 87.2799 103.048 92.1955 103.048 97.2375ZM161.389 165.526C159.67 165.526 158.001 165.189 156.428 164.525C154.911 163.884 153.548 162.967 152.379 161.8C151.21 160.632 150.292 159.272 149.65 157.757C148.985 156.187 148.648 154.521 148.648 152.805V152.251C148.648 150.303 148.037 148.429 146.883 146.832C145.729 145.235 144.112 144.013 142.207 143.298C141.286 142.952 140.372 142.562 139.491 142.138C138.156 141.497 137.595 139.896 138.237 138.564C138.88 137.231 140.483 136.671 141.818 137.312C142.557 137.668 143.323 137.995 144.096 138.285C146.992 139.373 149.46 141.245 151.233 143.698C153.051 146.214 154.012 149.172 154.012 152.251V152.805C154.012 156.866 157.321 160.17 161.388 160.17C165.456 160.17 168.765 156.866 168.765 152.805V148.119C168.765 146.64 169.965 145.441 171.447 145.441C172.928 145.441 174.129 146.64 174.129 148.119V152.805C174.129 154.521 173.792 156.187 173.127 157.757C172.485 159.272 171.567 160.633 170.397 161.8C169.228 162.968 167.866 163.885 166.348 164.525C164.776 165.19 163.107 165.526 161.388 165.526L161.389 165.526Z" fill="#3E3A39"/>
<path d="M87.6244 180.924C86.9334 180.924 86.2423 180.659 85.7176 180.13C84.6755 179.079 84.6847 177.383 85.7373 176.343L214.489 49.1388C215.542 48.0984 217.24 48.1076 218.282 49.1585C219.324 50.2098 219.315 51.9052 218.262 52.9456L89.5108 180.15C88.988 180.666 88.306 180.924 87.6241 180.924H87.6244Z" fill="url(#paint0_linear_17_1792)"/>
</g>
<defs>
<linearGradient id="paint0_linear_17_1792" x1="152" y1="48.3644" x2="152" y2="180.924" gradientUnits="userSpaceOnUse">
<stop stop-color="#E7275A"/>
<stop offset="1" stop-color="#F8B01E"/>
</linearGradient>
<clipPath id="clip0_17_1792">
<rect width="134.116" height="158" fill="white" transform="translate(84.9419 41)"/>
</clipPath>
</defs>
</svg>
