<svg width="302" height="141" viewBox="0 0 302 141" fill="none" xmlns="http://www.w3.org/2000/svg">
<path fill-rule="evenodd" clip-rule="evenodd" d="M168.407 126.185C217.695 126.969 264.193 122.42 282.847 110.459C306.336 95.3973 313.729 76.1077 265.259 64.0806C212.182 50.9104 136.394 51.2041 80.7221 60.305C23.617 69.6402 -16.4397 87.5256 8.27104 106.091C30.4349 122.744 105.88 125.191 168.407 126.185Z" fill="#FFD37D" fill-opacity="0.32"/>
<path fill-rule="evenodd" clip-rule="evenodd" d="M168.407 136.185C217.695 136.969 264.193 132.42 282.847 120.459C306.336 105.397 313.729 86.1077 265.259 74.0806C212.182 60.9104 136.394 61.2041 80.7221 70.305C23.617 79.6402 -16.4397 97.5256 8.27104 116.091C30.4349 132.744 105.88 135.191 168.407 136.185Z" fill="#FFD37D" fill-opacity="0.4"/>
<path d="M183.752 82.9534C182.388 83.1891 181.502 84.2493 180.577 85.1896L177.437 88.381C176.853 88.9732 176.282 89.6471 175.62 90.15C174.534 89.0153 173.341 87.2862 171.631 87.2371C169.207 87.1676 167.239 89.9378 168.529 92.1403C169.181 93.2538 170.91 94.6493 171.846 95.5992C173.883 97.7596 175.573 99.6284 178.317 96.9519C179.863 95.4431 181.345 93.8525 182.868 92.3176C184.291 90.8841 187.518 88.3841 187.537 86.3397C187.556 84.3235 185.756 82.719 183.752 82.9534ZM175.874 71.3908C186.57 71.141 195.612 78.2033 196.12 89.306C196.568 99.0896 188.93 108.294 178.952 108.742C168.764 109.68 160.138 102.266 158.75 92.2734C157.517 83.3836 163.349 74.4383 171.999 72.0534C173.258 71.7066 174.582 71.5647 175.874 71.3908Z" fill="#F8B01E"/>
<path d="M158.472 57.6573C165.211 57.9085 174.321 63.5748 178.224 68.9863L178.105 68.9954C177.089 69.0649 176.105 68.9334 175.067 69.0504C163.864 70.3158 155.525 79.8797 156.237 91.2259C156.32 92.5424 156.646 93.8222 156.781 95.1312C153.502 95.1744 150.216 95.1312 146.938 95.1309L118.716 95.1312C117.254 95.133 115.512 95.2687 114.091 95.0576C110.471 94.5196 107.969 91.3525 107.942 87.7512C107.892 80.8955 110.279 74.7703 114.037 69.1455C119.005 62.9227 125.238 59.3772 133.077 57.6573C133.874 58.168 134.618 58.7745 135.413 59.2947C141.491 63.2752 149.307 64.2655 155.572 60.0382C156.611 59.3376 157.509 58.4549 158.472 57.6573Z" fill="#FE8C43"/>
<path d="M131.924 13.5117C132.822 12.9766 133.661 12.3265 134.541 11.7594C140.65 7.81913 148.73 7.61616 155.23 10.7304C156.638 11.4053 157.905 12.3286 159.275 13.0717L160.544 14.171C160.757 14.4705 161.118 14.7523 161.385 15.0163C164.448 18.0461 166.736 22.3206 167.281 26.5966C168.777 38.3295 162.243 53.0772 149.354 54.6656C143.714 55.3607 137.859 54.2493 133.331 50.6913C128.584 46.961 125.739 37.9229 125.002 31.8542C124.251 25.6683 126.313 19.4271 130.608 14.9354C131.055 14.4684 131.534 14.0298 131.924 13.5117Z" fill="#FE8C43"/>
</svg>
