<svg width="302" height="141" viewBox="0 0 302 141" fill="none" xmlns="http://www.w3.org/2000/svg">
<path fill-rule="evenodd" clip-rule="evenodd" d="M168.407 126.185C217.695 126.969 264.193 122.42 282.847 110.459C306.336 95.3973 313.729 76.1077 265.259 64.0806C212.182 50.9104 136.394 51.2041 80.7221 60.305C23.617 69.6402 -16.4397 87.5256 8.27104 106.091C30.4349 122.744 105.88 125.191 168.407 126.185Z" fill="#FFD37D" fill-opacity="0.32"/>
<path fill-rule="evenodd" clip-rule="evenodd" d="M168.407 136.185C217.695 136.969 264.193 132.42 282.847 120.459C306.336 105.397 313.729 86.1077 265.259 74.0806C212.182 60.9104 136.394 61.2041 80.7221 70.305C23.617 79.6402 -16.4397 97.5256 8.27104 116.091C30.4349 132.744 105.88 135.191 168.407 136.185Z" fill="#FFD37D" fill-opacity="0.4"/>
<path fill-rule="evenodd" clip-rule="evenodd" d="M118.406 65.1752H188.968C190.716 65.1752 192.088 66.6122 192.088 68.2988C192.088 70.048 190.716 71.4222 188.968 71.4222H118.406C116.722 71.4222 115.286 70.048 115.286 68.2988C115.286 66.6122 116.722 65.1752 118.406 65.1752ZM133.13 52.4948H188.968C190.716 52.4948 192.088 53.9315 192.088 55.6181C192.088 57.3673 190.716 58.7413 188.968 58.7413H133.13C131.445 58.7413 130.01 57.3673 130.01 55.6181C130.01 53.9315 131.445 52.4948 133.13 52.4948ZM206.75 36.2534V55.1808L186.473 77.2943C186.036 77.7939 185.599 78.6682 185.1 79.7928H118.406C116.722 79.7928 115.286 81.167 115.286 82.9163C115.286 84.6024 116.722 86.0394 118.406 86.0394H182.792C182.605 86.6018 182.418 87.0391 182.293 87.4136C180.982 90.6622 183.915 93.4101 187.035 91.8487C189.281 90.7245 195.333 88.3506 196.767 86.7269L206.75 75.795V96.7838C206.75 99.7823 204.317 102.281 201.259 102.281H104.431C101.436 102.281 98.9404 99.7823 98.9404 96.7838V36.2534H206.75Z" fill="#FE8C43"/>
<path fill-rule="evenodd" clip-rule="evenodd" d="M183.104 20.4489C184.913 20.4489 186.348 21.8859 186.348 23.6352C186.348 25.3845 184.913 26.821 183.104 26.821C181.357 26.821 179.922 25.3845 179.922 23.6352C179.922 21.8859 181.357 20.4489 183.104 20.4489ZM171.25 20.4489C172.997 20.4489 174.432 21.8859 174.432 23.6352C174.432 25.3845 172.997 26.821 171.25 26.821C169.441 26.821 168.006 25.3845 168.006 23.6352C168.006 21.8859 169.441 20.4489 171.25 20.4489ZM195.02 20.4489C196.767 20.4489 198.202 21.8859 198.202 23.6352C198.202 25.3845 196.767 26.821 195.02 26.821C193.273 26.821 191.838 25.3845 191.838 23.6352C191.838 21.8859 193.273 20.4489 195.02 20.4489ZM104.431 14.14H201.259C204.317 14.14 206.75 16.5762 206.75 19.637V33.1299H98.9404V19.637C98.9404 16.5762 101.436 14.14 104.431 14.14Z" fill="#FE8C43"/>
<path fill-rule="evenodd" clip-rule="evenodd" d="M243.684 25.1969C242.124 23.7599 239.691 23.8849 238.256 25.4469L188.781 79.418C188.095 80.1676 185.787 87.1016 185.163 88.6008C184.976 89.1631 185.1 89.2876 185.599 89.0381C187.035 88.3508 193.773 85.4149 194.459 84.6653L243.934 30.6316C245.368 29.0701 245.243 26.6334 243.684 25.1969Z" fill="#F8B01E"/>
</svg>
