<svg width="302" height="141" viewBox="0 0 302 141" fill="none" xmlns="http://www.w3.org/2000/svg">
<path fill-rule="evenodd" clip-rule="evenodd" d="M168.407 126.185C217.695 126.969 264.193 122.42 282.847 110.459C306.336 95.3973 313.729 76.1077 265.259 64.0806C212.182 50.9104 136.394 51.2041 80.7221 60.305C23.617 69.6402 -16.4397 87.5256 8.27104 106.091C30.4349 122.744 105.88 125.191 168.407 126.185Z" fill="#FFD37D" fill-opacity="0.32"/>
<path fill-rule="evenodd" clip-rule="evenodd" d="M168.407 136.185C217.695 136.969 264.193 132.42 282.847 120.459C306.336 105.397 313.729 86.1077 265.259 74.0806C212.182 60.9104 136.394 61.2041 80.7221 70.305C23.617 79.6402 -16.4397 97.5256 8.27104 116.091C30.4349 132.744 105.88 135.191 168.407 136.185Z" fill="#FFD37D" fill-opacity="0.4"/>
<path d="M198.975 52.0139H187.424V60.0639H195.956V86.2275C195.956 89.5564 193.248 92.265 189.918 92.265H189.818C186.489 92.265 183.781 89.5564 183.781 86.2275V67.9098H183.78V16.2908C183.78 13.5165 181.523 11.2596 178.749 11.2596H120.485C117.71 11.2596 115.453 13.5165 115.453 16.2908V54.312C118.001 53.5281 120.704 53.1023 123.504 53.0932V19.3099H175.73V86.2275H175.73C175.73 88.3871 176.22 90.4342 177.093 92.2654H148.717C147.315 95.2819 145.383 98.0051 143.041 100.315H189.918C197.687 100.315 204.006 93.9955 204.006 86.2275V57.0451C204.006 54.2708 201.749 52.0139 198.975 52.0139Z" fill="#FE8C43"/>
<path d="M122.132 83.656L116.845 77.3006L112.01 81.3224L119.804 90.6924C120.402 91.4115 121.288 91.8262 122.221 91.8262L122.278 91.8258C123.232 91.8086 124.126 91.3596 124.709 90.6046L135.646 76.4571L130.67 72.6109L122.132 83.656Z" fill="#F8B01E"/>
<path d="M131.63 34.4409H167.604V28.1515H131.63V34.4409Z" fill="#FE8C43"/>
<path d="M131.63 50.3262H167.604V44.0368H131.63V50.3262Z" fill="#FE8C43"/>
<path d="M148.823 66.2109H167.604V59.9216H148.823V66.2109Z" fill="#FE8C43"/>
<path d="M152.495 82.0962H167.604V75.8068H152.495V82.0962Z" fill="#FE8C43"/>
<path d="M123.595 97.2304C114.44 97.2304 106.992 89.8133 106.992 80.6958C106.992 71.5788 114.44 64.1613 123.595 64.1613C132.751 64.1613 140.199 71.5788 140.199 80.6958C140.199 89.8133 132.751 97.2304 123.595 97.2304ZM123.595 56.1109C110.001 56.1109 98.9414 67.1397 98.9414 80.6958C98.9414 94.252 110.001 105.281 123.595 105.281C137.189 105.281 148.249 94.252 148.249 80.6958C148.249 67.1397 137.189 56.1109 123.595 56.1109Z" fill="#F8B01E"/>
</svg>
