<svg width="300" height="55" viewBox="0 0 300 55" fill="none" xmlns="http://www.w3.org/2000/svg">
<g clip-path="url(#clip0_18_2003)">
<path d="M57.5441 38.8334C56.2185 32.3677 51.1527 28.3211 45.4307 28.0849C45.5882 27.9012 45.75 27.7174 45.9031 27.5337C48.0905 24.9439 49.9541 22.1485 51.1877 18.9725C52.3295 16.0284 52.8545 13.0055 52.2508 9.86015C50.969 3.16694 44.8401 -0.840233 38.3263 0.148437C35.299 0.607774 32.7486 2.04703 30.6356 4.24748C30.0188 4.89055 29.4676 5.59049 28.8814 6.26856C28.772 6.12858 28.6539 5.97109 28.5314 5.8136C25.8673 2.34888 22.4594 0.200932 18.0017 0.0171973C14.2526 -0.135915 11.0285 1.1546 8.50431 3.9325C5.52517 7.20911 4.82961 11.1419 5.58642 15.3897C6.12013 18.3732 7.37565 21.068 8.99864 23.6053C10.0267 25.2151 11.1728 26.7157 12.4065 28.133C6.97318 28.3386 2.11733 32.1577 0.489958 37.6479C-1.08491 42.9631 1.20303 49.1445 5.8664 52.0886C11.2035 55.4571 16.4749 54.7003 21.4926 51.4718C24.1655 49.7482 26.5628 47.6002 29.157 45.5835C30.0582 46.4365 31.0687 47.4865 32.1755 48.4314C35.8502 51.5636 39.7218 54.1359 44.8707 54.1972C52.3339 54.2847 59.2633 47.2546 57.5397 38.8334H57.5441ZM9.82545 12.3581C9.89107 9.28269 11.1203 6.81102 13.9289 5.38051C16.7593 3.93688 19.5547 4.25623 22.1926 5.94047C24.2312 7.23974 25.5392 9.15583 26.5497 11.3082C27.3197 12.9486 28.1421 14.5629 28.9426 16.1859C28.9601 16.2209 28.9864 16.2559 29.0476 16.3434C29.8307 14.5585 30.5481 12.8349 31.3312 11.1419C32.4861 8.64837 34.1266 6.57916 36.6551 5.34551C39.9493 3.73565 43.7814 4.45746 46.1175 7.13912C47.6355 8.8846 48.1167 10.9801 47.9461 13.2374C47.6967 16.5009 46.275 19.3181 44.4683 21.9692C42.4034 25.0008 39.853 27.595 37.097 29.9966C34.6034 32.1708 31.9524 34.1351 29.2095 35.9724C29.0039 36.108 28.8552 36.1693 28.6145 36.0118C27.5296 35.2812 26.4622 34.5331 25.4079 33.7632C25.2811 33.6538 25.1542 33.5445 25.0273 33.4351C24.0999 32.6564 23.155 31.9215 22.1794 31.2609C20.3246 29.7385 18.5485 28.1155 16.8861 26.3613C14.7644 24.1171 12.8833 21.6936 11.5053 18.9113C10.4816 16.8465 9.7642 14.6898 9.8167 12.3581H9.82545ZM16.0287 48.4839C11.4178 50.2381 6.64508 47.7446 5.43768 42.9543C4.0203 37.311 9.34424 32.0527 14.9613 33.5663C18.4304 34.4981 21.0114 36.8167 23.5881 39.144C24.2399 39.7346 24.9398 40.2683 25.7229 40.9114C22.6825 44.1442 19.8959 47.014 16.0287 48.4839ZM45.7982 48.9301C44.2364 49.0745 42.5172 48.6895 41.0167 48.147C38.2081 47.1234 34.3278 43.8074 32.3417 41.0951C35.2903 37.9366 38.2694 34.9444 42.4865 33.6232C46.7912 32.2758 51.4896 34.9662 52.4345 39.2928C53.4669 44.0174 50.4965 48.497 45.7982 48.9345V48.9301Z" fill="url(#paint0_linear_18_2003)"/>
<path d="M66.7834 30.7405C66.6434 30.5918 66.5734 30.3818 66.5734 30.1018C66.5734 29.6293 66.8883 29.3537 67.5139 29.2838C69.9681 29.0344 72.2735 28.5707 74.4215 27.9014C73.4328 27.232 72.5885 26.4227 71.8886 25.4734C69.8937 26.9127 68.6032 27.6301 68.017 27.6301C67.4745 27.6301 67.1989 27.3852 67.1989 26.8996C67.1989 26.6896 67.2646 26.5102 67.3958 26.3659C67.527 26.2215 67.7326 26.0903 68.0126 25.9809C70.0337 25.1847 71.7092 24.0823 73.0347 22.6737C72.3785 22.5905 72.0504 22.2493 72.0504 21.65V19.1389C72.0504 18.8721 72.1073 18.684 72.2298 18.5615C72.3523 18.439 72.5404 18.3821 72.8072 18.3821C73.3103 18.3821 73.5597 18.6271 73.5597 19.1127V20.9763C73.5597 21.2257 73.6997 21.3744 73.9796 21.4138C74.3559 21.4575 75.3664 21.475 77.0156 21.475C77.9518 21.475 78.5424 21.4138 78.7961 21.2869C78.8924 21.2432 78.958 21.0419 78.9842 20.6788C78.9974 20.4688 79.0717 20.307 79.203 20.1889C79.3342 20.0708 79.5048 20.0095 79.7148 20.0095C80.231 20.0095 80.4891 20.2326 80.4891 20.6788C80.4891 21.3744 80.3141 21.8994 79.9642 22.2493C79.6273 22.5687 78.6605 22.7305 77.055 22.7305H74.8764L73.9359 23.7761H80.9266C81.3597 23.7761 81.6965 23.8679 81.9415 24.0473C82.1865 24.2267 82.309 24.4541 82.309 24.7166C82.309 25.0797 82.0859 25.4341 81.6396 25.784C81.2197 26.1034 80.6597 26.484 79.9554 26.9258C79.2511 27.3633 78.6255 27.7264 78.0831 28.002C79.7979 28.5051 81.8015 28.8332 84.0894 28.9863C85.1656 29.0563 85.6993 29.3625 85.6993 29.9093C85.6993 30.5218 85.3362 30.828 84.61 30.828C83.5776 30.828 82.2302 30.6399 80.5722 30.2637C78.7567 29.8568 77.2869 29.3931 76.1582 28.8594C73.9665 29.7781 71.3811 30.4212 68.3932 30.7843L67.4089 30.9111C67.1289 30.9374 66.919 30.8805 66.779 30.7318L66.7834 30.7405ZM66.8665 20.202V18.4434C66.8665 17.7303 67.0283 17.2141 67.3477 16.886C67.667 16.5579 68.1789 16.4092 68.8744 16.4354H70.4231C70.0031 15.7092 69.7931 15.2761 69.7931 15.1361C69.7931 14.7031 70.0425 14.4887 70.5455 14.4887C70.7555 14.4887 70.9918 14.6462 71.2586 14.9612C71.5255 15.2761 71.8579 15.7661 72.2648 16.4354H75.4889L74.9858 15.6392C74.7627 15.2761 74.649 15.0487 74.649 14.948C74.649 14.5018 74.9333 14.2787 75.5064 14.2787C75.8564 14.2787 76.1276 14.4187 76.3245 14.6987L77.4137 16.4354H79.6098L80.3404 15.2018C80.8566 14.3487 81.3115 13.9244 81.7009 13.9244C82.3002 13.9244 82.6021 14.1344 82.6021 14.5543C82.6021 14.7512 82.1908 15.3768 81.3684 16.4398H83.3151C84.0282 16.4398 84.5444 16.6017 84.8725 16.921C85.2006 17.2404 85.345 17.7522 85.3012 18.4478V20.2064C85.3012 20.8363 85.0212 21.1469 84.4657 21.1469C83.9101 21.1469 83.6476 20.8319 83.6476 20.2064V18.5965C83.6476 18.1372 83.4026 17.8922 82.917 17.8659H69.2725C68.8132 17.8659 68.5682 18.1109 68.542 18.5965V20.2064C68.542 20.8363 68.262 21.1469 67.7064 21.1469C67.1508 21.1469 66.8708 20.8319 66.8708 20.2064L66.8665 20.202ZM67.7676 14.0162C67.5577 13.885 67.4527 13.6838 67.4527 13.4213C67.4527 13.1588 67.5489 12.962 67.7458 12.8351C67.9426 12.7082 68.2707 12.647 68.7301 12.647H71.8711C76.1538 12.647 79.5923 12.402 82.1865 11.9164C82.5233 11.8464 82.8077 11.8114 83.0439 11.8114C83.617 11.8114 83.9013 12.0826 83.9013 12.6295C83.9013 13.1019 83.4464 13.3907 82.5408 13.4869C78.5643 13.9769 73.9753 14.2175 68.7694 14.2175C68.3101 14.2175 67.9733 14.1519 67.7633 14.0206L67.7676 14.0162ZM68.8044 22.5643C68.6732 22.4374 68.6076 22.2931 68.6076 22.1268C68.6076 22.0175 68.6295 21.9168 68.6688 21.8337L69.6094 19.7601C69.8893 19.1477 70.1868 18.8415 70.5105 18.8415C70.983 18.8415 71.2236 19.0733 71.2236 19.5327C71.2236 19.7689 71.0136 20.3551 70.598 21.2913C70.165 22.2668 69.7625 22.7568 69.3819 22.7568C69.1325 22.7568 68.94 22.6955 68.8044 22.5687V22.5643ZM79.6754 25.3684C79.7323 25.3116 79.7585 25.2635 79.7585 25.2241C79.7585 25.1672 79.7017 25.141 79.5923 25.141H73.4416C74.1109 25.994 75.0252 26.7027 76.1845 27.2758L76.8319 26.9608C78.4637 26.1646 79.4129 25.6353 79.6798 25.3684H79.6754ZM75.887 20.0751L75.467 19.6552C75.187 19.3752 75.0471 19.1652 75.0471 19.0252C75.0471 18.579 75.2964 18.3559 75.7995 18.3559C76.0226 18.3559 76.3944 18.579 76.9107 19.0252C77.37 19.4146 77.6018 19.7208 77.6018 19.9439C77.6018 20.4207 77.3525 20.657 76.8494 20.657C76.5826 20.657 76.2632 20.4601 75.887 20.0707V20.0751ZM82.0377 21.7506C81.5784 21.0813 81.1584 20.552 80.7822 20.1582C80.3229 19.6858 80.091 19.3271 80.091 19.0908C80.091 18.9377 80.1523 18.8065 80.2791 18.7015C80.406 18.5965 80.5504 18.544 80.7166 18.544C80.9134 18.544 81.1453 18.6577 81.4165 18.8808C81.6878 19.104 82.0552 19.4758 82.5146 19.992C83.3676 20.9413 83.792 21.5538 83.792 21.8337C83.792 22.3237 83.5251 22.5643 82.9958 22.5643C82.7289 22.5643 82.4096 22.2931 82.0334 21.7462L82.0377 21.7506Z" fill="#3E3A39"/>
<path d="M88.5253 25.163C88.5253 24.6337 88.8403 24.3668 89.4659 24.3668H91.0758V20.7052H88.9409C88.2979 20.7052 87.9785 20.4471 87.9785 19.9309C87.9785 19.3885 88.2979 19.1129 88.9409 19.1129H91.0758V16.0769C89.9165 17.3586 89.1378 18.0017 88.731 18.0017C88.2279 18.0017 87.9785 17.7217 87.9785 17.1662C87.9785 16.9168 88.2716 16.5406 88.8578 16.0375C89.864 15.1713 90.7608 14.0864 91.557 12.774C91.9594 12.1047 92.3663 11.7678 92.7687 11.7678C93.3287 11.7678 93.6043 11.991 93.6043 12.4372C93.6043 12.704 93.3462 13.1852 92.83 13.8808H105.639C106.321 13.8808 106.663 14.152 106.663 14.6989C106.663 15.2457 106.343 15.495 105.7 15.495H104.108V19.1172H106.16C106.816 19.1172 107.144 19.3885 107.144 19.9353C107.144 20.4821 106.816 20.7096 106.16 20.7096H104.108V24.3712H105.656C106.282 24.3712 106.597 24.638 106.597 25.1674C106.597 25.6967 106.282 25.9636 105.656 25.9636H89.4571C88.8316 25.9636 88.5166 25.6967 88.5166 25.1674L88.5253 25.163ZM88.3985 29.9139C88.3985 29.8176 88.4554 29.6689 88.5647 29.4764C88.6741 29.2795 88.7441 29.1571 88.7747 29.1002C89.1247 28.5009 89.4222 27.8797 89.6759 27.2366C89.8421 26.8472 90.1133 26.6504 90.4939 26.6504C91.0933 26.6504 91.3951 26.8954 91.3951 27.381C91.3951 27.9409 91.0058 28.8465 90.2227 30.102C89.9559 30.5482 89.6496 30.7713 89.2997 30.7713C88.7003 30.7713 88.3985 30.4869 88.3985 29.9139ZM94.8861 19.1172V15.495H92.6463V19.1172H94.8861ZM94.8861 24.3712V20.7096H92.6463V24.3712H94.8861ZM94.5317 29.8964L94.0068 27.6566C94.0068 27.1272 94.2868 26.8604 94.8423 26.8604C95.2186 26.8604 95.5248 27.1753 95.761 27.8009C96.1372 28.8071 96.3253 29.4677 96.3253 29.787C96.3253 30.3732 96.0322 30.6663 95.446 30.6663C94.9429 30.6663 94.6367 30.4082 94.5274 29.892L94.5317 29.8964ZM98.6745 19.1172V15.495H96.4347V19.1172H98.6745ZM98.6745 24.3712V20.7096H96.4347V24.3712H98.6745ZM99.3876 29.7695C99.1907 29.1571 98.9982 28.619 98.8014 28.1596C98.6614 27.8665 98.5914 27.6434 98.5914 27.4903C98.5914 26.9741 98.8714 26.716 99.427 26.716C99.7769 26.716 100.057 26.926 100.263 27.3416C100.892 28.6408 101.203 29.4414 101.203 29.7476C101.203 30.347 100.91 30.6488 100.324 30.6488C99.8644 30.6488 99.5494 30.3557 99.3832 29.7695H99.3876ZM102.546 19.1172V15.495H100.245V19.1172H102.546ZM102.546 24.3712V20.7096H100.245V24.3712H102.546ZM104.93 30.1064C104.344 28.9777 103.933 28.2209 103.697 27.8447C103.543 27.6084 103.465 27.4247 103.465 27.3022C103.465 27.0529 103.539 26.8691 103.697 26.7597C103.85 26.6504 104.086 26.5935 104.41 26.5935C104.677 26.5935 104.961 26.8079 105.267 27.241C106.256 28.6496 106.754 29.5027 106.754 29.7958C106.754 30.4257 106.435 30.7363 105.792 30.7363C105.442 30.7363 105.158 30.5263 104.935 30.1064H104.93Z" fill="#3E3A39"/>
<path d="M110.394 29.9532V14.4669C110.394 13.8107 110.543 13.3339 110.845 13.0321C111.147 12.7302 111.61 12.5946 112.236 12.6252H114.913C116.042 12.6252 116.611 12.9971 116.611 13.7364C116.611 14.2395 116.072 15.6131 115.001 17.8573C114.664 18.5397 114.498 19.0078 114.498 19.2616C114.498 19.4715 114.686 19.804 115.062 20.2677C115.425 20.7008 115.709 21.2258 115.919 21.8382C116.099 22.3807 116.191 22.9669 116.191 23.5968C116.191 25.6748 115.25 26.7159 113.365 26.7159C112.722 26.7159 112.402 26.401 112.402 25.7754C112.402 25.4385 112.512 25.2023 112.739 25.0623C112.822 25.0055 113.172 24.9355 113.785 24.8523C114.371 24.7824 114.664 24.2793 114.664 23.3475C114.664 22.2319 114.196 21.0814 113.26 19.8959C113.106 19.699 113.028 19.4759 113.028 19.2266C113.028 19.0034 113.321 18.2423 113.907 16.9474C114.48 15.6787 114.764 14.9044 114.764 14.6244C114.764 14.3182 114.554 14.1651 114.135 14.1651H112.713C112.49 14.1651 112.315 14.2263 112.188 14.3532C112.061 14.4801 111.991 14.6551 111.978 14.8782V29.9663C111.978 30.5963 111.711 30.9069 111.182 30.9069C110.652 30.9069 110.385 30.5919 110.385 29.9663L110.394 29.9532ZM114.996 29.5988C114.996 29.3889 115.097 29.2007 115.298 29.0345C115.499 28.8683 115.797 28.7327 116.186 28.6364L117.297 28.2821V14.6376C117.297 13.9551 117.459 13.4608 117.779 13.1502C118.142 12.8133 118.645 12.6471 119.283 12.6471H125.29C125.972 12.6471 126.502 12.8133 126.882 13.1502C127.202 13.4302 127.363 13.9245 127.363 14.6376V19.6596C127.363 20.329 127.202 20.867 126.882 21.2695C126.493 21.6064 125.964 21.7639 125.29 21.7507H122.862C122.989 22.9363 123.308 24.0124 123.824 24.9748L124.096 24.7867C124.485 24.5068 124.848 24.2137 125.185 23.9074C125.522 23.6012 125.968 23.1681 126.524 22.6082C126.817 22.3151 127.062 22.1707 127.254 22.1707C127.827 22.1707 128.111 22.4725 128.111 23.0719C128.111 23.295 127.81 23.6581 127.21 24.1612C126.611 24.6642 125.723 25.2854 124.551 26.0248L124.529 26.0685C125.421 27.1709 126.567 28.0502 127.958 28.7064C128.361 28.8858 128.566 29.1657 128.566 29.542C128.566 30.1544 128.251 30.465 127.626 30.465C127.32 30.465 126.773 30.1938 125.994 29.647C123.19 27.6959 121.663 25.0623 121.41 21.7551H118.855V27.7834L121.598 26.7772L121.786 26.7334C122.245 26.7334 122.477 27.0047 122.477 27.5515C122.477 27.7746 122.398 27.9496 122.245 28.0765C121.996 28.2733 121.414 28.5445 120.508 28.8945C119.922 29.1176 119.489 29.2926 119.209 29.4195C119.012 29.5026 118.785 29.5988 118.518 29.7038C118.251 29.8088 117.945 29.9226 117.599 30.0494C116.707 30.3863 116.107 30.5525 115.801 30.5525C115.259 30.5525 114.983 30.2375 114.983 29.612L114.996 29.5988ZM125.754 15.0313C125.754 14.4582 125.469 14.1738 124.896 14.1738H119.725C119.152 14.1738 118.868 14.4582 118.868 15.0313V16.4137H125.754V15.0313ZM125.754 19.3622V17.9185H118.868V20.2196H124.896C125.469 20.2196 125.754 19.9352 125.754 19.3622Z" fill="#3E3A39"/>
<path d="M130.946 22.1706C130.946 21.9475 131.384 21.3613 132.263 20.412C133.392 19.2002 134.411 17.4591 135.317 15.2018C135.483 14.7993 135.653 14.4931 135.82 14.2918C135.986 14.0906 136.183 13.99 136.406 13.99C136.948 13.99 137.224 14.235 137.224 14.7206C137.224 15.0137 137.097 15.4686 136.848 16.0811C136.598 16.6935 136.226 17.4328 135.737 18.299C134.678 20.1976 133.628 21.6456 132.596 22.6518C132.412 22.818 132.259 22.9405 132.136 23.0193C132.009 23.098 131.887 23.133 131.76 23.133C131.217 23.133 130.942 22.8136 130.942 22.1706H130.946ZM146.769 29.7693L146.161 28.7238L145.829 28.7675L145.054 28.8725C144.805 28.8988 144.092 28.9863 142.92 29.135C141.747 29.2794 140.409 29.4237 138.899 29.5637L132.998 30.0668C132.661 30.0931 132.407 30.0231 132.232 29.8568C132.057 29.6906 131.97 29.4456 131.97 29.1263C131.97 28.8069 132.075 28.5882 132.285 28.4351C132.521 28.2819 133.107 28.2032 134.044 28.2032L134.757 28.1813C135.955 25.9371 137.001 23.3823 137.898 20.5213C138.051 20.0051 138.37 19.747 138.86 19.747C139.039 19.747 139.262 19.8301 139.529 19.9964C139.696 20.2064 139.779 20.3945 139.779 20.5607C139.779 20.6307 139.757 20.7182 139.717 20.8232C139.674 20.9282 139.647 21.0025 139.634 21.0419C138.628 23.9992 137.583 26.3571 136.493 28.1157L145.326 27.4464C144.46 26.2477 143.79 25.3816 143.318 24.8522C142.828 24.3229 142.587 23.9467 142.587 23.7236C142.587 23.2642 142.854 23.0324 143.383 23.0324C143.786 23.0324 144.495 23.6536 145.496 24.896C146.446 26.0421 147.268 27.1008 147.964 28.0763C148.524 28.8419 148.799 29.415 148.799 29.7912C148.799 30.3643 148.48 30.6486 147.837 30.6486C147.474 30.6486 147.119 30.3555 146.769 29.7693ZM147.679 22.3718C147.141 21.9606 146.516 21.3306 145.807 20.4776C144.398 18.789 143.51 17.0435 143.147 15.2455C143.02 14.5762 142.736 14.235 142.29 14.2218H140.133C139.49 14.2218 139.171 13.9419 139.171 13.3863C139.171 12.8307 139.49 12.5682 140.133 12.5682H142.771C143.777 12.5682 144.368 13.0932 144.551 14.1387C145.094 17.096 146.537 19.3271 148.882 20.8363C149.565 21.2694 149.906 21.6719 149.906 22.0481C149.906 22.678 149.626 22.9886 149.07 22.9886C148.681 22.9886 148.217 22.783 147.679 22.3718Z" fill="#3E3A39"/>
<path d="M157.837 16.7723H153.441C152.771 16.7723 152.435 16.5011 152.435 15.9542C152.435 15.4074 152.771 15.158 153.441 15.158H164.01L165.265 12.3101C165.405 11.9908 165.69 11.8289 166.123 11.8289C166.792 11.8289 167.129 12.1002 167.129 12.647C167.129 12.9663 166.696 13.8063 165.83 15.158H170.244C170.926 15.158 171.267 15.4249 171.267 15.9542C171.267 16.4836 170.926 16.7723 170.244 16.7723H165.62C166.818 18.7671 168.516 20.2895 170.703 21.335C171.162 21.5581 171.394 21.8731 171.394 22.2756C171.394 22.8749 171.092 23.1768 170.493 23.1768C170.27 23.1768 169.85 22.9755 169.237 22.5687C166.656 20.9107 164.898 18.9771 163.966 16.7723H159.635C158.8 18.5003 157.614 20.0226 156.079 21.335C155.282 22.0175 154.652 22.5249 154.184 22.853C153.716 23.1811 153.379 23.343 153.169 23.343C152.596 23.343 152.312 23.0368 152.312 22.4243C152.312 22.105 152.544 21.7944 153.003 21.5013C155.291 20.0664 156.901 18.4871 157.837 16.7723ZM171.294 29.5594C171.294 29.8262 171.215 30.0143 171.062 30.1368C170.909 30.2549 170.659 30.3162 170.309 30.3162H153.358C152.728 30.3162 152.417 30.0581 152.417 29.5419C152.417 29.2925 152.491 29.1044 152.636 28.9775C152.78 28.8507 153.021 28.7894 153.358 28.7894H154.635V23.9948C154.635 23.2993 154.81 22.7962 155.16 22.4899C155.536 22.1531 156.03 21.9869 156.647 21.9869H166.963C167.645 21.9869 168.174 22.1531 168.555 22.4899C168.892 22.783 169.058 23.2861 169.058 23.9948V28.7894H170.314C170.97 28.7894 171.298 29.0475 171.298 29.5637L171.294 29.5594ZM157.041 14.4712C156.345 13.4126 155.995 12.7564 155.995 12.5026C155.995 12.0564 156.302 11.8333 156.914 11.8333C157.124 11.8333 157.343 11.9383 157.575 12.1483C157.807 12.3583 158.025 12.6426 158.235 13.0057C158.655 13.7319 158.865 14.1694 158.865 14.3225C158.865 14.8256 158.546 15.0749 157.903 15.0749C157.61 15.0749 157.325 14.8737 157.045 14.4668L157.041 14.4712ZM156.245 28.7851H158.883V23.4917H157.085C156.525 23.4917 156.249 23.7717 156.249 24.3273V28.7851H156.245ZM163.065 23.4917H160.449V28.7851H163.065V23.4917ZM164.635 23.4917V28.7851H167.44V24.3273C167.44 23.7673 167.168 23.4917 166.621 23.4917H164.635Z" fill="#3E3A39"/>
<path d="M192.847 23.6537C192.847 23.9205 192.773 24.1174 192.629 24.2486C192.48 24.3799 192.27 24.4455 191.99 24.4455C191.684 24.4455 191.36 24.1611 191.028 23.5881L184.247 24.1961C183.998 24.2093 183.801 24.1436 183.661 23.9993C183.521 23.8505 183.451 23.6318 183.451 23.3387C183.451 22.8356 183.836 22.5863 184.601 22.5863H185.292L186.487 20.9108C185.411 20.0621 184.413 19.3884 183.495 18.9028C183.145 18.7235 182.97 18.5047 182.97 18.2554C182.97 17.6823 183.219 17.3979 183.722 17.3979C183.888 17.3979 184.225 17.5642 184.728 17.901C185.161 17.3017 185.564 16.5974 185.94 15.7881H179.619C179.172 16.6105 178.564 17.5467 177.799 18.5922L178.927 19.3447C179.763 18.2291 180.358 17.3586 180.708 16.7286C180.931 16.3087 181.233 16.0987 181.609 16.0987C181.889 16.0987 182.108 16.1643 182.27 16.2955C182.431 16.4268 182.51 16.6193 182.51 16.873C182.51 17.2623 181.088 19.1391 178.241 22.5032L180.918 22.3369L180.563 21.7288C180.537 21.672 180.485 21.5845 180.406 21.4576C180.332 21.3307 180.292 21.2345 180.292 21.1645C180.292 20.7183 180.524 20.4952 180.983 20.4952C181.15 20.4952 181.342 20.6046 181.561 20.8189C181.775 21.0376 182.046 21.3657 182.366 21.812C182.978 22.6781 183.285 23.2687 183.285 23.5924C183.285 24.0824 183.013 24.323 182.466 24.323C182.186 24.323 181.907 24.0649 181.631 23.5487L174.601 24.1961C174.351 24.2093 174.159 24.1436 174.023 23.9993C173.892 23.8505 173.827 23.6318 173.827 23.3387C173.827 22.8356 174.203 22.5863 174.955 22.5863L176.421 22.5644L178.013 20.5958C177.134 19.9002 176.254 19.314 175.375 18.8372C175.012 18.6403 174.833 18.426 174.833 18.1898C174.833 17.6167 175.082 17.3323 175.585 17.3323C175.738 17.3323 176.093 17.5073 176.653 17.8573C177.055 17.3017 177.453 16.6105 177.847 15.7837H174.728C174.155 15.7837 173.87 15.5256 173.87 15.0094C173.87 14.4932 174.155 14.2569 174.728 14.2569H179.164L178.516 13.0627C178.376 12.8133 178.306 12.6165 178.306 12.4765C178.306 12.0434 178.573 11.829 179.102 11.829C179.605 11.829 180.214 12.6383 180.922 14.2569H185.087L185.734 12.5596C185.931 12.0565 186.251 11.8071 186.697 11.8071C187.309 11.8071 187.615 12.0303 187.615 12.4765C187.615 12.6733 187.335 13.2639 186.78 14.2569H191.846C192.432 14.2569 192.725 14.5063 192.725 15.0094C192.725 15.5125 192.432 15.7837 191.846 15.7837H187.725C187.209 16.733 186.596 17.6692 185.883 18.5878L187.37 19.6334L189.129 16.7461C189.269 16.523 189.4 16.3568 189.527 16.2562C189.654 16.1512 189.794 16.0987 189.947 16.0987C190.533 16.0987 190.826 16.3655 190.826 16.8949C190.826 17.1311 190.511 17.7129 189.886 18.6316C189.256 19.5503 188.293 20.8495 186.999 22.525L190.306 22.3369L189.825 21.6239C189.628 21.3307 189.532 21.1295 189.532 21.0158C189.532 20.7927 189.602 20.6264 189.741 20.5127C189.881 20.4033 190.07 20.3465 190.306 20.3465C190.612 20.3465 191.115 20.8145 191.811 21.7507C192.506 22.7 192.856 23.3343 192.856 23.6537H192.847ZM177.046 25.7448C177.046 26.4447 176.648 27.5996 175.852 29.2182C175.585 29.7607 175.257 30.0363 174.868 30.0363C174.282 30.0363 173.988 29.7301 173.988 29.1176C173.988 28.9514 174.045 28.7764 174.155 28.5927C174.754 27.5165 175.161 26.5628 175.366 25.7273C175.423 25.4779 175.528 25.2854 175.681 25.1498C175.834 25.0186 176.018 24.953 176.224 24.953C176.766 24.953 177.042 25.2198 177.042 25.7491L177.046 25.7448ZM188.118 26.8122C188.258 26.9522 188.328 27.184 188.328 27.5034C188.328 28.7589 188.014 29.577 187.388 29.9532C186.859 30.2725 185.38 30.4344 182.952 30.4344C181.084 30.4344 179.925 30.3206 179.479 30.0975C179.045 29.8876 178.822 29.4851 178.809 28.8858V25.5567C178.809 24.8873 179.089 24.5505 179.645 24.5505C180.2 24.5505 180.48 24.8873 180.48 25.5567V28.2164C180.48 28.5533 180.677 28.7414 181.067 28.7808C181.57 28.8376 182.121 28.8639 182.72 28.8639C184.632 28.8639 185.756 28.7895 186.089 28.632C186.325 28.5052 186.478 28.1246 186.548 27.4815C186.574 27.1753 186.657 26.9522 186.797 26.8122C186.937 26.6722 187.147 26.6022 187.423 26.6022C187.742 26.6022 187.974 26.6722 188.114 26.8122H188.118ZM183.285 26.6022C183.145 26.3528 183.018 26.1385 182.908 25.9635C182.799 25.7885 182.729 25.6748 182.698 25.6179C182.589 25.421 182.532 25.2898 182.532 25.2198C182.532 24.7605 182.803 24.5286 183.35 24.5286C183.599 24.5286 183.923 24.7998 184.313 25.3467C184.715 25.8891 184.921 26.2741 184.921 26.4972C184.921 26.7772 184.855 26.9872 184.724 27.1272C184.593 27.2671 184.378 27.3371 184.085 27.3371C183.792 27.3371 183.543 27.0922 183.289 26.6066L183.285 26.6022ZM191.382 26.7072C191.745 27.1534 192.029 27.5602 192.239 27.9321C192.449 28.3039 192.554 28.5489 192.554 28.6758C192.554 28.982 192.48 29.2095 192.336 29.3538C192.191 29.5026 191.955 29.5726 191.636 29.5726C191.343 29.5726 191.106 29.4676 190.923 29.2576L189.667 27.1665L189.164 26.4753C188.915 26.1385 188.788 25.8891 188.788 25.7229C188.788 25.2067 189.059 24.9486 189.606 24.9486C189.816 24.9486 189.995 25.0273 190.148 25.1804L191.382 26.7072Z" fill="#3E3A39"/>
<path d="M214.218 23.4655C214.218 23.938 213.933 24.1786 213.36 24.1786H196.076C195.503 24.1786 195.219 23.9424 195.219 23.4655C195.219 22.9887 195.503 22.7525 196.076 22.7525H200.052L199.654 21.6019L199.611 21.3526C199.611 21.1995 199.659 21.0726 199.755 20.9764H196.387C195.857 20.9764 195.59 20.7401 195.59 20.2633C195.59 19.7865 195.857 19.5502 196.387 19.5502H203.837V18.1285H197.957C197.441 18.1285 197.183 17.8922 197.183 17.4154C197.183 16.9386 197.441 16.7242 197.957 16.7242H203.837V15.4074H196.553C196.023 15.4074 195.757 15.1712 195.757 14.6944C195.757 14.2175 196.023 14.0032 196.553 14.0032H200.192L199.877 13.1239C199.851 13.0276 199.808 12.9095 199.751 12.7695C199.694 12.6295 199.668 12.5202 199.668 12.4327C199.668 11.9996 199.961 11.7852 200.547 11.7852C201.063 11.7852 201.57 12.5245 202.074 14.0032H207.262L207.616 12.997C207.796 12.4546 207.936 12.1265 208.036 12.0127C208.163 11.8465 208.404 11.7634 208.767 11.7634C209.366 11.7634 209.668 11.9996 209.668 12.4764C209.668 12.5727 209.615 12.7608 209.51 13.032C209.405 13.3032 209.248 13.627 209.038 14.0032H212.888C213.404 14.0032 213.662 14.2394 213.662 14.7162C213.662 15.1931 213.404 15.4074 212.888 15.4074H205.481V16.7242H211.488C211.991 16.7242 212.24 16.9561 212.24 17.4154C212.24 17.8747 211.991 18.1285 211.488 18.1285H205.481V19.5502H213.015C213.544 19.5502 213.811 19.7865 213.811 20.2633C213.811 20.7401 213.544 20.9764 213.015 20.9764H209.79C209.86 21.0726 209.895 21.1951 209.895 21.3307C209.895 21.4269 209.852 21.6019 209.76 21.8557C209.668 22.105 209.554 22.4069 209.414 22.7568H213.347C213.92 22.7568 214.204 22.9931 214.204 23.4699L214.218 23.4655ZM212.459 27.1709V28.4701C212.459 29.0826 212.306 29.5725 212 29.9356C211.637 30.2419 211.133 30.395 210.495 30.395H199.007C197.611 30.5043 196.955 29.8656 197.038 28.4701V27.1709C197.038 26.4753 197.196 25.9678 197.511 25.6529C197.826 25.3379 198.325 25.211 199.007 25.2679H210.495C211.89 25.1585 212.546 25.7928 212.463 27.1709H212.459ZM210.7 28.1552V27.464C210.7 26.9346 210.434 26.6765 209.904 26.6896H199.589C199.046 26.6896 198.779 26.9477 198.793 27.464V28.1552C198.793 28.6845 199.059 28.9426 199.589 28.9295H209.904C210.447 28.9295 210.714 28.6714 210.7 28.1552ZM201.785 22.7568H207.73L208.15 21.4576C208.22 21.2476 208.312 21.0901 208.421 20.9764H201.098C201.238 21.1163 201.356 21.3395 201.452 21.6457L201.789 22.7568H201.785Z" fill="#3E3A39"/>
<path d="M224.616 26.3572C224.616 27.6696 224.419 28.772 224.03 29.6644C223.877 30.0406 223.61 30.3294 223.234 30.535C222.858 30.7362 222.381 30.8456 221.812 30.8587L220.075 30.8806C219.445 30.8806 219.135 30.6137 219.135 30.0844C219.135 29.5113 219.498 29.2401 220.224 29.2663L220.872 29.2882C221.821 29.3319 222.376 29.1919 222.547 28.8682C222.674 28.6189 222.761 28.3564 222.818 28.0852C222.875 27.8139 222.901 27.4552 222.901 27.009C222.901 26.6197 222.713 26.4228 222.337 26.4228H219.24C218.29 26.4228 217.818 26.0466 217.818 25.2941L217.879 24.7079L218.172 22.8881C218.229 22.5381 218.378 22.2756 218.623 22.0919C218.868 21.9125 219.192 21.8207 219.594 21.8207H222.608C222.984 21.8207 223.173 21.6326 223.173 21.2563V20.5651C223.173 20.1889 222.984 20.0008 222.608 20.0008H219.721C219.472 20.0008 219.275 19.9396 219.135 19.8215C218.995 19.7033 218.925 19.5327 218.925 19.3096V19.2265C218.492 19.4102 218.115 19.5459 217.796 19.6465C217.599 19.7033 217.468 19.7296 217.398 19.7296C217.061 19.7296 216.834 19.5415 216.707 19.1653C216.681 19.0953 216.663 19.0034 216.663 18.894C216.663 18.5047 216.93 18.2466 217.459 18.1197C218.601 17.8266 219.62 17.4416 220.513 16.9692C219.927 16.5361 219.384 16.1511 218.881 15.8187C218.614 15.6524 218.483 15.4512 218.483 15.2106C218.483 15.1012 218.527 14.9787 218.61 14.8562C218.75 14.6463 218.929 14.5413 219.152 14.5413C219.305 14.5413 219.458 14.5894 219.612 14.69C220.395 15.1493 221.125 15.6524 221.808 16.1949C222.547 15.6787 223.229 15.0531 223.859 14.3094C223.886 14.2832 223.903 14.2394 223.903 14.1825C223.903 14.1563 223.89 14.1257 223.859 14.0994C223.833 14.0732 223.789 14.0557 223.733 14.0557H218.92C218.277 14.0557 217.958 13.8194 217.958 13.3426C217.958 13.1195 218.041 12.9445 218.207 12.8176C218.374 12.6908 218.61 12.6295 218.92 12.6295H224.485C224.861 12.6295 225.181 12.7214 225.447 12.9008C225.714 13.0801 225.845 13.312 225.845 13.592C225.845 13.7582 225.784 13.9419 225.657 14.1344C224.428 15.9893 222.656 17.481 220.342 18.6141H223.19C223.693 18.6141 224.074 18.7453 224.332 19.0121C224.59 19.279 224.717 19.6683 224.717 20.1846V21.6282C224.717 22.1444 224.59 22.5337 224.332 22.8006C224.074 23.0674 223.693 23.1987 223.19 23.1987H220.137C219.983 23.1987 219.852 23.2424 219.738 23.3255L219.55 24.1217L219.467 24.7079V24.7517C219.467 24.9354 219.62 25.0229 219.927 25.0229H223.085C224.104 25.0229 224.612 25.4691 224.612 26.3615L224.616 26.3572ZM235.312 29.9969C235.312 30.5393 235.01 30.8149 234.411 30.8149C232.779 30.8149 231.091 30.3075 229.345 29.2882C227.433 30.3643 225.999 30.8981 225.036 30.8981C224.52 30.8981 224.262 30.6312 224.262 30.1019C224.262 29.6819 224.695 29.3844 225.561 29.2007C226.567 28.9776 227.394 28.6932 228.05 28.3433C226.961 27.4377 226.419 26.7159 226.419 26.1866C226.419 25.9897 226.489 25.841 226.629 25.736C226.769 25.631 226.965 25.5785 227.215 25.5785C227.521 25.5785 227.788 25.7447 228.011 26.0816C228.47 26.7509 228.93 27.254 229.393 27.5865C229.936 27.2102 230.439 26.7684 230.898 26.2697C231.344 25.7797 231.568 25.5172 231.568 25.4735C231.568 25.3641 231.489 25.3073 231.336 25.3073H226.104C225.544 25.3073 225.268 25.0754 225.268 24.6161C225.268 24.1567 225.548 23.9249 226.104 23.9249H232.32C233.295 23.9249 233.785 24.2092 233.785 24.7823C233.785 25.1192 233.449 25.6747 232.779 26.4578C232.136 27.184 231.463 27.8096 230.749 28.3433C231.725 28.7895 232.928 29.0738 234.35 29.2007C234.993 29.2576 235.312 29.52 235.312 29.9969ZM231.966 19.9089V21.5188C231.966 21.8382 232.132 22 232.469 22H233.138C233.527 22 233.746 21.755 233.785 21.2695C233.829 20.797 234.079 20.5564 234.538 20.5564C235.041 20.5564 235.29 20.8014 235.29 21.287C235.29 22.6693 234.717 23.3605 233.575 23.3605H231.922C231.463 23.3605 231.104 23.2643 230.846 23.0762C230.588 22.8881 230.443 22.6256 230.417 22.2931V20.3245C230.417 19.9483 230.229 19.7602 229.853 19.7602H228.47C228.12 19.7602 227.928 19.9964 227.884 20.4733C227.801 21.5057 227.477 22.315 226.922 22.9012C226.432 23.4043 225.964 23.6536 225.522 23.6536C225.019 23.6536 224.769 23.3955 224.769 22.8793C224.769 22.56 224.936 22.2931 225.272 22.0831C225.692 21.8163 225.985 21.5319 226.16 21.2257C226.335 20.9195 226.423 20.5345 226.423 20.0752C226.423 18.9334 226.93 18.3603 227.95 18.3603H230.417C231.449 18.3603 231.966 18.8765 231.966 19.9089ZM235.251 18.0147C235.404 18.1766 235.483 18.3603 235.483 18.5703C235.483 18.6972 235.461 18.8197 235.422 18.9465C235.282 19.3534 234.984 19.5546 234.52 19.5546C234.324 19.5546 234.135 19.5284 233.956 19.4715C232.364 19.0121 231.025 18.3691 229.94 17.5466C229.131 16.9342 228.378 16.2299 227.678 15.4424C226.983 14.655 226.445 13.8676 226.069 13.0889C225.972 12.892 225.924 12.7214 225.924 12.5639C225.924 12.2839 226.077 12.0827 226.384 11.9558C226.493 11.899 226.615 11.8727 226.738 11.8727C227.018 11.8727 227.267 12.0696 227.49 12.4589C227.84 13.102 228.287 13.7494 228.829 14.4056C229.358 13.8326 229.853 13.2114 230.316 12.542C230.526 12.2489 230.754 12.1046 231.008 12.1046C231.174 12.1046 231.344 12.1658 231.511 12.2927C231.747 12.4589 231.865 12.647 231.865 12.857C231.865 13.0364 231.773 13.242 231.594 13.4651C231.064 14.1344 230.434 14.7469 229.708 15.3068C230.111 15.683 230.474 15.9849 230.798 16.208C231.607 15.5955 232.302 14.9962 232.889 14.41C233.155 14.1432 233.396 14.0119 233.619 14.0119C233.799 14.0119 233.974 14.095 234.144 14.2613C234.31 14.4275 234.394 14.6025 234.394 14.7862C234.394 15.0093 234.254 15.2412 233.974 15.4774C233.374 15.9936 232.731 16.4749 232.049 16.9211C232.399 17.0611 232.801 17.1967 233.265 17.3279C233.724 17.4591 234.166 17.5773 234.582 17.6735C234.875 17.7435 235.098 17.8572 235.251 18.0191V18.0147Z" fill="#3E3A39"/>
<path d="M257.137 29.997C257.137 30.6094 256.8 30.9156 256.131 30.9156C255.628 30.9156 254.814 30.6663 253.681 30.1632C250.934 28.9646 249.027 26.961 247.968 24.1568H245.208V28.5927L249.035 27.6522C249.525 27.6522 249.766 27.919 249.766 28.4483C249.766 28.8246 249.569 29.0827 249.18 29.2227C248.02 29.6251 246.074 30.1282 243.34 30.7275L242.084 30.9156C241.817 30.9594 241.612 30.8981 241.467 30.7363C241.323 30.5744 241.249 30.3469 241.249 30.0538C241.249 29.5639 241.612 29.2708 242.338 29.1745L243.593 28.9427V24.1524H241.06C241.004 25.128 240.859 26.0948 240.623 27.0528C240.387 28.0109 240.111 28.7896 239.796 29.3976C239.481 30.0057 239.179 30.3076 238.886 30.3076C238.287 30.3076 237.985 30.0013 237.985 29.3845C237.985 29.1177 238.094 28.7414 238.322 28.2559C239.118 26.4973 239.516 22.9669 239.516 17.6648L239.472 14.6288C239.459 13.9333 239.626 13.4039 239.976 13.0496C240.325 12.6953 240.842 12.5159 241.524 12.5159H254.101C254.814 12.5159 255.33 12.669 255.659 12.9752C255.987 13.2815 256.135 13.7714 256.109 14.4407V15.5081C256.109 16.1906 255.947 16.6893 255.628 17.0043C255.309 17.3193 254.797 17.4636 254.101 17.433H252.176V19.231H255.107C255.637 19.231 255.904 19.4672 255.904 19.944C255.904 20.4209 255.637 20.6352 255.107 20.6352H252.176V22.7088H255.943C256.503 22.7088 256.779 22.9538 256.779 23.4394C256.779 23.925 256.499 24.1524 255.943 24.1524H249.6C249.963 25.0055 250.514 25.8192 251.253 26.6022C252.229 26.0598 252.951 25.6136 253.41 25.2636C254.022 24.7911 254.442 24.5505 254.666 24.5505C255.335 24.5505 255.672 24.8174 255.672 25.3467C255.672 25.8367 254.556 26.5541 252.325 27.5034C253.301 28.2165 254.482 28.7239 255.86 29.0302C256.709 29.227 257.137 29.5464 257.137 29.9926V29.997ZM241.651 19.9528C241.651 19.4803 241.918 19.2397 242.447 19.2397H244.792V17.4417H241.214L241.13 22.7176H244.792V20.644H242.447C241.918 20.644 241.651 20.4121 241.651 19.9528ZM241.214 16.02H253.664C254.136 16.02 254.381 15.8056 254.394 15.3725V14.6813C254.394 14.2789 254.149 14.0601 253.664 14.0339H242.027C241.511 14.0339 241.24 14.362 241.209 15.0182V16.0244L241.214 16.02ZM250.632 19.2441V17.4461H246.323V19.2441H250.632ZM246.323 22.7176H250.632V20.644H246.323V22.7176Z" fill="#3E3A39"/>
<path d="M261.849 29.9138V18.5309H260.361C259.731 18.5309 259.421 18.251 259.421 17.6954C259.421 17.1398 259.736 16.8598 260.361 16.8598H261.849V12.7783C261.849 12.1658 262.12 11.8596 262.667 11.8596C263.214 11.8596 263.502 12.1658 263.502 12.7783V16.8598H264.758C265.401 16.8598 265.72 17.1398 265.72 17.6954C265.72 18.251 265.401 18.5309 264.758 18.5309H263.502V29.9138C263.502 30.5262 263.222 30.8324 262.667 30.8324C262.111 30.8324 261.849 30.5262 261.849 29.9138ZM266.849 29.8919C266.849 29.625 266.928 29.4194 267.081 29.2751C267.234 29.1307 267.448 29.0563 267.728 29.0563C268.244 29.0563 268.581 28.8945 268.734 28.5751C269.028 27.9758 269.172 26.7946 269.172 25.0404C269.172 24.8435 269.133 24.7079 269.058 24.6336C268.979 24.5592 268.844 24.5198 268.651 24.5198H267.645C267.492 26.3178 267.068 27.7833 266.368 28.9163C265.642 30.0887 264.994 30.6749 264.421 30.6749C263.918 30.6749 263.669 30.3906 263.669 29.8175C263.669 29.5682 263.865 29.2663 264.255 28.9163C265.344 27.897 265.957 26.4315 266.097 24.5198H264.675C264.425 24.5198 264.233 24.4586 264.097 24.3317C263.966 24.2048 263.896 24.0167 263.896 23.7674C263.896 23.518 263.962 23.3299 264.097 23.2031C264.229 23.0762 264.421 23.0149 264.675 23.0149H266.18L266.241 21.8863C266.254 21.4969 266.508 21.3001 266.993 21.3001C267.51 21.3001 267.768 21.5932 267.768 22.1794L267.746 23.0149H269.084C270.2 23.0149 270.76 23.4612 270.76 24.3536C270.76 25.6791 270.703 26.7553 270.594 27.5777C270.48 28.4001 270.292 29.0651 270.029 29.5638C269.609 30.3468 268.831 30.7362 267.685 30.7362C267.125 30.7362 266.849 30.4562 266.849 29.9006V29.8919ZM265.007 20.1802C265.007 19.804 265.3 19.5109 265.887 19.3009C266.976 18.9247 267.825 18.4566 268.441 17.8966C269.084 17.3235 269.553 16.5798 269.846 15.6568H266.582C265.952 15.6568 265.642 15.3899 265.642 14.8606C265.642 14.3313 265.957 14.0863 266.582 14.0863H270.099L270.161 12.6208C270.174 12.0477 270.462 11.7634 271.018 11.7634C271.574 11.7634 271.854 12.0477 271.854 12.6208L271.792 14.0863H275.686C276.928 14.0863 277.549 14.6288 277.549 15.718C277.549 16.5711 277.453 17.4548 277.256 18.3778C277.02 19.4934 276.609 20.1977 276.023 20.4908C275.34 20.8276 274.308 20.9632 272.925 20.9107C272.589 20.8976 272.344 20.8276 272.182 20.7008C272.02 20.5739 271.941 20.3727 271.941 20.0927C271.941 19.8127 272.029 19.5983 272.204 19.4452C272.379 19.2921 272.624 19.2221 272.947 19.2353L273.805 19.2571C274.741 19.2702 275.305 18.894 275.502 18.1285C275.681 17.4023 275.773 16.768 275.773 16.2255C275.773 15.8493 275.528 15.6612 275.043 15.6612H271.547C271.381 16.4705 270.974 17.341 270.336 18.2772C269.846 18.9596 269.071 19.6027 268.013 20.202C266.993 20.7751 266.276 21.0595 265.856 21.0595C265.296 21.0595 265.02 20.7664 265.02 20.1802H265.007ZM274.185 30.5306C274.041 30.4125 273.967 30.22 273.967 29.9531C273.967 29.6863 274.058 29.4807 274.251 29.3363C274.439 29.1919 274.658 29.1307 274.911 29.1569C274.995 29.1701 275.113 29.1788 275.266 29.1788C275.712 29.1788 276.027 29.0913 276.206 28.9163C276.386 28.7414 276.499 28.4658 276.543 28.0895C276.696 26.8603 276.775 25.8366 276.775 25.0142C276.775 24.6773 276.578 24.5111 276.189 24.5111H274.933C274.793 26.1997 274.36 27.6564 273.634 28.8857C272.938 30.0844 272.282 30.6837 271.665 30.6837C271.399 30.6837 271.197 30.6093 271.057 30.465C270.917 30.3162 270.847 30.1106 270.847 29.8481C270.847 29.5988 270.992 29.3451 271.285 29.0957C271.897 28.5795 272.387 27.932 272.75 27.1577C273.113 26.3834 273.328 25.4997 273.398 24.5111H272.12C271.884 24.5111 271.696 24.4455 271.556 24.3142C271.416 24.183 271.346 23.9949 271.346 23.7586C271.346 23.5224 271.416 23.3387 271.556 23.2031C271.696 23.0718 271.884 23.0062 272.12 23.0062H273.42L273.442 22.0219C273.455 21.7725 273.538 21.5844 273.682 21.4663C273.827 21.3482 274.006 21.287 274.216 21.287C274.776 21.287 275.051 21.5888 275.051 22.1881L275.008 23.0062H276.705C277.807 23.0062 278.359 23.4524 278.359 24.3448C278.359 25.9372 278.227 27.3983 277.961 28.7414C277.851 29.3276 277.676 29.765 277.436 30.0494C277.199 30.3337 276.88 30.5262 276.482 30.6268C276.084 30.7231 275.537 30.7581 274.837 30.7318C274.544 30.7187 274.325 30.6531 274.177 30.535L274.185 30.5306Z" fill="#3E3A39"/>
<path d="M280.87 16.8117C280.87 16.6323 280.94 16.4705 281.08 16.3305C281.22 16.1905 281.43 16.0855 281.71 16.0155C284.68 15.2062 287.174 13.9857 289.182 12.3539C289.475 12.1177 289.724 11.9427 289.925 11.829C290.126 11.7196 290.31 11.6628 290.481 11.6628C290.717 11.6628 290.931 11.7284 291.119 11.8596C291.308 11.9908 291.404 12.1483 291.404 12.3321C291.404 12.4721 291.356 12.5989 291.259 12.7083L291.574 12.9183C292.34 13.4345 293.464 13.9769 294.943 14.55C296.575 15.18 297.856 15.5693 298.793 15.7224C299.602 15.8493 300.004 16.1293 300.004 16.558C300.004 17.2273 299.72 17.5641 299.147 17.5641C298.478 17.5641 297.248 17.1967 295.464 16.453L295.402 16.4311C295.415 16.7373 295.359 16.9561 295.236 17.0786C295.114 17.2011 294.917 17.2667 294.65 17.2667H286.194C285.691 17.2667 285.441 17.0436 285.441 16.5973L285.463 16.4311C283.455 17.3542 282.204 17.8135 281.718 17.8135C281.158 17.8135 280.883 17.4767 280.883 16.8073L280.87 16.8117ZM282.816 22.84C282.55 22.5731 282.427 22.1575 282.44 21.5844V19.804C282.44 19.2046 282.571 18.7715 282.838 18.5047C283.105 18.2378 283.521 18.1197 284.094 18.1503H296.754C297.353 18.1503 297.786 18.2772 298.053 18.5353C298.32 18.7934 298.438 19.2134 298.408 19.7996V21.5801C298.408 22.1663 298.281 22.595 298.023 22.8662C297.765 23.1374 297.345 23.2599 296.758 23.2337H284.098C283.512 23.2337 283.088 23.1024 282.821 22.8356L282.816 22.84ZM283.726 29.8831C283.455 29.6119 283.333 29.1832 283.359 28.597V25.771C283.359 25.1717 283.494 24.7298 283.766 24.4542C284.037 24.1742 284.474 24.043 285.074 24.0561H295.77C296.382 24.0561 296.828 24.1961 297.108 24.4761C297.388 24.7561 297.511 25.1891 297.485 25.7754V28.6014C297.485 29.2007 297.349 29.6425 297.078 29.9181C296.807 30.1981 296.369 30.3206 295.77 30.2944H285.074C284.444 30.2944 283.998 30.1587 283.722 29.8875L283.726 29.8831ZM289.597 19.4496H284.68C284.247 19.4496 284.033 19.6727 284.033 20.1189V21.2695C284.033 21.6894 284.247 21.9125 284.68 21.9388H289.597V19.4496ZM295.835 25.9985C295.835 25.7885 295.778 25.631 295.669 25.526C295.555 25.421 295.402 25.3641 295.21 25.3466H285.669C285.279 25.3466 285.069 25.561 285.043 25.9941V26.5803H295.84V25.9941L295.835 25.9985ZM295.656 28.8639C295.761 28.7545 295.822 28.597 295.835 28.4045V27.7133H285.039V28.4045C285.039 28.7939 285.249 29.0038 285.664 29.0301H295.205C295.402 29.0301 295.551 28.9732 295.656 28.8639ZM286.356 21.2039C286.062 20.7839 285.918 20.4777 285.918 20.2852C285.918 19.9352 286.128 19.7602 286.548 19.7602C286.797 19.7602 287.051 19.9396 287.3 20.3027C287.55 20.6526 287.677 20.8976 287.677 21.0332C287.677 21.4401 287.445 21.6413 286.985 21.6413C286.775 21.6413 286.565 21.497 286.36 21.2039H286.356ZM290.205 13.627C289.186 14.41 287.939 15.1756 286.46 15.928H294.33C292.725 15.2018 291.351 14.4363 290.21 13.627H290.205ZM296.82 21.2651V20.1146C296.82 19.6815 296.597 19.4584 296.15 19.4452H291.085V21.9344H296.15C296.57 21.9344 296.793 21.7113 296.82 21.2651ZM293.009 21.1382C293.009 20.8714 293.136 20.5652 293.386 20.2152C293.622 19.8783 293.858 19.7121 294.099 19.7121C294.571 19.7121 294.812 19.8915 294.812 20.2546C294.812 20.5214 294.702 20.8145 294.479 21.1339C294.23 21.497 293.963 21.6763 293.683 21.6763C293.237 21.6763 293.014 21.497 293.014 21.1339L293.009 21.1382Z" fill="#3E3A39"/>
<path d="M72.2647 45.1812H68.765V38.4355H69.5568V44.4682H72.2691V45.1812H72.2647Z" fill="#3E3A39"/>
<path d="M78.1005 45.295C77.3874 45.295 76.8187 45.0719 76.3944 44.6214C75.97 44.1708 75.7557 43.5758 75.7557 42.8321C75.7557 42.0228 75.9788 41.3929 76.4206 40.9379C76.8625 40.4829 77.4618 40.2555 78.2142 40.2555C78.9667 40.2555 79.4916 40.4786 79.8941 40.9204C80.2966 41.3622 80.4978 41.9747 80.4978 42.7578C80.4978 43.5408 80.2791 44.1401 79.846 44.6039C79.4129 45.0676 78.8311 45.2994 78.0961 45.2994L78.1005 45.295ZM78.1574 40.9029C77.663 40.9029 77.2693 41.0735 76.9806 41.4104C76.6919 41.7472 76.5475 42.2109 76.5475 42.8059C76.5475 43.4008 76.6918 43.8252 76.985 44.1576C77.2781 44.4857 77.6674 44.652 78.1574 44.652C78.6473 44.652 79.041 44.4901 79.3079 44.1664C79.5747 43.8427 79.7104 43.3833 79.7104 42.7884C79.7104 42.1934 79.5747 41.721 79.3079 41.3972C79.041 41.0691 78.6561 40.9073 78.1574 40.9073V40.9029Z" fill="#3E3A39"/>
<path d="M88.4115 40.3648L86.4911 45.1813H85.7343L83.91 40.3648H84.7587L85.9836 43.8645C86.0755 44.1226 86.1324 44.3457 86.1542 44.5382H86.1717C86.2023 44.2976 86.2548 44.0789 86.3205 43.882L87.6022 40.3648H88.4159H88.4115Z" fill="#3E3A39"/>
<path d="M96.0015 42.9676H92.598C92.6112 43.5057 92.7555 43.9169 93.0311 44.21C93.3067 44.5031 93.6873 44.6475 94.1685 44.6475C94.711 44.6475 95.2097 44.4681 95.6647 44.1094V44.8356C95.2403 45.1418 94.6804 45.2949 93.9848 45.2949C93.2892 45.2949 92.7687 45.0762 92.3793 44.6387C91.99 44.2013 91.7975 43.5845 91.7975 42.7926C91.7975 42.0446 92.0118 41.4321 92.4362 40.9597C92.8605 40.4872 93.3899 40.251 94.0198 40.251C94.6498 40.251 95.1397 40.4566 95.4809 40.8634C95.8265 41.2703 95.9971 41.839 95.9971 42.5608V42.9633L96.0015 42.9676ZM95.2097 42.3158C95.2097 41.8696 95.1003 41.524 94.886 41.2746C94.676 41.0253 94.3785 40.9028 94.0023 40.9028C93.6261 40.9028 93.3286 41.034 93.0749 41.2921C92.8212 41.5546 92.6637 41.8915 92.6024 42.3114H95.2053L95.2097 42.3158Z" fill="#3E3A39"/>
<path d="M107.139 38.4355V39.1136H106.479V44.5032H107.139V45.1812H105.031V44.5032H105.687V39.1136H105.031V38.4355H107.139Z" fill="#3E3A39"/>
<path d="M115.04 45.1813H114.27V42.434C114.27 41.4104 113.898 40.8985 113.15 40.8985C112.765 40.8985 112.446 41.0429 112.192 41.3316C111.938 41.6203 111.811 41.9878 111.811 42.4297V45.1769H111.042V40.3604H111.811V41.161H111.829C112.192 40.5529 112.721 40.2467 113.408 40.2467C113.938 40.2467 114.34 40.4173 114.616 40.7585C114.896 41.0998 115.036 41.5897 115.036 42.2328V45.1769L115.04 45.1813Z" fill="#3E3A39"/>
<path d="M121.768 38.7287C121.619 38.6456 121.449 38.6018 121.256 38.6018C120.718 38.6018 120.447 38.943 120.447 39.6211V40.3648H121.576V41.0254H120.447V45.1857H119.681V41.0254H118.859V40.3648H119.681V39.5817C119.681 39.0787 119.826 38.6762 120.119 38.3831C120.412 38.09 120.775 37.9413 121.213 37.9413C121.449 37.9413 121.633 37.9675 121.773 38.0244V38.7199L121.768 38.7287Z" fill="#3E3A39"/>
<path d="M125.688 39.14C125.548 39.14 125.434 39.0919 125.334 39C125.237 38.9038 125.189 38.7856 125.189 38.6413C125.189 38.4969 125.237 38.3788 125.334 38.2826C125.43 38.1863 125.548 38.1382 125.688 38.1382C125.828 38.1382 125.95 38.1863 126.047 38.2826C126.147 38.3788 126.195 38.4969 126.195 38.6413C126.195 38.7856 126.147 38.895 126.047 38.9956C125.946 39.0919 125.828 39.14 125.688 39.14ZM126.064 45.1814H125.294V40.3649H126.064V45.1814Z" fill="#3E3A39"/>
<path d="M134.516 45.1813H133.746V42.434C133.746 41.4104 133.374 40.8985 132.626 40.8985C132.241 40.8985 131.922 41.0429 131.668 41.3316C131.414 41.6203 131.287 41.9878 131.287 42.4297V45.1769H130.517V40.3604H131.287V41.161H131.305C131.668 40.5529 132.197 40.2467 132.884 40.2467C133.413 40.2467 133.816 40.4173 134.092 40.7585C134.372 41.0998 134.512 41.5897 134.512 42.2328V45.1769L134.516 45.1813Z" fill="#3E3A39"/>
<path d="M139.254 39.14C139.114 39.14 139 39.0919 138.899 39C138.803 38.9038 138.755 38.7856 138.755 38.6413C138.755 38.4969 138.803 38.3788 138.899 38.2826C138.996 38.1863 139.114 38.1382 139.254 38.1382C139.394 38.1382 139.516 38.1863 139.612 38.2826C139.713 38.3788 139.761 38.4969 139.761 38.6413C139.761 38.7856 139.713 38.895 139.612 38.9956C139.512 39.0919 139.394 39.14 139.254 39.14ZM139.63 45.1814H138.86V40.3649H139.63V45.1814Z" fill="#3E3A39"/>
<path d="M146.319 45.1331C146.135 45.2337 145.899 45.2818 145.597 45.2818C144.753 45.2818 144.333 44.8093 144.333 43.8688V41.0165H143.506V40.356H144.333V39.1792L145.103 38.9298V40.356H146.314V41.0165H145.103V43.7332C145.103 44.0569 145.155 44.2888 145.269 44.4244C145.378 44.5644 145.562 44.63 145.816 44.63C146.008 44.63 146.179 44.5775 146.319 44.4681V45.1287V45.1331Z" fill="#3E3A39"/>
<path d="M154.11 42.9676H150.706C150.72 43.5057 150.864 43.9169 151.14 44.21C151.415 44.5031 151.796 44.6475 152.277 44.6475C152.819 44.6475 153.318 44.4681 153.773 44.1094V44.8356C153.349 45.1418 152.789 45.2949 152.093 45.2949C151.398 45.2949 150.877 45.0762 150.488 44.6387C150.098 44.2013 149.906 43.5845 149.906 42.7926C149.906 42.0446 150.12 41.4321 150.545 40.9597C150.969 40.4872 151.498 40.251 152.128 40.251C152.758 40.251 153.248 40.4566 153.589 40.8634C153.935 41.2703 154.106 41.839 154.106 42.5608V42.9633L154.11 42.9676ZM153.318 42.3158C153.318 41.8696 153.209 41.524 152.994 41.2746C152.784 41.0253 152.487 40.9028 152.111 40.9028C151.735 40.9028 151.437 41.034 151.183 41.2921C150.93 41.5546 150.772 41.8915 150.711 42.3114H153.314L153.318 42.3158Z" fill="#3E3A39"/>
<path d="M171.797 38.4355L169.889 45.1812H168.962L167.575 40.251C167.514 40.041 167.479 39.8136 167.466 39.5642H167.448C167.431 39.7961 167.387 40.0235 167.326 40.2423L165.93 45.1812H165.012L163.034 38.4355H163.905L165.34 43.6107C165.401 43.8251 165.436 44.0526 165.453 44.2888H165.475C165.493 44.1226 165.541 43.8951 165.62 43.6107L167.111 38.4355H167.868L169.299 43.6501C169.347 43.8295 169.386 44.0395 169.412 44.2801H169.43C169.443 44.1182 169.482 43.8995 169.557 43.6326L170.935 38.4399H171.792L171.797 38.4355Z" fill="#3E3A39"/>
<path d="M179.461 42.9676H176.058C176.071 43.5057 176.215 43.9169 176.491 44.21C176.766 44.5031 177.147 44.6475 177.628 44.6475C178.17 44.6475 178.669 44.4681 179.124 44.1094V44.8356C178.7 45.1418 178.14 45.2949 177.444 45.2949C176.749 45.2949 176.228 45.0762 175.839 44.6387C175.449 44.2013 175.257 43.5845 175.257 42.7926C175.257 42.0446 175.471 41.4321 175.896 40.9597C176.32 40.4872 176.849 40.251 177.479 40.251C178.109 40.251 178.599 40.4566 178.94 40.8634C179.286 41.2703 179.457 41.839 179.457 42.5608V42.9633L179.461 42.9676ZM178.669 42.3158C178.669 41.8696 178.56 41.524 178.345 41.2746C178.135 41.0253 177.838 40.9028 177.462 40.9028C177.086 40.9028 176.788 41.034 176.534 41.2921C176.281 41.5546 176.123 41.8915 176.062 42.3114H178.665L178.669 42.3158Z" fill="#3E3A39"/>
<path d="M184.291 45.1813H183.521V38.0506H184.291V45.1813Z" fill="#3E3A39"/>
<path d="M191.119 38.7287C190.971 38.6456 190.8 38.6018 190.608 38.6018C190.069 38.6018 189.798 38.943 189.798 39.6211V40.3648H190.927V41.0254H189.798V45.1857H189.033V41.0254H188.21V40.3648H189.033V39.5817C189.033 39.0787 189.177 38.6762 189.47 38.3831C189.763 38.09 190.126 37.9413 190.564 37.9413C190.8 37.9413 190.984 37.9675 191.124 38.0244V38.7199L191.119 38.7287Z" fill="#3E3A39"/>
<path d="M198.097 45.1813H197.327V44.4289H197.31C196.973 45.0063 196.478 45.295 195.827 45.295C195.345 45.295 194.969 45.1682 194.698 44.9145C194.427 44.6607 194.291 44.3239 194.291 43.9039C194.291 43.0027 194.82 42.4821 195.879 42.3334L197.323 42.1322C197.323 41.3141 196.99 40.9029 196.33 40.9029C195.748 40.9029 195.227 41.0998 194.759 41.4979V40.706C195.232 40.4042 195.778 40.2555 196.395 40.2555C197.528 40.2555 198.093 40.8548 198.093 42.0534V45.1857L198.097 45.1813ZM197.327 42.7446L196.163 42.9065C195.805 42.9546 195.538 43.0465 195.354 43.1733C195.17 43.3002 195.083 43.5277 195.083 43.847C195.083 44.0833 195.166 44.2758 195.337 44.4245C195.503 44.5732 195.726 44.6476 196.006 44.6476C196.387 44.6476 196.706 44.512 196.955 44.2451C197.205 43.9783 197.327 43.6371 197.327 43.2258V42.7446Z" fill="#3E3A39"/>
<path d="M204.952 41.1434C204.816 41.0384 204.624 40.9903 204.37 40.9903C204.042 40.9903 203.767 41.1434 203.543 41.454C203.325 41.7646 203.211 42.189 203.211 42.7227V45.1768H202.441V40.3604H203.211V41.3534H203.228C203.338 41.0166 203.504 40.7497 203.732 40.5616C203.959 40.3735 204.208 40.2772 204.488 40.2772C204.69 40.2772 204.843 40.2991 204.948 40.3429V41.1434H204.952Z" fill="#3E3A39"/>
<path d="M212.551 42.9676H209.147C209.16 43.5057 209.305 43.9169 209.58 44.21C209.856 44.5031 210.237 44.6475 210.718 44.6475C211.26 44.6475 211.759 44.4681 212.214 44.1094V44.8356C211.79 45.1418 211.23 45.2949 210.534 45.2949C209.839 45.2949 209.318 45.0762 208.929 44.6387C208.539 44.2013 208.347 43.5845 208.347 42.7926C208.347 42.0446 208.561 41.4321 208.985 40.9597C209.41 40.4872 209.939 40.251 210.569 40.251C211.199 40.251 211.689 40.4566 212.03 40.8634C212.376 41.2703 212.546 41.839 212.546 42.5608V42.9633L212.551 42.9676ZM211.759 42.3158C211.759 41.8696 211.65 41.524 211.435 41.2746C211.225 41.0253 210.928 40.9028 210.552 40.9028C210.175 40.9028 209.878 41.034 209.624 41.2921C209.37 41.5546 209.213 41.8915 209.152 42.3114H211.755L211.759 42.3158Z" fill="#3E3A39"/>
<path d="M227.464 45.1812H226.589L225.876 43.2914H223.015L222.341 45.1812H221.462L224.047 38.4355H224.865L227.464 45.1812ZM225.614 42.5783L224.555 39.7042C224.52 39.6123 224.485 39.4592 224.45 39.2536H224.432C224.402 39.4461 224.367 39.5948 224.323 39.7042L223.273 42.5783H225.609H225.614Z" fill="#3E3A39"/>
<path d="M230.951 45.0062V44.1794C231.371 44.49 231.834 44.6431 232.337 44.6431C233.015 44.6431 233.352 44.4156 233.352 43.965C233.352 43.8382 233.322 43.7288 233.265 43.637C233.208 43.5495 233.129 43.4663 233.029 43.4007C232.928 43.3307 232.814 43.2695 232.679 43.217C232.543 43.1645 232.403 43.1032 232.25 43.0464C232.035 42.9633 231.847 42.8758 231.685 42.7883C231.524 42.7008 231.388 42.6045 231.283 42.4952C231.174 42.3858 231.095 42.2633 231.038 42.1277C230.981 41.9877 230.955 41.8302 230.955 41.6421C230.955 41.4146 231.007 41.2178 231.112 41.0428C231.217 40.8678 231.353 40.7234 231.528 40.6053C231.699 40.4872 231.895 40.3997 232.119 40.3385C232.337 40.2772 232.569 40.251 232.801 40.251C233.217 40.251 233.593 40.3253 233.921 40.4653V41.2484C233.567 41.0165 233.16 40.8984 232.696 40.8984C232.552 40.8984 232.42 40.9159 232.307 40.9465C232.189 40.9815 232.092 41.0253 232.009 41.0865C231.926 41.1478 231.86 41.2178 231.817 41.3009C231.773 41.384 231.747 41.4759 231.747 41.5765C231.747 41.7034 231.769 41.8083 231.817 41.8915C231.86 41.9746 231.93 42.0533 232.018 42.1189C232.105 42.1846 232.21 42.2458 232.337 42.2983C232.464 42.3508 232.604 42.4077 232.766 42.4733C232.98 42.5564 233.169 42.6395 233.339 42.727C233.51 42.8145 233.654 42.9108 233.772 43.0201C233.89 43.1295 233.982 43.252 234.048 43.392C234.113 43.532 234.144 43.7026 234.144 43.8951C234.144 44.1313 234.092 44.3413 233.987 44.5163C233.882 44.6912 233.742 44.84 233.567 44.9537C233.392 45.0675 233.19 45.155 232.959 45.2118C232.731 45.2687 232.49 45.2949 232.237 45.2949C231.742 45.2949 231.309 45.1987 230.946 45.0062H230.951Z" fill="#3E3A39"/>
<path d="M237.932 45.0062V44.1794C238.352 44.49 238.816 44.6431 239.319 44.6431C239.997 44.6431 240.334 44.4156 240.334 43.965C240.334 43.8382 240.304 43.7288 240.247 43.637C240.19 43.5495 240.111 43.4663 240.01 43.4007C239.91 43.3307 239.796 43.2695 239.66 43.217C239.525 43.1645 239.385 43.1032 239.232 43.0464C239.017 42.9633 238.829 42.8758 238.667 42.7883C238.506 42.7008 238.37 42.6045 238.265 42.4952C238.156 42.3858 238.077 42.2633 238.02 42.1277C237.963 41.9877 237.937 41.8302 237.937 41.6421C237.937 41.4146 237.989 41.2178 238.094 41.0428C238.199 40.8678 238.335 40.7234 238.51 40.6053C238.681 40.4872 238.877 40.3997 239.101 40.3385C239.319 40.2772 239.551 40.251 239.783 40.251C240.199 40.251 240.575 40.3253 240.903 40.4653V41.2484C240.549 41.0165 240.142 40.8984 239.678 40.8984C239.534 40.8984 239.402 40.9159 239.289 40.9465C239.17 40.9815 239.074 41.0253 238.991 41.0865C238.908 41.1478 238.842 41.2178 238.799 41.3009C238.755 41.384 238.729 41.4759 238.729 41.5765C238.729 41.7034 238.751 41.8083 238.799 41.8915C238.842 41.9746 238.912 42.0533 239 42.1189C239.087 42.1846 239.192 42.2458 239.319 42.2983C239.446 42.3508 239.586 42.4077 239.748 42.4733C239.962 42.5564 240.15 42.6395 240.321 42.727C240.492 42.8145 240.636 42.9108 240.754 43.0201C240.872 43.1295 240.964 43.252 241.03 43.392C241.095 43.532 241.126 43.7026 241.126 43.8951C241.126 44.1313 241.073 44.3413 240.968 44.5163C240.863 44.6912 240.723 44.84 240.549 44.9537C240.374 45.0718 240.172 45.155 239.94 45.2118C239.713 45.2687 239.472 45.2949 239.219 45.2949C238.724 45.2949 238.291 45.1987 237.928 45.0062H237.932Z" fill="#3E3A39"/>
<path d="M247.216 45.295C246.502 45.295 245.934 45.0719 245.509 44.6214C245.085 44.1708 244.871 43.5758 244.871 42.8321C244.871 42.0228 245.094 41.3929 245.536 40.9379C245.978 40.4829 246.577 40.2555 247.329 40.2555C248.082 40.2555 248.607 40.4786 249.009 40.9204C249.412 41.3622 249.613 41.9747 249.613 42.7578C249.613 43.5408 249.394 44.1401 248.961 44.6039C248.528 45.0676 247.946 45.2994 247.211 45.2994L247.216 45.295ZM247.272 40.9029C246.778 40.9029 246.384 41.0735 246.096 41.4104C245.807 41.7472 245.663 42.2109 245.663 42.8059C245.663 43.4008 245.807 43.8252 246.1 44.1576C246.393 44.4857 246.782 44.652 247.272 44.652C247.762 44.652 248.156 44.4901 248.423 44.1664C248.69 43.8427 248.825 43.3833 248.825 42.7884C248.825 42.1934 248.69 41.721 248.423 41.3972C248.156 41.0735 247.771 40.9073 247.272 40.9073V40.9029Z" fill="#3E3A39"/>
<path d="M257.023 44.9626C256.652 45.1857 256.214 45.295 255.707 45.295C255.02 45.295 254.464 45.0719 254.044 44.6257C253.624 44.1795 253.41 43.5977 253.41 42.889C253.41 42.0972 253.638 41.4585 254.092 40.9773C254.547 40.4961 255.156 40.2555 255.912 40.2555C256.337 40.2555 256.709 40.3342 257.032 40.4917V41.2835C256.674 41.0341 256.293 40.9073 255.886 40.9073C255.392 40.9073 254.989 41.0823 254.674 41.4366C254.359 41.791 254.202 42.2547 254.202 42.8277C254.202 43.4008 254.351 43.8383 254.648 44.162C254.946 44.4901 255.344 44.652 255.842 44.652C256.262 44.652 256.656 44.512 257.028 44.232V44.9669L257.023 44.9626Z" fill="#3E3A39"/>
<path d="M261.472 39.14C261.332 39.14 261.219 39.0919 261.118 39C261.022 38.9038 260.974 38.7856 260.974 38.6413C260.974 38.4969 261.022 38.3788 261.118 38.2826C261.214 38.1863 261.332 38.1382 261.472 38.1382C261.612 38.1382 261.735 38.1863 261.831 38.2826C261.932 38.3788 261.98 38.4969 261.98 38.6413C261.98 38.7856 261.932 38.895 261.831 38.9956C261.731 39.0919 261.612 39.14 261.472 39.14ZM261.849 45.1814H261.079V40.3649H261.849V45.1814Z" fill="#3E3A39"/>
<path d="M269.749 45.1813H268.979V44.4289H268.962C268.625 45.0063 268.131 45.295 267.479 45.295C266.998 45.295 266.621 45.1682 266.35 44.9145C266.079 44.6607 265.943 44.3239 265.943 43.9039C265.943 43.0027 266.473 42.4821 267.531 42.3334L268.975 42.1322C268.975 41.3141 268.643 40.9029 267.982 40.9029C267.4 40.9029 266.88 41.0998 266.411 41.4979V40.706C266.884 40.4042 267.431 40.2555 268.048 40.2555C269.181 40.2555 269.745 40.8548 269.745 42.0534V45.1857L269.749 45.1813ZM268.979 42.7446L267.816 42.9065C267.457 42.9546 267.19 43.0465 267.006 43.1733C266.823 43.3002 266.735 43.5277 266.735 43.847C266.735 44.0833 266.818 44.2758 266.989 44.4245C267.155 44.5732 267.378 44.6476 267.658 44.6476C268.039 44.6476 268.358 44.512 268.608 44.2451C268.857 43.9783 268.979 43.6371 268.979 43.2258V42.7446Z" fill="#3E3A39"/>
<path d="M276.329 45.1331C276.145 45.2337 275.909 45.2818 275.607 45.2818C274.763 45.2818 274.343 44.8093 274.343 43.8688V41.0165H273.516V40.356H274.343V39.1792L275.113 38.9298V40.356H276.324V41.0165H275.113V43.7332C275.113 44.0569 275.165 44.2888 275.279 44.4244C275.388 44.5644 275.572 44.63 275.826 44.63C276.018 44.63 276.189 44.5775 276.329 44.4681V45.1287V45.1331Z" fill="#3E3A39"/>
<path d="M280.647 39.14C280.507 39.14 280.393 39.0919 280.292 39C280.196 38.9038 280.148 38.7856 280.148 38.6413C280.148 38.4969 280.196 38.3788 280.292 38.2826C280.388 38.1863 280.507 38.1382 280.647 38.1382C280.787 38.1382 280.909 38.1863 281.005 38.2826C281.106 38.3788 281.154 38.4969 281.154 38.6413C281.154 38.7856 281.106 38.895 281.005 38.9956C280.905 39.0919 280.787 39.14 280.647 39.14ZM281.023 45.1814H280.253V40.3649H281.023V45.1814Z" fill="#3E3A39"/>
<path d="M287.488 45.295C286.775 45.295 286.207 45.0719 285.782 44.6214C285.358 44.1708 285.144 43.5758 285.144 42.8321C285.144 42.0228 285.367 41.3929 285.809 40.9379C286.25 40.4829 286.85 40.2555 287.602 40.2555C288.355 40.2555 288.88 40.4786 289.282 40.9204C289.685 41.3622 289.886 41.9747 289.886 42.7578C289.886 43.5408 289.667 44.1401 289.234 44.6039C288.801 45.0676 288.219 45.2994 287.484 45.2994L287.488 45.295ZM287.545 40.9029C287.051 40.9029 286.657 41.0735 286.369 41.4104C286.08 41.7472 285.935 42.2109 285.935 42.8059C285.935 43.4008 286.08 43.8252 286.373 44.1576C286.666 44.4857 287.055 44.652 287.545 44.652C288.035 44.652 288.429 44.4901 288.696 44.1664C288.963 43.8427 289.098 43.3833 289.098 42.7884C289.098 42.1934 288.963 41.721 288.696 41.3972C288.429 41.0691 288.044 40.9073 287.545 40.9073V40.9029Z" fill="#3E3A39"/>
<path d="M298.01 45.1813H297.24V42.434C297.24 41.4104 296.868 40.8985 296.12 40.8985C295.735 40.8985 295.415 41.0429 295.162 41.3316C294.908 41.6203 294.781 41.9878 294.781 42.4297V45.1769H294.011V40.3604H294.781V41.161H294.799C295.162 40.5529 295.691 40.2467 296.378 40.2467C296.907 40.2467 297.31 40.4173 297.585 40.7585C297.865 41.0998 298.005 41.5897 298.005 42.2328V45.1769L298.01 45.1813Z" fill="#3E3A39"/>
</g>
<defs>
<linearGradient id="paint0_linear_18_2003" x1="28.9864" y1="55.0109" x2="28.5795" y2="-13.2424" gradientUnits="userSpaceOnUse">
<stop stop-color="#F8B41C"/>
<stop offset="0.44" stop-color="#E7275A"/>
</linearGradient>
<clipPath id="clip0_18_2003">
<rect width="300" height="54.2806" fill="white"/>
</clipPath>
</defs>
</svg>
