<?xml version="1.0" encoding="UTF-8"?>
<svg id="_圖層_1" xmlns="http://www.w3.org/2000/svg" version="1.1" viewBox="0 0 891 588.4">
  <!-- Generator: Adobe Illustrator 29.4.0, SVG Export Plug-In . SVG Version: 2.1.0 Build 152)  -->
  <defs>
    <style>
      .st0 {
        fill-rule: evenodd;
      }
    </style>
  </defs>
  <path class="st0" d="M185.1,553.1c-84-35-145-94.9-168.2-159.5-22.8-63.7,10.6-126.6,44.4-186.7,33.8-60.2,70.3-122.7,149.3-157.8C290.6,13.7,393,5.6,489.1,17.1c90.8,10.8,167.4,50,235.3,93.5,64.3,41.2,117.5,89.7,140.9,147,23.4,57.6,23.4,119.2-10.8,172.8-33.5,52.2-100.1,90-174.4,116.3-70.3,24.8-150.2,25.7-230.5,26.8-90.5,1.2-185.8,12.1-264.3-20.5v.2h-.2Z"/>
</svg>